<svg height="65" width="67.49" viewBox="0 0 67.489159 65.000001">
    <rect ry="0" height="65" width="67.49" fill="#fff" color="#000"/>
    <text font-size="9.67" y="56.826" x="20.24" font-family="sans-serif" word-spacing="0" letter-spacing="0">
        <tspan font-weight="900" font-size="11.25" y="56.826" x="20.24" font-family="'Source Code Pro'">edit</tspan>
    </text>
    <path d="M36.42 17.14l6.577 6.505a.698.698 0 0 1 0 .996l-16.08 15.91-6.761.739c-.907.1-1.671-.657-1.57-1.553l.753-6.693 16.08-15.9a.717.717 0 0 1 1.007 0zm11.66-1.5l-3.561-3.522a2.872 2.872 0 0 0-4.023 0l-2.732 2.702a.698.698 0 0 0 0 .996l6.577 6.505a.717.717 0 0 0 1.007 0l2.732-2.702a2.786 2.786 0 0 0 0-3.979z"/>
</svg>
