<?xml version="1.0" encoding="UTF-8" standalone="no"?>
<!-- Created with Inkscape (http://www.inkscape.org/) -->

<svg
   xmlns:dc="http://purl.org/dc/elements/1.1/"
   xmlns:cc="http://creativecommons.org/ns#"
   xmlns:rdf="http://www.w3.org/1999/02/22-rdf-syntax-ns#"
   xmlns:svg="http://www.w3.org/2000/svg"
   xmlns="http://www.w3.org/2000/svg"
   xmlns:sodipodi="http://sodipodi.sourceforge.net/DTD/sodipodi-0.dtd"
   xmlns:inkscape="http://www.inkscape.org/namespaces/inkscape"
   width="67.489159"
   height="65"
   viewBox="0 0 67.489159 65.000001"
   id="svg5612"
   version="1.1"
   inkscape:version="0.91 r13725"
   sodipodi:docname="button-gallery.svg">
  <defs
     id="defs5614" />
  <sodipodi:namedview
     id="base"
     pagecolor="#e9e9e9"
     bordercolor="#a9a9a9"
     borderopacity="1"
     inkscape:pageopacity="0"
     inkscape:pageshadow="2"
     inkscape:zoom="8.133125"
     inkscape:cx="44.115884"
     inkscape:cy="33.566433"
     inkscape:document-units="px"
     inkscape:current-layer="layer1"
     showgrid="false"
     units="px"
     fit-margin-top="0"
     fit-margin-left="0"
     fit-margin-right="0"
     fit-margin-bottom="0" />
  <metadata
     id="metadata5617">
    <rdf:RDF>
      <cc:Work
         rdf:about="">
        <dc:format>image/svg+xml</dc:format>
        <dc:type
           rdf:resource="http://purl.org/dc/dcmitype/StillImage" />
        <dc:title></dc:title>
      </cc:Work>
    </rdf:RDF>
  </metadata>
  <g
     inkscape:label="Layer 1"
     inkscape:groupmode="layer"
     id="layer1">
    <rect
       style="color:#000000;clip-rule:nonzero;display:inline;overflow:visible;visibility:visible;opacity:1;isolation:auto;mix-blend-mode:normal;color-interpolation:sRGB;color-interpolation-filters:linearRGB;solid-color:#000000;solid-opacity:1;fill:#ffffff;fill-opacity:1;fill-rule:nonzero;stroke:none;stroke-width:3;stroke-linecap:round;stroke-linejoin:round;stroke-miterlimit:4;stroke-dasharray:none;stroke-dashoffset:0;stroke-opacity:1;color-rendering:auto;image-rendering:auto;shape-rendering:auto;text-rendering:auto;enable-background:accumulate"
       id="rect8640-8-2-4-9-31"
       width="67.489159"
       height="65"
       x="1.5684815e-005"
       y="-4.6875002e-006"
       ry="0" />
    <text
       xml:space="preserve"
       style="font-style:normal;font-weight:normal;font-size:9.66967773px;line-height:125%;font-family:sans-serif;letter-spacing:0px;word-spacing:0px;display:inline;opacity:1;fill:#000000;fill-opacity:1;stroke:none;stroke-width:1px;stroke-linecap:butt;stroke-linejoin:miter;stroke-opacity:1"
       x="10.009028"
       y="56.82584"
       id="text6917-7-5"
       sodipodi:linespacing="125%"><tspan
         sodipodi:role="line"
         id="tspan6919-4-8"
         x="10.009028"
         y="56.82584"
         style="font-style:normal;font-variant:normal;font-weight:900;font-stretch:normal;font-size:11.25px;font-family:'Source Code Pro';-inkscape-font-specification:'Source Code Pro Heavy'">gallery</tspan></text>
    <path
       inkscape:connector-curvature="0"
       id="path6845"
       d="m 17.712494,41.208021 c -0.21751,-0.14619 -0.23072,-0.21548 -0.21705,-1.137 0.0122,-0.81602 0.0133,-0.82562 0.11966,-1.04007 0.16564,-0.33378 0.44082,-0.60631 0.77927,-0.77175 l 0.28959,-0.14156 15.04078,0 15.04078,0 0.2522,0.11819 c 0.43481,0.20377 0.71713,0.51266 0.87576,0.9582 0.0776,0.2181 0.0863,0.31321 0.0882,0.97597 0.004,0.82251 -0.0174,0.90356 -0.25838,1.05078 l -0.12917,0.0789 -15.87257,0 -15.87261,0 -0.13646,-0.0919 z m 1.90822,-4.85846 c 0,-0.84847 0.0319,-0.99724 0.26255,-1.22539 0.23743,-0.23486 0.37192,-0.26396 1.22013,-0.26396 l 0.68749,0 0,-6.4207 0,-6.42071 2.17016,0 2.17014,0 0,6.42071 0,6.4207 1.08508,0 1.08508,0 0,-6.4207 0,-6.42071 2.17016,0 2.17016,0 0,6.42071 0,6.4207 1.08508,0 1.08507,0 0,-6.4207 0,-6.42071 2.17013,0 2.17017,0 0,6.42071 0,6.4207 1.08508,0 1.08508,0 0,-6.4207 0,-6.42071 2.17016,0 2.17015,0 0,6.42071 0,6.4207 0.68747,0 c 0.76938,0 0.95445,0.0312 1.15558,0.19526 0.27501,0.22419 0.30354,0.33021 0.32015,1.18869 l 0.0148,0.76257 -14.10995,0 -14.10991,0 0,-0.65717 z m 0.46867,-15.518219 c -0.35603,-0.17549 -0.46867,-0.45245 -0.46867,-1.15247 l 0,-0.37145 -0.89835,0 c -0.84869,0 -0.90452,-0.004 -1.00951,-0.0783 -0.20661,-0.14555 -0.22422,-0.22548 -0.22422,-1.01795 l 0,-0.72338 0.14278,-0.13061 c 0.12454,-0.11389 1.15357,-0.50979 8.06194,-3.10163 6.73681,-2.5275 7.94188,-2.96876 8.07146,-2.95557 0.14251,0.0148 15.69848,5.82595 15.95751,5.96147 0.20876,0.10919 0.25344,0.23498 0.27294,0.76855 0.0103,0.26291 0.005,0.59432 -0.011,0.7365 -0.0256,0.23613 -0.0408,0.27065 -0.17782,0.39967 l -0.14992,0.14122 -0.91217,0 -0.91213,0 0,0.40605 c 0,0.67257 -0.11037,0.93284 -0.47387,1.11757 l -0.18832,0.0957 -13.44384,0 -13.44383,0 -0.19352,-0.0955 z"
       style="display:inline;opacity:1;fill:#000000" />
  </g>
</svg>
