<?xml version="1.0" encoding="UTF-8" standalone="no"?>
<!-- Created with Inkscape (http://www.inkscape.org/) -->

<svg
   xmlns:dc="http://purl.org/dc/elements/1.1/"
   xmlns:cc="http://creativecommons.org/ns#"
   xmlns:rdf="http://www.w3.org/1999/02/22-rdf-syntax-ns#"
   xmlns:svg="http://www.w3.org/2000/svg"
   xmlns="http://www.w3.org/2000/svg"
   xmlns:sodipodi="http://sodipodi.sourceforge.net/DTD/sodipodi-0.dtd"
   xmlns:inkscape="http://www.inkscape.org/namespaces/inkscape"
   width="67.437508"
   height="65"
   viewBox="0 0 67.437508 65.000001"
   id="svg8088"
   version="1.1"
   inkscape:version="0.91 r13725"
   sodipodi:docname="button-logout.svg">
  <defs
     id="defs8090" />
  <sodipodi:namedview
     id="base"
     pagecolor="#ebebeb"
     bordercolor="#666666"
     borderopacity="1.0"
     inkscape:pageopacity="1"
     inkscape:pageshadow="2"
     inkscape:zoom="5.5253345"
     inkscape:cx="32.127872"
     inkscape:cy="29.450549"
     inkscape:document-units="px"
     inkscape:current-layer="layer1"
     showgrid="false"
     units="px"
     fit-margin-top="0"
     fit-margin-left="0"
     fit-margin-right="0"
     fit-margin-bottom="0" />
  <metadata
     id="metadata8093">
    <rdf:RDF>
      <cc:Work
         rdf:about="">
        <dc:format>image/svg+xml</dc:format>
        <dc:type
           rdf:resource="http://purl.org/dc/dcmitype/StillImage" />
        <dc:title></dc:title>
      </cc:Work>
    </rdf:RDF>
  </metadata>
  <g
     inkscape:label="Layer 1"
     inkscape:groupmode="layer"
     id="layer1">
    <rect
       style="color:#000000;clip-rule:nonzero;display:inline;overflow:visible;visibility:visible;opacity:1;isolation:auto;mix-blend-mode:normal;color-interpolation:sRGB;color-interpolation-filters:linearRGB;solid-color:#000000;solid-opacity:1;fill:#ffffff;fill-opacity:1;fill-rule:nonzero;stroke:none;stroke-width:3;stroke-linecap:round;stroke-linejoin:round;stroke-miterlimit:4;stroke-dasharray:none;stroke-dashoffset:0;stroke-opacity:1;color-rendering:auto;image-rendering:auto;shape-rendering:auto;text-rendering:auto;enable-background:accumulate"
       id="rect8640-8-2-1"
       width="67.437508"
       height="65"
       x="-0.18418635"
       y="0"
       ry="7.7186708" />
    <path
       id="path6737"
       d="M 51.342565,25.24074 39.131962,37.318251 c -1.090203,1.078361 -2.9799,0.323505 -2.9799,-1.222127 l 0,-6.901463 -9.884766,0 c -0.966619,0 -1.744414,-0.769224 -1.744414,-1.72532 l 0,-6.901463 c 0,-0.956139 0.777795,-1.725363 1.744414,-1.725363 l 9.884766,0 0,-6.901412 c 0,-1.538448 1.88244,-2.3004874 2.9799,-1.222178 l 12.210603,12.077561 c 0.675907,0.675741 0.675907,1.768463 0,2.444254 z m -22.168011,11.718041 0,-2.875561 c 0,-0.474499 -0.392453,-0.862707 -0.872134,-0.862707 l -6.105301,0 c -1.286503,0 -2.325836,-1.028027 -2.325836,-2.300488 l 0,-13.802874 c 0,-1.272461 1.039333,-2.300487 2.325836,-2.300487 l 6.105301,0 c 0.479681,0 0.872134,-0.388208 0.872134,-0.862657 l 0,-2.875611 c 0,-0.474456 -0.392453,-0.862664 -0.872134,-0.862664 l -6.105301,0 c -3.852107,0 -6.977479,3.091265 -6.977479,6.901419 l 0,13.802874 c 0,3.810199 3.125372,6.901463 6.977479,6.901463 l 6.105301,0 c 0.479681,0 0.872134,-0.3882 0.872134,-0.862707 z"
       inkscape:connector-curvature="0" />
    <text
       xml:space="preserve"
       style="font-style:normal;font-weight:normal;font-size:9.66967773px;line-height:125%;font-family:sans-serif;letter-spacing:0px;word-spacing:0px;display:inline;opacity:1;fill:#000000;fill-opacity:1;stroke:none;stroke-width:1px;stroke-linecap:butt;stroke-linejoin:miter;stroke-opacity:1"
       x="8.6173258"
       y="52.644569"
       id="text6917-4-6"
       sodipodi:linespacing="125%"><tspan
         sodipodi:role="line"
         id="tspan6919-9-3"
         x="8.6173258"
         y="52.644569"
         style="font-style:normal;font-variant:normal;font-weight:900;font-stretch:normal;font-size:11.85503292px;font-family:'Source Code Pro';-inkscape-font-specification:'Source Code Pro Heavy'">log out</tspan></text>
  </g>
</svg>
