<?xml version="1.0" encoding="UTF-8" standalone="no"?>
<!-- Created with Inkscape (http://www.inkscape.org/) -->

<svg
   xmlns:dc="http://purl.org/dc/elements/1.1/"
   xmlns:cc="http://creativecommons.org/ns#"
   xmlns:rdf="http://www.w3.org/1999/02/22-rdf-syntax-ns#"
   xmlns:svg="http://www.w3.org/2000/svg"
   xmlns="http://www.w3.org/2000/svg"
   xmlns:sodipodi="http://sodipodi.sourceforge.net/DTD/sodipodi-0.dtd"
   xmlns:inkscape="http://www.inkscape.org/namespaces/inkscape"
   width="67.437508"
   height="65"
   viewBox="0 0 67.437508 65.000001"
   id="svg8088"
   version="1.1"
   inkscape:version="0.91 r13725"
   sodipodi:docname="button-login.svg">
  <defs
     id="defs8090" />
  <sodipodi:namedview
     id="base"
     pagecolor="#ebebeb"
     bordercolor="#666666"
     borderopacity="1.0"
     inkscape:pageopacity="1"
     inkscape:pageshadow="2"
     inkscape:zoom="0.56026119"
     inkscape:cx="50.000009"
     inkscape:cy="27.142845"
     inkscape:document-units="px"
     inkscape:current-layer="layer1"
     showgrid="false"
     units="px"
     fit-margin-top="0"
     fit-margin-left="0"
     fit-margin-right="0"
     fit-margin-bottom="0" />
  <metadata
     id="metadata8093">
    <rdf:RDF>
      <cc:Work
         rdf:about="">
        <dc:format>image/svg+xml</dc:format>
        <dc:type
           rdf:resource="http://purl.org/dc/dcmitype/StillImage" />
        <dc:title></dc:title>
      </cc:Work>
    </rdf:RDF>
  </metadata>
  <g
     inkscape:label="Layer 1"
     inkscape:groupmode="layer"
     id="layer1">
    <rect
       style="color:#000000;clip-rule:nonzero;display:inline;overflow:visible;visibility:visible;opacity:0;isolation:auto;mix-blend-mode:normal;color-interpolation:sRGB;color-interpolation-filters:linearRGB;solid-color:#000000;solid-opacity:1;fill:#ffffff;fill-opacity:1;fill-rule:nonzero;stroke:none;stroke-width:3;stroke-linecap:round;stroke-linejoin:round;stroke-miterlimit:4;stroke-dasharray:none;stroke-dashoffset:0;stroke-opacity:1;color-rendering:auto;image-rendering:auto;shape-rendering:auto;text-rendering:auto;enable-background:accumulate"
       id="rect8640-8-2-1-7"
       width="67.437508"
       height="65"
       x="0"
       y="0"
       ry="7.7186708" />
    <path
       id="path6748"
       d="m 45.347849,37.533166 -6.10527,0 c -0.4797,0 -0.87218,-0.3882 -0.87218,-0.86271 l 0,-2.87556 c 0,-0.4745 0.39248,-0.8627 0.87218,-0.8627 l 6.10527,0 c 1.28645,0 2.32583,-1.02803 2.32583,-2.30049 l 0,-13.80288 c 0,-1.27246 -1.03938,-2.30048 -2.32583,-2.30048 l -6.10527,0 c -0.4797,0 -0.87218,-0.38821 -0.87218,-0.86266 l 0,-2.87561 c 0,-0.47446 0.39248,-0.8626598 0.87218,-0.8626598 l 6.10527,0 c 3.85214,0 6.97745,3.0912598 6.97745,6.9014098 l 0,13.80288 c 0,3.8102 -3.12531,6.90146 -6.97745,6.90146 z m -3.41608,-14.44988 -12.21053,-12.07756 c -1.09024,-1.0783098 -2.97995,-0.3235 -2.97995,1.22213 l 0,6.90146 -9.88476,0 c -0.96667,0 -1.74436,0.76922 -1.74436,1.72536 l 0,6.90142 c 0,0.95614 0.77769,1.72537 1.74436,1.72537 l 9.88476,0 0,6.90146 c 0,1.54563 1.88971,2.30049 2.97995,1.22213 l 12.21053,-12.07751 c 0.67597,-0.6758 0.67597,-1.76852 0,-2.44426 z"
       inkscape:connector-curvature="0" />
    <text
       xml:space="preserve"
       style="font-style:normal;font-weight:normal;font-size:13.08236408px;line-height:125%;font-family:sans-serif;letter-spacing:0px;word-spacing:0px;display:inline;opacity:1;fill:#000000;fill-opacity:1;stroke:none;stroke-width:1px;stroke-linecap:butt;stroke-linejoin:miter;stroke-opacity:1"
       x="15.945435"
       y="54.319763"
       id="text6917-4-6-8"
       sodipodi:linespacing="125%"><tspan
         sodipodi:role="line"
         id="tspan6919-9-3-9"
         x="15.945435"
         y="54.319763"
         style="font-style:normal;font-variant:normal;font-weight:900;font-stretch:normal;font-size:11.85503292px;font-family:'Source Code Pro';-inkscape-font-specification:'Source Code Pro Heavy'">login</tspan></text>
  </g>
</svg>
