<?xml version="1.0" encoding="UTF-8" standalone="no"?>
<!-- Created with Inkscape (http://www.inkscape.org/) -->

<svg
   xmlns:dc="http://purl.org/dc/elements/1.1/"
   xmlns:cc="http://creativecommons.org/ns#"
   xmlns:rdf="http://www.w3.org/1999/02/22-rdf-syntax-ns#"
   xmlns:svg="http://www.w3.org/2000/svg"
   xmlns="http://www.w3.org/2000/svg"
   xmlns:sodipodi="http://sodipodi.sourceforge.net/DTD/sodipodi-0.dtd"
   xmlns:inkscape="http://www.inkscape.org/namespaces/inkscape"
   width="67.437508"
   height="65"
   viewBox="0 0 67.437508 65.000001"
   id="svg8088"
   version="1.1"
   inkscape:version="0.91 r13725"
   sodipodi:docname="button-settings.svg">
  <defs
     id="defs8090" />
  <sodipodi:namedview
     id="base"
     pagecolor="#ebebeb"
     bordercolor="#666666"
     borderopacity="1.0"
     inkscape:pageopacity="1"
     inkscape:pageshadow="2"
     inkscape:zoom="5.5253345"
     inkscape:cx="32.127872"
     inkscape:cy="24.167894"
     inkscape:document-units="px"
     inkscape:current-layer="layer1"
     showgrid="false"
     units="px"
     fit-margin-top="0"
     fit-margin-left="0"
     fit-margin-right="0"
     fit-margin-bottom="0" />
  <metadata
     id="metadata8093">
    <rdf:RDF>
      <cc:Work
         rdf:about="">
        <dc:format>image/svg+xml</dc:format>
        <dc:type
           rdf:resource="http://purl.org/dc/dcmitype/StillImage" />
        <dc:title></dc:title>
      </cc:Work>
    </rdf:RDF>
  </metadata>
  <g
     inkscape:label="Layer 1"
     inkscape:groupmode="layer"
     id="layer1">
    <rect
       style="color:#000000;clip-rule:nonzero;display:inline;overflow:visible;visibility:visible;opacity:1;isolation:auto;mix-blend-mode:normal;color-interpolation:sRGB;color-interpolation-filters:linearRGB;solid-color:#000000;solid-opacity:1;fill:#ffffff;fill-opacity:1;fill-rule:nonzero;stroke:none;stroke-width:3;stroke-linecap:round;stroke-linejoin:round;stroke-miterlimit:4;stroke-dasharray:none;stroke-dashoffset:0;stroke-opacity:1;color-rendering:auto;image-rendering:auto;shape-rendering:auto;text-rendering:auto;enable-background:accumulate"
       id="rect8640-8-2"
       width="67.437508"
       height="65"
       x="0"
       y="0"
       ry="7.7186708" />
    <path
       d="m 21.889002,8.9579356 c -0.865782,0.00425 -1.723998,0.076549 -2.560014,0.2177135 -0.774834,0.1344488 -1.332176,0.8067302 -1.332176,1.5798719 l 0,2.26559 c -1.379784,0.477329 -2.644063,1.210208 -3.731561,2.13123 l -1.977883,-1.1295 c -0.686511,-0.38991 -1.556432,-0.241978 -2.059401,0.356359 -1.1011146,1.304258 -2.2634977,2.796664 -2.8684054,4.423608 -0.2786688,0.732785 0.027168,1.559715 0.7136555,1.949667 l 2.2634509,1.136174 c -0.265057,1.411835 -0.265057,2.857258 0,4.262376 l -2.2634509,1.129501 c -0.6864685,0.396626 -0.9855632,1.223555 -0.7136555,1.956341 0.6049077,1.620223 1.7672908,3.112629 2.8684054,4.416887 0.502969,0.598341 1.379699,0.746312 2.059401,0.356364 l 1.977883,-1.122785 c 1.087498,0.921022 2.351777,1.647181 3.731561,2.131231 l 0,2.258869 c 0,0.786578 0.577768,1.452144 1.35941,1.586592 1.733205,0.295808 3.486836,0.282372 5.15891,0 0.774834,-0.134448 1.338937,-0.806735 1.338937,-1.586592 l 0,-2.258869 c 1.379789,-0.477329 2.644064,-1.210209 3.731561,-2.131231 l 1.977931,1.129501 c 0.686468,0.389905 1.556518,0.241977 2.059534,-0.356364 1.101067,-1.304254 2.290552,-2.796659 2.895459,-4.423603 0.271908,-0.739506 -0.02717,-1.566436 -0.713655,-1.956341 l -2.290552,-1.129501 c 0.265104,-1.411834 0.265104,-2.857257 0,-4.269049 l 2.290552,-1.129501 c 0.686468,-0.396668 0.951567,-1.223555 0.67966,-1.956341 -0.604908,-1.626944 -1.760397,-3.119349 -2.861464,-4.423608 -0.503016,-0.598341 -1.379832,-0.746311 -2.059534,-0.356359 L 29.58563,15.145668 C 28.498133,14.224599 27.233858,13.49844 25.854069,13.014395 l 0,-2.258874 c 0,-0.7865733 -0.577721,-1.4520964 -1.359362,-1.5865452 C 23.628083,9.0244085 22.754783,8.9554166 21.889002,8.9579356 Z m 0.111369,10.2000824 c 3.821263,0.05525 6.60148,4.448132 3.520789,8.41151 -5.233706,3.979958 -11.208296,-1.929425 -7.184497,-7.10606 1.226635,-0.932823 2.493941,-1.322379 3.663708,-1.30545 z"
       id="path6620"
       inkscape:connector-curvature="0" />
    <path
       id="path6660"
       d="m 46.16368,13.796308 c 0,-2.088313 1.711499,-3.781144 3.822767,-3.781144 2.11131,0 3.822809,1.692831 3.822809,3.781144 0,2.088233 -1.711499,3.781101 -3.822809,3.781101 -2.111268,0 -3.822767,-1.692868 -3.822767,-3.781101 z m 13.519212,0.07209 c -0.663473,-0.656274 -1.739271,-0.656274 -2.402749,0 l -4.599413,4.549271 -5.388596,0 -4.599383,-4.549271 c -0.66344,-0.656274 -1.739229,-0.656274 -2.402707,0 -0.663507,0.656307 -0.663507,1.720308 0,2.376615 l 5.024141,4.969329 0,14.008359 c 0,0.928116 0.760693,1.680505 1.699024,1.680505 l 0.849495,0 c 0.938331,0 1.699014,-0.752389 1.699014,-1.680505 l 0,-5.881782 0.849495,0 0,5.881782 c 0,0.928116 0.760688,1.680505 1.699019,1.680505 l 0.849495,0 c 0.938331,0 1.699024,-0.752389 1.699024,-1.680505 l 0,-14.008359 5.024141,-4.9694 c 0.663502,-0.656269 0.663502,-1.720237 0,-2.376544 z"
       inkscape:connector-curvature="0" />
    <text
       xml:space="preserve"
       style="font-style:normal;font-weight:normal;font-size:9.66967773px;line-height:125%;font-family:sans-serif;letter-spacing:0px;word-spacing:0px;display:inline;opacity:1;fill:#000000;fill-opacity:1;stroke:none;stroke-width:1px;stroke-linecap:butt;stroke-linejoin:miter;stroke-opacity:1"
       x="5.1461077"
       y="53.907795"
       id="text6917-4"
       sodipodi:linespacing="125%"><tspan
         sodipodi:role="line"
         id="tspan6919-9"
         x="5.1461077"
         y="53.907795"
         style="font-style:normal;font-variant:normal;font-weight:900;font-stretch:normal;font-size:11.85503292px;font-family:'Source Code Pro';-inkscape-font-specification:'Source Code Pro Heavy'">settings</tspan></text>
  </g>
</svg>
