<?xml version="1.0" encoding="UTF-8" standalone="no"?>
<svg
   xmlns:dc="http://purl.org/dc/elements/1.1/"
   xmlns:cc="http://creativecommons.org/ns#"
   xmlns:rdf="http://www.w3.org/1999/02/22-rdf-syntax-ns#"
   xmlns:svg="http://www.w3.org/2000/svg"
   xmlns="http://www.w3.org/2000/svg"
   xmlns:sodipodi="http://sodipodi.sourceforge.net/DTD/sodipodi-0.dtd"
   xmlns:inkscape="http://www.inkscape.org/namespaces/inkscape"
   height="743.8681"
   width="300"
   version="1.1"
   viewBox="0 0 300.00001 743.86804"
   id="svg4136"
   inkscape:version="0.91 r13725"
   sodipodi:docname="cityscapeRectangles.svg">
  <metadata
     id="metadata4174">
    <rdf:RDF>
      <cc:Work
         rdf:about="">
        <dc:format>image/svg+xml</dc:format>
        <dc:type
           rdf:resource="http://purl.org/dc/dcmitype/StillImage" />
        <dc:title></dc:title>
      </cc:Work>
    </rdf:RDF>
  </metadata>
  <defs
     id="defs4172" />
  <sodipodi:namedview
     pagecolor="#ffffff"
     bordercolor="#666666"
     borderopacity="1"
     objecttolerance="10"
     gridtolerance="10"
     guidetolerance="10"
     inkscape:pageopacity="0"
     inkscape:pageshadow="2"
     inkscape:window-width="640"
     inkscape:window-height="480"
     id="namedview4170"
     showgrid="false"
     inkscape:zoom="0.45744937"
     inkscape:cx="86.566956"
     inkscape:cy="235.65449"
     inkscape:current-layer="svg4136"
     fit-margin-top="0"
     fit-margin-left="0"
     fit-margin-right="0"
     fit-margin-bottom="0" />
  <path
     style="color:#000000;clip-rule:nonzero;display:inline;overflow:visible;visibility:visible;opacity:1;isolation:auto;mix-blend-mode:normal;color-interpolation:sRGB;color-interpolation-filters:linearRGB;solid-color:#000000;solid-opacity:1;fill:#e0e9ee;fill-opacity:1;fill-rule:nonzero;stroke:none;stroke-width:3;stroke-linecap:round;stroke-linejoin:round;stroke-miterlimit:4;stroke-dasharray:none;stroke-dashoffset:0;stroke-opacity:1;color-rendering:auto;image-rendering:auto;shape-rendering:auto;text-rendering:auto;enable-background:accumulate"
     d="m 129.0417,87.312239 c -1.0084,0 -1.8202,0.9387 -1.8202,2.1048 l 0,121.334301 -18.6207,0 0,-208.845701 c 0,-1.05570004 -0.7352,-1.905700035156 -1.6482,-1.905700035156 l -85.3045,0 C 20.7351,-6.1035156e-5 20.131173,0.85813896 20,1.905639 l 0,159.715601 -20,16.5319 0,563.7689 c 0,1.0557 0.7751214,2.1732 1.6481,1.9059 l 65.3045,0 22.0891,0 11.9076,0 73.015,0 8.5154,0 86.3445,0 29.7973,0 c 0.7638,0 1.3785,-0.7118 1.3785,-1.5949 l 0,-658.314101 c 0,-0.8832 -0.6147,-1.594 -1.3785,-1.594 l -56.3215,0 c -0.7638,0 -1.3793,0.7108 -1.3793,1.594 l 0,200.730101 -18.6207,0 0,-195.232001 c -1e-4,-1.1661 -0.8118,-2.1048 -1.8203,-2.1048 z"
     id="rect4261-4"
     inkscape:connector-curvature="0"
     sodipodi:nodetypes="ssccssssccssccccccsssssscccss" />
  <path
     style="color:#000000;clip-rule:nonzero;display:inline;overflow:visible;visibility:visible;opacity:1;isolation:auto;mix-blend-mode:normal;color-interpolation:sRGB;color-interpolation-filters:linearRGB;solid-color:#000000;solid-opacity:1;fill:#cddce4;fill-opacity:1;fill-rule:nonzero;stroke:none;stroke-width:3;stroke-linecap:round;stroke-linejoin:round;stroke-miterlimit:4;stroke-dasharray:none;stroke-dashoffset:0;stroke-opacity:1;color-rendering:auto;image-rendering:auto;shape-rendering:auto;text-rendering:auto;enable-background:accumulate"
     d="m 89.0417,187.35244 c -1.0084,0 -1.8202,0.9386 -1.8202,2.1047 l 0,261.3343 -18.6207,0 0,-208.8457 c 0,-1.0557 -0.7352,-1.9057 -1.6482,-1.9057 l -65.3045,0 c -0.913,0 -1.6481,0.85 -1.6481,1.9057 l 0,500.0164 c 0,1.0558 0.7351,1.9059 1.6481,1.9059 l 65.3045,0 22.0891,0 11.9076,0 73.015,0 8.5154,0 86.3445,0 29.7973,0 c 0.7638,0 1.3785,-0.7118 1.3785,-1.5949 l 0,-331.7089 -20,-19.5377 0,-67.0675 c 0,-0.8832 -0.6147,-1.594 -1.3785,-1.594 l -74.3215,0 c -0.7638,0 -1.3793,0.7108 -1.3793,1.594 l 0,68.7302 -18.6207,12 0,-215.2321 c -1e-4,-1.1661 -0.8118,-2.1047 -1.8203,-2.1047 z"
     id="rect4261"
     inkscape:connector-curvature="0"
     sodipodi:nodetypes="ssccssssssccccccssccsssscccss" />
  <path
     inkscape:connector-curvature="0"
     id="path4166-5"
     d="m 299.99837,671.45384 c 0.27408,-24.3369 -34.07283,-25.6873 -37.20017,-24.1796 -5.93712,-16.969 -15.5368,-18.7675 -29.39544,-18.7886 -17.77781,0.03 -35.86778,8.6548 -38.48232,32.4804 -0.14487,-0.011 -0.28964,-0.019 -0.43481,-0.027 -6.4277,0.01 -12.42027,2.6547 -17.23678,7.1737 -5.76986,-11.2518 -14.37182,-18.32 -23.88784,-18.3342 -8.89169,0.022 -17.35452,6.2831 -23.29172,17.2226 -4.34662,-13.3193 -14.48202,-21.9972 -25.7262,-22.0112 -3.33702,0.01 -6.646867,0.7826 -9.774309,2.2896 -5.937076,-16.962 -18.546072,-27.7831 -32.404864,-27.8042 -17.777777,0.03 -32.856991,17.6723 -35.471557,41.4978 -0.145029,-0.01 -0.291099,-0.021 -0.436138,-0.029 -5.931548,0.01 -11.489332,2.2651 -16.099602,6.1624 -3.5197396,0.1828 -6.9309528,3.354 -10.15662,4.3473 l 0,72.4142 120.95198,0 179.04639,0 z"
     style="color:#000000;isolation:auto;mix-blend-mode:normal;solid-color:#000000;fill:#a7c1d0;fill-opacity:1;color-rendering:auto;image-rendering:auto;shape-rendering:auto"
     sodipodi:nodetypes="ccccccccccccccccccc" />
</svg>
