<?xml version="1.0" encoding="UTF-8" standalone="no"?>
<!-- Created with Inkscape (http://www.inkscape.org/) -->

<svg
   xmlns:dc="http://purl.org/dc/elements/1.1/"
   xmlns:cc="http://creativecommons.org/ns#"
   xmlns:rdf="http://www.w3.org/1999/02/22-rdf-syntax-ns#"
   xmlns:svg="http://www.w3.org/2000/svg"
   xmlns="http://www.w3.org/2000/svg"
   xmlns:sodipodi="http://sodipodi.sourceforge.net/DTD/sodipodi-0.dtd"
   xmlns:inkscape="http://www.inkscape.org/namespaces/inkscape"
   width="607.74365"
   height="313.91833"
   viewBox="0 0 607.74367 313.91832"
   id="svg8778"
   version="1.1"
   inkscape:version="0.91 r13725"
   sodipodi:docname="trees.svg">
  <defs
     id="defs8780" />
  <sodipodi:namedview
     id="base"
     pagecolor="#ffffff"
     bordercolor="#666666"
     borderopacity="1.0"
     inkscape:pageopacity="0.0"
     inkscape:pageshadow="2"
     inkscape:zoom="1.4463335"
     inkscape:cx="362.10615"
     inkscape:cy="88.414335"
     inkscape:document-units="px"
     inkscape:current-layer="layer1"
     showgrid="false"
     inkscape:window-width="1920"
     inkscape:window-height="1027"
     inkscape:window-x="-8"
     inkscape:window-y="-8"
     inkscape:window-maximized="1"
     fit-margin-top="0"
     fit-margin-left="0"
     fit-margin-right="0"
     fit-margin-bottom="0"
     units="px" />
  <metadata
     id="metadata8783">
    <rdf:RDF>
      <cc:Work
         rdf:about="">
        <dc:format>image/svg+xml</dc:format>
        <dc:type
           rdf:resource="http://purl.org/dc/dcmitype/StillImage" />
        <dc:title></dc:title>
      </cc:Work>
    </rdf:RDF>
  </metadata>
  <g
     inkscape:label="Layer 1"
     inkscape:groupmode="layer"
     id="layer1">
    <rect
       style="color:#000000;clip-rule:nonzero;display:inline;overflow:visible;visibility:visible;opacity:1;isolation:auto;mix-blend-mode:normal;color-interpolation:sRGB;color-interpolation-filters:linearRGB;solid-color:#000000;solid-opacity:1;fill:#808080;fill-opacity:1;fill-rule:nonzero;stroke:none;stroke-width:0.59785378;stroke-linecap:butt;stroke-linejoin:miter;stroke-miterlimit:4;stroke-dasharray:none;stroke-dashoffset:0;stroke-opacity:1;color-rendering:auto;image-rendering:auto;shape-rendering:auto;text-rendering:auto;enable-background:accumulate"
       id="rect6978-9-62"
       width="70"
       height="5.9654264"
       x="378.19382"
       y="294.07343" />
    <rect
       ry="3.7685606"
       style="color:#000000;clip-rule:nonzero;display:inline;overflow:visible;visibility:visible;opacity:1;isolation:auto;mix-blend-mode:normal;color-interpolation:sRGB;color-interpolation-filters:linearRGB;solid-color:#000000;solid-opacity:1;fill:#808080;fill-opacity:1;fill-rule:nonzero;stroke:none;stroke-width:0.59785378;stroke-linecap:butt;stroke-linejoin:miter;stroke-miterlimit:4;stroke-dasharray:none;stroke-dashoffset:0;stroke-opacity:1;color-rendering:auto;image-rendering:auto;shape-rendering:auto;text-rendering:auto;enable-background:accumulate"
       id="rect6978-4-9"
       width="70"
       height="7.5371213"
       x="378.19382"
       y="295.33365" />
    <rect
       ry="3.7685606"
       style="color:#000000;clip-rule:nonzero;display:inline;overflow:visible;visibility:visible;opacity:1;isolation:auto;mix-blend-mode:normal;color-interpolation:sRGB;color-interpolation-filters:linearRGB;solid-color:#000000;solid-opacity:1;fill:#ffffff;fill-opacity:1;fill-rule:nonzero;stroke:none;stroke-width:0.59785378;stroke-linecap:butt;stroke-linejoin:miter;stroke-miterlimit:4;stroke-dasharray:none;stroke-dashoffset:0;stroke-opacity:1;color-rendering:auto;image-rendering:auto;shape-rendering:auto;text-rendering:auto;enable-background:accumulate"
       id="rect6978-47"
       width="70"
       height="7.5371213"
       x="378.19382"
       y="289.33398" />
    <rect
       ry="1.6702486"
       y="291.34641"
       x="382.18124"
       height="3.3404973"
       width="60.832218"
       id="rect7104-3"
       style="color:#000000;clip-rule:nonzero;display:inline;overflow:visible;visibility:visible;opacity:1;isolation:auto;mix-blend-mode:normal;color-interpolation:sRGB;color-interpolation-filters:linearRGB;solid-color:#000000;solid-opacity:1;fill:#4d4d4d;fill-opacity:1;fill-rule:nonzero;stroke:none;stroke-width:1;stroke-linecap:butt;stroke-linejoin:miter;stroke-miterlimit:4;stroke-dasharray:none;stroke-dashoffset:0;stroke-opacity:1;color-rendering:auto;image-rendering:auto;shape-rendering:auto;text-rendering:auto;enable-background:accumulate" />
    <path
       style="fill:#947b68;fill-opacity:1;fill-rule:evenodd;stroke:none;stroke-width:1px;stroke-linecap:butt;stroke-linejoin:miter;stroke-opacity:1"
       d="m 431.02909,292.95495 -8.34237,-156.16293 43.79741,-29.74523 -14.59914,-5.31167 -30.24105,19.1219 -8.34238,-10.62333 12.51355,-32.932299 -9.38516,1.062299 -11.47075,21.246664 -14.59913,-30.807697 -10.42796,8.498734 23.9843,47.804999 -33.36945,-20.18437 -11.47075,-1.0623 41.71181,37.18167 -7.29958,151.91356 z"
       id="path6928-7-9"
       inkscape:connector-curvature="0"
       sodipodi:nodetypes="ccccccccccccccccc" />
    <path
       style="color:#000000;clip-rule:nonzero;display:inline;overflow:visible;visibility:visible;opacity:1;isolation:auto;mix-blend-mode:normal;color-interpolation:sRGB;color-interpolation-filters:linearRGB;solid-color:#000000;solid-opacity:1;fill:#86ab6b;fill-opacity:1;fill-rule:nonzero;stroke:none;stroke-width:2;stroke-linecap:butt;stroke-linejoin:miter;stroke-miterlimit:4;stroke-dasharray:none;stroke-dashoffset:0;stroke-opacity:1;color-rendering:auto;image-rendering:auto;shape-rendering:auto;text-rendering:auto;enable-background:accumulate"
       d="m 362.44655,1.876426 a 49.973479,43.68381 0 0 1 39.85921,17.425331 51.177661,38.344679 0 0 1 32.39137,-8.68975 51.177661,38.344679 0 0 1 51.17808,38.344493 51.177661,38.344679 0 0 1 -1.97699,10.512436 49.973479,42.71306 0 0 1 28.46934,38.510418 49.973479,42.71306 0 0 1 -9.94882,25.502886 48.7693,33.005547 0 0 1 0.31589,3.61962 48.7693,33.005547 0 0 1 -48.77162,33.00523 48.7693,33.005547 0 0 1 -39.3339,-13.55399 45.156761,32.034796 0 0 1 -43.75286,24.23252 45.156761,32.034796 0 0 1 -45.15838,-32.03259 45.156761,32.034796 0 0 1 0.74182,-5.71678 37.329586,33.005547 0 0 1 -16.39446,-27.29129 37.329586,33.005547 0 0 1 18.25075,-28.323975 49.973479,43.68381 0 0 1 -15.84429,-31.860801 49.973479,43.68381 0 0 1 49.97486,-43.683758 z"
       id="path6911-9-5"
       inkscape:connector-curvature="0" />
    <rect
       style="color:#000000;clip-rule:nonzero;display:inline;overflow:visible;visibility:visible;opacity:1;isolation:auto;mix-blend-mode:normal;color-interpolation:sRGB;color-interpolation-filters:linearRGB;solid-color:#000000;solid-opacity:1;fill:#808080;fill-opacity:1;fill-rule:nonzero;stroke:none;stroke-width:0.59785378;stroke-linecap:butt;stroke-linejoin:miter;stroke-miterlimit:4;stroke-dasharray:none;stroke-dashoffset:0;stroke-opacity:1;color-rendering:auto;image-rendering:auto;shape-rendering:auto;text-rendering:auto;enable-background:accumulate"
       id="rect6978-9-42-2"
       width="70"
       height="5.9654264"
       x="71.547104"
       y="305.12088" />
    <rect
       ry="3.7685606"
       style="color:#000000;clip-rule:nonzero;display:inline;overflow:visible;visibility:visible;opacity:1;isolation:auto;mix-blend-mode:normal;color-interpolation:sRGB;color-interpolation-filters:linearRGB;solid-color:#000000;solid-opacity:1;fill:#808080;fill-opacity:1;fill-rule:nonzero;stroke:none;stroke-width:0.59785378;stroke-linecap:butt;stroke-linejoin:miter;stroke-miterlimit:4;stroke-dasharray:none;stroke-dashoffset:0;stroke-opacity:1;color-rendering:auto;image-rendering:auto;shape-rendering:auto;text-rendering:auto;enable-background:accumulate"
       id="rect6978-4-6-2"
       width="70"
       height="7.5371213"
       x="71.547104"
       y="306.38123" />
    <rect
       ry="3.7685606"
       style="color:#000000;clip-rule:nonzero;display:inline;overflow:visible;visibility:visible;opacity:1;isolation:auto;mix-blend-mode:normal;color-interpolation:sRGB;color-interpolation-filters:linearRGB;solid-color:#000000;solid-opacity:1;fill:#ffffff;fill-opacity:1;fill-rule:nonzero;stroke:none;stroke-width:0.59785378;stroke-linecap:butt;stroke-linejoin:miter;stroke-miterlimit:4;stroke-dasharray:none;stroke-dashoffset:0;stroke-opacity:1;color-rendering:auto;image-rendering:auto;shape-rendering:auto;text-rendering:auto;enable-background:accumulate"
       id="rect6978-1-8"
       width="70"
       height="7.5371213"
       x="71.547104"
       y="300.38174" />
    <rect
       ry="1.6702486"
       y="302.39355"
       x="75.534607"
       height="3.3404973"
       width="60.832214"
       id="rect7104-2-0"
       style="color:#000000;clip-rule:nonzero;display:inline;overflow:visible;visibility:visible;opacity:1;isolation:auto;mix-blend-mode:normal;color-interpolation:sRGB;color-interpolation-filters:linearRGB;solid-color:#000000;solid-opacity:1;fill:#4d4d4d;fill-opacity:1;fill-rule:nonzero;stroke:none;stroke-width:1;stroke-linecap:butt;stroke-linejoin:miter;stroke-miterlimit:4;stroke-dasharray:none;stroke-dashoffset:0;stroke-opacity:1;color-rendering:auto;image-rendering:auto;shape-rendering:auto;text-rendering:auto;enable-background:accumulate" />
    <path
       style="color:#000000;clip-rule:nonzero;display:inline;overflow:visible;visibility:visible;opacity:1;isolation:auto;mix-blend-mode:normal;color-interpolation:sRGB;color-interpolation-filters:linearRGB;solid-color:#000000;solid-opacity:1;fill:#c39734;fill-opacity:1;fill-rule:nonzero;stroke:none;stroke-width:2;stroke-linecap:butt;stroke-linejoin:miter;stroke-miterlimit:4;stroke-dasharray:none;stroke-dashoffset:0;stroke-opacity:1;color-rendering:auto;image-rendering:auto;shape-rendering:auto;text-rendering:auto;enable-background:accumulate"
       d="M 159.34596,4.2952935e-5 A 53.115123,45.576153 0 0 0 116.98095,18.18024 54.395008,40.005734 0 0 0 82.553249,9.113977 54.395008,40.005734 0 0 0 28.157791,49.119578 54.395008,40.005734 0 0 0 30.259074,60.08731 53.115123,44.56335 0 0 0 -3.0517582e-5,100.26603 53.115123,44.56335 0 0 0 10.574244,126.8737 a 51.835242,34.435316 0 0 0 -0.335751,3.77635 51.835242,34.435316 0 0 0 51.837709,34.435 51.835242,34.435316 0 0 0 41.806678,-14.14108 47.995595,33.422514 0 0 0 46.50343,25.2821 47.995595,33.422514 0 0 0 47.99732,-33.42004 47.995595,33.422514 0 0 0 -0.78845,-5.9645 39.676356,34.435316 0 0 0 17.42511,-28.47352 A 39.676356,34.435316 0 0 0 195.62219,78.816974 53.115123,45.576153 0 0 0 212.46254,45.57607 53.115123,45.576153 0 0 0 159.34596,4.2952935e-5 Z"
       id="path6911-60"
       inkscape:connector-curvature="0" />
    <path
       style="fill:#947b68;fill-opacity:1;fill-rule:evenodd;stroke:none;stroke-width:1px;stroke-linecap:butt;stroke-linejoin:miter;stroke-opacity:1"
       d="m 86.451899,303.68767 8.86681,-162.92763 -46.550778,-31.03384 15.516921,-5.54182 32.142207,19.95036 8.866821,-11.08348 -13.300231,-34.358899 9.975171,1.108303 12.19187,22.166946 15.51693,-32.142132 11.08353,8.866883 -25.49211,49.875739 35.46727,-21.05866 12.19186,-1.1083 -44.33407,38.79226 7.75847,158.49427 z"
       id="path6928-0"
       inkscape:connector-curvature="0"
       sodipodi:nodetypes="ccccccccccccccccc" />
  </g>
</svg>
