<svg height="314.6" width="800" viewBox="0 0 800.00629 314.62175">
    <title>
        gallery-title
    </title>
    <g stroke="#000" transform="translate(-224.8 -7.147)">
        <path d="M407.3 7.645c-9.416 0-17.05 7.695-17.05 17.19.007 5.846 6.151 10.71 7.173 16.47l.669 3.764c.392 2.207.453 4.047 2.678 4.047h13.06c2.224 0 2.284-1.84 2.678-4.047l.668-3.744c1.03-5.761 7.173-10.63 7.173-16.49 0-9.492-7.633-17.19-17.05-17.19z" fill="#fff" color="#000"/>
        <g stroke-width="1.446" fill="none">
            <path d="M274.8 34.35l-9.458 5.654M271.2 41.62l-.201.202 5.232-6.058-.201 6.866M276.6 34.35l9.458 5.654" transform="matrix(.6899 0 0 .693 217 7.297)"/>
            <path d="M280.2 41.62l.201.202-5.232-6.058.201 6.866M275 23.78l-9.458-5.654M270.4 16.51l-.201-.202 5.232 6.058-.201-6.866M276.8 23.78l9.458-5.654M281.4 16.51l.201-.202-5.232 6.058.201-6.866" transform="matrix(.6899 0 0 .693 217 7.297)"/>
        </g>
        <g transform="matrix(.6899 0 0 .693 217 7.297)" stroke-width="1.446" color="#000">
            <g fill="#fff">
                <rect rx="2.427" ry="2.427" height="25.85" width="3.22" y="21.19" x="274.2"/>
                <rect rx="2.427" ry="2.427" height="15.35" width="10.26" y="45.42" x="270.7"/>
                <rect rx="2.427" ry="2.427" height="3.776" width="9.298" y="72.19" x="271.2"/>
            </g>
            <rect rx="2.363" ry="2.363" height="3.677" width="13.82" y="70.3" x="268.9"/>
            <rect rx="2.313" ry="2.313" height="3.599" width="22.68" y="60.42" x="264.5" fill="#6c5d53"/>
            <rect rx="2.313" ry="2.313" height="3.599" width="22.68" y="64.11" x="264.5" fill="#ac9d93"/>
            <rect rx="2.313" ry="2.313" height="3.599" width="22.68" y="67.75" x="264.5" fill="#c8beb7"/>
            <g fill="#fff">
                <ellipse rx=".924" ry=".928" cy="18.49" cx="265.5"/>
                <ellipse rx=".924" ry=".928" cy="15.92" cx="269.8"/>
                <ellipse rx=".924" ry=".928" cy="15.3" cx="275"/>
                <ellipse rx=".924" ry=".928" cy="15.3" cx="277"/>
                <ellipse rx=".924" ry=".928" cy="15.81" cx="282.2"/>
                <ellipse rx=".924" ry=".928" cy="17.87" cx="286.7"/>
                <ellipse rx=".924" ry=".928" cy="40.14" cx="286.4"/>
                <ellipse rx=".924" ry=".928" cy="42.2" cx="280.8"/>
                <ellipse rx=".924" ry=".928" cy="42.51" cx="270.6"/>
                <ellipse rx=".924" ry=".928" cy="39.73" cx="265"/>
            </g>
        </g>
        <rect ry="8.345" height="16.69" width="30.05" y="58.83" x="392.3" fill="#d38d5f" color="#000"/>
        <rect ry="8.904" height="17.81" width="35.96" y="67.39" x="389.3" fill="#c83737" color="#000"/>
    </g>
    <g stroke="#000" transform="translate(207.9 -7.147)">
        <path d="M407.3 7.645c-9.416 0-17.05 7.695-17.05 17.19.007 5.846 6.151 10.71 7.173 16.47l.669 3.764c.392 2.207.453 4.047 2.678 4.047h13.06c2.224 0 2.284-1.84 2.678-4.047l.668-3.744c1.03-5.761 7.173-10.63 7.173-16.49 0-9.492-7.633-17.19-17.05-17.19z" fill="#fff" color="#000"/>
        <g stroke-width="1.446" fill="none">
            <path d="M274.8 34.35l-9.458 5.654M271.2 41.62l-.201.202 5.232-6.058-.201 6.866M276.6 34.35l9.458 5.654" transform="matrix(.6899 0 0 .693 217 7.297)"/>
            <path d="M280.2 41.62l.201.202-5.232-6.058.201 6.866M275 23.78l-9.458-5.654M270.4 16.51l-.201-.202 5.232 6.058-.201-6.866M276.8 23.78l9.458-5.654M281.4 16.51l.201-.202-5.232 6.058.201-6.866" transform="matrix(.6899 0 0 .693 217 7.297)"/>
        </g>
        <g transform="matrix(.6899 0 0 .693 217 7.297)" stroke-width="1.446" color="#000">
            <g fill="#fff">
                <rect rx="2.427" ry="2.427" height="25.85" width="3.22" y="21.19" x="274.2"/>
                <rect rx="2.427" ry="2.427" height="15.35" width="10.26" y="45.42" x="270.7"/>
                <rect rx="2.427" ry="2.427" height="3.776" width="9.298" y="72.19" x="271.2"/>
            </g>
            <rect rx="2.363" ry="2.363" height="3.677" width="13.82" y="70.3" x="268.9"/>
            <rect rx="2.313" ry="2.313" height="3.599" width="22.68" y="60.42" x="264.5" fill="#6c5d53"/>
            <rect rx="2.313" ry="2.313" height="3.599" width="22.68" y="64.11" x="264.5" fill="#ac9d93"/>
            <rect rx="2.313" ry="2.313" height="3.599" width="22.68" y="67.75" x="264.5" fill="#c8beb7"/>
            <g fill="#fff">
                <ellipse rx=".924" ry=".928" cy="18.49" cx="265.5"/>
                <ellipse rx=".924" ry=".928" cy="15.92" cx="269.8"/>
                <ellipse rx=".924" ry=".928" cy="15.3" cx="275"/>
                <ellipse rx=".924" ry=".928" cy="15.3" cx="277"/>
                <ellipse rx=".924" ry=".928" cy="15.81" cx="282.2"/>
                <ellipse rx=".924" ry=".928" cy="17.87" cx="286.7"/>
                <ellipse rx=".924" ry=".928" cy="40.14" cx="286.4"/>
                <ellipse rx=".924" ry=".928" cy="42.2" cx="280.8"/>
                <ellipse rx=".924" ry=".928" cy="42.51" cx="270.6"/>
                <ellipse rx=".924" ry=".928" cy="39.73" cx="265"/>
            </g>
        </g>
        <rect ry="8.345" height="16.69" width="30.05" y="58.83" x="392.3" fill="#d38d5f" color="#000"/>
        <rect ry="8.904" height="17.81" width="35.96" y="67.39" x="389.3" fill="#c83737" color="#000"/>
    </g>
    <g stroke="#000" transform="translate(-311.3 -7.147)">
        <path d="M407.3 7.645c-9.416 0-17.05 7.695-17.05 17.19.007 5.846 6.151 10.71 7.173 16.47l.669 3.764c.392 2.207.453 4.047 2.678 4.047h13.06c2.224 0 2.284-1.84 2.678-4.047l.668-3.744c1.03-5.761 7.173-10.63 7.173-16.49 0-9.492-7.633-17.19-17.05-17.19z" fill="#fff" color="#000"/>
        <g stroke-width="1.446" fill="none">
            <path d="M274.8 34.35l-9.458 5.654M271.2 41.62l-.201.202 5.232-6.058-.201 6.866M276.6 34.35l9.458 5.654" transform="matrix(.6899 0 0 .693 217 7.297)"/>
            <path d="M280.2 41.62l.201.202-5.232-6.058.201 6.866M275 23.78l-9.458-5.654M270.4 16.51l-.201-.202 5.232 6.058-.201-6.866M276.8 23.78l9.458-5.654M281.4 16.51l.201-.202-5.232 6.058.201-6.866" transform="matrix(.6899 0 0 .693 217 7.297)"/>
        </g>
        <g transform="matrix(.6899 0 0 .693 217 7.297)" stroke-width="1.446" color="#000">
            <g fill="#fff">
                <rect rx="2.427" ry="2.427" height="25.85" width="3.22" y="21.19" x="274.2"/>
                <rect rx="2.427" ry="2.427" height="15.35" width="10.26" y="45.42" x="270.7"/>
                <rect rx="2.427" ry="2.427" height="3.776" width="9.298" y="72.19" x="271.2"/>
            </g>
            <rect rx="2.363" ry="2.363" height="3.677" width="13.82" y="70.3" x="268.9"/>
            <rect rx="2.313" ry="2.313" height="3.599" width="22.68" y="60.42" x="264.5" fill="#6c5d53"/>
            <rect rx="2.313" ry="2.313" height="3.599" width="22.68" y="64.11" x="264.5" fill="#ac9d93"/>
            <rect rx="2.313" ry="2.313" height="3.599" width="22.68" y="67.75" x="264.5" fill="#c8beb7"/>
            <g fill="#fff">
                <ellipse rx=".924" ry=".928" cy="18.49" cx="265.5"/>
                <ellipse rx=".924" ry=".928" cy="15.92" cx="269.8"/>
                <ellipse rx=".924" ry=".928" cy="15.3" cx="275"/>
                <ellipse rx=".924" ry=".928" cy="15.3" cx="277"/>
                <ellipse rx=".924" ry=".928" cy="15.81" cx="282.2"/>
                <ellipse rx=".924" ry=".928" cy="17.87" cx="286.7"/>
                <ellipse rx=".924" ry=".928" cy="40.14" cx="286.4"/>
                <ellipse rx=".924" ry=".928" cy="42.2" cx="280.8"/>
                <ellipse rx=".924" ry=".928" cy="42.51" cx="270.6"/>
                <ellipse rx=".924" ry=".928" cy="39.73" cx="265"/>
            </g>
        </g>
        <rect ry="8.345" height="16.69" width="30.05" y="58.83" x="392.3" fill="#d38d5f" color="#000"/>
        <rect ry="8.904" height="17.81" width="35.96" y="67.39" x="389.3" fill="#c83737" color="#000"/>
    </g>
    <g stroke="#000" transform="translate(294.4 -7.147)">
        <path d="M407.3 7.645c-9.416 0-17.05 7.695-17.05 17.19.007 5.846 6.151 10.71 7.173 16.47l.669 3.764c.392 2.207.453 4.047 2.678 4.047h13.06c2.224 0 2.284-1.84 2.678-4.047l.668-3.744c1.03-5.761 7.173-10.63 7.173-16.49 0-9.492-7.633-17.19-17.05-17.19z" fill="#fff" color="#000"/>
        <g stroke-width="1.446" fill="none">
            <path d="M274.8 34.35l-9.458 5.654M271.2 41.62l-.201.202 5.232-6.058-.201 6.866M276.6 34.35l9.458 5.654" transform="matrix(.6899 0 0 .693 217 7.297)"/>
            <path d="M280.2 41.62l.201.202-5.232-6.058.201 6.866M275 23.78l-9.458-5.654M270.4 16.51l-.201-.202 5.232 6.058-.201-6.866M276.8 23.78l9.458-5.654M281.4 16.51l.201-.202-5.232 6.058.201-6.866" transform="matrix(.6899 0 0 .693 217 7.297)"/>
        </g>
        <g transform="matrix(.6899 0 0 .693 217 7.297)" stroke-width="1.446" color="#000">
            <g fill="#fff">
                <rect rx="2.427" ry="2.427" height="25.85" width="3.22" y="21.19" x="274.2"/>
                <rect rx="2.427" ry="2.427" height="15.35" width="10.26" y="45.42" x="270.7"/>
                <rect rx="2.427" ry="2.427" height="3.776" width="9.298" y="72.19" x="271.2"/>
            </g>
            <rect rx="2.363" ry="2.363" height="3.677" width="13.82" y="70.3" x="268.9"/>
            <rect rx="2.313" ry="2.313" height="3.599" width="22.68" y="60.42" x="264.5" fill="#6c5d53"/>
            <rect rx="2.313" ry="2.313" height="3.599" width="22.68" y="64.11" x="264.5" fill="#ac9d93"/>
            <rect rx="2.313" ry="2.313" height="3.599" width="22.68" y="67.75" x="264.5" fill="#c8beb7"/>
            <g fill="#fff">
                <ellipse rx=".924" ry=".928" cy="18.49" cx="265.5"/>
                <ellipse rx=".924" ry=".928" cy="15.92" cx="269.8"/>
                <ellipse rx=".924" ry=".928" cy="15.3" cx="275"/>
                <ellipse rx=".924" ry=".928" cy="15.3" cx="277"/>
                <ellipse rx=".924" ry=".928" cy="15.81" cx="282.2"/>
                <ellipse rx=".924" ry=".928" cy="17.87" cx="286.7"/>
                <ellipse rx=".924" ry=".928" cy="40.14" cx="286.4"/>
                <ellipse rx=".924" ry=".928" cy="42.2" cx="280.8"/>
                <ellipse rx=".924" ry=".928" cy="42.51" cx="270.6"/>
                <ellipse rx=".924" ry=".928" cy="39.73" cx="265"/>
            </g>
        </g>
        <rect ry="8.345" height="16.69" width="30.05" y="58.83" x="392.3" fill="#d38d5f" color="#000"/>
        <rect ry="8.904" height="17.81" width="35.96" y="67.39" x="389.3" fill="#c83737" color="#000"/>
    </g>
    <rect height="57.71" stroke="#ccc" fill="#f9f9f9" ry="13.99" width="365.5" y="20.88" x="220.3" color="#000"/>
    <path fill-rule="evenodd" fill="#b3b3b3" d="M50.5 286.2l699.1.016 50.36 13.1h-800c17.1-4.3 33.23-8.866 50.5-13.12z"/>
    <path d="M381.8 240h36.4c-17.69 25.51 0 51.7 0 51.7h-36.4s18.7-26.19 0-51.7z" stroke="#999" fill="#ccc" color="#000"/>
    <ellipse rx="20.12" ry="12.24" stroke="#000" cy="271.2" cx="400" fill="purple" color="#000"/>
    <rect transform="scale(1 -1)" ry="11.24" height="22.48" width="86.08" stroke="#000" y="-270.6" x="357" fill="#fc0" color="#000"/>
    <rect transform="scale(1 -1)" ry="11.2" height="22.4" width="103" stroke="#000" y="-257.5" x="348.5" fill="#d4aa00" color="#000"/>
    <rect ry="13.99" height="194.7" width="752.2" stroke="#ccc" y="65.78" x="22.61" fill="#fff" color="#000"/>
    <rect fill-opacity=".997" ry="14.93" height="180.4" width="738.7" y="72.92" x="28.21" fill="#fc0" color="#000"/>
    <text font-size="45" y="54.43" x="392.961" font-family="'Futura Md BT'" word-spacing="0" letter-spacing="0">
        <tspan style="text-align:center" font-weight="900" font-size="30" y="54.43" x="399.772" font-family="'Source Code Pro'" text-anchor="middle">The awesome art of</tspan>
    </text>
    <g stroke="#000" color="#000">
        <path d="M20.5 36.1a20 20 0 0 0-20 20 20 20 0 0 0 20 20 20 20 0 0 0 20-20 20 20 0 0 0-20-20zm0 11.02a8.976 8.976 0 0 1 8.975 8.977 8.976 8.976 0 0 1-8.975 8.977 8.976 8.976 0 0 1-8.977-8.977A8.976 8.976 0 0 1 20.5 47.12z" fill="#f60"/>
        <circle cy="36.3" cx="9.574" r="5.585" fill="#fff"/>
    </g>
    <g stroke="#000" color="#000">
        <path d="M20.5 284.7a20 20 0 0 1-20-20 20 20 0 0 1 20-20 20 20 0 0 1 20 20 20 20 0 0 1-20 20zm0-11.02a8.976 8.976 0 0 0 8.975-8.977 8.976 8.976 0 0 0-8.975-8.977 8.976 8.976 0 0 0-8.977 8.977 8.976 8.976 0 0 0 8.977 8.977z" fill="olive"/>
        <circle cx="9.574" transform="scale(1 -1)" cy="-284.5" r="5.585" fill="#fff"/>
    </g>
    <g stroke="#000" color="#000">
        <path d="M777.8 38.1a20 20 0 0 1 20 20 20 20 0 0 1-20 20 20 20 0 0 1-20-20 20 20 0 0 1 20-20zm0 11.02a8.976 8.976 0 0 0-8.975 8.977 8.976 8.976 0 0 0 8.975 8.977 8.976 8.976 0 0 0 8.977-8.977 8.976 8.976 0 0 0-8.98-8.976z" fill="#784421"/>
        <circle cx="-793.9" transform="scale(-1 1)" cy="44.3" r="5.585" fill="#fff"/>
    </g>
    <g stroke="#000" color="#000">
        <path d="M777.8 282.7a20 20 0 0 0 20-20 20 20 0 0 0-20-20 20 20 0 0 0-20 20 20 20 0 0 0 20 20zm0-11.02a8.976 8.976 0 0 1-8.975-8.977 8.976 8.976 0 0 1 8.975-8.977 8.976 8.976 0 0 1 8.977 8.977 8.976 8.976 0 0 1-8.977 8.977z" fill="#d35f5f"/>
        <circle cx="-793.9" transform="scale(-1)" cy="-276.5" r="5.585" fill="#fff"/>
    </g>
    <text font-size="45" stroke="#000" y="154.525" x="393.09" font-family="'Futura Md BT'" fill="#f60" word-spacing="0" letter-spacing="0">
        <tspan style="text-align:center" font-weight="900" font-size="75" y="154.525" x="399.901" font-family="'Source Code Pro'" text-anchor="middle">Christopher</tspan>
    </text>
    <text font-size="45" stroke="#000" y="226.903" x="393.09" font-family="'Futura Md BT'" fill="#f60" word-spacing="0" letter-spacing="0">
        <tspan style="text-align:center" font-weight="900" font-size="75" y="226.903" x="399.901" font-family="'Source Code Pro'" text-anchor="middle">John Dennett</tspan>
    </text>
    <rect ry="0" height="16.16" width="800" y="298.5" fill="#666" color="#000"/>
</svg>
