<svg height="223" width="416.3" viewBox="0 0 416.26899 223.04241">
    <path d="M231.9 40.8c-58.54 41.7-11.15-60.36-58.07-37.39-25.07 20.29 18.06 51.51-5.65 57.47-28.98 6.824-41.45-39.17-63.1-25.28-10.01 10.34 9.817 7.034-16.62 41.93-15.77 20.82-47.62-7.821-56.01 19.65-4.664 15.28 15.49 27.7 9.687 48.63-8.769 31.64-34.77-.21-41.74 23.6-4.272 14.6 25.82 9.241 20.69 50.92-.116.938 12.89 3.273-.432 2.589h391.9c1.65-3.303 4.527-7.137 3.494-11.44-8.569-35.75-31.53 2.876-34.69-40.12-3.159-42.99 14.99-3.932 20.97-33.51-1.042-39.88-38.69 5.691-46.53-17.79-9.889-29.6 34.26-29.04 23.81-49.46-11.48-13.97-32.74 28.08-60.49 13.38-41.29-21.87 41.55-51.51 7.947-71.4s-15.62 59.65-51.26 45.07c-16.97-2.405-5.29-36.32-43.88-16.85z" fill="#900" color="#000"/>
</svg>
