<svg xmlns:rdf="http://www.w3.org/1999/02/22-rdf-syntax-ns#" xmlns="http://www.w3.org/2000/svg" height="65" width="67.44" version="1.1" xmlns:cc="http://creativecommons.org/ns#" xmlns:dc="http://purl.org/dc/elements/1.1/" viewBox="0 0 67.437508 65.000001">
 <g>
  <rect opacity="0" style="color-rendering:auto;color:#000000;isolation:auto;mix-blend-mode:normal;shape-rendering:auto;solid-color:#000000;image-rendering:auto" ry="7.719" height="65" width="67.44" y="0" x="0" stroke-width="3"/>
  <path d="m45.35 37.53h-6.105c-.4797 0-.8722-.3882-.8722-.8627v-2.876c0-.4745.3925-.8627.8722-.8627h6.105c1.286 0 2.326-1.028 2.326-2.3v-13.8c0-1.272-1.039-2.3-2.326-2.3h-6.105c-.4797 0-.8722-.3882-.8722-.8627v-2.876c0-.4745.3925-.8627.8722-.8627h6.105c3.852 0 6.977 3.091 6.977 6.901v13.8c0 3.81-3.125 6.901-6.977 6.901zm-3.416-14.45-12.21-12.08c-1.09-1.078-2.98-.3235-2.98 1.222v6.901h-9.885c-.9667 0-1.744.7692-1.744 1.725v6.901c0 .9561.7777 1.725 1.744 1.725h9.885v6.901c0 1.546 1.89 2.3 2.98 1.222l12.21-12.08c.6760-.6758.6760-1.769 0-2.444z"/>
  <text style="word-spacing:0px;letter-spacing:0px" line-height="125%" xml:space="preserve" font-size="13.08px" y="54.319763" x="15.945435" font-family="sans-serif" fill="#000000"><tspan font-weight="900" font-size="11.86px" y="54.319763" x="15.945435" font-family="&apos;Source Code Pro&apos;">login</tspan></text>
 </g>
</svg>
