<svg xmlns:rdf="http://www.w3.org/1999/02/22-rdf-syntax-ns#" xmlns="http://www.w3.org/2000/svg" height="65" width="67.49" version="1.1" xmlns:cc="http://creativecommons.org/ns#" xmlns:dc="http://purl.org/dc/elements/1.1/" viewBox="0 0 67.489159 65.000001">
 <g>
  <rect style="color-rendering:auto;color:#000000;isolation:auto;mix-blend-mode:normal;shape-rendering:auto;solid-color:#000000;image-rendering:auto" ry="0" height="65" width="67.49" y="-.000004688" x=".00001568" fill="#fff"/>
  <text style="word-spacing:0px;letter-spacing:0px" line-height="125%" xml:space="preserve" font-size="9.67px" y="56.82584" x="20.026186" font-family="sans-serif" fill="#000000"><tspan font-weight="900" font-size="11.25px" y="56.82584" x="20.026186" font-family="&apos;Source Code Pro&apos;">prev</tspan></text>
  <path d="m33.74 11.3c-8.342 0-15.1 6.714-15.1 15s6.759 15 15.1 15c8.342 0 15.1-6.714 15.1-15s-6.759-15-15.1-15zm7.063 17.66h-7.063v4.288c0 .6472-.7916.9738-1.248.5141l-6.96-6.95c-.2862-.2843-.2862-.7379 0-1.022l6.96-6.956c.4628-.4597 1.248-.1330 1.248.5141v4.288h7.063c.4019 0 .7307.3266.7307.7258v3.871c0 .3992-.3288.7258-.7307.7258z"/>
 </g>
</svg>
