<svg xmlns:rdf="http://www.w3.org/1999/02/22-rdf-syntax-ns#" xmlns="http://www.w3.org/2000/svg" height="743.9" width="300" version="1.1" xmlns:cc="http://creativecommons.org/ns#" xmlns:dc="http://purl.org/dc/elements/1.1/" viewBox="0 0 300.00001 743.86804">
 <path style="color-rendering:auto;color:#000000;isolation:auto;mix-blend-mode:normal;shape-rendering:auto;solid-color:#000000;image-rendering:auto" d="m129 87.31c-1.008 0-1.82.9387-1.82 2.105v121.3h-18.62v-208.8c0-1.056-.7352-1.906-1.648-1.906h-85.3c-.96-.01406-1.57.8441-1.7 1.892v159.7l-20 16.53v563.8c0 1.056.7751 2.173 1.648 1.906h65.3 22.09 11.91 73.02 8.515 86.34 29.8c.7638 0 1.378-.7118 1.378-1.595v-658.3c0-.8832-.6147-1.594-1.378-1.594h-56.32c-.7638 0-1.379.7108-1.379 1.594v200.7h-18.62v-195.2c-.0001-1.166-.8118-2.105-1.82-2.105z" fill="#e0e9ee"/>
 <path style="color-rendering:auto;color:#000000;isolation:auto;mix-blend-mode:normal;shape-rendering:auto;solid-color:#000000;image-rendering:auto" d="m89.04 187.4c-1.008 0-1.82.9386-1.82 2.105v261.3h-18.62v-208.8c0-1.056-.7352-1.906-1.648-1.906h-65.3c-.913 0-1.648.85-1.648 1.906v500c0 1.056.7351 1.906 1.648 1.906h65.3 22.09 11.91 73.02 8.515 86.34 29.8c.7638 0 1.378-.7118 1.378-1.595v-331.7l-20-19.54v-67.07c0-.8832-.6147-1.594-1.378-1.594h-74.32c-.7638 0-1.379.7108-1.379 1.594v68.73l-18.62 12v-215.2c-.0001-1.166-.8118-2.105-1.82-2.105z" fill="#cddce4"/>
 <path style="color-rendering:auto;color:#000000;isolation:auto;mix-blend-mode:normal;shape-rendering:auto;solid-color:#000000;image-rendering:auto" d="m300 671.5c.2741-24.34-34.07-25.69-37.2-24.18-5.937-16.97-15.54-18.77-29.4-18.79-17.78.03-35.87 8.655-38.48 32.48-.1449-.011-.2896-.019-.4348-.027-6.428.01-12.42 2.655-17.24 7.174-5.77-11.25-14.37-18.32-23.89-18.33-8.892.022-17.35 6.283-23.29 17.22-4.347-13.32-14.48-22-25.73-22.01-3.337.01-6.647.7826-9.774 2.29-5.937-16.96-18.55-27.78-32.4-27.8-17.78.03-32.86 17.67-35.47 41.5-.1450-.01-.2911-.021-.4361-.029-5.932.01-11.49 2.265-16.1 6.162-3.52.1828-6.931 3.354-10.16 4.347v72.41h121 179z" fill="#a7c1d0"/>
</svg>
