<svg xmlns:rdf="http://www.w3.org/1999/02/22-rdf-syntax-ns#" xmlns="http://www.w3.org/2000/svg" height="30.04" width="30.04" version="1.1" xmlns:cc="http://creativecommons.org/ns#" xmlns:dc="http://purl.org/dc/elements/1.1/" viewBox="0 0 30.039274 30.042653">
 <g stroke="#000" fill="#fff">
  <path d="m29.15 27.54-1.605 1.605c-.5332.5332-1.395.5332-1.923 0l-5.661-5.656c-.2553-.2552-.3971-.6012-.3971-.9643v-.9246c-2.002 1.566-4.521 2.496-7.261 2.496-6.519 0-11.8-5.28-11.8-11.8 0-6.519 5.281-11.8 11.8-11.8 6.518 0 11.8 5.281 11.8 11.8 0 2.74-.9303 5.258-2.496 7.261h.9246c.3630 0 .7090.1417.9643.3970l5.655 5.656c.5276.5332.5276 1.395 0 1.929zm-9.14-15.24c0-4.266-3.449-7.715-7.715-7.715s-7.715 3.449-7.715 7.715 3.449 7.715 7.715 7.715 7.715-3.449 7.715-7.715z"/>
  <path id="minus" d="m17.74 11.43v1.702c0 .3509-.3077.6382-.6839.6382h-9.574c-.3761 0-.6839-.2872-.6839-.6382v-1.702c0-.3509.3077-.6381.6839-.6381h9.574c.3761 0 .6839.2871.6839.6381z"/>
  <path id="plus" d="m17.77 11.37v1.815c0 .3744-.3063.6808-.6807.6808h-3.177v3.177c0 .3744-.3063.6807-.6807.6807h-1.815c-.3744 0-.6807-.3063-.6807-.6807v-3.177h-3.177c-.3744 0-.6807-.3064-.6807-.6808v-1.815c0-.3744.3063-.6807.6807-.6807h3.177v-3.177c0-.3744.3063-.6807.6807-.6807h1.815c.3744 0 .6807.3063.6807.6807v3.177h3.177c.3744 0 .6807.3063.6807.6807z"/>
 </g>
</svg>
