<svg height="103.71" width="29.06mm" viewBox="0 0 102.95988 97.225313">
    <path d="M0 96.9c.355.069.677.186 1.049.23 16.2 1.947 11.92-21.12 28.04-21.07 16.13.05 20.21 9.762 35.2 7.986 15.05-1.783 12.31-13.23 14.82-19.87 5.602-14.81 21.55.647 23.63-10.13 2.59-13.46-19.22-19.84-16.73-33.53 2.034-11.17 16.84-1.163 16.49-16.98-.02-.875-.462-2.649-.642-3.49L.157.031z" color="#000"/>
    <path d="M0 27.977l.495-.045c3.123-.386 6.218-.887 9.273-1.502a119.836 119.836 0 0 0 9.027-2.18c2.957-.838 5.856-1.784 8.686-2.836s5.586-2.208 8.26-3.463 5.261-2.608 7.752-4.055c2.49-1.447 4.881-2.984 7.164-4.607s4.455-3.33 6.508-5.113A77.622 77.622 0 0 0 61.48.024L0 .008-.003 1.88v26.1zM7.753 44.055l2.325-1.583L12.63 43.6l-.705-2.827 1.804-2.217-2.76-.165-1.437-2.498-1.002 2.725-2.69.673 2.141 1.85z" fill="#fff" color="#000"/>
    <path strokeLinejoin="bevel" stroke="#000" strokeWidth="3.111" fill="#fff" transform="matrix(-.5066 .5578 .4152 .3585 -88.165 -188.445)" d="M148.7 437.5H91.06l14.41-24.96 14.41-24.96 14.41 24.96z" color="#000"/>
    <path d="M-142 618.3c4.912-1.561 10.18-1.87 16.05 0l-8.026-10.59zM-142.5 633.1c6.231-4.92 11.66-3.586 16.8 0v22.63h-16.8z" transform="matrix(-.7371 .8115 .793 .6845 -568.544 -289.895)" stroke="#000" strokeWidth="1.867" color="#000"/>
    <path d="M-153.9 633.1c4.266-4.92 7.983-3.586 11.5 0v22.63h-11.5zM-125.8 633.1c4.266-4.92 7.983-3.586 11.5 0v22.63h-11.5z" transform="matrix(-.7371 .8115 .793 .6845 -568.544 -289.895)" stroke="#000" strokeWidth="1.867" fill="#fff" color="#000"/>
    <g transform="matrix(-.7371 .8115 .793 .6845 -586.04 -304.949)" color="#000">
        <path strokeLinejoin="bevel" d="M-126.2 682.5h-16.13l-11.74-4.373 11.74-6.135h16.13l11.9 6.135z" stroke="#000" strokeWidth="1.867" fill="#fff"/>
        <ellipse rx="7.65" ry="1.931" cy="677.2" cx="-134.2"/>
    </g>
    <path d="M58.37 56.925l13.57 11.904M65.774 44.553l11.879 9.393M44.07 65.906l9.223 8.375" stroke="#f9f9f9" strokeWidth="2.0001" fill="none"/>
    <path fill="#fff" d="M13.419 64.898l2.081-1.305 2.284.93-.631-2.332 1.614-1.83-2.47-.135-1.286-2.061-.897 2.248-2.409.555 1.917 1.526zM61.999 20.098l2.081-1.305 2.284.93-.631-2.332 1.614-1.83-2.47-.135-1.286-2.061-.897 2.248-2.409.555 1.917 1.526zM75.92 33.55l1.597-1 1.75.713-.484-1.788 1.238-1.403-1.894-.104-.986-1.58-.687 1.724-1.847.425 1.47 1.17zM4.186 80.313l1.412-.886 1.55.631-.429-1.582 1.096-1.241-1.677-.093-.872-1.398-.609 1.525-1.634.377 1.3 1.035zM77.95 11.95l1.597-1 1.75.713-.484-1.788 1.238-1.403-1.894-.104-.986-1.58-.687 1.724-1.847.425 1.47 1.17z" color="#000"/>
</svg>
