<svg height="125.3" width="166.7" viewBox="0 0 166.70672 125.29118">
    <path fillOpacity=".2" color="#000" d="M28.49 120.6h137.7v2.916H28.49z"/>
    <path fill="#6a707d" color="#000" d="M4.789 32.6h19.21v87.69H4.789z"/>
    <path fill="#6a707d" color="#000" d="M8.547 20.91h11.69v20.88H8.547z"/>
    <path d="M26.7 37.81s53 60 139 0" stroke="#6a707d" strokeWidth="2" fill="none"/>
    <path fill="#ff8080" color="#000" d="M.196 32.6h28.39v9.186H.196zM.196 112.6h28.39v9.186H.196z"/>
    <path fill="#40434b" color="#000" d="M4.782 41.78h19.2v1.332h-19.2zM8.547 29.19a17.95 17.95 0 0 0 .54.197 17.95 17.95 0 0 0 1.74.444 17.95 17.95 0 0 0 1.772.27 17.95 17.95 0 0 0 1.793.09 17.95 17.95 0 0 0 1.27-.048 17.95 17.95 0 0 0 1.783-.215 17.95 17.95 0 0 0 1.75-.392 17.95 17.95 0 0 0 1.043-.348v-8.846H8.548v8.848z"/>
    <circle cx="14.3" cy="14.3" r="14.3" fill="#6a707d" color="#000"/>
    <path d="M14.3 0C6.402 0 0 6.402 0 14.3l.012.3c6.934-2.96 20.19-3.84 28.59-.3 0-7.898-6.4-14.3-14.3-14.3z" fill="#7c818f" color="#000"/>
    <path fillOpacity=".2" color="#000" d="M.196 121.6h28.39v3.679H.196z"/>
</svg>
