<svg height="440.5" width="800" viewBox="0 0 800.00165 440.4855">
    <rect ry="0" height="391.6" width="781.6" y="18.86" x="9.218" fill="#e2cba1" color="#000"/>
    <g color="#000">
        <path d="M289.4 30.6h223.5c5.826 0 10.52 4.69 10.52 10.52v259.2l-.517 10.52h-243.5l-.517-10.52V41.12c0-5.826 4.69-10.52 10.52-10.52z" fill="#ebdcb9"/>
        <path d="M520.1 33.6s3.298 4.547 3.298 7.478v265.2l-5.796 6.517-222.5-1.608-8.277.55z" fill="#bfac89"/>
        <path d="M291.8 34.9h217.5a7.634 7.634 0 0 1 7.651 7.651v270.1l-7.651-.35H291.8l-7.651.35v-270.1A7.634 7.634 0 0 1 291.8 34.9z" fill="#e2cba1"/>
        <path d="M311.2 52h182.1a5.35 5.35 0 0 1 5.361 5.361c-.294 53.61.43 193.2-.053 246.8l-192.6-.5-.2-246.4a5.348 5.348 0 0 1 5.36-5.361z" fill="#bfac89"/>
        <path d="M305.8 303.9c64.26-.773 128.6-.11 192.9.021-.036-53.55-.015-193.1-.015-246.6 0-1.868-.553-2.558-1.725-3.662z" fill="#ebdcb9"/>
    </g>
    <g color="#000">
        <path fill="gray" d="M307 54h187v259.1H307z"/>
        <path fill="#999" d="M316 62h84.12v250.8H316z"/>
        <path fill="#092c3f" d="M331 83h54.9v210.2H331z"/>
        <path fill="#9cd3f0" d="M333 85h52.29v208.2H333z"/>
        <path fill="#999" d="M340 94h35.32v187.7H340z"/>
        <path fill="#999" d="M355 80h5.759v214.6H355z"/>
        <path fill="#999" d="M325 224h66.42v6.527H325zM325 144h66.42v6.527H325z"/>
        <path fill="#505050" d="M316 62h3.742v250.8H316z"/>
        <path fill="#999" d="M486 62h-84.12v250.8H486z"/>
        <path fill="#505050" d="M316 62h170.4v3.237H316zM320 199h69.68v5.856H320z"/>
        <path fill="#b1b1b1" d="M320 192h7.295v18.27H320zM388 192h7.295v18.27H388z"/>
        <path fill="#b1b1b1" d="M320 198h69.68v5.856H320z"/>
        <path fill="#092c3f" d="M471 83h-54.9v210.2H471z"/>
        <path fill="#9cd3f0" d="M469 85h-52.29v208.2H469z"/>
        <path fill="#999" d="M462 94h-35.32v187.7H462z"/>
        <path fill="#999" d="M447 80h-5.759v214.6H447z"/>
        <path fill="#999" d="M477 224h-66.42v6.527H477zM477 144h-66.42v6.527H477z"/>
        <path fill="#505050" d="M481 199h-69.68v5.856H481z"/>
        <path fill="#b1b1b1" d="M481 192h-7.295v18.27H481zM413 192h-7.295v18.27H413z"/>
        <path fill="#b1b1b1" d="M481 198h-69.68v5.856H481z"/>
    </g>
    <g id="steps" color="#000">
        <path fill="#7fb7b9" d="M764.6 1435h284.3v15.08H764.6z" transform="translate(-506.6 -1027)"/>
        <path fill="#9e708b" d="M771.7 1420h270.1v15.08H771.7z" transform="translate(-506.6 -1027)"/>
        <path fill="#757b9b" d="M778.8 1405h255.9v15.08H778.8z" transform="translate(-506.6 -1027)"/>
        <path fill="#e0c272" d="M785.9 1390h241.7v15.08H785.9z" transform="translate(-506.6 -1027)"/>
        <path fill="#c58498" d="M793 1374h227.5v15.08H793z" transform="translate(-506.6 -1027)"/>
        <path fill="#64a372" d="M800.1 1359h213.3v15.08H800.1z" transform="translate(-506.6 -1027)"/>
        <path fill="#ca7072" d="M807.2 1344h199v15.08h-199z" transform="translate(-506.6 -1027)"/>
        <path d="M807.2-1344h199l-6 5.255h-187z" transform="matrix(1 0 0 -1 -506.6 -1027)" fill="#d89798"/>
    </g>
    <g transform="matrix(.8927 0 0 1 -213.7 -675.4)">
        <rect ry="0" height="60.29" width="299.8" y="1056" x="824.9" fill="#75687c" color="#000"/>
        <g transform="translate(215.8 -357.3)" color="#000">
            <rect transform="scale(1 -1)" ry="0" height="89.37" width="41.06" y="-1409" x="614.5" fill="#75687c"/>
            <rect transform="scale(1 -1)" ry="0" height="7.588" width="41.06" y="-1327" x="614.5" fill="#5a4d5e"/>
            <rect ry="0" height="11.22" width="65" y="1309" x="602.5" fill="#75687c"/>
            <path fill="#a195a2" d="M667.423 1308.553H602.42l16.25-9.172 16.252-9.173 16.25 9.173z"/>
        </g>
        <g transform="translate(333.4 -357.3)">
            <path d="M682.7 1345v60.92" stroke="#75687c" strokeWidth="3.175" fill="none"/>
            <circle cx="682.7" cy="1340" r="4.372" fill="#75687c" color="#000"/>
            <path d="M682.7 1344v2.551" stroke="#5a4d5e" strokeWidth="3.175" fill="none"/>
        </g>
        <g transform="translate(457.8 -357.3)" color="#000">
            <rect ry="0" transform="scale(1 -1)" height="89.37" width="41.06" y="-1409" x="614.5" fill="#75687c"/>
            <rect ry="0" transform="scale(1 -1)" height="7.588" width="41.06" y="-1327" x="614.5" fill="#5a4d5e"/>
            <rect ry="0" height="11.22" width="65" y="1309" x="602.5" fill="#75687c"/>
            <path d="M667.423 1308.553H602.42l16.25-9.172 16.252-9.173 16.25 9.173z" fill="#a195a2"/>
        </g>
        <g transform="translate(303 -357.3)">
            <path d="M682.7 1345v60.92" stroke="#75687c" strokeWidth="3.175" fill="none"/>
            <circle cy="1340" cx="682.7" r="4.372" fill="#75687c" color="#000"/>
            <path d="M682.7 1344v2.551" stroke="#5a4d5e" strokeWidth="3.175" fill="none"/>
        </g>
        <g transform="translate(272.6 -357.3)">
            <path d="M682.7 1345v60.92" stroke="#75687c" strokeWidth="3.175" fill="none"/>
            <circle cx="682.7" cy="1340" r="4.372" fill="#75687c" color="#000"/>
            <path d="M682.7 1344v2.551" stroke="#5a4d5e" strokeWidth="3.175" fill="none"/>
        </g>
        <g transform="translate(242.2 -357.3)">
            <path d="M682.7 1345v60.92" stroke="#75687c" strokeWidth="3.175" fill="none"/>
            <circle cy="1340" cx="682.7" r="4.372" fill="#75687c" color="#000"/>
            <path d="M682.7 1344v2.551" stroke="#5a4d5e" strokeWidth="3.175" fill="none"/>
        </g>
        <g transform="translate(211.8 -357.3)">
            <path d="M682.7 1345v60.92" stroke="#75687c" strokeWidth="3.175" fill="none"/>
            <circle cx="682.7" cy="1340" r="4.372" fill="#75687c" color="#000"/>
            <path d="M682.7 1344v2.551" stroke="#5a4d5e" strokeWidth="3.175" fill="none"/>
        </g>
        <rect ry="0" transform="scale(1 -1)" height="5.977" width="299.8" y="-1056" x="824.9" fill="#a195a2" color="#000"/>
        <g transform="translate(363.8 -357.3)">
            <path d="M682.7 1345v60.92" stroke="#75687c" strokeWidth="3.175" fill="none"/>
            <circle cy="1340" cx="682.7" r="4.372" fill="#75687c" color="#000"/>
            <path d="M682.7 1344v2.551" stroke="#5a4d5e" strokeWidth="3.175" fill="none"/>
        </g>
        <path d="M860.5 1000h264.3M860.5 1029h264.3" stroke="#75687c" strokeWidth="3.175" fill="none"/>
    </g>
    <path d="M800 12.98H0v.504c0 4.238 3.348 7.65 7.508 7.65h785c4.16 0 7.508-3.412 7.508-7.65v-.504z" fill="#b49c7f" color="#000"/>
    <path d="M800-.001H0v12.98h800V-.001z" fill="#d9bb99" color="#000"/>
    <g transform="matrix(-.8927 0 0 1 1014 -675.4)">
        <rect ry="0" height="60.29" width="299.8" y="1056" x="824.9" fill="#75687c" color="#000"/>
        <g transform="translate(215.8 -357.3)" color="#000">
            <rect transform="scale(1 -1)" ry="0" height="89.37" width="41.06" y="-1409" x="614.5" fill="#75687c"/>
            <rect transform="scale(1 -1)" ry="0" height="7.588" width="41.06" y="-1327" x="614.5" fill="#5a4d5e"/>
            <rect ry="0" height="11.22" width="65" y="1309" x="602.5" fill="#75687c"/>
            <path fill="#a195a2" d="M667.423 1308.553H602.42l16.25-9.172 16.252-9.173 16.25 9.173z"/>
        </g>
        <g transform="translate(333.4 -357.3)">
            <path d="M682.7 1345v60.92" stroke="#75687c" strokeWidth="3.175" fill="none"/>
            <circle cx="682.7" cy="1340" r="4.372" fill="#75687c" color="#000"/>
            <path d="M682.7 1344v2.551" stroke="#5a4d5e" strokeWidth="3.175" fill="none"/>
        </g>
        <g transform="translate(457.8 -357.3)" color="#000">
            <rect ry="0" transform="scale(1 -1)" height="89.37" width="41.06" y="-1409" x="614.5" fill="#75687c"/>
            <rect ry="0" transform="scale(1 -1)" height="7.588" width="41.06" y="-1327" x="614.5" fill="#5a4d5e"/>
            <rect ry="0" height="11.22" width="65" y="1309" x="602.5" fill="#75687c"/>
            <path d="M667.423 1308.553H602.42l16.25-9.172 16.252-9.173 16.25 9.173z" fill="#a195a2"/>
        </g>
        <g transform="translate(303 -357.3)">
            <path d="M682.7 1345v60.92" stroke="#75687c" strokeWidth="3.175" fill="none"/>
            <circle cy="1340" cx="682.7" r="4.372" fill="#75687c" color="#000"/>
            <path d="M682.7 1344v2.551" stroke="#5a4d5e" strokeWidth="3.175" fill="none"/>
        </g>
        <g transform="translate(272.6 -357.3)">
            <path d="M682.7 1345v60.92" stroke="#75687c" strokeWidth="3.175" fill="none"/>
            <circle cx="682.7" cy="1340" r="4.372" fill="#75687c" color="#000"/>
            <path d="M682.7 1344v2.551" stroke="#5a4d5e" strokeWidth="3.175" fill="none"/>
        </g>
        <g transform="translate(242.2 -357.3)">
            <path d="M682.7 1345v60.92" stroke="#75687c" strokeWidth="3.175" fill="none"/>
            <circle cy="1340" cx="682.7" r="4.372" fill="#75687c" color="#000"/>
            <path d="M682.7 1344v2.551" stroke="#5a4d5e" strokeWidth="3.175" fill="none"/>
        </g>
        <g transform="translate(211.8 -357.3)">
            <path d="M682.7 1345v60.92" stroke="#75687c" strokeWidth="3.175" fill="none"/>
            <circle cx="682.7" cy="1340" r="4.372" fill="#75687c" color="#000"/>
            <path d="M682.7 1344v2.551" stroke="#5a4d5e" strokeWidth="3.175" fill="none"/>
        </g>
        <rect ry="0" transform="scale(1 -1)" height="5.977" width="299.8" y="-1056" x="824.9" fill="#a195a2" color="#000"/>
        <g transform="translate(363.8 -357.3)">
            <path d="M682.7 1345v60.92" stroke="#75687c" strokeWidth="3.175" fill="none"/>
            <circle cy="1340" cx="682.7" r="4.372" fill="#75687c" color="#000"/>
            <path d="M682.7 1344v2.551" stroke="#5a4d5e" strokeWidth="3.175" fill="none"/>
        </g>
        <path d="M860.5 1000h264.3M860.5 1029h264.3" stroke="#75687c" strokeWidth="3.175" fill="none"/>
    </g>
</svg>
