<svg height="465" width="2350" viewBox="0 0 2350 465.0454">
    <g color="#000">
        <ellipse rx="487.9" ry="153.8" cy="189.8" cx="679.8" fill="#8cae00"/>
        <path d="M0 301.4a449.8 153.8 0 0 0 124.7 6.1 449.8 153.8 0 0 0 449.8-153.7A449.8 153.8 0 0 0 124.7 0 449.8 153.8 0 0 0 0 6.098v295.3z" fill="#99be00"/>
        <ellipse rx="449.8" ry="153.8" cy="224" cx="608.5" fill="#99be00"/>
        <ellipse rx="365" ry="153.8" cy="192" cx="1848" fill="#8cae00"/>
        <ellipse rx="365" ry="153.8" cy="213.1" cx="1403" fill="#99be00"/>
        <ellipse rx="383.4" ry="153.8" cy="280.5" cx="951.4" fill="#aad400"/>
        <ellipse rx="383.4" ry="153.8" cy="294.9" cx="1561" fill="#aad400"/>
        <ellipse rx="342.9" ry="168.2" cy="279.2" cx="532.3" fill="#aad400"/>
        <ellipse rx="383.4" ry="153.8" cy="255.5" cx="1966" fill="#aad400"/>
        <path d="M2048 151.5a591.2 219.4 0 0 0-591.2 219.4 591.2 219.4 0 0 0 57.96 94.12h835.5v-282.4a591.2 219.4 0 0 0-302.3-31.14zM457.2 241.4A591.2 219.4 0 0 0 0 321.9v143.2h1048a591.2 219.4 0 0 0 .402-4.219 591.2 219.4 0 0 0-591.2-219.4z" fill="#aad400"/>
        <path d="M1322 304a591.2 219.4 0 0 0-569.3 161h1139a591.2 219.4 0 0 0-569.9-161zM226.5 83.81a219.4 398.7 88.33 0 0-28.19.022 219.4 398.7 88.33 0 0-198.3 33.47v347.8h456.6a219.4 398.7 88.33 0 0 140.3-169.9 219.4 398.7 88.33 0 0-370.4-211.4z" fill="#aad400"/>
    </g>
</svg>
