<svg height="30.12" width="52.92" viewBox="0 0 52.92355 30.123003">
    <path d="M14.63 0c-.86.004-1.72.077-2.56.218-.77.134-1.33.807-1.33 1.58v2.266a11.712 11.712 0 0 0-3.732 2.13L5.03 5.065a1.637 1.637 0 0 0-2.059.357C1.87 6.725.708 8.218.103 9.845c-.279.733.027 1.56.714 1.95l2.263 1.13a11.52 11.52 0 0 0 0 4.262l-2.263 1.13a1.614 1.614 0 0 0-.714 1.956c.605 1.62 1.767 3.113 2.868 4.417.503.598 1.38.746 2.059.357l1.978-1.123a11.83 11.83 0 0 0 3.732 2.13v2.26c0 .786.578 1.452 1.359 1.587 1.733.295 3.487.282 5.159 0a1.614 1.614 0 0 0 1.339-1.587v-2.26a11.712 11.712 0 0 0 3.732-2.13l1.978 1.13c.686.39 1.557.242 2.06-.357 1.101-1.304 2.291-2.797 2.895-4.424a1.608 1.608 0 0 0-.714-1.956l-2.29-1.13a11.557 11.557 0 0 0 0-4.269l2.29-1.13c.687-.397.952-1.224.68-1.956-.605-1.627-1.76-3.119-2.861-4.424a1.64 1.64 0 0 0-2.06-.356l-1.978 1.13a11.92 11.92 0 0 0-3.73-2.127v-2.26c0-.786-.578-1.451-1.359-1.586-.87-.145-1.74-.214-2.61-.211zm.11 10.2c3.821.055 6.601 4.448 3.521 8.412-5.234 3.98-11.21-1.929-7.184-7.106 1.227-.933 2.494-1.322 3.664-1.305zM38.91 4.838c0-2.088 1.711-3.781 3.823-3.781 2.111 0 3.823 1.693 3.823 3.781s-1.711 3.781-3.823 3.781c-2.111 0-3.823-1.693-3.823-3.781zm13.52.072a1.713 1.713 0 0 0-2.403 0l-4.599 4.55h-5.389L35.44 4.91a1.713 1.713 0 0 0-2.403 0 1.668 1.668 0 0 0 0 2.377l5.024 4.97v14.01c0 .927.76 1.68 1.699 1.68h.85a1.69 1.69 0 0 0 1.698-1.68v-5.883h.85v5.882c0 .928.76 1.681 1.699 1.681h.85a1.69 1.69 0 0 0 1.698-1.68v-14.01l5.024-4.97a1.668 1.668 0 0 0 0-2.377z"/>
</svg>
