<svg height="448" width="448" viewBox="0 0 448.00004 448.00001">
    <path d="M416.03 0H31.93C14.33 0 .03 14.5.03 32.3v383.4c0 17.8 14.3 32.3 31.9 32.3h384.1c17.6 0 32-14.5 32-32.3V32.3c0-17.8-14.4-32.3-32-32.3zm-280.6 384h-66.4V170.2h66.5V384zm-33.2-243c-21.3 0-38.5-17.3-38.5-38.5S80.93 64 102.23 64c21.2 0 38.5 17.3 38.5 38.5 0 21.3-17.2 38.5-38.5 38.5zm282.1 243h-66.4V280c0-24.8-.5-56.7-34.5-56.7-34.6 0-39.9 27-39.9 54.9V384h-66.4V170.2h63.7v29.2h.9c8.9-16.8 30.6-34.5 62.9-34.5 67.2 0 79.7 44.3 79.7 101.9V384z"/>
</svg>
