<svg height="364.4" width="800" viewBox="0 0 800.00654 364.3748">
    <path d="M0 363.9h800" strokeOpacity=".48" stroke="#000" fill="none"/>
    <rect ry="0" height="34.33" width="781.9" y="307.3" x="7.144" fill="#e17469" color="#000"/>
    <path d="M800 349.3H0v14.29h800V349.3z" fill="#df695d" color="#000"/>
    <path d="M7.508 341.6A7.491 7.491 0 0 0 0 349.108v.182h800v-.182a7.49 7.49 0 0 0-7.508-7.508h-785z" fill="#e8938b" color="#000"/>
    <rect ry="0" height="8.414" width="781.9" y="313.7" x="7.144" fill="#9c2a1f" color="#000"/>
    <path d="M25.13 206.8h751.7l23.2 112.2H.03z" fill="#f58c6f" color="#000"/>
    <path d="M40.68 213.1l-24.81 99.4M746.8 213.1l24.81 99.47M679.6 213.1l24.81 99.47M612.4 213.1l24.81 99.47M485.3 213l10.44 99.47M422.6 213l1.455 99.47M548.9 213.1l17.63 99.47M99.85 213.1l-24.81 99.47M167 213.1l-24.81 99.47M234.2 213.1l-24.8 99.4M361.4 213l-10.44 99.47M297.8 213.1l-17.63 99.47" fillRule="evenodd" stroke="#f8ae99" strokeWidth="2" fill="#f58c6f"/>
    <path d="M329.8 175h113.9v33.1c-44.36 20.7-70.98 22.18-113.9 0zM329.8 129.2h113.9v11.01H329.8z" fill="#db6c59" color="#000"/>
    <path fill="#db6c59" color="#000" d="M329.8 140.2h8.559v36.11H329.8zM364.9 140.2h8.559v36.11H364.9zM400 140.2h8.559v36.11H400zM435.1 140.2h8.559v36.11H435.1z"/>
    <path fill="#b34141" color="#000" d="M314.7 99.33H455v36.74H314.7z"/>
    <path d="M301.4 84.82c1.968-80.16 167.3-80.16 165.3 0v36.74H301.4z" fill="#db6c59" color="#000"/>
    <path fill="#b34141" d="M389.977 15.768h-5.664l1.416-7.872 1.416-7.87 1.416 7.87z" color="#000"/>
    <rect ry="5.168" height="10.34" width="18.95" y="11.55" x="377.4" fill="#db6c59" color="#000"/>
    <rect ry="5.168" height="10.34" width="29.63" y="17.35" x="371.5" fill="#b34141" color="#000"/>
    <g stroke="#666" strokeWidth="1.023" fill="none">
        <path d="M124.133 136.054l-46.388 73.148 35.685 25.872 34.786-28.55-14.27-67.792zM122.373 134.294l-10.751 101.65" strokeWidth=".9998802"/>
        <path d="M76.856 208.283l48.166-70.47h-1.784l23.194 66.014" strokeWidth=".9998802"/>
        <path d="M113.381 154.82l5.352 21.405-25.871 5.352 19.626 37.464-33.896-12.491" strokeWidth=".9998802"/>
        <path d="M111.622 235.064l-27.65-40.142 33.006-2.676-10.703-29.439 12.492-6.245" strokeWidth=".9998802"/>
        <path d="M116.118 229.689l25.872-47.277-24.983-13.38 17.838-14.271-14.27-16.948" strokeWidth=".9998802"/>
        <path d="M133.907 139.67v3.568l-13.381 16.06 21.405 7.135-27.65 31.218 35.684 8.921" strokeWidth=".9998802"/>
    </g>
    <g transform="translate(-10.26) scale(.9774)">
        <ellipse cy="190.7" transform="rotate(-34.48)" stroke="#b3b3b3" strokeWidth="2.046" fill="#e6e6e6" rx="21.45" ry="48.83" cx="47.73" color="#000"/>
        <ellipse cy="192.1" ry="10.95" stroke="#b3b3b3" strokeWidth="2.046" fill="#e6e6e6" rx="5.02" transform="rotate(-34.48)" cx="47.73" color="#000"/>
        <path d="M144.8 125.8l55.29-29.11 5.166 7.524-54.26 30.62zM145.6 125.3l15.51 4.85" stroke="#4d4d4d" strokeWidth="1.023" fill="none"/>
        <path d="M162.9 131.1l3.3-17.77c8.053-1.811 1.61-1.024 8.602-.371 1.092.102 2.194-.03 3.29-.046M181.9 116.9l1.886-10.15M202.2 103l-14.43-.055" stroke="#4d4d4d" strokeWidth="1.023" fill="none"/>
        <ellipse cy="196.6" ry="9.127" stroke="#4d4d4d" strokeWidth="2.046" fill="#e6e6e6" rx="6.845" transform="rotate(-34.48)" cx="109.8" color="#000"/>
    </g>
</svg>
