<svg xmlns:rdf="http://www.w3.org/1999/02/22-rdf-syntax-ns#" xmlns="http://www.w3.org/2000/svg" height="160.1" width="732.9" version="1.1" xmlns:cc="http://creativecommons.org/ns#" xmlns:dc="http://purl.org/dc/elements/1.1/" viewBox="0 0 732.93989 160.12933">
 <g transform="translate(.000001913 .00001145)">
  <text stroke-linejoin="round" font-size="156.7px" xml:space="preserve" stroke="#000000" stroke-linecap="round" stroke-width="4" fill="#000000" style="text-rendering:auto;color-rendering:auto;color:#000000;isolation:auto;mix-blend-mode:normal;text-anchor:middle;shape-rendering:auto;solid-color:#000000;image-rendering:auto;text-align:center" font-weight="900" font-family="&apos;Source Code Pro&apos;" y="128.6611" x="452.36829"><tspan stroke="#000000" y="128.6611" x="452.36826" stroke-width="4" fill="#000000"><tspan>A</tspan><tspan>r</tspan><tspan>t</tspan><tspan>F</tspan><tspan>l</tspan><tspan>y</tspan></tspan></text>
  <text stroke-linejoin="round" font-size="156.7px" xml:space="preserve" stroke="#000000" stroke-linecap="round" stroke-width="4" fill="none" style="text-rendering:auto;color-rendering:auto;color:#000000;isolation:auto;mix-blend-mode:normal;text-anchor:middle;shape-rendering:auto;solid-color:#000000;image-rendering:auto;text-align:center" font-weight="900" font-family="&apos;Source Code Pro&apos;" y="122.82156" x="448.20319"><tspan font-family="&apos;Source Code Pro&apos;" font-weight="bold" stroke="#000000" y="122.82156" x="448.20316" stroke-width="4"><tspan fill="#ff0000">A</tspan><tspan fill="#ff6600">r</tspan><tspan fill="#ffcc00">t</tspan><tspan fill="#abc837">F</tspan><tspan fill="#37abc8">l</tspan><tspan fill="#aa00d4">y</tspan></tspan></text>
  <g>
   <path stroke-linejoin="round" style="color-rendering:auto;color:#000000;isolation:auto;mix-blend-mode:normal;shape-rendering:auto;solid-color:#000000;image-rendering:auto" d="m148 111.7c4.976-5.58 4.014-18-7.768-21.43-11.43-3.331-23.78-3.472-23.78-3.472-3.168 17.84 23.85 34.04 31.55 24.9z" stroke="#000" stroke-linecap="round" stroke-width="3" fill="#fff"/>
   <path stroke-linejoin="round" style="color-rendering:auto;color:#000000;isolation:auto;mix-blend-mode:normal;shape-rendering:auto;solid-color:#000000;image-rendering:auto" d="m159.2 52.05c5.223 12.99-.2719 31.26-15.38 34.46-14.65 3.104-29.52.6188-29.52.6188 1.245-30.82 32.35-60.06 44.9-35.08z" stroke="#000" stroke-linecap="round" stroke-width="3" fill="#fff"/>
   <path stroke-linejoin="round" style="color-rendering:auto;color:#000000;isolation:auto;mix-blend-mode:normal;shape-rendering:auto;solid-color:#000000;image-rendering:auto" d="m14.62 111.7c-4.976-5.6-4.01-18.03 7.77-21.46 11.42-3.33 23.78-3.47 23.78-3.47 3.17 17.83-23.84 34.03-31.55 24.93z" stroke="#000" stroke-linecap="round" stroke-width="3" fill="#fff"/>
   <path stroke-linejoin="round" style="color-rendering:auto;color:#000000;isolation:auto;mix-blend-mode:normal;shape-rendering:auto;solid-color:#000000;image-rendering:auto" d="m3.442 52.05c-5.223 12.99.2719 31.26 15.38 34.46 14.65 3.104 29.52.6188 29.52.6188-1.24-30.81-32.35-60.06-44.9-35.08z" stroke="#000" stroke-linecap="round" stroke-width="3" fill="#fff"/>
   <path stroke-linejoin="round" stroke="#000" stroke-linecap="round" stroke-width="3.148" fill="#e9ddaf" style="color-rendering:auto;color:#000000;isolation:auto;mix-blend-mode:normal;shape-rendering:auto;solid-color:#000000;image-rendering:auto" transform="matrix(1.165 0 0 .7797 -57.96 -300.7)" d="m148.7 437.5h-28.82-28.82l14.41-24.96 14.41-24.96 14.41 24.96z"/>
   <path stroke-linejoin="round" style="color-rendering:auto;color:#000000;isolation:auto;mix-blend-mode:normal;shape-rendering:auto;solid-color:#000000;image-rendering:auto" d="m68.17 17.26c8.326-2.324 17.25-2.784 27.21 0l-13.6-15.77z" stroke="#000" stroke-linecap="round" stroke-width="3" fill="#f00"/>
   <path style="color-rendering:auto;color:#000000;isolation:auto;mix-blend-mode:normal;shape-rendering:auto;solid-color:#000000;image-rendering:auto" d="m67.06 41.94c10.95-8.918 20.5-6.5 29.54 0v87.38h-29.54z" stroke="#000" stroke-width="3" fill="#fc0"/>
   <path style="color-rendering:auto;color:#000000;isolation:auto;mix-blend-mode:normal;shape-rendering:auto;solid-color:#000000;image-rendering:auto" d="m47.02 41.94c7.498-8.918 14.03-6.5 20.22 0v87.38h-20.22z" stroke="#000" stroke-width="3" fill="#f60"/>
   <path style="color-rendering:auto;color:#000000;isolation:auto;mix-blend-mode:normal;shape-rendering:auto;solid-color:#000000;image-rendering:auto" d="m96.42 41.94c7.498-8.918 14.03-6.5 20.22 0v87.38h-20.22z" stroke="#000" stroke-width="3" fill="#f60"/>
   <ellipse style="color-rendering:auto;color:#000000;isolation:auto;mix-blend-mode:normal;shape-rendering:auto;solid-color:#000000;image-rendering:auto" rx="20.44" ry="20.7" stroke="#000" cy="71.01" cx="60.8" stroke-width="3" fill="#fff"/>
   <ellipse style="color-rendering:auto;color:#000000;isolation:auto;mix-blend-mode:normal;shape-rendering:auto;solid-color:#000000;image-rendering:auto" rx="9.527" ry="9.646" cy="71.01" cx="60.8"/>
   <ellipse style="color-rendering:auto;color:#000000;isolation:auto;mix-blend-mode:normal;shape-rendering:auto;solid-color:#000000;image-rendering:auto" rx="20.44" ry="20.7" stroke="#000" cy="71.01" cx="101.4" stroke-width="3" fill="#fff"/>
   <ellipse style="color-rendering:auto;color:#000000;isolation:auto;mix-blend-mode:normal;shape-rendering:auto;solid-color:#000000;image-rendering:auto" rx="9.527" ry="9.646" cy="71.01" cx="101.4"/>
   <path stroke-linejoin="round" style="color-rendering:auto;color:#000000;isolation:auto;mix-blend-mode:normal;shape-rendering:auto;solid-color:#000000;image-rendering:auto" d="m64.32 144.4-17.37-12.97 17.37-12.73 34.82-.08 17.21 12.65-17.29 12.73z" stroke="#000" stroke-linecap="round" stroke-width="3" fill="#e9ddaf"/>
   <ellipse stroke-linejoin="round" style="color-rendering:auto;color:#000000;isolation:auto;mix-blend-mode:normal;shape-rendering:auto;solid-color:#000000;image-rendering:auto" stroke-linecap="round" rx="10.24" ry="2.497" stroke="#000" cy="131.5" cx="81.86" stroke-width="3" fill="#f00"/>
  </g>
 </g>
</svg>
