<svg xmlns:rdf="http://www.w3.org/1999/02/22-rdf-syntax-ns#" xmlns="http://www.w3.org/2000/svg" height="65" width="67.49" version="1.1" xmlns:cc="http://creativecommons.org/ns#" xmlns:dc="http://purl.org/dc/elements/1.1/" viewBox="0 0 67.489159 65.000001">
 <g>
  <rect style="color-rendering:auto;color:#000000;isolation:auto;mix-blend-mode:normal;shape-rendering:auto;solid-color:#000000;image-rendering:auto" ry="0" height="65" width="67.49" y="-.000004688" x=".00001568" fill="#fff"/>
  <text style="word-spacing:0px;letter-spacing:0px" line-height="125%" xml:space="preserve" font-size="9.67px" y="56.82584" x="20.239937" font-family="sans-serif" fill="#000000"><tspan font-weight="900" font-size="11.25px" y="56.82584" x="20.239937" font-family="&apos;Source Code Pro&apos;">edit</tspan></text>
  <path d="m36.42 17.14 6.577 6.505c.2785.2754.2785.7208 0 .9963l-16.08 15.91-6.761.7385c-.9066.0996-1.671-.6564-1.57-1.553l.7525-6.693 16.08-15.9c.2785-.2754.7288-.2754 1.007 0zm11.66-1.5-3.561-3.522c-1.108-1.096-2.909-1.096-4.023 0l-2.732 2.702c-.2785.2755-.2785.7209 0 .9963l6.577 6.505c.2785.2755.7288.2755 1.007 0l2.732-2.702c1.114-1.102 1.114-2.884 0-3.979z"/>
 </g>
</svg>
