<svg xmlns:rdf="http://www.w3.org/1999/02/22-rdf-syntax-ns#" xmlns="http://www.w3.org/2000/svg" height="65" width="67.49" version="1.1" xmlns:cc="http://creativecommons.org/ns#" xmlns:dc="http://purl.org/dc/elements/1.1/" viewBox="0 0 67.489159 65.000001">
 <g>
  <rect style="color-rendering:auto;color:#000000;isolation:auto;mix-blend-mode:normal;shape-rendering:auto;solid-color:#000000;image-rendering:auto" ry="0" height="65" width="67.49" y="0" x="0" fill="#fff"/>
  <path stroke-linejoin="round" style="color-rendering:auto;color:#000000;isolation:auto;mix-blend-mode:normal;shape-rendering:auto;solid-color:#000000;image-rendering:auto" d="m49.72 33.62c1.192-1.344.9618-4.335-1.861-5.162-2.737-.8023-5.698-.8363-5.698-.8363-.7589 4.298 5.713 8.199 7.56 5.999z" stroke="#000" stroke-linecap="round" stroke-width="1.5" fill="#fff"/>
  <path stroke-linejoin="round" style="color-rendering:auto;color:#000000;isolation:auto;mix-blend-mode:normal;shape-rendering:auto;solid-color:#000000;image-rendering:auto" d="m52.4 19.26c1.251 3.129-.0651 7.53-3.685 8.301-3.51.7477-7.073.1490-7.073.1490.2982-7.423 7.751-14.47 10.76-8.45z" stroke="#000" stroke-linecap="round" stroke-width="1.5" fill="#fff"/>
  <path stroke-linejoin="round" style="color-rendering:auto;color:#000000;isolation:auto;mix-blend-mode:normal;shape-rendering:auto;solid-color:#000000;image-rendering:auto" d="m17.77 33.62c-1.192-1.344-.9618-4.335 1.861-5.162 2.737-.8023 5.698-.8363 5.698-.8363.7589 4.298-5.713 8.199-7.56 5.999z" stroke="#000" stroke-linecap="round" stroke-width="1.5" fill="#fff"/>
  <path stroke-linejoin="round" style="color-rendering:auto;color:#000000;isolation:auto;mix-blend-mode:normal;shape-rendering:auto;solid-color:#000000;image-rendering:auto" d="m15.09 19.26c-1.251 3.129.0651 7.53 3.685 8.301 3.51.7477 7.073.1490 7.073.1490-.2982-7.423-7.751-14.47-10.76-8.45z" stroke="#000" stroke-linecap="round" stroke-width="1.5" fill="#fff"/>
  <path stroke-linejoin="round" stroke="#000" stroke-linecap="round" stroke-width="6.551" fill="#f9f9f9" style="color-rendering:auto;color:#000000;isolation:auto;mix-blend-mode:normal;shape-rendering:auto;solid-color:#000000;image-rendering:auto" transform="matrix(.2791 0 0 .1878 .3766 -65.69)" d="m148.7 437.5h-28.82-28.82l14.41-24.96 14.41-24.96 14.41 24.96z"/>
  <path stroke-linejoin="round" style="color-rendering:auto;color:#000000;isolation:auto;mix-blend-mode:normal;shape-rendering:auto;solid-color:#000000;image-rendering:auto" d="m30.6 10.88c1.995-.5598 4.133-.6706 6.519 0l-3.26-3.796z" stroke="#000" stroke-linecap="round" stroke-width="1.5"/>
  <path style="color-rendering:auto;color:#000000;isolation:auto;mix-blend-mode:normal;shape-rendering:auto;solid-color:#000000;image-rendering:auto" d="m30.33 16.83c2.624-2.148 4.911-1.566 7.077 0v21.05h-7.077z" stroke="#000" stroke-width="1.5" fill="#fff"/>
  <path style="color-rendering:auto;color:#000000;isolation:auto;mix-blend-mode:normal;shape-rendering:auto;solid-color:#000000;image-rendering:auto" d="m25.53 16.83c1.796-2.148 3.362-1.566 4.845 0v21.05h-4.845z" stroke="#000" stroke-width="1.5"/>
  <path style="color-rendering:auto;color:#000000;isolation:auto;mix-blend-mode:normal;shape-rendering:auto;solid-color:#000000;image-rendering:auto" d="m37.36 16.83c1.796-2.148 3.362-1.566 4.845 0v21.05h-4.845z" stroke="#000" stroke-width="1.5"/>
  <ellipse style="color-rendering:auto;color:#000000;isolation:auto;mix-blend-mode:normal;shape-rendering:auto;solid-color:#000000;image-rendering:auto" rx="4.898" ry="4.986" stroke="#000" cy="23.83" cx="28.83" stroke-width="1.5" fill="#fff"/>
  <ellipse style="color-rendering:auto;color:#000000;isolation:auto;mix-blend-mode:normal;shape-rendering:auto;solid-color:#000000;image-rendering:auto" rx="2.283" ry="2.323" cy="23.83" cx="28.83"/>
  <ellipse style="color-rendering:auto;color:#000000;isolation:auto;mix-blend-mode:normal;shape-rendering:auto;solid-color:#000000;image-rendering:auto" rx="4.898" ry="4.986" stroke="#000" cy="23.83" cx="38.54" stroke-width="1.5" fill="#fff"/>
  <ellipse style="color-rendering:auto;color:#000000;isolation:auto;mix-blend-mode:normal;shape-rendering:auto;solid-color:#000000;image-rendering:auto" rx="2.283" ry="2.323" cy="23.83" cx="38.54"/>
  <path stroke-linejoin="round" style="color-rendering:auto;color:#000000;isolation:auto;mix-blend-mode:normal;shape-rendering:auto;solid-color:#000000;image-rendering:auto" d="m29.58 41.51-4.306-3.124 4.306-3.066 8.632-.0193 4.267 3.047-4.286 3.066z" stroke="#000" stroke-linecap="round" stroke-width="1.5" fill="#fff"/>
  <ellipse stroke-linejoin="round" style="color-rendering:auto;color:#000000;isolation:auto;mix-blend-mode:normal;shape-rendering:auto;solid-color:#000000;image-rendering:auto" stroke-linecap="round" rx="2.453" ry=".6014" stroke="#000" cy="38.41" cx="33.87" stroke-width="1.5"/>
  <text style="word-spacing:0px;letter-spacing:0px" line-height="125%" xml:space="preserve" font-size="9.67px" y="55.856842" x="19.442505" font-family="sans-serif" fill="#000000"><tspan font-weight="900" font-size="11.86px" y="55.856842" x="19.442505" font-family="&apos;Source Code Pro&apos;">home</tspan></text>
 </g>
</svg>
