<svg xmlns:rdf="http://www.w3.org/1999/02/22-rdf-syntax-ns#" xmlns="http://www.w3.org/2000/svg" height="30.12" width="52.92" version="1.1" xmlns:cc="http://creativecommons.org/ns#" xmlns:dc="http://purl.org/dc/elements/1.1/" viewBox="0 0 52.92355 30.123003">
 <g>
  <path d="m14.63.00006684c-.86.004250-1.72.07655-2.56.2177-.77.1344-1.33.8072-1.33 1.58v2.266c-1.38.4773-2.644 1.21-3.732 2.131l-1.978-1.13c-.6865-.3899-1.556-.2420-2.059.3564-1.101 1.304-2.263 2.797-2.868 4.424-.2787.7328.02717 1.56.7137 1.95l2.263 1.13c-.2651 1.412-.2651 2.857 0 4.262l-2.263 1.13c-.6865.3966-.9856 1.224-.7137 1.956.6049 1.62 1.767 3.113 2.868 4.417.5030.5983 1.38.7463 2.059.3564l1.978-1.123c1.087.9210 2.352 1.647 3.732 2.131v2.259c0 .7866.5778 1.452 1.359 1.587 1.733.2958 3.487.2824 5.159 0 .7748-.1344 1.339-.8067 1.339-1.587v-2.259c1.38-.4773 2.644-1.21 3.732-2.131l1.978 1.13c.6865.3899 1.557.2420 2.06-.3564 1.101-1.304 2.291-2.797 2.895-4.424.2719-.7395-.02717-1.566-.7137-1.956l-2.291-1.13c.2651-1.412.2651-2.857 0-4.269l2.291-1.13c.6865-.3967.9516-1.224.6797-1.956-.6049-1.627-1.76-3.119-2.861-4.424-.5030-.5983-1.38-.7463-2.06-.3564l-1.978 1.13c-1.09-.917-2.35-1.643-3.73-2.127v-2.259c0-.7866-.5777-1.452-1.359-1.587-.87-.1445-1.74-.2135-2.61-.2109zm.11 10.2c3.821.05525 6.601 4.448 3.521 8.412-5.234 3.98-11.21-1.929-7.184-7.106 1.227-.9328 2.494-1.322 3.664-1.305z"/>
  <path d="m38.91 4.838c0-2.088 1.711-3.781 3.823-3.781 2.111 0 3.823 1.693 3.823 3.781s-1.711 3.781-3.823 3.781c-2.111 0-3.823-1.693-3.823-3.781zm13.52.07209c-.6635-.6563-1.739-.6563-2.403 0l-4.599 4.549h-5.389l-4.599-4.549c-.6634-.6563-1.739-.6563-2.403 0-.6635.6563-.6635 1.72 0 2.377l5.024 4.969v14.01c0 .9281.7607 1.681 1.699 1.681h.8495c.9383 0 1.699-.7524 1.699-1.681v-5.882h.8495v5.882c0 .9281.7607 1.681 1.699 1.681h.8495c.9383 0 1.699-.7524 1.699-1.681v-14.01l5.024-4.969c.6635-.6563.6635-1.72 0-2.377z"/>
 </g>
</svg>
