<svg xmlns:rdf="http://www.w3.org/1999/02/22-rdf-syntax-ns#" xmlns="http://www.w3.org/2000/svg" height="21" width="21" version="1.1" xmlns:cc="http://creativecommons.org/ns#" xmlns:dc="http://purl.org/dc/elements/1.1/" viewBox="0 0 21 21">
 <g transform="translate(0,-44)">
  <path d="m1.367 62.99c-.1239-.08328-.1314-.1227-.1236-.6477.00695-.4648.00757-.4703.06816-.5925.09436-.1901.2511-.3454.4439-.4396l.1650-.08064h8.568 8.568l.1437.06733c.2477.1161.4085.2920.4989.5458.04421.1242.04916.1784.05024.5560.0023.4685-.01.5147-.1472.5986l-.07358.04495h-9.042-9.042l-.07773-.05235zm1.087-2.77c0-.4833.01817-.5681.1496-.6980.1353-.1338.2119-.1504.6950-.1504h.3916v-3.658-3.658h1.236 1.236v3.658 3.658h.6181.6181v-3.658-3.658h1.236 1.236v3.658 3.658h.6181.6181v-3.658-3.658h1.236 1.236v3.658 3.658h.6181.6181v-3.658-3.658h1.236 1.236v3.658 3.658h.3916c.4383 0 .5437.01778.6583.1112.1567.1277.1729.1881.1824.6771l.0084.4344h-8.038-8.038v-.3744zm.2670-8.84c-.202-.09-.267-.25-.267-.65v-.2116h-.5117c-.4835 0-.5153-.0023-.5751-.0446-.1177-.08291-.1277-.1284-.1277-.5799v-.4121l.08133-.0744c.07094-.06487.6571-.2904 4.592-1.767 3.838-1.44 4.524-1.691 4.598-1.684.08117.0084 8.943 3.319 9.09 3.396.1189.0622.1444.1339.1555.4378.0059.1498.0028.3385-.0062.4195-.01458.1345-.02325.1542-.1013.2277l-.0854.08045h-.5196-.5196v.2313c0 .3831-.06287.5314-.2699.6366l-.1073.05451h-7.658-7.658l-.1102-.05441z"/>
 </g>
</svg>
