<svg xmlns:rdf="http://www.w3.org/1999/02/22-rdf-syntax-ns#" xmlns="http://www.w3.org/2000/svg" height="63.78" width="407.8" version="1.1" xmlns:cc="http://creativecommons.org/ns#" xmlns:dc="http://purl.org/dc/elements/1.1/" viewBox="0 0 407.75931 63.778302">
 <g>
  <text opacity=".65" style="word-spacing:0px;letter-spacing:0px" line-height="125%" xml:space="preserve" transform="matrix(1.022 0 -1.667 -.9786 0 0)" font-size="7.71px" y="-34.12088" x="20.13377" font-family="sans-serif" fill="#000000"><tspan font-family="&apos;Source Code Pro&apos;" font-weight="900" font-size="41.86px" stroke="#000000" y="-34.12088" x="20.13377" fill="#000000">Add Artwork</tspan></text>
  <text font-size="7.819px" xml:space="preserve" stroke="#3d3457" stroke-width="2" fill="#9875fe" style="word-spacing:0px;letter-spacing:0px" transform="scale(1.003 .9972)" font-family="sans-serif" y="32.71904" x="77.321281" line-height="125%"><tspan font-family="&apos;Source Code Pro&apos;" font-weight="900" font-size="42.45px" stroke="#3d3457" y="32.71904" x="77.321281" stroke-width="2" fill="#9875fe">Add Artwork</tspan></text>
  <path d="m44 36.14h-38.56c-2.448 0-4.44-1.97-4.44-4.39v-26.36c0-2.423 1.992-4.39 4.449-4.39h38.56c2.457 0 4.449 1.967 4.449 4.393v26.36c0 2.426-1.992 4.393-4.449 4.393zm-32.62-30.02c-2.866 0-5.19 2.294-5.19 5.125 0 2.83 2.324 5.125 5.19 5.125s5.19-2.294 5.19-5.125c0-2.83-2.323-5.125-5.19-5.125zm-4.449 24.16h35.59v-10.25l-8.111-8.009c-.4343-.4288-1.138-.4288-1.573 0l-12.56 12.41-5.15-5.08c-.4343-.4288-1.138-.4288-1.573 0l-6.628 6.545v4.393z" stroke="#3d3457" stroke-width="2" fill="#9875fe"/>
  <path opacity=".65" d="m44.72 36.01h-38.56c-2.457 0-2.271 1.498.4155 3.347l29.19 20.07c2.686 1.848 6.856 3.347 9.313 3.347h38.56c2.457 0 2.271-1.498-.4152-3.347l-29.18-20.08c-2.69-1.85-6.86-3.34-9.32-3.34zm.6149 22.87c-2.866 0-7.731-1.748-10.86-3.904-3.134-2.156-3.351-3.904-.4849-3.904s7.731 1.748 10.86 3.904c3.134 2.156 3.351 3.904.4849 3.904zm-31.19-18.41h35.59l11.35 7.809.7576 6.101c.041.3267-.6636.3267-1.573 0l-26.29-9.448.4805 3.87c.041.3267-.6635.3267-1.573 0l-13.89-4.99-4.86-3.34z" stroke="#000" stroke-width="2"/>
 </g>
</svg>
