<svg width="155.4" height="184.4" version="1.1" viewBox="0 0 155.4 184.4" xmlns="http://www.w3.org/2000/svg">
 <g id="picture" transform="translate(2.471 8.134)" shape-rendering="auto">
  <rect transform="matrix(1 0 -.4407 .8977 0 0)" x="108" y="99.72" width="86.59" height="94.93" ry="0" color="#000000" color-rendering="auto" fill="#fff6d5" image-rendering="auto" solid-color="#000000" stroke="#000" stroke-linecap="round" stroke-width="3.191" style="isolation:auto;mix-blend-mode:normal"/>
  <path d="m77.78 162.5c3.198-.1776 8.454-4.114 8.121-8.589-.32-4.342-2.171-8.015-2.171-8.015-8.249 4.313-11.12 17.02-5.949 16.6z" color="#000000" color-rendering="auto" fill="#fff" image-rendering="auto" solid-color="#000000" stroke="#000" stroke-linecap="round" stroke-linejoin="round" stroke-width="1.89" style="isolation:auto;mix-blend-mode:normal"/>
  <path d="m105.4 148.2c-4.843 5.357-13.64 9.113-17.37 5.611-3.617-3.396-4.838-8.502-4.838-8.502 13.6-8.697 31.14-8.148 22.21 2.888z" color="#000000" color-rendering="auto" fill="#fff" image-rendering="auto" solid-color="#000000" stroke="#000" stroke-linecap="round" stroke-linejoin="round" stroke-width="1.89" style="isolation:auto;mix-blend-mode:normal"/>
  <path d="m57.12 123.2c1.666-3.11 7.223-6.48 10.54-4.026 3.217 2.379 5.192 5.973 5.192 5.973-7.268 6.177-18.5 2.997-15.73-1.947z" color="#000000" color-rendering="auto" fill="#fff" image-rendering="auto" solid-color="#000000" stroke="#000" stroke-linecap="round" stroke-linejoin="round" stroke-width="1.89" style="isolation:auto;mix-blend-mode:normal"/>
  <path d="m81.34 102.4c-6.461 2.284-13.56 9.276-12.61 14.66.9184 5.22 4.303 8.864 4.303 8.864 13.21-9.425 21.12-27.18 8.31-23.52z" color="#000000" color-rendering="auto" fill="#fff" image-rendering="auto" solid-color="#000000" stroke="#000" stroke-linecap="round" stroke-linejoin="round" stroke-width="1.89" style="isolation:auto;mix-blend-mode:normal"/>
  <path d="m103.7 131.9-10.4-19.75 22.13-1.573-5.868 10.66z" color="#000000" color-rendering="auto" fill="#e9ddaf" image-rendering="auto" solid-color="#000000" stroke="#000" stroke-linecap="round" stroke-linejoin="round" stroke-width="1.89" style="isolation:auto;mix-blend-mode:normal"/>
  <path d="m106.5 111.2c2.3 1.765 3.883 4.255 4.213 8.003l4.756-8.639z" color="#000000" color-rendering="auto" fill="#f00" image-rendering="auto" solid-color="#000000" stroke="#000" stroke-linecap="round" stroke-linejoin="round" stroke-width="1.89" style="isolation:auto;mix-blend-mode:normal"/>
  <path d="m95.59 118.2c5.576.5977 6.001 4.117 4.574 8.689l-38.02 25.7-4.574-8.689z" color="#000000" color-rendering="auto" fill="#fc0" image-rendering="auto" solid-color="#000000" stroke="#000" stroke-width="1.89" style="isolation:auto;mix-blend-mode:normal"/>
  <path d="m92.48 112.3c5.042-.4176 5.001 2.214 3.131 5.948l-38.02 25.7-3.131-5.948z" color="#000000" color-rendering="auto" fill="#f60" image-rendering="auto" solid-color="#000000" stroke="#000" stroke-width="1.89" style="isolation:auto;mix-blend-mode:normal"/>
  <path d="m100.1 126.8c5.042-.4176 5.001 2.214 3.131 5.948l-38.02 25.7-3.131-5.948z" color="#000000" color-rendering="auto" fill="#f60" image-rendering="auto" solid-color="#000000" stroke="#000" stroke-width="1.89" style="isolation:auto;mix-blend-mode:normal"/>
  <ellipse transform="matrix(.4658 .8849 -.8284 .5601 0 0)" cx="150.3" cy="-14.46" rx="6.794" ry="10.87" color="#000000" color-rendering="auto" fill="#fff" image-rendering="auto" solid-color="#000000" stroke="#000" stroke-width="1.895" style="isolation:auto;mix-blend-mode:normal"/>
  <ellipse transform="matrix(.4658 .8849 -.8284 .5601 0 0)" cx="150.3" cy="-14.46" rx="3.167" ry="5.066" color="#000000" color-rendering="auto" image-rendering="auto" solid-color="#000000" stroke-width="1.895" style="isolation:auto;mix-blend-mode:normal"/>
  <ellipse transform="matrix(.4658 .8849 -.8284 .5601 0 0)" cx="163.7" cy="-14.46" rx="6.794" ry="10.87" color="#000000" color-rendering="auto" fill="#fff" image-rendering="auto" solid-color="#000000" stroke="#000" stroke-width="1.895" style="isolation:auto;mix-blend-mode:normal"/>
  <ellipse transform="matrix(.4658 .8849 -.8284 .5601 0 0)" cx="163.7" cy="-14.46" rx="3.167" ry="5.066" color="#000000" color-rendering="auto" image-rendering="auto" solid-color="#000000" stroke-width="1.895" style="isolation:auto;mix-blend-mode:normal"/>
  <path d="m50.59 147.5 2.966-8.93 8.507 2.15 5.039 8.456-2.751 9.791-8.209-1.365z" color="#000000" color-rendering="auto" fill="#e9ddaf" image-rendering="auto" solid-color="#000000" stroke="#000" stroke-linecap="round" stroke-linejoin="round" stroke-width="1.89" style="isolation:auto;mix-blend-mode:normal"/>
  <ellipse transform="matrix(.4658 .8849 -.8284 .5601 0 0)" cx="157.3" cy="17.3" rx="3.404" ry="1.311" color="#000000" color-rendering="auto" fill="#f00" image-rendering="auto" solid-color="#000000" stroke="#000" stroke-linecap="round" stroke-linejoin="round" stroke-width="1.895" style="isolation:auto;mix-blend-mode:normal"/>
  <ellipse transform="matrix(.4019 .9157 -.8121 .5835 0 0)" cx="154.2" cy="-27.92" rx="2.052" ry="3.26" color="#000000" color-rendering="auto" fill="#fff" image-rendering="auto" solid-color="#000000" stroke-width="1.911" style="isolation:auto;mix-blend-mode:normal"/>
  <ellipse transform="matrix(.4019 .9157 -.8121 .5835 0 0)" cx="168" cy="-28.93" rx="2.052" ry="3.26" color="#000000" color-rendering="auto" fill="#fff" image-rendering="auto" solid-color="#000000" stroke-width="1.911" style="isolation:auto;mix-blend-mode:normal"/>
  <path transform="matrix(.9634 0 0 .6019 182.1 111.3)" d="m-55.13-12.65c-2.142 2.154 1.515 3.293-1.255 4.324-2.77 1.03-3.685-1.463-6.027-3.23-2.342-1.767-3.103 2.296-3.998-.9555-.8955-3.251-.1716-2.803.3299-6.067.5016-3.264-3.803-4.405-1.086-6.235s2.559-.1761 5.641-.3082c3.081-.132 4.7-4.326 7.511-2.801 2.811 1.525-1.727 3.971-.2877 6.441 1.439 2.47 3.448 3.251 3.624 6.594.176 3.344-2.309.08448-4.451 2.238z" color="#000000" color-rendering="auto" fill="#f00" image-rendering="auto" solid-color="#000000" style="isolation:auto;mix-blend-mode:normal"/>
  <path transform="matrix(.6818 0 0 .4031 166 118.7)" d="m-55.13-12.65c-1.803 1.813.5168 5.613-1.746 6.776-2.263 1.163.175-5.16-2.203-5.889-2.378-.7289-4.897 6.679-7.104 5.362s1.427-6.018.0556-8.218c-1.371-2.2-1.781 3.514-1.909.6459-.1281-2.868.8263-2.942 1.359-5.418s-2.776-3.883-.4892-5.424 3.795 4.006 6.444 3.789c2.649-.2165-.6789-6.442 1.744-5.6 2.423.8412-.1082 3.024 2.038 4.605 2.146 1.581 3.442-.9712 5.062.8352 1.62 1.806-2.001-.6599-2.095 1.7-.09452 2.36 3.717 1.669 3.264 4.297-.4532 2.628-2.616.725-4.419 2.538z" color="#000000" color-rendering="auto" fill="#800080" image-rendering="auto" solid-color="#000000" style="isolation:auto;mix-blend-mode:normal"/>
  <path transform="matrix(.6818 0 0 .4031 149.2 109.9)" d="m-55.13-12.65c-1.708 1.718 3.987 3.898 1.592 4.817-2.395.9185-1.949-2.138-4.473-2.229-2.525-.09061-4.673 1.698-6.783.6857-2.11-1.012 3.632-1.573 1.862-3.535-1.77-1.962-2.707 3.874-3.69 1.579-.9828-2.296 1.089-3.118.7819-5.613-.3066-2.495-1.89-2.913-.8167-5.054 1.073-2.141 1.778.98 3.694-.8224 1.916-1.802-4.179-1.846-1.82-2.484 2.36-.6373 4.255.3814 6.757.348 2.503-.03344 2.148-4.215 4.499-2.951 2.351 1.264-3.379 3.685-1.635 5.348 1.745 1.664 3.991-2.627 4.904-.09522.9127 2.532-2.962 3.964-3.134 6.368-.1719 2.404 3.967 2.151 3.169 4.298-.798 2.148-3.199-2.379-4.907-.6609z" color="#000000" color-rendering="auto" fill="#2ca02c" image-rendering="auto" solid-color="#000000" style="isolation:auto;mix-blend-mode:normal"/>
 </g>
 <path id="flash" d="m106.4 69.02-17.31-13.89-25.89 14.83 8.443-21.15-28.12-2.561 27.84-12.48-9.173-18.02 26.27 5.582 16.68-19.91 4.92 19.44 29.97-6.808-20.13 18.66 20.7 11.42-30.03 3.829z" color="#000000" color-rendering="auto" fill="#fff" image-rendering="auto" shape-rendering="auto" solid-color="#000000" stroke="#000" stroke-linecap="round" stroke-linejoin="round" stroke-width="2.835" style="isolation:auto;mix-blend-mode:normal"/>
 <g id="phone" transform="translate(2.471 8.134)" shape-rendering="auto">
  <rect transform="matrix(1 0 -.2208 .9753 0 0)" x="31.32" y="19.4" width="77.86" height="137.3" ry="12.07" color="#000000" color-rendering="auto" fill="#333" image-rendering="auto" solid-color="#000000" stroke="#000" stroke-linecap="round" stroke-width="3.062" style="isolation:auto;mix-blend-mode:normal"/>
  <rect transform="matrix(1 0 -.2208 .9753 0 0)" x="36.38" y="34.42" width="68.27" height="101.9" ry=".3407" color="#000000" color-rendering="auto" fill="#fff" image-rendering="auto" solid-color="#000000" style="isolation:auto;mix-blend-mode:normal"/>
  <rect transform="matrix(1 0 -.2208 .9753 0 0)" x="58.2" y="24.34" width="24.11" height="4.47" ry=".3278" color="#000000" color-rendering="auto" fill="#b3b3b3" image-rendering="auto" solid-color="#000000" style="isolation:auto;mix-blend-mode:normal"/>
  <ellipse transform="matrix(1 0 -.2208 .9753 0 0)" cx="70.25" cy="147.2" rx="5.386" ry="5.522" color="#000000" color-rendering="auto" fill="#b3b3b3" image-rendering="auto" solid-color="#000000" style="isolation:auto;mix-blend-mode:normal"/>
  <rect transform="matrix(1 0 -.2208 .9753 0 0)" x="36.38" y="47.36" width="68.27" height="77.03" ry=".2575" color="#000000" color-rendering="auto" fill="#fff6d5" image-rendering="auto" solid-color="#000000" style="isolation:auto;mix-blend-mode:normal"/>
  <path d="m47.31 112.1c2.708-.1533 6.65-3.55 5.74-7.413-.8803-3.748-2.976-6.917-2.976-6.917-6.447 3.722-7.121 14.69-2.764 14.33z" color="#000000" color-rendering="auto" fill="#fff" image-rendering="auto" solid-color="#000000" stroke="#000" stroke-linecap="round" stroke-linejoin="round" stroke-width="1.89" style="isolation:auto;mix-blend-mode:normal"/>
  <path d="m68.96 99.83c-3.39 4.624-10.39 7.865-14.06 4.842-3.566-2.931-5.323-7.337-5.323-7.337 10.41-7.506 25.47-7.032 19.39 2.493z" color="#000000" color-rendering="auto" fill="#fff" image-rendering="auto" solid-color="#000000" stroke="#000" stroke-linecap="round" stroke-linejoin="round" stroke-width="1.89" style="isolation:auto;mix-blend-mode:normal"/>
  <path d="m24.17 78.27c.989-2.684 5.267-5.593 8.445-3.475 3.082 2.053 5.272 5.155 5.272 5.155-5.348 5.331-15.39 2.586-13.72-1.68z" color="#000000" color-rendering="auto" fill="#fff" image-rendering="auto" solid-color="#000000" stroke="#000" stroke-linecap="round" stroke-linejoin="round" stroke-width="1.89" style="isolation:auto;mix-blend-mode:normal"/>
  <path d="m41.96 60.29c-5.202 1.971-10.29 8.005-8.728 12.65 1.514 4.505 4.916 7.65 4.916 7.65 9.974-8.134 14.25-23.45 3.815-20.3z" color="#000000" color-rendering="auto" fill="#fff" image-rendering="auto" solid-color="#000000" stroke="#000" stroke-linecap="round" stroke-linejoin="round" stroke-width="1.89" style="isolation:auto;mix-blend-mode:normal"/>
  <path d="m65.2 85.73-11.64-17.04 18.69-1.357-3.525 9.2z" color="#000000" color-rendering="auto" fill="#e9ddaf" image-rendering="auto" solid-color="#000000" stroke="#000" stroke-linecap="round" stroke-linejoin="round" stroke-width="1.89" style="isolation:auto;mix-blend-mode:normal"/>
  <path d="m64.7 67.89c2.213 1.523 3.913 3.672 4.719 6.907l2.857-7.456z" color="#000000" color-rendering="auto" fill="#f00" image-rendering="auto" solid-color="#000000" stroke="#000" stroke-linecap="round" stroke-linejoin="round" stroke-width="1.89" style="isolation:auto;mix-blend-mode:normal"/>
  <path d="m56.34 73.88c4.849.5158 5.704 3.553 5.123 7.499l-28.9 22.18-5.123-7.499z" color="#000000" color-rendering="auto" fill="#fc0" image-rendering="auto" solid-color="#000000" stroke="#000" stroke-width="1.89" style="isolation:auto;mix-blend-mode:normal"/>
  <path d="m52.86 68.79c4.25-.3604 4.584 1.911 3.507 5.133l-28.9 22.18-3.507-5.133z" color="#000000" color-rendering="auto" fill="#f60" image-rendering="auto" solid-color="#000000" stroke="#000" stroke-width="1.89" style="isolation:auto;mix-blend-mode:normal"/>
  <path d="m61.43 81.33c4.25-.3604 4.584 1.911 3.507 5.133l-28.9 22.18-3.507-5.133z" color="#000000" color-rendering="auto" fill="#f60" image-rendering="auto" solid-color="#000000" stroke="#000" stroke-width="1.89" style="isolation:auto;mix-blend-mode:normal"/>
  <ellipse transform="matrix(.5641 .8257 -.7933 .6089 0 0)" cx="91.12" cy="7.268" rx="6.283" ry="8.63" color="#000000" color-rendering="auto" fill="#fff" image-rendering="auto" solid-color="#000000" stroke="#000" stroke-width="1.891" style="isolation:auto;mix-blend-mode:normal"/>
  <ellipse transform="matrix(.5641 .8257 -.7933 .6089 0 0)" cx="91.12" cy="7.268" rx="2.929" ry="4.021" color="#000000" color-rendering="auto" image-rendering="auto" solid-color="#000000" stroke-width="1.891" style="isolation:auto;mix-blend-mode:normal"/>
  <ellipse transform="matrix(.5641 .8257 -.7933 .6089 0 0)" cx="103.6" cy="7.268" rx="6.283" ry="8.63" color="#000000" color-rendering="auto" fill="#fff" image-rendering="auto" solid-color="#000000" stroke="#000" stroke-width="1.891" style="isolation:auto;mix-blend-mode:normal"/>
  <ellipse transform="matrix(.5641 .8257 -.7933 .6089 0 0)" cx="103.6" cy="7.268" rx="2.929" ry="4.021" color="#000000" color-rendering="auto" image-rendering="auto" solid-color="#000000" stroke-width="1.891" style="isolation:auto;mix-blend-mode:normal"/>
  <path d="m21.98 99.19 1.287-7.707 7.57 1.856 5.488 7.298-.9824 8.45-7.207-1.178z" color="#000000" color-rendering="auto" fill="#e9ddaf" image-rendering="auto" solid-color="#000000" stroke="#000" stroke-linecap="round" stroke-linejoin="round" stroke-width="1.89" style="isolation:auto;mix-blend-mode:normal"/>
  <ellipse transform="matrix(.5641 .8257 -.7933 .6089 0 0)" cx="97.59" cy="32.49" rx="3.148" ry="1.041" color="#000000" color-rendering="auto" fill="#f00" image-rendering="auto" solid-color="#000000" stroke="#000" stroke-linecap="round" stroke-linejoin="round" stroke-width="1.891" style="isolation:auto;mix-blend-mode:normal"/>
  <ellipse transform="matrix(.5124 .8588 -.7724 .6351 0 0)" cx="93.02" cy="-.3329" rx="1.888" ry="2.585" color="#000000" color-rendering="auto" fill="#fff" image-rendering="auto" solid-color="#000000" stroke-width="1.9" style="isolation:auto;mix-blend-mode:normal"/>
  <ellipse transform="matrix(.5124 .8588 -.7724 .6351 0 0)" cx="105.7" cy="-1.13" rx="1.888" ry="2.585" color="#000000" color-rendering="auto" fill="#fff" image-rendering="auto" solid-color="#000000" stroke-width="1.9" style="isolation:auto;mix-blend-mode:normal"/>
  <path d="m25.72 46.19h68.63" color="#000000" color-rendering="auto" fill="#fff6d5" image-rendering="auto" solid-color="#000000" stroke="#000" stroke-width="3.024" style="isolation:auto;mix-blend-mode:normal"/>
  <path d="m8.894 120.5h68.63" color="#000000" color-rendering="auto" fill="#fff6d5" image-rendering="auto" solid-color="#000000" stroke="#000" stroke-width="3.024" style="isolation:auto;mix-blend-mode:normal"/>
  <path transform="matrix(.6273 -.06888 -.1109 .4899 115.2 75.06)" d="m-55.13-12.65c-1.803 1.813.5168 5.613-1.746 6.776-2.263 1.163.175-5.16-2.203-5.889-2.378-.7289-4.897 6.679-7.104 5.362s1.427-6.018.0556-8.218c-1.371-2.2-1.781 3.514-1.909.6459-.1281-2.868.8263-2.942 1.359-5.418s-2.776-3.883-.4892-5.424 3.795 4.006 6.444 3.789c2.649-.2165-.6789-6.442 1.744-5.6 2.423.8412-.1082 3.024 2.038 4.605 2.146 1.581 3.442-.9712 5.062.8352 1.62 1.806-2.001-.6599-2.095 1.7-.09452 2.36 3.717 1.669 3.264 4.297-.4532 2.628-2.616.725-4.419 2.538z" color="#000000" color-rendering="auto" fill="#800080" image-rendering="auto" solid-color="#000000" style="isolation:auto;mix-blend-mode:normal"/>
  <path transform="matrix(.6364 -.06987 -.1063 .4695 117.3 63.29)" d="m-55.13-12.65c-2.142 2.154 1.515 3.293-1.255 4.324-2.77 1.03-3.685-1.463-6.027-3.23-2.342-1.767-3.103 2.296-3.998-.9555-.8955-3.251-.1716-2.803.3299-6.067.5016-3.264-3.803-4.405-1.086-6.235s2.559-.1761 5.641-.3082c3.081-.132 4.7-4.326 7.511-2.801 2.811 1.525-1.727 3.971-.2877 6.441 1.439 2.47 3.448 3.251 3.624 6.594.176 3.344-2.309.08448-4.451 2.238z" color="#000000" color-rendering="auto" fill="#f00" image-rendering="auto" solid-color="#000000" style="isolation:auto;mix-blend-mode:normal"/>
  <path transform="matrix(.6273 -.06888 -.1073 .4741 103.3 63.34)" d="m-55.13-12.65c-1.708 1.718 3.987 3.898 1.592 4.817-2.395.9185-1.949-2.138-4.473-2.229-2.525-.09061-4.673 1.698-6.783.6857-2.11-1.012 3.632-1.573 1.862-3.535-1.77-1.962-2.707 3.874-3.69 1.579-.9828-2.296 1.089-3.118.7819-5.613-.3066-2.495-1.89-2.913-.8167-5.054 1.073-2.141 1.778.98 3.694-.8224 1.916-1.802-4.179-1.846-1.82-2.484 2.36-.6373 4.255.3814 6.757.348 2.503-.03344 2.148-4.215 4.499-2.951 2.351 1.264-3.379 3.685-1.635 5.348 1.745 1.664 3.991-2.627 4.904-.09522.9127 2.532-2.962 3.964-3.134 6.368-.1719 2.404 3.967 2.151 3.169 4.298-.798 2.148-3.199-2.379-4.907-.6609z" color="#000000" color-rendering="auto" fill="#2ca02c" image-rendering="auto" solid-color="#000000" style="isolation:auto;mix-blend-mode:normal"/>
 </g>
 <g id="thumb" transform="translate(2.471 8.134)" shape-rendering="auto" stroke="#000" stroke-width="2.835">
  <path d="m39.5 132c5.648 3.112 7.331 10.86 3.773 17.37l-9.13 16.7c-6.503 11.9-10.97 9.243-16.62 6.132-5.648-3.112-11.06-4.04-3.773-17.37l9.13-16.7c3.558-6.509 10.97-9.243 16.62-6.132z" color="#000000" color-rendering="auto" fill="#deaa87" image-rendering="auto" solid-color="#000000" style="isolation:auto;mix-blend-mode:normal"/>
  <path d="m35.96 136.4.8541.4703c3.194 1.759 4.349 5.765 2.59 8.982l-2.296 4.198c-1.759 3.217-4.593 2.28-7.787.5213l-.8541-.4703c-3.194-1.759-5.504-3.654-3.744-6.871l2.296-4.198c1.759-3.217 5.747-4.391 8.941-2.632z" color="#000000" color-rendering="auto" fill="#ffe6d5" image-rendering="auto" solid-color="#000000" style="isolation:auto;mix-blend-mode:normal"/>
  <path d="m20.51 153.1s6.495 6.704 11.61 6.399" color="#000000" color-rendering="auto" fill="#deaa87" image-rendering="auto" solid-color="#000000" stroke-linecap="round" stroke-linejoin="round" style="isolation:auto;mix-blend-mode:normal"/>
  <path d="m18.58 157.1s6.495 6.704 11.61 6.399" color="#000000" color-rendering="auto" fill="#deaa87" image-rendering="auto" solid-color="#000000" stroke-linecap="round" stroke-linejoin="round" style="isolation:auto;mix-blend-mode:normal"/>
 </g>
</svg>
