<svg xmlns:rdf="http://www.w3.org/1999/02/22-rdf-syntax-ns#" xmlns="http://www.w3.org/2000/svg" height="286.6" shape-rendering="crispEdges" width="286.6" version="1.1" xmlns:cc="http://creativecommons.org/ns#" xmlns:dc="http://purl.org/dc/elements/1.1/" viewBox="0 0 286.56421 286.6009">
 <g>
  <path style="color-rendering:auto;color:#000000;isolation:auto;mix-blend-mode:normal;shape-rendering:auto;solid-color:#000000;image-rendering:auto" transform="matrix(.7309 .6824 .6824 -.7309 101.1 -334.9)" fill="#d89800" d="m406.5-386h-46.82-46.82l23.41-40.55 23.41-40.55 23.41 40.55z"/>
  <path style="color-rendering:auto;color:#000000;isolation:auto;mix-blend-mode:normal;shape-rendering:auto;solid-color:#000000;image-rendering:auto" transform="matrix(.7309 .6824 -.6824 .7309 101.1 -334.9)" fill="#d89800" d="m406.5 261.6h-46.82-46.82l23.41-40.55 23.41-40.55 23.41 40.55z"/>
  <path style="color-rendering:auto;color:#000000;isolation:auto;mix-blend-mode:normal;shape-rendering:auto;solid-color:#000000;image-rendering:auto" transform="matrix(-.6940 .7199 .7199 .6940 624.6 113.3)" fill="#d89800" d="m406.5-386h-46.82-46.82l23.41-40.55 23.41-40.55 23.41 40.55z"/>
  <path style="color-rendering:auto;color:#000000;isolation:auto;mix-blend-mode:normal;shape-rendering:auto;solid-color:#000000;image-rendering:auto" transform="matrix(-.6940 .7199 -.7199 -.6940 624.6 113.3)" fill="#d89800" d="m406.5 261.6h-46.82-46.82l23.41-40.55 23.41-40.55 23.41 40.55z"/>
  <path style="color-rendering:auto;color:#000000;isolation:auto;mix-blend-mode:normal;shape-rendering:auto;solid-color:#000000;image-rendering:auto" transform="scale(1,-1)" fill="#ffb300" d="m190.8-205.5h-46.82-46.82l23.41-40.55 23.41-40.55 23.41 40.55z"/>
  <path style="color-rendering:auto;color:#000000;isolation:auto;mix-blend-mode:normal;shape-rendering:auto;solid-color:#000000;image-rendering:auto" fill="#ffb300" d="m190.8 81.1-46.82-.000002-46.82.0000010l23.42-40.55 23.4-40.55 23.4 40.55z"/>
  <path style="color-rendering:auto;color:#000000;isolation:auto;mix-blend-mode:normal;shape-rendering:auto;solid-color:#000000;image-rendering:auto" transform="matrix(-.01599 .9999 .9999 .01599 472.8 -210.1)" fill="#ffb300" d="m406.5-386h-46.82-46.82l23.41-40.55 23.41-40.55 23.41 40.55z"/>
  <path style="color-rendering:auto;color:#000000;isolation:auto;mix-blend-mode:normal;shape-rendering:auto;solid-color:#000000;image-rendering:auto" transform="matrix(-.01599 .9999 -.9999 -.01599 472.8 -210.1)" fill="#ffb300" d="m406.5 261.6h-46.82-46.82l23.41-40.55 23.41-40.55 23.41 40.55z"/>
  <circle style="color-rendering:auto;color:#000000;isolation:auto;mix-blend-mode:normal;shape-rendering:auto;solid-color:#000000;image-rendering:auto" fill-opacity=".9968" cx="144.3" cy="143.3" r="80" fill="#fc0"/>
 </g>
</svg>
