<svg xmlns:rdf="http://www.w3.org/1999/02/22-rdf-syntax-ns#" xmlns="http://www.w3.org/2000/svg" height="231" width="212.3" version="1.1" xmlns:cc="http://creativecommons.org/ns#" xmlns:dc="http://purl.org/dc/elements/1.1/" viewBox="0 0 212.31675 231.00558">
 <rect id="surroundHightlight" style="color-rendering:auto;color:#000000;isolation:auto;mix-blend-mode:normal;shape-rendering:auto;solid-color:#000000;image-rendering:auto" ry="10.55" height="231" width="212.3" y=".00001695" x="-.002602" fill="#ebdcb9"/>
 <path id="surroundLowlight" style="color-rendering:auto;color:#000000;isolation:auto;mix-blend-mode:normal;shape-rendering:auto;solid-color:#000000;image-rendering:auto" d="m209.5 3.048s2.864 4.563 2.864 7.504v209.9c0 5.846-4.321 10.55-9.688 10.55h-192.7c-2.857 0-7.187-3.462-7.187-3.462z" fill="#bfac89"/>
 <rect id="surround" style="color-rendering:auto;color:#000000;isolation:auto;mix-blend-mode:normal;shape-rendering:auto;solid-color:#000000;image-rendering:auto" ry="7.638" height="219.1" width="199.7" y="5.517" x="5.515" fill="#e2cba1"/>
 <rect id="surroundInnerLowlight" style="color-rendering:auto;color:#000000;isolation:auto;mix-blend-mode:normal;shape-rendering:auto;solid-color:#000000;image-rendering:auto" ry="5.352" height="165.4" width="165.4" y="22.5" x="24.12" fill="#bfac89"/>
 <path id="surroundInnderHighlight" style="color-rendering:auto;color:#000000;isolation:auto;mix-blend-mode:normal;shape-rendering:auto;solid-color:#000000;image-rendering:auto" d="m25.38 185.9c.7414 1.008 2.221 1.913 4.087 1.913h154.6c2.965 0 5.352-2.388 5.352-5.354v-154.6c0-1.865-.4743-2.554-1.479-3.656z" fill="#ebdcb9"/>
 <text id="artworkNumber" style="word-spacing:0px;letter-spacing:0px" line-height="125%" xml:space="preserve" transform="scale(1.002 .9984)" font-size="48.88px" y="218.37242" x="93.878105" font-family="sans-serif" fill="#bfac89"><tspan font-weight="900" font-size="36.66px" y="218.37242" x="93.878105" font-family="&apos;Source Code Pro&apos;" fill="#bfac89">1</tspan></text>
 <rect id="windowInside" style="color-rendering:auto;color:#000000;isolation:auto;mix-blend-mode:normal;shape-rendering:auto;solid-color:#000000;image-rendering:auto" height="151" width="150.3" y="27.47" x="31.53" fill="#fff"/>
 <g id="blinds">
  <rect style="color-rendering:auto;color:#000000;isolation:auto;mix-blend-mode:normal;shape-rendering:auto;solid-color:#000000;image-rendering:auto" height="14.93" width="145.2" y="33.15" x="33.51" fill="#ececec"/>
  <rect style="color-rendering:auto;color:#000000;isolation:auto;mix-blend-mode:normal;shape-rendering:auto;solid-color:#000000;image-rendering:auto" height="14.93" width="145.2" y="47.46" x="33.51" fill="#ececec"/>
  <rect style="color-rendering:auto;color:#000000;isolation:auto;mix-blend-mode:normal;shape-rendering:auto;solid-color:#000000;image-rendering:auto" transform="scale(1,-1)" height="1.324" width="145.2" y="-48.67" x="33.51" fill="#b3b3b3"/>
  <rect style="color-rendering:auto;color:#000000;isolation:auto;mix-blend-mode:normal;shape-rendering:auto;solid-color:#000000;image-rendering:auto" height="14.93" width="145.2" y="61.29" x="33.51" fill="#ececec"/>
  <rect style="color-rendering:auto;color:#000000;isolation:auto;mix-blend-mode:normal;shape-rendering:auto;solid-color:#000000;image-rendering:auto" transform="scale(1,-1)" height="1.324" width="145.2" y="-62.5" x="33.51" fill="#b3b3b3"/>
  <rect style="color-rendering:auto;color:#000000;isolation:auto;mix-blend-mode:normal;shape-rendering:auto;solid-color:#000000;image-rendering:auto" height="14.93" width="145.2" y="75.12" x="33.51" fill="#ececec"/>
  <rect style="color-rendering:auto;color:#000000;isolation:auto;mix-blend-mode:normal;shape-rendering:auto;solid-color:#000000;image-rendering:auto" transform="scale(1,-1)" height="1.324" width="145.2" y="-76.33" x="33.51" fill="#b3b3b3"/>
  <rect style="color-rendering:auto;color:#000000;isolation:auto;mix-blend-mode:normal;shape-rendering:auto;solid-color:#000000;image-rendering:auto" height="14.93" width="145.2" y="89.18" x="33.51" fill="#ececec"/>
  <rect style="color-rendering:auto;color:#000000;isolation:auto;mix-blend-mode:normal;shape-rendering:auto;solid-color:#000000;image-rendering:auto" transform="scale(1,-1)" height="1.324" width="145.2" y="-90.39" x="33.51" fill="#b3b3b3"/>
  <rect style="color-rendering:auto;color:#000000;isolation:auto;mix-blend-mode:normal;shape-rendering:auto;solid-color:#000000;image-rendering:auto" height="14.93" width="145.2" y="103.7" x="33.51" fill="#ececec"/>
  <rect style="color-rendering:auto;color:#000000;isolation:auto;mix-blend-mode:normal;shape-rendering:auto;solid-color:#000000;image-rendering:auto" transform="scale(1,-1)" height="1.324" width="145.2" y="-104.9" x="33.51" fill="#b3b3b3"/>
  <rect style="color-rendering:auto;color:#000000;isolation:auto;mix-blend-mode:normal;shape-rendering:auto;solid-color:#000000;image-rendering:auto" height="14.93" width="145.2" y="146.2" x="33.51" fill="#ececec"/>
  <rect style="color-rendering:auto;color:#000000;isolation:auto;mix-blend-mode:normal;shape-rendering:auto;solid-color:#000000;image-rendering:auto" height="14.93" width="145.2" y="118.3" x="33.51" fill="#ececec"/>
  <rect style="color-rendering:auto;color:#000000;isolation:auto;mix-blend-mode:normal;shape-rendering:auto;solid-color:#000000;image-rendering:auto" transform="scale(1,-1)" height="1.324" width="145.2" y="-119.5" x="33.51" fill="#b3b3b3"/>
  <rect style="color-rendering:auto;color:#000000;isolation:auto;mix-blend-mode:normal;shape-rendering:auto;solid-color:#000000;image-rendering:auto" height="14.93" width="145.2" y="160" x="33.51" fill="#ececec"/>
  <rect style="color-rendering:auto;color:#000000;isolation:auto;mix-blend-mode:normal;shape-rendering:auto;solid-color:#000000;image-rendering:auto" height="14.93" width="145.2" y="132.3" x="33.51" fill="#ececec"/>
  <rect style="color-rendering:auto;color:#000000;isolation:auto;mix-blend-mode:normal;shape-rendering:auto;solid-color:#000000;image-rendering:auto" transform="scale(1,-1)" height="1.324" width="145.2" y="-161.2" x="33.51" fill="#b3b3b3"/>
  <rect style="color-rendering:auto;color:#000000;isolation:auto;mix-blend-mode:normal;shape-rendering:auto;solid-color:#000000;image-rendering:auto" transform="scale(1,-1)" height="1.324" width="145.2" y="-133.6" x="33.51" fill="#b3b3b3"/>
  <rect style="color-rendering:auto;color:#000000;isolation:auto;mix-blend-mode:normal;shape-rendering:auto;solid-color:#000000;image-rendering:auto" transform="scale(1,-1)" height="1.324" width="145.2" y="-175.5" x="33.51" fill="#b3b3b3"/>
  <rect style="color-rendering:auto;color:#000000;isolation:auto;mix-blend-mode:normal;shape-rendering:auto;solid-color:#000000;image-rendering:auto" transform="scale(1,-1)" height="1.324" width="145.2" y="-147.4" x="33.51" fill="#b3b3b3"/>
 </g>
 <g id="frameGroup">
  <g id="frameLowlights" fill="#333">
   <path style="color-rendering:auto;color:#000000;isolation:auto;mix-blend-mode:normal;shape-rendering:auto;solid-color:#000000;image-rendering:auto" d="m37.96 34.5v12.51h2v-10.51h11.4v-2h-13.4z"/>
   <path style="color-rendering:auto;color:#000000;isolation:auto;mix-blend-mode:normal;shape-rendering:auto;solid-color:#000000;image-rendering:auto" d="m55.36 34.5v12.51h2v-10.51h102v-2h-104z"/>
   <path style="color-rendering:auto;color:#000000;isolation:auto;mix-blend-mode:normal;shape-rendering:auto;solid-color:#000000;image-rendering:auto" d="m163.4 34.5v12.51h2v-10.51h10.51v-2h-12.51z"/>
   <path style="color-rendering:auto;color:#000000;isolation:auto;mix-blend-mode:normal;shape-rendering:auto;solid-color:#000000;image-rendering:auto" d="m37.96 51v105.4h2v-103.4h11.4v-2h-13.4z"/>
   <path style="color-rendering:auto;color:#000000;isolation:auto;mix-blend-mode:normal;shape-rendering:auto;solid-color:#000000;image-rendering:auto" d="m55.36 51v105.4h2v-103.4h102v-2h-104z"/>
   <path style="color-rendering:auto;color:#000000;isolation:auto;mix-blend-mode:normal;shape-rendering:auto;solid-color:#000000;image-rendering:auto" d="m163.4 51v105.4h2v-103.4h10.51v-2h-12.51z"/>
   <path style="color-rendering:auto;color:#000000;isolation:auto;mix-blend-mode:normal;shape-rendering:auto;solid-color:#000000;image-rendering:auto" d="m37.96 160.4v12.74h2v-10.74h11.4v-2h-13.4z"/>
   <path style="color-rendering:auto;color:#000000;isolation:auto;mix-blend-mode:normal;shape-rendering:auto;solid-color:#000000;image-rendering:auto" d="m55.36 160.4v12.74h2v-10.74h102v-2h-104z"/>
   <path style="color-rendering:auto;color:#000000;isolation:auto;mix-blend-mode:normal;shape-rendering:auto;solid-color:#000000;image-rendering:auto" d="m163.4 160.4v12.74h2v-10.74h10.51v-2h-12.51z"/>
  </g>
  <path id="frame" style="color-rendering:auto;color:#000000;isolation:auto;mix-blend-mode:normal;shape-rendering:auto;solid-color:#000000;image-rendering:auto" d="m29.09 26.31v155h155.7v-155h-155.7zm8.881 8.19h13.4v12.51h-13.4v-12.51zm17.4 0h104v12.51h-104v-12.51zm108 0h12.51v12.51h-12.51v-12.51zm-125.4 16.51h13.4v105.4h-13.4v-105.4zm17.4 0h104v105.4h-104v-105.4zm108 0h12.51v105.4h-12.51v-105.4zm-125.4 109.4h13.4v12.74h-13.4v-12.74zm17.4 0h104v12.74h-104v-12.74zm108 0h12.51v12.74h-12.51v-12.74z" fill="#808080"/>
  <g id="frameHighlights" fill="#ccc">
   <path style="color-rendering:auto;color:#000000;isolation:auto;mix-blend-mode:normal;shape-rendering:auto;solid-color:#000000;image-rendering:auto" d="m49.36 34.48v10.51h-11.4v2h13.4v-12.51h-2z"/>
   <path style="color-rendering:auto;color:#000000;isolation:auto;mix-blend-mode:normal;shape-rendering:auto;solid-color:#000000;image-rendering:auto" d="m157.4 34.48v10.51h-102v2h104v-12.51h-2z"/>
   <path style="color-rendering:auto;color:#000000;isolation:auto;mix-blend-mode:normal;shape-rendering:auto;solid-color:#000000;image-rendering:auto" d="m173.9 34.48v10.51h-10.51v2h12.51v-12.51h-2z"/>
   <path style="color-rendering:auto;color:#000000;isolation:auto;mix-blend-mode:normal;shape-rendering:auto;solid-color:#000000;image-rendering:auto" d="m49.36 50.99v103.4h-11.4v2h13.4v-105.4h-2z"/>
   <path style="color-rendering:auto;color:#000000;isolation:auto;mix-blend-mode:normal;shape-rendering:auto;solid-color:#000000;image-rendering:auto" d="m157.4 50.99v103.4h-102v2h104v-105.4h-2z"/>
   <path style="color-rendering:auto;color:#000000;isolation:auto;mix-blend-mode:normal;shape-rendering:auto;solid-color:#000000;image-rendering:auto" d="m173.9 50.99v103.4h-10.51v2h12.51v-105.4h-2z"/>
   <path style="color-rendering:auto;color:#000000;isolation:auto;mix-blend-mode:normal;shape-rendering:auto;solid-color:#000000;image-rendering:auto" d="m49.36 160.4v10.74h-11.4v2h13.4v-12.74h-2z"/>
   <path style="color-rendering:auto;color:#000000;isolation:auto;mix-blend-mode:normal;shape-rendering:auto;solid-color:#000000;image-rendering:auto" d="m157.4 160.4v10.74h-102v2h104v-12.74h-2z"/>
   <path style="color-rendering:auto;color:#000000;isolation:auto;mix-blend-mode:normal;shape-rendering:auto;solid-color:#000000;image-rendering:auto" d="m173.9 160.4v10.74h-10.51v2h12.51v-12.74h-2z"/>
  </g>
 </g>
</svg>
