<svg xmlns:rdf="http://www.w3.org/1999/02/22-rdf-syntax-ns#" xmlns="http://www.w3.org/2000/svg" height="145.9" width="162.6" version="1.1" xmlns:cc="http://creativecommons.org/ns#" xmlns:dc="http://purl.org/dc/elements/1.1/" viewBox="0 0 162.63359 145.9232">
 <g>
  <path stroke-linejoin="round" style="color-rendering:auto;color:#000000;isolation:auto;mix-blend-mode:normal;shape-rendering:auto;solid-color:#000000;image-rendering:auto" d="m148 111.7c4.976-5.58 4.014-18-7.768-21.43-11.43-3.331-23.78-3.472-23.78-3.472-3.168 17.84 23.85 34.04 31.55 24.9z" stroke="#000" stroke-linecap="round" stroke-width="3" fill="#fff"/>
  <path stroke-linejoin="round" style="color-rendering:auto;color:#000000;isolation:auto;mix-blend-mode:normal;shape-rendering:auto;solid-color:#000000;image-rendering:auto" d="m159.2 52.04c5.223 12.99-.2719 31.26-15.38 34.46-14.65 3.104-29.52.6188-29.52.6188 1.245-30.82 32.35-60.06 44.9-35.08z" stroke="#000" stroke-linecap="round" stroke-width="3" fill="#fff"/>
  <path stroke-linejoin="round" style="color-rendering:auto;color:#000000;isolation:auto;mix-blend-mode:normal;shape-rendering:auto;solid-color:#000000;image-rendering:auto" d="m14.61 111.7c-4.976-5.58-4.014-18 7.768-21.43 11.43-3.331 23.78-3.472 23.78-3.472 3.168 17.84-23.85 34.04-31.55 24.9z" stroke="#000" stroke-linecap="round" stroke-width="3" fill="#fff"/>
  <path stroke-linejoin="round" style="color-rendering:auto;color:#000000;isolation:auto;mix-blend-mode:normal;shape-rendering:auto;solid-color:#000000;image-rendering:auto" d="m3.433 52.04c-5.223 12.99.2719 31.26 15.38 34.46 14.65 3.104 29.52.6188 29.52.6188-1.245-30.82-32.35-60.06-44.9-35.08z" stroke="#000" stroke-linecap="round" stroke-width="3" fill="#fff"/>
  <path stroke-linejoin="round" stroke="#000" stroke-linecap="round" stroke-width="3.148" fill="#e9ddaf" style="color-rendering:auto;color:#000000;isolation:auto;mix-blend-mode:normal;shape-rendering:auto;solid-color:#000000;image-rendering:auto" transform="matrix(1.165 0 0 .7797 -57.97 -300.7)" d="m148.7 437.5h-28.82-28.82l14.41-24.96 14.41-24.96 14.41 24.96z"/>
  <path stroke-linejoin="round" style="color-rendering:auto;color:#000000;isolation:auto;mix-blend-mode:normal;shape-rendering:auto;solid-color:#000000;image-rendering:auto" d="m68.16 17.25c8.326-2.324 17.25-2.784 27.21 0l-13.6-15.77z" stroke="#000" stroke-linecap="round" stroke-width="3" fill="#f00"/>
  <path style="color-rendering:auto;color:#000000;isolation:auto;mix-blend-mode:normal;shape-rendering:auto;solid-color:#000000;image-rendering:auto" d="m67.05 41.93c10.95-8.918 20.5-6.5 29.54 0v87.38h-29.54z" stroke="#000" stroke-width="3" fill="#fc0"/>
  <path style="color-rendering:auto;color:#000000;isolation:auto;mix-blend-mode:normal;shape-rendering:auto;solid-color:#000000;image-rendering:auto" d="m47.01 41.93c7.498-8.918 14.03-6.5 20.22 0v87.38h-20.22z" stroke="#000" stroke-width="3" fill="#f60"/>
  <path style="color-rendering:auto;color:#000000;isolation:auto;mix-blend-mode:normal;shape-rendering:auto;solid-color:#000000;image-rendering:auto" d="m96.41 41.93c7.498-8.918 14.03-6.5 20.22 0v87.38h-20.22z" stroke="#000" stroke-width="3" fill="#f60"/>
  <ellipse style="color-rendering:auto;color:#000000;isolation:auto;mix-blend-mode:normal;shape-rendering:auto;solid-color:#000000;image-rendering:auto" rx="20.44" ry="20.7" stroke="#000" cy="71" cx="60.79" stroke-width="3" fill="#fff"/>
  <ellipse style="color-rendering:auto;color:#000000;isolation:auto;mix-blend-mode:normal;shape-rendering:auto;solid-color:#000000;image-rendering:auto" rx="9.527" ry="9.646" cy="71" cx="60.79"/>
  <ellipse style="color-rendering:auto;color:#000000;isolation:auto;mix-blend-mode:normal;shape-rendering:auto;solid-color:#000000;image-rendering:auto" rx="20.44" ry="20.7" stroke="#000" cy="71" cx="101.3" stroke-width="3" fill="#fff"/>
  <ellipse style="color-rendering:auto;color:#000000;isolation:auto;mix-blend-mode:normal;shape-rendering:auto;solid-color:#000000;image-rendering:auto" rx="9.527" ry="9.646" cy="71" cx="101.3"/>
  <ellipse style="color-rendering:auto;color:#000000;isolation:auto;mix-blend-mode:normal;shape-rendering:auto;solid-color:#000000;image-rendering:auto" rx="5.347" ry="5.414" cy="66.8" cx="67.13" fill="#fff"/>
  <ellipse style="color-rendering:auto;color:#000000;isolation:auto;mix-blend-mode:normal;shape-rendering:auto;solid-color:#000000;image-rendering:auto" rx="5.347" ry="5.414" cy="66.8" cx="107.1" fill="#fff"/>
  <path stroke-linejoin="round" style="color-rendering:auto;color:#000000;isolation:auto;mix-blend-mode:normal;shape-rendering:auto;solid-color:#000000;image-rendering:auto" d="m64.31 144.4-17.37-12.97 19.37-12.73 30.82-.08 19.21 12.65-17.29 12.73z" stroke="#000" stroke-linecap="round" stroke-width="3" fill="#e9ddaf"/>
  <ellipse stroke-linejoin="round" style="color-rendering:auto;color:#000000;isolation:auto;mix-blend-mode:normal;shape-rendering:auto;solid-color:#000000;image-rendering:auto" stroke-linecap="round" rx="10.24" ry="2.497" stroke="#000" cy="131.5" cx="81.85" stroke-width="3" fill="#f00"/>
 </g>
</svg>
