<svg xmlns:rdf="http://www.w3.org/1999/02/22-rdf-syntax-ns#" xmlns="http://www.w3.org/2000/svg" height="1495.4" width="2350" version="1.1" xmlns:cc="http://creativecommons.org/ns#" xmlns:dc="http://purl.org/dc/elements/1.1/" viewBox="0 0 2350 1495.4045">
 <g>
  <rect id="sky" style="color-rendering:auto;color:#000000;isolation:auto;mix-blend-mode:normal;shape-rendering:auto;solid-color:#000000;image-rendering:auto" ry="0" height="1489.4" width="2350" y="0" x="0" fill="#afdde9"/>
  <g id="sun">
   <path style="color-rendering:auto;color:#000000;isolation:auto;mix-blend-mode:normal;shape-rendering:auto;solid-color:#000000;image-rendering:auto" d="m406.46-386.01h-46.824-46.824l23.412-40.55 23.412-40.55 23.412 40.55z" transform="matrix(.73094 .68244 .68244 -.73094 1814.3 -288.82)" fill="#d89800"/>
   <path style="color-rendering:auto;color:#000000;isolation:auto;mix-blend-mode:normal;shape-rendering:auto;solid-color:#000000;image-rendering:auto" d="m406.46 261.61h-46.824-46.824l23.412-40.55 23.412-40.55 23.412 40.55z" transform="matrix(.73094 .68244 -.68244 .73094 1814.3 -288.82)" fill="#d89800"/>
   <path style="color-rendering:auto;color:#000000;isolation:auto;mix-blend-mode:normal;shape-rendering:auto;solid-color:#000000;image-rendering:auto" d="m406.46-386.01h-46.824-46.824l23.412-40.55 23.412-40.55 23.412 40.55z" transform="matrix(-.69404 .71994 .71994 .69404 2337.7 159.36)" fill="#d89800"/>
   <path style="color-rendering:auto;color:#000000;isolation:auto;mix-blend-mode:normal;shape-rendering:auto;solid-color:#000000;image-rendering:auto" d="m406.46 261.61h-46.824-46.824l23.412-40.55 23.412-40.55 23.412 40.55z" transform="matrix(-.69404 .71994 -.71994 -.69404 2337.7 159.36)" fill="#d89800"/>
   <path style="color-rendering:auto;color:#000000;isolation:auto;mix-blend-mode:normal;shape-rendering:auto;solid-color:#000000;image-rendering:auto" d="m1903.9-251.56h-46.824-46.824l23.412-40.55 23.412-40.55 23.412 40.55z" transform="scale(1,-1)" fill="#ffb300"/>
   <path style="color-rendering:auto;color:#000000;isolation:auto;mix-blend-mode:normal;shape-rendering:auto;solid-color:#000000;image-rendering:auto" d="m1903.9 127.16h-46.824-46.824l23.412-40.55 23.412-40.55 23.412 40.55z" fill="#ffb300"/>
   <path style="color-rendering:auto;color:#000000;isolation:auto;mix-blend-mode:normal;shape-rendering:auto;solid-color:#000000;image-rendering:auto" d="m406.46-386.01h-46.824-46.824l23.412-40.55 23.412-40.55 23.412 40.55z" transform="matrix(-.015988 .99987 .99987 .015988 2186 -164.09)" fill="#ffb300"/>
   <path style="color-rendering:auto;color:#000000;isolation:auto;mix-blend-mode:normal;shape-rendering:auto;solid-color:#000000;image-rendering:auto" d="m406.46 261.61h-46.824-46.824l23.412-40.55 23.412-40.55 23.412 40.55z" transform="matrix(-.015988 .99987 -.99987 -.015988 2186 -164.09)" fill="#ffb300"/>
   <circle style="color-rendering:auto;color:#000000;isolation:auto;mix-blend-mode:normal;shape-rendering:auto;solid-color:#000000;image-rendering:auto" fill-opacity=".99685" cy="189.34" cx="1857.5" r="80" fill="#fc0"/>
  </g>
  <g fill="#fff">
   <ellipse style="color-rendering:auto;color:#000000;isolation:auto;mix-blend-mode:normal;shape-rendering:auto;solid-color:#000000;image-rendering:auto" rx="80.168" ry="65.711" cy="724.7" cx="400.97"/>
   <ellipse style="color-rendering:auto;color:#000000;isolation:auto;mix-blend-mode:normal;shape-rendering:auto;solid-color:#000000;image-rendering:auto" rx="69.654" ry="60.454" cy="777.27" cx="482.45"/>
   <ellipse style="color-rendering:auto;color:#000000;isolation:auto;mix-blend-mode:normal;shape-rendering:auto;solid-color:#000000;image-rendering:auto" rx="61.769" ry="52.569" cy="722.07" cx="495.6"/>
   <ellipse style="color-rendering:auto;color:#000000;isolation:auto;mix-blend-mode:normal;shape-rendering:auto;solid-color:#000000;image-rendering:auto" rx="88.053" ry="52.569" cy="806.18" cx="374.69"/>
   <ellipse style="color-rendering:auto;color:#000000;isolation:auto;mix-blend-mode:normal;shape-rendering:auto;solid-color:#000000;image-rendering:auto" rx="61.769" ry="57.826" cy="748.36" cx="311.6"/>
  </g>
  <g fill="#fff">
   <ellipse style="color-rendering:auto;color:#000000;isolation:auto;mix-blend-mode:normal;shape-rendering:auto;solid-color:#000000;image-rendering:auto" rx="80.168" ry="65.711" cy="235.11" cx="330.96"/>
   <ellipse style="color-rendering:auto;color:#000000;isolation:auto;mix-blend-mode:normal;shape-rendering:auto;solid-color:#000000;image-rendering:auto" rx="69.654" ry="60.454" cy="287.68" cx="412.44"/>
   <ellipse style="color-rendering:auto;color:#000000;isolation:auto;mix-blend-mode:normal;shape-rendering:auto;solid-color:#000000;image-rendering:auto" rx="61.769" ry="52.569" cy="232.48" cx="425.58"/>
   <ellipse style="color-rendering:auto;color:#000000;isolation:auto;mix-blend-mode:normal;shape-rendering:auto;solid-color:#000000;image-rendering:auto" rx="88.053" ry="52.569" cy="316.59" cx="304.67"/>
   <ellipse style="color-rendering:auto;color:#000000;isolation:auto;mix-blend-mode:normal;shape-rendering:auto;solid-color:#000000;image-rendering:auto" rx="61.769" ry="57.826" cy="258.76" cx="241.59"/>
  </g>
  <g fill="#fff">
   <ellipse style="color-rendering:auto;color:#000000;isolation:auto;mix-blend-mode:normal;shape-rendering:auto;solid-color:#000000;image-rendering:auto" rx="80.168" ry="65.711" cy="685.4" cx="1047.4"/>
   <ellipse style="color-rendering:auto;color:#000000;isolation:auto;mix-blend-mode:normal;shape-rendering:auto;solid-color:#000000;image-rendering:auto" rx="69.654" ry="60.454" cy="737.97" cx="1128.9"/>
   <ellipse style="color-rendering:auto;color:#000000;isolation:auto;mix-blend-mode:normal;shape-rendering:auto;solid-color:#000000;image-rendering:auto" rx="61.769" ry="52.569" cy="682.78" cx="1142"/>
   <ellipse style="color-rendering:auto;color:#000000;isolation:auto;mix-blend-mode:normal;shape-rendering:auto;solid-color:#000000;image-rendering:auto" rx="88.053" ry="52.569" cy="766.89" cx="1021.1"/>
   <ellipse style="color-rendering:auto;color:#000000;isolation:auto;mix-blend-mode:normal;shape-rendering:auto;solid-color:#000000;image-rendering:auto" rx="61.769" ry="57.826" cy="709.06" cx="958.04"/>
  </g>
  <g fill="#fff">
   <ellipse style="color-rendering:auto;color:#000000;isolation:auto;mix-blend-mode:normal;shape-rendering:auto;solid-color:#000000;image-rendering:auto" rx="80.168" ry="65.711" cy="450.6" cx="1602"/>
   <ellipse style="color-rendering:auto;color:#000000;isolation:auto;mix-blend-mode:normal;shape-rendering:auto;solid-color:#000000;image-rendering:auto" rx="69.654" ry="60.454" cy="503.16" cx="1683.5"/>
   <ellipse style="color-rendering:auto;color:#000000;isolation:auto;mix-blend-mode:normal;shape-rendering:auto;solid-color:#000000;image-rendering:auto" rx="61.769" ry="52.569" cy="447.97" cx="1696.7"/>
   <ellipse style="color-rendering:auto;color:#000000;isolation:auto;mix-blend-mode:normal;shape-rendering:auto;solid-color:#000000;image-rendering:auto" rx="88.053" ry="52.569" cy="532.08" cx="1575.8"/>
   <ellipse style="color-rendering:auto;color:#000000;isolation:auto;mix-blend-mode:normal;shape-rendering:auto;solid-color:#000000;image-rendering:auto" rx="61.769" ry="57.826" cy="474.25" cx="1512.7"/>
  </g>
  <g fill="#fff">
   <ellipse style="color-rendering:auto;color:#000000;isolation:auto;mix-blend-mode:normal;shape-rendering:auto;solid-color:#000000;image-rendering:auto" rx="132.83" ry="105.58" cy="656.68" cx="1935"/>
   <ellipse style="color-rendering:auto;color:#000000;isolation:auto;mix-blend-mode:normal;shape-rendering:auto;solid-color:#000000;image-rendering:auto" rx="115.41" ry="97.136" cy="741.15" cx="2070"/>
   <ellipse style="color-rendering:auto;color:#000000;isolation:auto;mix-blend-mode:normal;shape-rendering:auto;solid-color:#000000;image-rendering:auto" rx="102.34" ry="84.466" cy="652.46" cx="2091.8"/>
   <ellipse style="color-rendering:auto;color:#000000;isolation:auto;mix-blend-mode:normal;shape-rendering:auto;solid-color:#000000;image-rendering:auto" rx="145.89" ry="84.466" cy="787.61" cx="1891.4"/>
   <ellipse style="color-rendering:auto;color:#000000;isolation:auto;mix-blend-mode:normal;shape-rendering:auto;solid-color:#000000;image-rendering:auto" rx="102.34" ry="92.913" cy="694.69" cx="1786.9"/>
  </g>
  <g id="ground">
   <ellipse style="color-rendering:auto;color:#000000;isolation:auto;mix-blend-mode:normal;shape-rendering:auto;solid-color:#000000;image-rendering:auto" rx="487.89" ry="153.76" cy="1220.2" cx="679.76" fill="#8cae00"/>
   <path style="color-rendering:auto;color:#000000;isolation:auto;mix-blend-mode:normal;shape-rendering:auto;solid-color:#000000;image-rendering:auto" d="m-.0000038331 1331.7a449.8 153.76 0 0 0 124.68 6.2 449.8 153.76 0 0 0 449.79 -153.8 449.8 153.76 0 0 0 -449.79 -153.7 449.8 153.76 0 0 0 -124.68 6.1v295.28z" fill="#99be00"/>
   <ellipse style="color-rendering:auto;color:#000000;isolation:auto;mix-blend-mode:normal;shape-rendering:auto;solid-color:#000000;image-rendering:auto" rx="449.8" ry="153.76" cy="1254.3" cx="608.48" fill="#99be00"/>
   <ellipse style="color-rendering:auto;color:#000000;isolation:auto;mix-blend-mode:normal;shape-rendering:auto;solid-color:#000000;image-rendering:auto" rx="365" ry="153.76" cy="1222.4" cx="1848.3" fill="#8cae00"/>
   <ellipse style="color-rendering:auto;color:#000000;isolation:auto;mix-blend-mode:normal;shape-rendering:auto;solid-color:#000000;image-rendering:auto" rx="365" ry="153.76" cy="1243.4" cx="1403.4" fill="#99be00"/>
   <ellipse style="color-rendering:auto;color:#000000;isolation:auto;mix-blend-mode:normal;shape-rendering:auto;solid-color:#000000;image-rendering:auto" rx="383.43" ry="153.76" cy="1310.8" cx="951.35" fill="#aad400"/>
   <ellipse style="color-rendering:auto;color:#000000;isolation:auto;mix-blend-mode:normal;shape-rendering:auto;solid-color:#000000;image-rendering:auto" rx="383.43" ry="153.76" cy="1325.3" cx="1560.9" fill="#aad400"/>
   <ellipse style="color-rendering:auto;color:#000000;isolation:auto;mix-blend-mode:normal;shape-rendering:auto;solid-color:#000000;image-rendering:auto" rx="342.88" ry="168.22" cy="1309.5" cx="532.28" fill="#aad400"/>
   <ellipse style="color-rendering:auto;color:#000000;isolation:auto;mix-blend-mode:normal;shape-rendering:auto;solid-color:#000000;image-rendering:auto" rx="383.43" ry="153.76" cy="1285.9" cx="1966.5" fill="#aad400"/>
   <path style="color-rendering:auto;color:#000000;isolation:auto;mix-blend-mode:normal;shape-rendering:auto;solid-color:#000000;image-rendering:auto" d="m2047.7 1181.9a591.23 219.42 0 0 0 -591.23 219.42 591.23 219.42 0 0 0 57.957 94.115h835.53v-282.4a591.23 219.42 0 0 0 -302.25 -31.139z" fill="#aad400"/>
   <path style="color-rendering:auto;color:#000000;isolation:auto;mix-blend-mode:normal;shape-rendering:auto;solid-color:#000000;image-rendering:auto" d="m457.15 1271.8a591.23 219.42 0 0 0 -457.15 80.4v143.15h1048a591.23 219.42 0 0 0 .4018 -4.2187 591.23 219.42 0 0 0 -591.23 -219.42z" fill="#aad400"/>
   <path style="color-rendering:auto;color:#000000;isolation:auto;mix-blend-mode:normal;shape-rendering:auto;solid-color:#000000;image-rendering:auto" d="m1322.3 1334.4a591.23 219.42 0 0 0 -569.25 161.01h1139.1a591.23 219.42 0 0 0 -569.86 -161.01z" fill="#aad400"/>
   <path style="color-rendering:auto;color:#000000;isolation:auto;mix-blend-mode:normal;shape-rendering:auto;solid-color:#000000;image-rendering:auto" d="m226.54 1114.2a219.35 398.66 88.334 0 0 -28.19 .022 219.35 398.66 88.334 0 0 -198.35 33.4v347.77h456.65a219.35 398.66 88.334 0 0 140.25 -169.9 219.35 398.66 88.334 0 0 -370.36 -211.3z" fill="#aad400"/>
  </g>
 </g>
</svg>
