<svg xmlns:rdf="http://www.w3.org/1999/02/22-rdf-syntax-ns#" xmlns="http://www.w3.org/2000/svg" height="65" width="67.44" version="1.1" xmlns:cc="http://creativecommons.org/ns#" xmlns:dc="http://purl.org/dc/elements/1.1/" viewBox="0 0 67.437508 65.000001">
 <g>
  <rect style="color-rendering:auto;color:#000000;isolation:auto;mix-blend-mode:normal;shape-rendering:auto;solid-color:#000000;image-rendering:auto" ry="7.719" height="65" width="67.44" y="0" x="-.1842" fill="#fff"/>
  <path d="m51.34 25.24-12.21 12.08c-1.09 1.078-2.98.3235-2.98-1.222v-6.901h-9.885c-.9666 0-1.744-.7692-1.744-1.725v-6.901c0-.9561.7778-1.725 1.744-1.725h9.885v-6.901c0-1.538 1.882-2.3 2.98-1.222l12.21 12.08c.6759.6757.6759 1.768 0 2.444zm-22.17 11.72v-2.876c0-.4745-.3925-.8627-.8721-.8627h-6.105c-1.287 0-2.326-1.028-2.326-2.3v-13.8c0-1.272 1.039-2.3 2.326-2.3h6.105c.4797 0 .8721-.3882.8721-.8627v-2.876c0-.4745-.3925-.8627-.8721-.8627h-6.105c-3.852 0-6.977 3.091-6.977 6.901v13.8c0 3.81 3.125 6.901 6.977 6.901h6.105c.4797 0 .8721-.3882.8721-.8627z"/>
  <text style="word-spacing:0px;letter-spacing:0px" line-height="125%" xml:space="preserve" font-size="9.67px" y="52.644569" x="8.6173258" font-family="sans-serif" fill="#000000"><tspan font-weight="900" font-size="11.86px" y="52.644569" x="8.6173258" font-family="&apos;Source Code Pro&apos;">log out</tspan></text>
 </g>
</svg>
