<svg xmlns:rdf="http://www.w3.org/1999/02/22-rdf-syntax-ns#" xmlns="http://www.w3.org/2000/svg" height="1108" width="2675" version="1.1" xmlns:cc="http://creativecommons.org/ns#" xmlns:dc="http://purl.org/dc/elements/1.1/" viewBox="0 0 2675.0001 1107.9999">
 <g transform="translate(0 -145.8)">
  <path d="m606 291.4s12.39 21.67-1.544 27.86c-13.93 6.191-21.67 30.96-21.67 30.96h-29.41c-7.739 66.56-57.27 84.71-57.27 84.71h-16.82v29.41h16.82v512.3l134 1.241v.0495l2.659-.0256 2.663.0256v-.0495l134-1.241v-512.3h16.82v-29.41h-16.82s-47.98-19.7-57.27-84.71h-29.41s-7.739-24.76-21.67-30.96c-13.93-6.191-1.544-27.86-1.544-27.86h-24.09-5.322z" fill-rule="evenodd" fill="#e0e9ee"/>
  <path d="m1419 285.1v.2553c-27.01 2.703-51.77 15.83-60.12 39.5l-26.24 11.58v30.23s-27.94-1.93-34.71 26.37h-20.32v585h141.4 2.522 141.4v-585h-20.32c-6.772-28.3-34.71-26.37-34.71-26.37v-30.23l-26.24-11.58c-8.357-23.67-33.11-36.8-60.12-39.5v-.2553c-.4225.0322-.8392.0895-1.261.1253-.4216-.0376-.8387-.0949-1.261-.1253z" fill-rule="evenodd" fill="#e0e9ee"/>
  <path style="color-rendering:auto;color:#000000;isolation:auto;mix-blend-mode:normal;shape-rendering:auto;solid-color:#000000;image-rendering:auto" d="m225.4 327.2v58.81h-68.91v38.69h15.8v553.3h293.4v-553.3h15.83v-38.69h-70.5v-32.55h4.846v-11.55h-59.92v11.55h4.846v32.55h-44.6v-10.5h-61.69v10.5h-7.93v-19.95h-7.934v19.95h-6.167v-58.81z" fill="#e0e9ee"/>
  <path style="color-rendering:auto;color:#000000;isolation:auto;mix-blend-mode:normal;shape-rendering:auto;solid-color:#000000;image-rendering:auto" d="m1135 408.1v66.48h92.82v43.74h-21.28v459.7h-395.2v-459.7h-21.32v-43.74h94.96v-139.3h-6.527v-13.06h80.71v13.06h-6.527v139.3h60.07v-11.87h83.09v11.87h10.68v-22.55h10.69v22.55h8.307v-66.48z" fill="#e0e9ee"/>
  <path style="color-rendering:auto;color:#000000;isolation:auto;mix-blend-mode:normal;shape-rendering:auto;solid-color:#000000;image-rendering:auto" d="m1738 224.4v35.82h-13.4v13.77h-30.45v55.08h-54.81v17.71h12.18v42.97h-55.03v35.41h25.58v552.8h270.4v-552.8h25.58v-35.41h-55.03v-42.97h12.18v-17.71h-54.81v-55.08h-30.45v-13.77h-13.4v-35.82z" fill="#e0e9ee"/>
  <path style="color-rendering:auto;color:#000000;isolation:auto;mix-blend-mode:normal;shape-rendering:auto;solid-color:#000000;image-rendering:auto" d="m0 978h151.6v-609.9h8.319v-12.64h12.86v-30.7h-23.77l-68.75-33.8-73.88-36.3-6.37 3.1v720.2z" fill="#e0e9ee"/>
  <path d="m0 1239 8.385.078v.049l2.556-.026 2.56.026v-.049l128.8-1.193v-92.54h37.09v93.78h387.3v-120h38.31v118.7l134 1.241v.049l2.659-.026 2.665.026v-.049l134-1.241v-118.7h47.14v120h395.2v-100.3h42.64v100.3h270.4v-125h28.64v125h278.7v-759.7l-51.9 41.27v-69.75h-73.76v128.4l-81.96 65.15v-55.84h-16.39v68.88l-54.64 43.43v107.6h-28.64v-122.2h25.58v-35.41h-66.99v-66.89h12.18v-17.71h-54.81v-55.08h-30.45v-13.77h-13.4v-90.49h-14.62v90.49h-13.4v13.77h-30.45v55.08h-54.81v17.71h12.18v66.89h-66.99v35.41h25.58v132h-23.57v-54.23h-19.07v-150.4h21.32v-43.74h-94.96v-36.8h6.529v-13.06h-80.71v13.06h6.527v36.8h-60.07v-11.87h-83.09v11.87h-10.68v-22.55h-10.69v22.55h-8.306v-66.48h-9.498v66.48h-92.82v43.74h21.28v150.4h-47.14v-38.65h16.82v-29.41h-16.82s-47.98-19.7-57.27-84.71h-29.41s-7.738-24.77-21.67-30.96c-13.93-6.191-1.544-27.86-1.544-27.86h-24.09-5.323-24.09s12.39 21.67-1.544 27.86c-13.93 6.191-21.67 30.96-21.67 30.96h-29.41c-7.739 66.56-57.27 84.71-57.27 84.71h-16.82v29.41h16.82v38.65h-38.31v-107.4h11.09v-12.07h17.14v-29.32h-31.7l-91.66-32.25-98.53-34.67-98.53 34.67-91.65 32.25h-31.7v29.32h17.15v12.07h11.09v107.4h-37.09v-18.72h7.883v-28.27h-7.883s-46.12-101.8-55.04-164.3h-28.27c-9.78-48.8-14.7-103.8-24.04-155.8h-23.15-5.116-8.385v842z" fill-rule="evenodd" fill="#cddce4"/>
  <path style="color-rendering:auto;color:#000000;isolation:auto;mix-blend-mode:normal;shape-rendering:auto;solid-color:#000000;image-rendering:auto" d="m2675 978v-720.2l-67.52 33.18-68.73 33.77h-23.77v30.7h12.86v12.64h8.317v609.9h138.8z" fill="#e0e9ee"/>
  <path style="color-rendering:auto;color:#000000;isolation:auto;mix-blend-mode:normal;shape-rendering:auto;solid-color:#000000;image-rendering:auto" d="m2340 145.8v90.49h-13.4v13.77h-30.45v55.08h-54.81v17.71h12.18v66.89h-66.99v35.41h25.58v552.8h270.4v-552.8h25.58v-35.41h-66.99v-66.89h12.18v-17.71h-54.81v-55.08h-30.45v-13.77h-13.4v-90.49h-14.62z" fill="#e0e9ee"/>
  <path style="color-rendering:auto;color:#000000;isolation:auto;mix-blend-mode:normal;shape-rendering:auto;solid-color:#000000;image-rendering:auto" d="m2062 373.7-54.37 36.31-50.58 33.77h-17.49v30.7h9.462v12.64h6.121v609.9h213.7v-609.9h6.123v-12.64h9.462v-30.7h-17.49l-50.58-33.77z" fill="#e0e9ee"/>
  <path d="m2675 1239v-842h-14.77l-22.31 155.9h-28.27c-7.438 63.97-55.05 164.3-55.05 164.3h-7.882v28.27h7.882v63.08h-30.19v-154.3h-15.43c-5.145-28.3-26.37-26.37-26.37-26.37v-30.23l-19.94-11.58c-6.349-23.67-25.15-36.8-45.68-39.5v-.2554c-.321.0322-.639.0902-.9593.1260-.3202-.0376-.6363-.0956-.9573-.1260v.2554c-20.52 2.703-39.33 15.83-45.68 39.5l-19.94 11.58v30.23s-21.22-1.93-26.37 26.37h-15.44v134.6h-31.24v-134.3h-20.32c-6.772-28.3-34.71-26.37-34.71-26.37v-30.23l-26.25-11.58c-2.096-5.935-5.222-11.21-9.157-15.82v-49.63h-26.11v31.79c-7.74-3.022-16.18-4.972-24.85-5.841v-.2554c-.4225.0324-.8399.0901-1.262.1260-.4216-.0376-.8391-.0956-1.262-.1260v.2554c-7.237.7243-14.31 2.204-20.95 4.427v-30.38h-32.64v52.99c-2.714 3.769-4.928 7.921-6.533 12.47l-26.24 11.58v30.23s-27.94-1.93-34.71 26.37h-20.32v61.85h-49.16c-.8176 0-1.477.6580-1.477 1.476v436.4c0 .8178.6591 1.476 1.477 1.476h49.16v83.79h141.4 2.523 141.4v-288h31.24v287.7h107.4 1.917 107.4v-149.6h30.19v148.4z" fill-rule="evenodd" fill="#cddce4"/>
  <path style="color-rendering:auto;color:#000000;isolation:auto;mix-blend-mode:normal;shape-rendering:auto;solid-color:#000000;image-rendering:auto" d="m2675 1250v-368.4l-57.62 19.74v-59.53h-23.47v67.57l-76.37 26.17h-32.56v29.32h17.61v12.07h11.39v116.7h-22.83v-74.67h-68.14v-42h12.4v-12.07h19.16v-29.32h-35.43l-48.29-15.2v-42.63h-23.47v-58.76h-10.06v.002 58.76h-16.76v26.8l-3.862-1.217-39.72-12.5v-52.25h-10.06v49.08l-60.34-19-110.1 34.67-7.211 2.271v-34.38h-50.29v50.21l-44.94 14.15h-35.43v29.32h19.16v12.07h12.4v96.65h-18.24v47.68h-28.65c-.9701 0-1.75.7605-1.75 1.705v125.4.4006c0 .7222.5973 1.305 1.339 1.305h47.3 37.49 395.4 68.14 56.11 127.7z" fill="#c2d4de"/>
  <path style="color-rendering:auto;color:#000000;isolation:auto;mix-blend-mode:normal;shape-rendering:auto;solid-color:#000000;image-rendering:auto" d="m0 1250h236.7 64.19 132.2 2.591 135.7 9.498 119.2c.3132-.0003.6131-.062.8837-.1727.8132-.3343 1.382-1.118 1.382-2.035v-2.423l235.3 4.631v-273.1l8.292.1622v-12.07l12.82.2520v-29.32l-23.69-.466-31.1-15.25v-33.4l-21.96-.4315v23.06l-15.46-7.58-73.65-36.12-69.5 31.35v-59.53l-17.08-.3366v67.57l-55.59 25.07-23.69-.4660v29.32l12.82.2520v12.07l8.292.1640v112.2h-67.26v-127.9h-20.87c-1.304-5.306-3.372-9.55-5.872-12.94-10.83-14.7-29.77-13.43-29.77-13.43v-30.23l-26.95-11.58c-.8046-2.219-1.758-4.344-2.847-6.377-.7258-1.356-1.511-2.672-2.355-3.945-.8433-1.274-1.744-2.506-2.698-3.697-.4767-.5957-.9658-1.182-1.469-1.757-1.509-1.726-3.135-3.357-4.864-4.898-2.306-2.055-4.795-3.946-7.443-5.673-1.324-.8633-2.687-1.685-4.085-2.466-10.49-5.861-22.98-9.42-35.99-10.69v-.2554c-.4341.0325-.8615.0902-1.295.1260-.4330-.0376-.8625-.0956-1.296-.1260v.2554c-2.601.2534-5.18.5987-7.728 1.036-.8490.1455-1.698.3019-2.539.4677-7.575 1.494-14.82 3.814-21.42 6.962-1.466.6996-2.902 1.44-4.3 2.221-3.496 1.954-6.77 4.164-9.765 6.629-.5990.4931-1.187.9966-1.763 1.51-1.153 1.027-2.259 2.094-3.316 3.203s-2.064 2.26-3.017 3.452c-.4767.5957-.9398 1.201-1.389 1.817-.8994 1.233-1.744 2.507-2.529 3.821-1.178 1.972-2.224 4.037-3.126 6.194-.3006.7190-.5862 1.447-.8546 2.187l-26.95 11.58v30.23s-1.794-.1214-4.593.1398c-.6989.0653-1.463.1554-2.275.2762-6.504.9675-16.24 3.965-22.91 13.01-.4165.5655-.8220 1.154-1.213 1.767-1.565 2.455-2.912 5.303-3.946 8.609-.2582.8263-.4977 1.682-.7151 2.566h-20.86v165.7h-51.16v-144.3h11.39v-12.07h17.61v-29.32h-32.55l-42.73-14.64v-33.4h-30.17v23.06l-21.24-7.277-100.9-35.2-37.9 12.9v368.5zm1895-412.8-17.08.3366v59.53l-69.5-31.35-73.65 36.12-15.46 7.58v-23.06l-21.96.4315v33.4l-31.1 15.25-23.69.4660v29.32l12.82-.2520v12.07l8.292-.1622v94.35c-.3904-.1262-.7823-.2474-1.176-.3607-1.672-.4804-3.376-.8428-5.099-1.087v-.1831c-.2152.023-.4284.064-.6433.09-.215-.027-.4279-.068-.6433-.09v.1831c-.43.061-.8613.1296-1.289.2053-2.996.531-5.926 1.425-8.715 2.679-.3979.179-.7959.3656-1.188.5593-.392.1937-.7811.3956-1.167.604-.3856.2085-.7705.4239-1.149.6473-.3789.2231-.7546.4558-1.126.6938-.3713.238-.7408.4842-1.105.737-4.004 2.784-7.527 6.463-10.27 11.04-.4995.8323-.974 1.694-1.421 2.585-.4461.8913-.8658 1.813-1.256 2.763-.7799 1.902-1.442 3.924-1.975 6.065l-13.39 8.378v3.433c-4.309-6.223-10.58-11.67-18.33-16.34-.8612-.5191-1.74-1.029-2.638-1.529-.8979-.5001-1.812-.991-2.744-1.472-8.392-4.33-18.17-7.887-28.85-10.67-2.374-.6192-4.793-1.2-7.252-1.743-1.229-.2716-2.47-.5327-3.719-.7852-1.248-.2525-2.505-.4966-3.771-.7301-7.599-1.401-15.51-2.459-23.59-3.176-1.347-.1194-2.696-.2291-4.052-.3296-1.356-.1004-2.716-.1911-4.079-.2727v-.2554c-.7071.032-1.403.088-2.108.1243-.7053-.038-1.404-.094-2.11-.1243v.2554c-7.062.4224-14.03 1.1-20.82 2.031-6.788.9321-13.39 2.118-19.72 3.561-3.8.8655-7.502 1.823-11.08 2.872-1.194.3496-2.377.7105-3.544 1.08-18.68 5.924-33.83 14.47-42.49 25.64-1.083 1.397-2.064 2.834-2.938 4.313l-43.92 11.58v30.23s-1.644-.068-4.389.011c-.9146.025-1.954.068-3.093.1329-5.129.2941-12.33 1.072-19.78 3.048-1.654.4391-3.324.9365-4.982 1.502-4.977 1.696-9.884 3.998-14.18 7.113-.7149.5189-1.414 1.061-2.093 1.626-.6784.5652-1.338 1.156-1.975 1.769-.6372.6138-1.252 1.252-1.843 1.916-.8861.9959-1.717 2.049-2.484 3.164-.5114.743-.9934 1.513-1.446 2.311-.4521.798-.8733 1.623-1.262 2.478-.194.4275-.3809.8628-.5581 1.305h-6.674v-139.7l6.252-.1226v-9.044l9.662-.1897v-21.96l-17.86.3504-41.91-18.78v-50.63l-12.88.2503v.002 44.6l-52.4-23.49-55.53 27.06-11.65 5.678v-17.28l-16.56.3245v25.02l-23.44 11.43-17.87.3487v21.96l9.664-.1881v9.044l6.252-.1226v100.1h-24.6v-35.91h-23.47v35.91h-73.75v104.5h121.8 203.4 224.2 4.219 150.6 85.95v-1.691l89.25-1.757v1.241c0 1.07.7736 1.958 1.808 2.163.1479.029.3024.045.4593.045h128.7c1.098 0 2.01-.7531 2.221-1.76.03-.1439.047-.2941.047-.4471v-162.2c0-.1529-.017-.3032-.047-.4471-.2105-1.007-1.122-1.76-2.221-1.76h-16.68v-112.2l8.292-.1640v-12.07l12.82-.2520v-29.32l-23.69.466-55.59-25.07v-67.57z" fill="#c2d4de"/>
  <path style="color-rendering:auto;color:#000000;isolation:auto;mix-blend-mode:normal;shape-rendering:auto;solid-color:#000000;image-rendering:auto" d="m2675 1254v-58.87c-5.967-4.761-13.26-7.963-21.33-8.883-2.984-37.52-27.09-66.03-55.87-66.07-15.95.031-31.13 8.934-41.78 24.49-7.797-18.94-25.98-31.28-46.15-31.3-5.986.01-11.92 1.113-17.53 3.257-10.65-24.13-33.27-39.51-58.13-39.54-31.89.043-58.94 25.14-63.63 59.01h-.054c-9.609-9.968-21.72-15.89-34.81-15.91-15.95.031-31.13 8.934-41.78 24.49-7.797-18.94-25.98-31.28-46.15-31.3-5.986.01-11.92 1.113-17.53 3.257-10.65-24.12-33.27-39.51-58.13-39.54-31.89.043-58.94 25.13-63.63 59.01-.2602-.015-.5207-.027-.781-.038-24.66.019-77.55 17.22-81.99 40.9-.6326-.034-1.265-.062-1.899-.079-32.68.026-59.39 21.57-60.24 48.59-6.061 5.164-12.8 16.72-18 28.52h293.8 185.8 249.8z" fill="#a7c1d0"/>
  <path style="color-rendering:auto;color:#000000;isolation:auto;mix-blend-mode:normal;shape-rendering:auto;solid-color:#000000;image-rendering:auto" d="m0 1254h12.26 427.1 213 443.7 147.6 301.8 427.1c2.536-4.649 3.567-9.697 3.578-13.83-.012-11.31-16-20.82-37.17-22.1-2.984-19.9-27.09-35.02-55.87-35.04-15.95.016-31.13 4.738-41.78 12.99-7.797-10.05-25.98-16.59-46.15-16.6-5.986.01-11.92.5891-17.53 1.726-10.65-12.8-33.27-20.96-58.13-20.97-31.89.023-58.94 13.33-63.63 31.3-.2603-.01-.5207-.015-.781-.02-24.66.01-45.8 9.135-50.24 21.7-.6325-.018-1.267-.031-1.901-.04-23.59.01-44.06 5.967-53.95 14.67-.085-21.26-16.05-39.11-37.17-41.52-2.984-37.52-27.09-66.03-55.87-66.07-15.95.031-31.13 8.934-41.78 24.49-7.797-18.94-25.98-31.28-46.15-31.3-5.986.01-11.92 1.113-17.53 3.257-10.65-24.13-33.27-39.51-58.13-39.54-31.89.043-58.94 25.13-63.63 59.01-.26-.015-.5207-.027-.781-.038-11.53.01-22.28 3.774-30.92 10.2-10.35-16-25.78-26.05-42.85-26.07-15.95.031-31.13 8.934-41.78 24.49-7.797-18.94-25.98-31.28-46.15-31.3-5.986.01-11.92 1.114-17.53 3.257-10.65-24.12-33.27-39.51-58.13-39.54-31.89.043-58.94 25.13-63.63 59.01-.2601-.015-.5207-.027-.7809-.038-10.64.01-20.61 3.219-28.88 8.761-23.29.9595-44.11 10.23-54.2 24.34-5.604-1.324-11.54-2.001-17.53-2.011-20.16.013-38.35 7.632-46.15 19.33-10.65-9.611-25.83-15.11-41.78-15.13-28.78.026-52.88 17.64-55.87 40.81-10.56.7444-19.84 3.875-26.48 8.462-3.173-17.99-17.82-32.23-36.52-34.37-2.984-37.52-27.09-66.03-55.87-66.07-15.95.031-31.13 8.934-41.78 24.49-7.797-18.94-25.98-31.28-46.15-31.3-5.987.01-11.92 1.113-17.53 3.257-10.65-24.13-33.27-39.51-58.13-39.54-31.89.043-58.95 25.14-63.63 59.01-.2602-.015-.5207-.027-.7809-.038-24.66.019-45.8 17.22-50.24 40.9-.6325-.034-1.265-.061-1.899-.078-6.651.01-13.05.9154-19.04 2.568-.5812-.011-1.158-.036-1.742-.036-5.986.01-11.92.5891-17.53 1.726-10.65-12.8-33.27-20.96-58.13-20.97-31.89.023-58.94 13.33-63.63 31.3-.2602-.01-.5207-.015-.7809-.021-24.66.01-45.8 9.135-50.24 21.7-.6325-.018-1.267-.031-1.901-.04-23.59.01-44.06 5.966-53.95 14.67-.82-14-6.956-25-16.6-33v58.87z" fill="#a7c1d0"/>
 </g>
</svg>
