<svg xmlns:rdf="http://www.w3.org/1999/02/22-rdf-syntax-ns#" xmlns="http://www.w3.org/2000/svg" height="440.5" width="800" version="1.1" xmlns:cc="http://creativecommons.org/ns#" xmlns:dc="http://purl.org/dc/elements/1.1/" viewBox="0 0 800.00165 440.4855">
 <rect style="color-rendering:auto;color:#000000;isolation:auto;mix-blend-mode:normal;shape-rendering:auto;solid-color:#000000;image-rendering:auto" ry="0" height="391.6" width="781.6" y="18.86" x="9.218" fill="#e2cba1"/>
 <g transform="translate(-298.4 -675.4)">
  <path style="color-rendering:auto;color:#000000;isolation:auto;mix-blend-mode:normal;shape-rendering:auto;solid-color:#000000;image-rendering:auto" d="m587.8 706h223.5c5.826 0 10.52 4.69 10.52 10.52v259.2l-.5168 10.52h-243.5l-.5168-10.52v-259.2c0-5.826 4.69-10.52 10.52-10.52z" fill="#ebdcb9"/>
  <path style="color-rendering:auto;color:#000000;isolation:auto;mix-blend-mode:normal;shape-rendering:auto;solid-color:#000000;image-rendering:auto" d="m818.5 709s3.298 4.547 3.298 7.478v265.2l-5.796 6.517-222.5-1.608-8.277.5499z" fill="#bfac89"/>
  <path style="color-rendering:auto;color:#000000;isolation:auto;mix-blend-mode:normal;shape-rendering:auto;solid-color:#000000;image-rendering:auto" d="m590.2 710.3h217.5c4.238 0 7.651 3.412 7.651 7.651v270.1l-7.651-.3494h-217.5l-7.651.3494v-270.1c0-4.238 3.412-7.651 7.651-7.651z" fill="#e2cba1"/>
  <path style="color-rendering:auto;color:#000000;isolation:auto;mix-blend-mode:normal;shape-rendering:auto;solid-color:#000000;image-rendering:auto" d="m609.6 727.4h182.1c2.97 0 5.361 2.391 5.361 5.361-.2941 53.61 0.43 193.2-.0535 246.8l-192.6-.5-.2-246.4c-.002-2.97 2.391-5.361 5.361-5.361z" fill="#bfac89"/>
  <path style="color-rendering:auto;color:#000000;isolation:auto;mix-blend-mode:normal;shape-rendering:auto;solid-color:#000000;image-rendering:auto" d="m604.2 979.3c64.26-.7730 128.6-.1096 192.9.021-.0365-53.55-.0149-193.1-.0149-246.6 0-1.868-.5530-2.558-1.725-3.662z" fill="#ebdcb9"/>
 </g>
 <g transform="translate(-1634 -1051)">
  <rect style="color-rendering:auto;color:#000000;isolation:auto;mix-blend-mode:normal;shape-rendering:auto;solid-color:#000000;image-rendering:auto" height="259.1" width="187" y="1105" x="1941" fill="#808080"/>
  <rect style="color-rendering:auto;color:#000000;isolation:auto;mix-blend-mode:normal;shape-rendering:auto;solid-color:#000000;image-rendering:auto" height="250.8" width="84.12" y="1113" x="1950" fill="#999"/>
  <rect style="color-rendering:auto;color:#000000;isolation:auto;mix-blend-mode:normal;shape-rendering:auto;solid-color:#000000;image-rendering:auto" height="210.2" width="54.9" y="1134" x="1965" fill="#092c3f"/>
  <rect style="color-rendering:auto;color:#000000;isolation:auto;mix-blend-mode:normal;shape-rendering:auto;solid-color:#000000;image-rendering:auto" height="208.2" width="52.29" y="1136" x="1967" fill="#9cd3f0"/>
  <rect style="color-rendering:auto;color:#000000;isolation:auto;mix-blend-mode:normal;shape-rendering:auto;solid-color:#000000;image-rendering:auto" height="187.7" width="35.32" y="1145" x="1974" fill="#999"/>
  <rect style="color-rendering:auto;color:#000000;isolation:auto;mix-blend-mode:normal;shape-rendering:auto;solid-color:#000000;image-rendering:auto" height="214.6" width="5.759" y="1131" x="1989" fill="#999"/>
  <rect style="color-rendering:auto;color:#000000;isolation:auto;mix-blend-mode:normal;shape-rendering:auto;solid-color:#000000;image-rendering:auto" height="6.527" width="66.42" y="1275" x="1959" fill="#999"/>
  <rect style="color-rendering:auto;color:#000000;isolation:auto;mix-blend-mode:normal;shape-rendering:auto;solid-color:#000000;image-rendering:auto" height="6.527" width="66.42" y="1195" x="1959" fill="#999"/>
  <rect style="color-rendering:auto;color:#000000;isolation:auto;mix-blend-mode:normal;shape-rendering:auto;solid-color:#000000;image-rendering:auto" height="250.8" width="3.742" y="1113" x="1950" fill="#505050"/>
  <rect style="color-rendering:auto;color:#000000;isolation:auto;mix-blend-mode:normal;shape-rendering:auto;solid-color:#000000;image-rendering:auto" transform="scale(-1,1)" height="250.8" width="84.12" y="1113" x="-2120" fill="#999"/>
  <rect style="color-rendering:auto;color:#000000;isolation:auto;mix-blend-mode:normal;shape-rendering:auto;solid-color:#000000;image-rendering:auto" height="3.237" width="170.4" y="1113" x="1950" fill="#505050"/>
  <rect style="color-rendering:auto;color:#000000;isolation:auto;mix-blend-mode:normal;shape-rendering:auto;solid-color:#000000;image-rendering:auto" height="5.856" width="69.68" y="1250" x="1954" fill="#505050"/>
  <rect style="color-rendering:auto;color:#000000;isolation:auto;mix-blend-mode:normal;shape-rendering:auto;solid-color:#000000;image-rendering:auto" height="18.27" width="7.295" y="1243" x="1954" fill="#b1b1b1"/>
  <rect style="color-rendering:auto;color:#000000;isolation:auto;mix-blend-mode:normal;shape-rendering:auto;solid-color:#000000;image-rendering:auto" height="18.27" width="7.295" y="1243" x="2022" fill="#b1b1b1"/>
  <rect style="color-rendering:auto;color:#000000;isolation:auto;mix-blend-mode:normal;shape-rendering:auto;solid-color:#000000;image-rendering:auto" height="5.856" width="69.68" y="1249" x="1954" fill="#b1b1b1"/>
  <rect style="color-rendering:auto;color:#000000;isolation:auto;mix-blend-mode:normal;shape-rendering:auto;solid-color:#000000;image-rendering:auto" transform="scale(-1,1)" height="210.2" width="54.9" y="1134" x="-2105" fill="#092c3f"/>
  <rect style="color-rendering:auto;color:#000000;isolation:auto;mix-blend-mode:normal;shape-rendering:auto;solid-color:#000000;image-rendering:auto" transform="scale(-1,1)" height="208.2" width="52.29" y="1136" x="-2103" fill="#9cd3f0"/>
  <rect style="color-rendering:auto;color:#000000;isolation:auto;mix-blend-mode:normal;shape-rendering:auto;solid-color:#000000;image-rendering:auto" transform="scale(-1,1)" height="187.7" width="35.32" y="1145" x="-2096" fill="#999"/>
  <rect style="color-rendering:auto;color:#000000;isolation:auto;mix-blend-mode:normal;shape-rendering:auto;solid-color:#000000;image-rendering:auto" transform="scale(-1,1)" height="214.6" width="5.759" y="1131" x="-2081" fill="#999"/>
  <rect style="color-rendering:auto;color:#000000;isolation:auto;mix-blend-mode:normal;shape-rendering:auto;solid-color:#000000;image-rendering:auto" transform="scale(-1,1)" height="6.527" width="66.42" y="1275" x="-2111" fill="#999"/>
  <rect style="color-rendering:auto;color:#000000;isolation:auto;mix-blend-mode:normal;shape-rendering:auto;solid-color:#000000;image-rendering:auto" transform="scale(-1,1)" height="6.527" width="66.42" y="1195" x="-2111" fill="#999"/>
  <rect style="color-rendering:auto;color:#000000;isolation:auto;mix-blend-mode:normal;shape-rendering:auto;solid-color:#000000;image-rendering:auto" transform="scale(-1,1)" height="5.856" width="69.68" y="1250" x="-2115" fill="#505050"/>
  <rect style="color-rendering:auto;color:#000000;isolation:auto;mix-blend-mode:normal;shape-rendering:auto;solid-color:#000000;image-rendering:auto" transform="scale(-1,1)" height="18.27" width="7.295" y="1243" x="-2115" fill="#b1b1b1"/>
  <rect style="color-rendering:auto;color:#000000;isolation:auto;mix-blend-mode:normal;shape-rendering:auto;solid-color:#000000;image-rendering:auto" transform="scale(-1,1)" height="18.27" width="7.295" y="1243" x="-2047" fill="#b1b1b1"/>
  <rect style="color-rendering:auto;color:#000000;isolation:auto;mix-blend-mode:normal;shape-rendering:auto;solid-color:#000000;image-rendering:auto" transform="scale(-1,1)" height="5.856" width="69.68" y="1249" x="-2115" fill="#b1b1b1"/>
 </g>
 <g id="steps" transform="translate(-506.6 -1027)">
  <rect style="color-rendering:auto;color:#000000;isolation:auto;mix-blend-mode:normal;shape-rendering:auto;solid-color:#000000;image-rendering:auto" height="15.08" width="284.3" y="1435" x="764.6" fill="#7fb7b9"/>
  <rect style="color-rendering:auto;color:#000000;isolation:auto;mix-blend-mode:normal;shape-rendering:auto;solid-color:#000000;image-rendering:auto" height="15.08" width="270.1" y="1420" x="771.7" fill="#9e708b"/>
  <rect style="color-rendering:auto;color:#000000;isolation:auto;mix-blend-mode:normal;shape-rendering:auto;solid-color:#000000;image-rendering:auto" height="15.08" width="255.9" y="1405" x="778.8" fill="#757b9b"/>
  <rect style="color-rendering:auto;color:#000000;isolation:auto;mix-blend-mode:normal;shape-rendering:auto;solid-color:#000000;image-rendering:auto" height="15.08" width="241.7" y="1390" x="785.9" fill="#e0c272"/>
  <rect style="color-rendering:auto;color:#000000;isolation:auto;mix-blend-mode:normal;shape-rendering:auto;solid-color:#000000;image-rendering:auto" height="15.08" width="227.5" y="1374" x="793" fill="#c58498"/>
  <rect style="color-rendering:auto;color:#000000;isolation:auto;mix-blend-mode:normal;shape-rendering:auto;solid-color:#000000;image-rendering:auto" height="15.08" width="213.3" y="1359" x="800.1" fill="#64a372"/>
  <rect style="color-rendering:auto;color:#000000;isolation:auto;mix-blend-mode:normal;shape-rendering:auto;solid-color:#000000;image-rendering:auto" height="15.08" width="199" y="1344" x="807.2" fill="#ca7072"/>
  <path style="color-rendering:auto;color:#000000;isolation:auto;mix-blend-mode:normal;shape-rendering:auto;solid-color:#000000;image-rendering:auto" d="m807.2-1344h199l-6 5.255h-187z" transform="scale(1,-1)" fill="#d89798"/>
 </g>
 <g transform="matrix(.8927 0 0 1 -213.7 -675.4)">
  <rect style="color-rendering:auto;color:#000000;isolation:auto;mix-blend-mode:normal;shape-rendering:auto;solid-color:#000000;image-rendering:auto" ry="0" height="60.29" width="299.8" y="1056" x="824.9" fill="#75687c"/>
  <g transform="translate(215.8 -357.3)">
   <rect style="color-rendering:auto;color:#000000;isolation:auto;mix-blend-mode:normal;shape-rendering:auto;solid-color:#000000;image-rendering:auto" transform="scale(1,-1)" ry="0" height="89.37" width="41.06" y="-1409" x="614.5" fill="#75687c"/>
   <rect style="color-rendering:auto;color:#000000;isolation:auto;mix-blend-mode:normal;shape-rendering:auto;solid-color:#000000;image-rendering:auto" transform="scale(1,-1)" ry="0" height="7.588" width="41.06" y="-1327" x="614.5" fill="#5a4d5e"/>
   <rect style="color-rendering:auto;color:#000000;isolation:auto;mix-blend-mode:normal;shape-rendering:auto;solid-color:#000000;image-rendering:auto" ry="0" height="11.22" width="65" y="1309" x="602.5" fill="#75687c"/>
   <path style="color-rendering:auto;color:#000000;isolation:auto;mix-blend-mode:normal;shape-rendering:auto;solid-color:#000000;image-rendering:auto" transform="matrix(.9772 0 0 .3185 -180.2 891)" fill="#a195a2" d="m867.4 1311h-33.26-33.26l16.63-28.8 16.63-28.8 16.63 28.8z"/>
  </g>
  <g transform="translate(333.4 -357.3)">
   <path d="m682.7 1345v60.92" stroke="#75687c" stroke-width="3.175" fill="none"/>
   <circle style="color-rendering:auto;color:#000000;isolation:auto;mix-blend-mode:normal;shape-rendering:auto;solid-color:#000000;image-rendering:auto" cx="682.7" cy="1340" r="4.372" fill="#75687c"/>
   <path d="m682.7 1344v2.551" stroke="#5a4d5e" stroke-width="3.175" fill="none"/>
  </g>
  <g transform="translate(457.8 -357.3)">
   <rect ry="0" style="color-rendering:auto;color:#000000;isolation:auto;mix-blend-mode:normal;shape-rendering:auto;solid-color:#000000;image-rendering:auto" transform="scale(1,-1)" height="89.37" width="41.06" y="-1409" x="614.5" fill="#75687c"/>
   <rect ry="0" style="color-rendering:auto;color:#000000;isolation:auto;mix-blend-mode:normal;shape-rendering:auto;solid-color:#000000;image-rendering:auto" transform="scale(1,-1)" height="7.588" width="41.06" y="-1327" x="614.5" fill="#5a4d5e"/>
   <rect style="color-rendering:auto;color:#000000;isolation:auto;mix-blend-mode:normal;shape-rendering:auto;solid-color:#000000;image-rendering:auto" ry="0" height="11.22" width="65" y="1309" x="602.5" fill="#75687c"/>
   <path style="color-rendering:auto;color:#000000;isolation:auto;mix-blend-mode:normal;shape-rendering:auto;solid-color:#000000;image-rendering:auto" d="m867.4 1311h-33.26-33.26l16.63-28.8 16.63-28.8 16.63 28.8z" transform="matrix(.9772 0 0 .3185 -180.2 891)" fill="#a195a2"/>
  </g>
  <g transform="translate(303 -357.3)">
   <path d="m682.7 1345v60.92" stroke="#75687c" stroke-width="3.175" fill="none"/>
   <circle style="color-rendering:auto;color:#000000;isolation:auto;mix-blend-mode:normal;shape-rendering:auto;solid-color:#000000;image-rendering:auto" cy="1340" cx="682.7" r="4.372" fill="#75687c"/>
   <path d="m682.7 1344v2.551" stroke="#5a4d5e" stroke-width="3.175" fill="none"/>
  </g>
  <g transform="translate(272.6 -357.3)">
   <path d="m682.7 1345v60.92" stroke="#75687c" stroke-width="3.175" fill="none"/>
   <circle style="color-rendering:auto;color:#000000;isolation:auto;mix-blend-mode:normal;shape-rendering:auto;solid-color:#000000;image-rendering:auto" cx="682.7" cy="1340" r="4.372" fill="#75687c"/>
   <path d="m682.7 1344v2.551" stroke="#5a4d5e" stroke-width="3.175" fill="none"/>
  </g>
  <g transform="translate(242.2 -357.3)">
   <path d="m682.7 1345v60.92" stroke="#75687c" stroke-width="3.175" fill="none"/>
   <circle style="color-rendering:auto;color:#000000;isolation:auto;mix-blend-mode:normal;shape-rendering:auto;solid-color:#000000;image-rendering:auto" cy="1340" cx="682.7" r="4.372" fill="#75687c"/>
   <path d="m682.7 1344v2.551" stroke="#5a4d5e" stroke-width="3.175" fill="none"/>
  </g>
  <g transform="translate(211.8 -357.3)">
   <path d="m682.7 1345v60.92" stroke="#75687c" stroke-width="3.175" fill="none"/>
   <circle style="color-rendering:auto;color:#000000;isolation:auto;mix-blend-mode:normal;shape-rendering:auto;solid-color:#000000;image-rendering:auto" cx="682.7" cy="1340" r="4.372" fill="#75687c"/>
   <path d="m682.7 1344v2.551" stroke="#5a4d5e" stroke-width="3.175" fill="none"/>
  </g>
  <rect ry="0" style="color-rendering:auto;color:#000000;isolation:auto;mix-blend-mode:normal;shape-rendering:auto;solid-color:#000000;image-rendering:auto" transform="scale(1,-1)" height="5.977" width="299.8" y="-1056" x="824.9" fill="#a195a2"/>
  <g transform="translate(363.8 -357.3)">
   <path d="m682.7 1345v60.92" stroke="#75687c" stroke-width="3.175" fill="none"/>
   <circle style="color-rendering:auto;color:#000000;isolation:auto;mix-blend-mode:normal;shape-rendering:auto;solid-color:#000000;image-rendering:auto" cy="1340" cx="682.7" r="4.372" fill="#75687c"/>
   <path d="m682.7 1344v2.551" stroke="#5a4d5e" stroke-width="3.175" fill="none"/>
  </g>
  <path d="m860.5 1e3h264.3" stroke="#75687c" stroke-width="3.175" fill="none"/>
  <path d="m860.5 1029h264.3" stroke="#75687c" stroke-width="3.175" fill="none"/>
 </g>
 <path style="color-rendering:auto;color:#000000;isolation:auto;mix-blend-mode:normal;shape-rendering:auto;solid-color:#000000;image-rendering:auto" d="m800 12.98h-800v.5039c0 4.238 3.348 7.65 7.508 7.65h785c4.16 0 7.508-3.412 7.508-7.65v-.5039z" fill="#b49c7f"/>
 <path style="color-rendering:auto;color:#000000;isolation:auto;mix-blend-mode:normal;shape-rendering:auto;solid-color:#000000;image-rendering:auto" d="m800-.001266h-800v12.98h800v-12.98z" fill="#d9bb99"/>
 <g transform="matrix(-.8927 0 0 1 1014 -675.4)">
  <rect style="color-rendering:auto;color:#000000;isolation:auto;mix-blend-mode:normal;shape-rendering:auto;solid-color:#000000;image-rendering:auto" ry="0" height="60.29" width="299.8" y="1056" x="824.9" fill="#75687c"/>
  <g transform="translate(215.8 -357.3)">
   <rect style="color-rendering:auto;color:#000000;isolation:auto;mix-blend-mode:normal;shape-rendering:auto;solid-color:#000000;image-rendering:auto" transform="scale(1,-1)" ry="0" height="89.37" width="41.06" y="-1409" x="614.5" fill="#75687c"/>
   <rect style="color-rendering:auto;color:#000000;isolation:auto;mix-blend-mode:normal;shape-rendering:auto;solid-color:#000000;image-rendering:auto" transform="scale(1,-1)" ry="0" height="7.588" width="41.06" y="-1327" x="614.5" fill="#5a4d5e"/>
   <rect style="color-rendering:auto;color:#000000;isolation:auto;mix-blend-mode:normal;shape-rendering:auto;solid-color:#000000;image-rendering:auto" ry="0" height="11.22" width="65" y="1309" x="602.5" fill="#75687c"/>
   <path style="color-rendering:auto;color:#000000;isolation:auto;mix-blend-mode:normal;shape-rendering:auto;solid-color:#000000;image-rendering:auto" transform="matrix(.9772 0 0 .3185 -180.2 891)" fill="#a195a2" d="m867.4 1311h-33.26-33.26l16.63-28.8 16.63-28.8 16.63 28.8z"/>
  </g>
  <g transform="translate(333.4 -357.3)">
   <path d="m682.7 1345v60.92" stroke="#75687c" stroke-width="3.175" fill="none"/>
   <circle style="color-rendering:auto;color:#000000;isolation:auto;mix-blend-mode:normal;shape-rendering:auto;solid-color:#000000;image-rendering:auto" cx="682.7" cy="1340" r="4.372" fill="#75687c"/>
   <path d="m682.7 1344v2.551" stroke="#5a4d5e" stroke-width="3.175" fill="none"/>
  </g>
  <g transform="translate(457.8 -357.3)">
   <rect ry="0" style="color-rendering:auto;color:#000000;isolation:auto;mix-blend-mode:normal;shape-rendering:auto;solid-color:#000000;image-rendering:auto" transform="scale(1,-1)" height="89.37" width="41.06" y="-1409" x="614.5" fill="#75687c"/>
   <rect ry="0" style="color-rendering:auto;color:#000000;isolation:auto;mix-blend-mode:normal;shape-rendering:auto;solid-color:#000000;image-rendering:auto" transform="scale(1,-1)" height="7.588" width="41.06" y="-1327" x="614.5" fill="#5a4d5e"/>
   <rect style="color-rendering:auto;color:#000000;isolation:auto;mix-blend-mode:normal;shape-rendering:auto;solid-color:#000000;image-rendering:auto" ry="0" height="11.22" width="65" y="1309" x="602.5" fill="#75687c"/>
   <path style="color-rendering:auto;color:#000000;isolation:auto;mix-blend-mode:normal;shape-rendering:auto;solid-color:#000000;image-rendering:auto" d="m867.4 1311h-33.26-33.26l16.63-28.8 16.63-28.8 16.63 28.8z" transform="matrix(.9772 0 0 .3185 -180.2 891)" fill="#a195a2"/>
  </g>
  <g transform="translate(303 -357.3)">
   <path d="m682.7 1345v60.92" stroke="#75687c" stroke-width="3.175" fill="none"/>
   <circle style="color-rendering:auto;color:#000000;isolation:auto;mix-blend-mode:normal;shape-rendering:auto;solid-color:#000000;image-rendering:auto" cy="1340" cx="682.7" r="4.372" fill="#75687c"/>
   <path d="m682.7 1344v2.551" stroke="#5a4d5e" stroke-width="3.175" fill="none"/>
  </g>
  <g transform="translate(272.6 -357.3)">
   <path d="m682.7 1345v60.92" stroke="#75687c" stroke-width="3.175" fill="none"/>
   <circle style="color-rendering:auto;color:#000000;isolation:auto;mix-blend-mode:normal;shape-rendering:auto;solid-color:#000000;image-rendering:auto" cx="682.7" cy="1340" r="4.372" fill="#75687c"/>
   <path d="m682.7 1344v2.551" stroke="#5a4d5e" stroke-width="3.175" fill="none"/>
  </g>
  <g transform="translate(242.2 -357.3)">
   <path d="m682.7 1345v60.92" stroke="#75687c" stroke-width="3.175" fill="none"/>
   <circle style="color-rendering:auto;color:#000000;isolation:auto;mix-blend-mode:normal;shape-rendering:auto;solid-color:#000000;image-rendering:auto" cy="1340" cx="682.7" r="4.372" fill="#75687c"/>
   <path d="m682.7 1344v2.551" stroke="#5a4d5e" stroke-width="3.175" fill="none"/>
  </g>
  <g transform="translate(211.8 -357.3)">
   <path d="m682.7 1345v60.92" stroke="#75687c" stroke-width="3.175" fill="none"/>
   <circle style="color-rendering:auto;color:#000000;isolation:auto;mix-blend-mode:normal;shape-rendering:auto;solid-color:#000000;image-rendering:auto" cx="682.7" cy="1340" r="4.372" fill="#75687c"/>
   <path d="m682.7 1344v2.551" stroke="#5a4d5e" stroke-width="3.175" fill="none"/>
  </g>
  <rect ry="0" style="color-rendering:auto;color:#000000;isolation:auto;mix-blend-mode:normal;shape-rendering:auto;solid-color:#000000;image-rendering:auto" transform="scale(1,-1)" height="5.977" width="299.8" y="-1056" x="824.9" fill="#a195a2"/>
  <g transform="translate(363.8 -357.3)">
   <path d="m682.7 1345v60.92" stroke="#75687c" stroke-width="3.175" fill="none"/>
   <circle style="color-rendering:auto;color:#000000;isolation:auto;mix-blend-mode:normal;shape-rendering:auto;solid-color:#000000;image-rendering:auto" cy="1340" cx="682.7" r="4.372" fill="#75687c"/>
   <path d="m682.7 1344v2.551" stroke="#5a4d5e" stroke-width="3.175" fill="none"/>
  </g>
  <path d="m860.5 1e3h264.3" stroke="#75687c" stroke-width="3.175" fill="none"/>
  <path d="m860.5 1029h264.3" stroke="#75687c" stroke-width="3.175" fill="none"/>
 </g>
</svg>
