<svg xmlns:rdf="http://www.w3.org/1999/02/22-rdf-syntax-ns#" xmlns="http://www.w3.org/2000/svg" height="314.6" width="800" version="1.1" xmlns:cc="http://creativecommons.org/ns#" xmlns:dc="http://purl.org/dc/elements/1.1/" viewBox="0 0 800.00629 314.62175">
 <title>gallery-title</title>
 <g stroke="#000" transform="translate(-224.8 -7.147)">
  <path stroke-linejoin="round" style="color-rendering:auto;color:#000000;isolation:auto;mix-blend-mode:normal;shape-rendering:auto;solid-color:#000000;image-rendering:auto" d="m407.3 7.645c-9.416 0-17.05 7.695-17.05 17.19.007 5.846 6.151 10.71 7.173 16.47l.6686 3.764c.3920 2.207.4538 4.047 2.678 4.047h13.06c2.224 0 2.284-1.84 2.678-4.047l.6686-3.744c1.029-5.761 7.173-10.63 7.173-16.49 0-9.492-7.633-17.19-17.05-17.19z" stroke-linecap="round" fill="#fff"/>
  <g transform="matrix(.6899 0 0 .6930 217 7.297)" stroke-width="1.446" fill="none">
   <path d="m274.8 34.35-9.458 5.654"/>
   <path d="m271.2 41.62-.2012.2019 5.232-6.058-.2012 6.866"/>
   <path d="m276.6 34.35 9.458 5.654"/>
   <path d="m280.2 41.62.2012.2019-5.232-6.058.2012 6.866"/>
   <path d="m275 23.78-9.458-5.654"/>
   <path d="m270.4 16.51-.2012-.2019 5.232 6.058-.2012-6.866"/>
   <path d="m276.8 23.78 9.458-5.654"/>
   <path d="m281.4 16.51.2012-.2019-5.232 6.058.2012-6.866"/>
  </g>
  <g stroke-linejoin="round" transform="matrix(.6899 0 0 .6930 217 7.297)" stroke-linecap="round" stroke-width="1.446">
   <g fill="#fff">
    <rect style="color-rendering:auto;color:#000000;isolation:auto;mix-blend-mode:normal;shape-rendering:auto;solid-color:#000000;image-rendering:auto" rx="2.427" ry="2.427" height="25.85" width="3.22" y="21.19" x="274.2"/>
    <rect style="color-rendering:auto;color:#000000;isolation:auto;mix-blend-mode:normal;shape-rendering:auto;solid-color:#000000;image-rendering:auto" rx="2.427" ry="2.427" height="15.35" width="10.26" y="45.42" x="270.7"/>
    <rect style="color-rendering:auto;color:#000000;isolation:auto;mix-blend-mode:normal;shape-rendering:auto;solid-color:#000000;image-rendering:auto" rx="2.427" ry="2.427" height="3.776" width="9.298" y="72.19" x="271.2"/>
   </g>
   <rect style="color-rendering:auto;color:#000000;isolation:auto;mix-blend-mode:normal;shape-rendering:auto;solid-color:#000000;image-rendering:auto" rx="2.363" ry="2.363" height="3.677" width="13.82" y="70.3" x="268.9"/>
   <rect style="color-rendering:auto;color:#000000;isolation:auto;mix-blend-mode:normal;shape-rendering:auto;solid-color:#000000;image-rendering:auto" rx="2.313" ry="2.313" height="3.599" width="22.68" y="60.42" x="264.5" fill="#6c5d53"/>
   <rect style="color-rendering:auto;color:#000000;isolation:auto;mix-blend-mode:normal;shape-rendering:auto;solid-color:#000000;image-rendering:auto" rx="2.313" ry="2.313" height="3.599" width="22.68" y="64.11" x="264.5" fill="#ac9d93"/>
   <rect style="color-rendering:auto;color:#000000;isolation:auto;mix-blend-mode:normal;shape-rendering:auto;solid-color:#000000;image-rendering:auto" rx="2.313" ry="2.313" height="3.599" width="22.68" y="67.75" x="264.5" fill="#c8beb7"/>
   <g fill="#fff">
    <ellipse style="color-rendering:auto;color:#000000;isolation:auto;mix-blend-mode:normal;shape-rendering:auto;solid-color:#000000;image-rendering:auto" rx=".9245" ry=".9278" cy="18.49" cx="265.5"/>
    <ellipse style="color-rendering:auto;color:#000000;isolation:auto;mix-blend-mode:normal;shape-rendering:auto;solid-color:#000000;image-rendering:auto" rx=".9245" ry=".9278" cy="15.92" cx="269.8"/>
    <ellipse style="color-rendering:auto;color:#000000;isolation:auto;mix-blend-mode:normal;shape-rendering:auto;solid-color:#000000;image-rendering:auto" rx=".9245" ry=".9278" cy="15.3" cx="275"/>
    <ellipse style="color-rendering:auto;color:#000000;isolation:auto;mix-blend-mode:normal;shape-rendering:auto;solid-color:#000000;image-rendering:auto" rx=".9245" ry=".9278" cy="15.3" cx="277"/>
    <ellipse style="color-rendering:auto;color:#000000;isolation:auto;mix-blend-mode:normal;shape-rendering:auto;solid-color:#000000;image-rendering:auto" rx=".9245" ry=".9278" cy="15.81" cx="282.2"/>
    <ellipse style="color-rendering:auto;color:#000000;isolation:auto;mix-blend-mode:normal;shape-rendering:auto;solid-color:#000000;image-rendering:auto" rx=".9245" ry=".9278" cy="17.87" cx="286.7"/>
    <ellipse style="color-rendering:auto;color:#000000;isolation:auto;mix-blend-mode:normal;shape-rendering:auto;solid-color:#000000;image-rendering:auto" rx=".9245" ry=".9278" cy="40.14" cx="286.4"/>
    <ellipse style="color-rendering:auto;color:#000000;isolation:auto;mix-blend-mode:normal;shape-rendering:auto;solid-color:#000000;image-rendering:auto" rx=".9245" ry=".9278" cy="42.2" cx="280.8"/>
    <ellipse style="color-rendering:auto;color:#000000;isolation:auto;mix-blend-mode:normal;shape-rendering:auto;solid-color:#000000;image-rendering:auto" rx=".9245" ry=".9278" cy="42.51" cx="270.6"/>
    <ellipse style="color-rendering:auto;color:#000000;isolation:auto;mix-blend-mode:normal;shape-rendering:auto;solid-color:#000000;image-rendering:auto" rx=".9245" ry=".9278" cy="39.73" cx="265"/>
   </g>
  </g>
  <rect stroke-linejoin="round" style="color-rendering:auto;color:#000000;isolation:auto;mix-blend-mode:normal;shape-rendering:auto;solid-color:#000000;image-rendering:auto" ry="8.345" height="16.69" width="30.05" stroke-linecap="round" y="58.83" x="392.3" fill="#d38d5f"/>
  <rect stroke-linejoin="round" style="color-rendering:auto;color:#000000;isolation:auto;mix-blend-mode:normal;shape-rendering:auto;solid-color:#000000;image-rendering:auto" ry="8.904" height="17.81" width="35.96" stroke-linecap="round" y="67.39" x="389.3" fill="#c83737"/>
 </g>
 <g stroke="#000" transform="translate(207.9 -7.147)">
  <path stroke-linejoin="round" style="color-rendering:auto;color:#000000;isolation:auto;mix-blend-mode:normal;shape-rendering:auto;solid-color:#000000;image-rendering:auto" d="m407.3 7.645c-9.416 0-17.05 7.695-17.05 17.19.007 5.846 6.151 10.71 7.173 16.47l.6686 3.764c.3920 2.207.4538 4.047 2.678 4.047h13.06c2.224 0 2.284-1.84 2.678-4.047l.6686-3.744c1.029-5.761 7.173-10.63 7.173-16.49 0-9.492-7.633-17.19-17.05-17.19z" stroke-linecap="round" fill="#fff"/>
  <g transform="matrix(.6899 0 0 .6930 217 7.297)" stroke-width="1.446" fill="none">
   <path d="m274.8 34.35-9.458 5.654"/>
   <path d="m271.2 41.62-.2012.2019 5.232-6.058-.2012 6.866"/>
   <path d="m276.6 34.35 9.458 5.654"/>
   <path d="m280.2 41.62.2012.2019-5.232-6.058.2012 6.866"/>
   <path d="m275 23.78-9.458-5.654"/>
   <path d="m270.4 16.51-.2012-.2019 5.232 6.058-.2012-6.866"/>
   <path d="m276.8 23.78 9.458-5.654"/>
   <path d="m281.4 16.51.2012-.2019-5.232 6.058.2012-6.866"/>
  </g>
  <g stroke-linejoin="round" transform="matrix(.6899 0 0 .6930 217 7.297)" stroke-linecap="round" stroke-width="1.446">
   <g fill="#fff">
    <rect style="color-rendering:auto;color:#000000;isolation:auto;mix-blend-mode:normal;shape-rendering:auto;solid-color:#000000;image-rendering:auto" rx="2.427" ry="2.427" height="25.85" width="3.22" y="21.19" x="274.2"/>
    <rect style="color-rendering:auto;color:#000000;isolation:auto;mix-blend-mode:normal;shape-rendering:auto;solid-color:#000000;image-rendering:auto" rx="2.427" ry="2.427" height="15.35" width="10.26" y="45.42" x="270.7"/>
    <rect style="color-rendering:auto;color:#000000;isolation:auto;mix-blend-mode:normal;shape-rendering:auto;solid-color:#000000;image-rendering:auto" rx="2.427" ry="2.427" height="3.776" width="9.298" y="72.19" x="271.2"/>
   </g>
   <rect style="color-rendering:auto;color:#000000;isolation:auto;mix-blend-mode:normal;shape-rendering:auto;solid-color:#000000;image-rendering:auto" rx="2.363" ry="2.363" height="3.677" width="13.82" y="70.3" x="268.9"/>
   <rect style="color-rendering:auto;color:#000000;isolation:auto;mix-blend-mode:normal;shape-rendering:auto;solid-color:#000000;image-rendering:auto" rx="2.313" ry="2.313" height="3.599" width="22.68" y="60.42" x="264.5" fill="#6c5d53"/>
   <rect style="color-rendering:auto;color:#000000;isolation:auto;mix-blend-mode:normal;shape-rendering:auto;solid-color:#000000;image-rendering:auto" rx="2.313" ry="2.313" height="3.599" width="22.68" y="64.11" x="264.5" fill="#ac9d93"/>
   <rect style="color-rendering:auto;color:#000000;isolation:auto;mix-blend-mode:normal;shape-rendering:auto;solid-color:#000000;image-rendering:auto" rx="2.313" ry="2.313" height="3.599" width="22.68" y="67.75" x="264.5" fill="#c8beb7"/>
   <g fill="#fff">
    <ellipse style="color-rendering:auto;color:#000000;isolation:auto;mix-blend-mode:normal;shape-rendering:auto;solid-color:#000000;image-rendering:auto" rx=".9245" ry=".9278" cy="18.49" cx="265.5"/>
    <ellipse style="color-rendering:auto;color:#000000;isolation:auto;mix-blend-mode:normal;shape-rendering:auto;solid-color:#000000;image-rendering:auto" rx=".9245" ry=".9278" cy="15.92" cx="269.8"/>
    <ellipse style="color-rendering:auto;color:#000000;isolation:auto;mix-blend-mode:normal;shape-rendering:auto;solid-color:#000000;image-rendering:auto" rx=".9245" ry=".9278" cy="15.3" cx="275"/>
    <ellipse style="color-rendering:auto;color:#000000;isolation:auto;mix-blend-mode:normal;shape-rendering:auto;solid-color:#000000;image-rendering:auto" rx=".9245" ry=".9278" cy="15.3" cx="277"/>
    <ellipse style="color-rendering:auto;color:#000000;isolation:auto;mix-blend-mode:normal;shape-rendering:auto;solid-color:#000000;image-rendering:auto" rx=".9245" ry=".9278" cy="15.81" cx="282.2"/>
    <ellipse style="color-rendering:auto;color:#000000;isolation:auto;mix-blend-mode:normal;shape-rendering:auto;solid-color:#000000;image-rendering:auto" rx=".9245" ry=".9278" cy="17.87" cx="286.7"/>
    <ellipse style="color-rendering:auto;color:#000000;isolation:auto;mix-blend-mode:normal;shape-rendering:auto;solid-color:#000000;image-rendering:auto" rx=".9245" ry=".9278" cy="40.14" cx="286.4"/>
    <ellipse style="color-rendering:auto;color:#000000;isolation:auto;mix-blend-mode:normal;shape-rendering:auto;solid-color:#000000;image-rendering:auto" rx=".9245" ry=".9278" cy="42.2" cx="280.8"/>
    <ellipse style="color-rendering:auto;color:#000000;isolation:auto;mix-blend-mode:normal;shape-rendering:auto;solid-color:#000000;image-rendering:auto" rx=".9245" ry=".9278" cy="42.51" cx="270.6"/>
    <ellipse style="color-rendering:auto;color:#000000;isolation:auto;mix-blend-mode:normal;shape-rendering:auto;solid-color:#000000;image-rendering:auto" rx=".9245" ry=".9278" cy="39.73" cx="265"/>
   </g>
  </g>
  <rect stroke-linejoin="round" style="color-rendering:auto;color:#000000;isolation:auto;mix-blend-mode:normal;shape-rendering:auto;solid-color:#000000;image-rendering:auto" ry="8.345" height="16.69" width="30.05" stroke-linecap="round" y="58.83" x="392.3" fill="#d38d5f"/>
  <rect stroke-linejoin="round" style="color-rendering:auto;color:#000000;isolation:auto;mix-blend-mode:normal;shape-rendering:auto;solid-color:#000000;image-rendering:auto" ry="8.904" height="17.81" width="35.96" stroke-linecap="round" y="67.39" x="389.3" fill="#c83737"/>
 </g>
 <g stroke="#000" transform="translate(-311.3 -7.147)">
  <path stroke-linejoin="round" style="color-rendering:auto;color:#000000;isolation:auto;mix-blend-mode:normal;shape-rendering:auto;solid-color:#000000;image-rendering:auto" d="m407.3 7.645c-9.416 0-17.05 7.695-17.05 17.19.007 5.846 6.151 10.71 7.173 16.47l.6686 3.764c.3920 2.207.4538 4.047 2.678 4.047h13.06c2.224 0 2.284-1.84 2.678-4.047l.6686-3.744c1.029-5.761 7.173-10.63 7.173-16.49 0-9.492-7.633-17.19-17.05-17.19z" stroke-linecap="round" fill="#fff"/>
  <g transform="matrix(.6899 0 0 .6930 217 7.297)" stroke-width="1.446" fill="none">
   <path d="m274.8 34.35-9.458 5.654"/>
   <path d="m271.2 41.62-.2012.2019 5.232-6.058-.2012 6.866"/>
   <path d="m276.6 34.35 9.458 5.654"/>
   <path d="m280.2 41.62.2012.2019-5.232-6.058.2012 6.866"/>
   <path d="m275 23.78-9.458-5.654"/>
   <path d="m270.4 16.51-.2012-.2019 5.232 6.058-.2012-6.866"/>
   <path d="m276.8 23.78 9.458-5.654"/>
   <path d="m281.4 16.51.2012-.2019-5.232 6.058.2012-6.866"/>
  </g>
  <g stroke-linejoin="round" transform="matrix(.6899 0 0 .6930 217 7.297)" stroke-linecap="round" stroke-width="1.446">
   <g fill="#fff">
    <rect style="color-rendering:auto;color:#000000;isolation:auto;mix-blend-mode:normal;shape-rendering:auto;solid-color:#000000;image-rendering:auto" rx="2.427" ry="2.427" height="25.85" width="3.22" y="21.19" x="274.2"/>
    <rect style="color-rendering:auto;color:#000000;isolation:auto;mix-blend-mode:normal;shape-rendering:auto;solid-color:#000000;image-rendering:auto" rx="2.427" ry="2.427" height="15.35" width="10.26" y="45.42" x="270.7"/>
    <rect style="color-rendering:auto;color:#000000;isolation:auto;mix-blend-mode:normal;shape-rendering:auto;solid-color:#000000;image-rendering:auto" rx="2.427" ry="2.427" height="3.776" width="9.298" y="72.19" x="271.2"/>
   </g>
   <rect style="color-rendering:auto;color:#000000;isolation:auto;mix-blend-mode:normal;shape-rendering:auto;solid-color:#000000;image-rendering:auto" rx="2.363" ry="2.363" height="3.677" width="13.82" y="70.3" x="268.9"/>
   <rect style="color-rendering:auto;color:#000000;isolation:auto;mix-blend-mode:normal;shape-rendering:auto;solid-color:#000000;image-rendering:auto" rx="2.313" ry="2.313" height="3.599" width="22.68" y="60.42" x="264.5" fill="#6c5d53"/>
   <rect style="color-rendering:auto;color:#000000;isolation:auto;mix-blend-mode:normal;shape-rendering:auto;solid-color:#000000;image-rendering:auto" rx="2.313" ry="2.313" height="3.599" width="22.68" y="64.11" x="264.5" fill="#ac9d93"/>
   <rect style="color-rendering:auto;color:#000000;isolation:auto;mix-blend-mode:normal;shape-rendering:auto;solid-color:#000000;image-rendering:auto" rx="2.313" ry="2.313" height="3.599" width="22.68" y="67.75" x="264.5" fill="#c8beb7"/>
   <g fill="#fff">
    <ellipse style="color-rendering:auto;color:#000000;isolation:auto;mix-blend-mode:normal;shape-rendering:auto;solid-color:#000000;image-rendering:auto" rx=".9245" ry=".9278" cy="18.49" cx="265.5"/>
    <ellipse style="color-rendering:auto;color:#000000;isolation:auto;mix-blend-mode:normal;shape-rendering:auto;solid-color:#000000;image-rendering:auto" rx=".9245" ry=".9278" cy="15.92" cx="269.8"/>
    <ellipse style="color-rendering:auto;color:#000000;isolation:auto;mix-blend-mode:normal;shape-rendering:auto;solid-color:#000000;image-rendering:auto" rx=".9245" ry=".9278" cy="15.3" cx="275"/>
    <ellipse style="color-rendering:auto;color:#000000;isolation:auto;mix-blend-mode:normal;shape-rendering:auto;solid-color:#000000;image-rendering:auto" rx=".9245" ry=".9278" cy="15.3" cx="277"/>
    <ellipse style="color-rendering:auto;color:#000000;isolation:auto;mix-blend-mode:normal;shape-rendering:auto;solid-color:#000000;image-rendering:auto" rx=".9245" ry=".9278" cy="15.81" cx="282.2"/>
    <ellipse style="color-rendering:auto;color:#000000;isolation:auto;mix-blend-mode:normal;shape-rendering:auto;solid-color:#000000;image-rendering:auto" rx=".9245" ry=".9278" cy="17.87" cx="286.7"/>
    <ellipse style="color-rendering:auto;color:#000000;isolation:auto;mix-blend-mode:normal;shape-rendering:auto;solid-color:#000000;image-rendering:auto" rx=".9245" ry=".9278" cy="40.14" cx="286.4"/>
    <ellipse style="color-rendering:auto;color:#000000;isolation:auto;mix-blend-mode:normal;shape-rendering:auto;solid-color:#000000;image-rendering:auto" rx=".9245" ry=".9278" cy="42.2" cx="280.8"/>
    <ellipse style="color-rendering:auto;color:#000000;isolation:auto;mix-blend-mode:normal;shape-rendering:auto;solid-color:#000000;image-rendering:auto" rx=".9245" ry=".9278" cy="42.51" cx="270.6"/>
    <ellipse style="color-rendering:auto;color:#000000;isolation:auto;mix-blend-mode:normal;shape-rendering:auto;solid-color:#000000;image-rendering:auto" rx=".9245" ry=".9278" cy="39.73" cx="265"/>
   </g>
  </g>
  <rect stroke-linejoin="round" style="color-rendering:auto;color:#000000;isolation:auto;mix-blend-mode:normal;shape-rendering:auto;solid-color:#000000;image-rendering:auto" ry="8.345" height="16.69" width="30.05" stroke-linecap="round" y="58.83" x="392.3" fill="#d38d5f"/>
  <rect stroke-linejoin="round" style="color-rendering:auto;color:#000000;isolation:auto;mix-blend-mode:normal;shape-rendering:auto;solid-color:#000000;image-rendering:auto" ry="8.904" height="17.81" width="35.96" stroke-linecap="round" y="67.39" x="389.3" fill="#c83737"/>
 </g>
 <g stroke="#000" transform="translate(294.4 -7.147)">
  <path stroke-linejoin="round" style="color-rendering:auto;color:#000000;isolation:auto;mix-blend-mode:normal;shape-rendering:auto;solid-color:#000000;image-rendering:auto" d="m407.3 7.645c-9.416 0-17.05 7.695-17.05 17.19.007 5.846 6.151 10.71 7.173 16.47l.6686 3.764c.3920 2.207.4538 4.047 2.678 4.047h13.06c2.224 0 2.284-1.84 2.678-4.047l.6686-3.744c1.029-5.761 7.173-10.63 7.173-16.49 0-9.492-7.633-17.19-17.05-17.19z" stroke-linecap="round" fill="#fff"/>
  <g transform="matrix(.6899 0 0 .6930 217 7.297)" stroke-width="1.446" fill="none">
   <path d="m274.8 34.35-9.458 5.654"/>
   <path d="m271.2 41.62-.2012.2019 5.232-6.058-.2012 6.866"/>
   <path d="m276.6 34.35 9.458 5.654"/>
   <path d="m280.2 41.62.2012.2019-5.232-6.058.2012 6.866"/>
   <path d="m275 23.78-9.458-5.654"/>
   <path d="m270.4 16.51-.2012-.2019 5.232 6.058-.2012-6.866"/>
   <path d="m276.8 23.78 9.458-5.654"/>
   <path d="m281.4 16.51.2012-.2019-5.232 6.058.2012-6.866"/>
  </g>
  <g stroke-linejoin="round" transform="matrix(.6899 0 0 .6930 217 7.297)" stroke-linecap="round" stroke-width="1.446">
   <g fill="#fff">
    <rect style="color-rendering:auto;color:#000000;isolation:auto;mix-blend-mode:normal;shape-rendering:auto;solid-color:#000000;image-rendering:auto" rx="2.427" ry="2.427" height="25.85" width="3.22" y="21.19" x="274.2"/>
    <rect style="color-rendering:auto;color:#000000;isolation:auto;mix-blend-mode:normal;shape-rendering:auto;solid-color:#000000;image-rendering:auto" rx="2.427" ry="2.427" height="15.35" width="10.26" y="45.42" x="270.7"/>
    <rect style="color-rendering:auto;color:#000000;isolation:auto;mix-blend-mode:normal;shape-rendering:auto;solid-color:#000000;image-rendering:auto" rx="2.427" ry="2.427" height="3.776" width="9.298" y="72.19" x="271.2"/>
   </g>
   <rect style="color-rendering:auto;color:#000000;isolation:auto;mix-blend-mode:normal;shape-rendering:auto;solid-color:#000000;image-rendering:auto" rx="2.363" ry="2.363" height="3.677" width="13.82" y="70.3" x="268.9"/>
   <rect style="color-rendering:auto;color:#000000;isolation:auto;mix-blend-mode:normal;shape-rendering:auto;solid-color:#000000;image-rendering:auto" rx="2.313" ry="2.313" height="3.599" width="22.68" y="60.42" x="264.5" fill="#6c5d53"/>
   <rect style="color-rendering:auto;color:#000000;isolation:auto;mix-blend-mode:normal;shape-rendering:auto;solid-color:#000000;image-rendering:auto" rx="2.313" ry="2.313" height="3.599" width="22.68" y="64.11" x="264.5" fill="#ac9d93"/>
   <rect style="color-rendering:auto;color:#000000;isolation:auto;mix-blend-mode:normal;shape-rendering:auto;solid-color:#000000;image-rendering:auto" rx="2.313" ry="2.313" height="3.599" width="22.68" y="67.75" x="264.5" fill="#c8beb7"/>
   <g fill="#fff">
    <ellipse style="color-rendering:auto;color:#000000;isolation:auto;mix-blend-mode:normal;shape-rendering:auto;solid-color:#000000;image-rendering:auto" rx=".9245" ry=".9278" cy="18.49" cx="265.5"/>
    <ellipse style="color-rendering:auto;color:#000000;isolation:auto;mix-blend-mode:normal;shape-rendering:auto;solid-color:#000000;image-rendering:auto" rx=".9245" ry=".9278" cy="15.92" cx="269.8"/>
    <ellipse style="color-rendering:auto;color:#000000;isolation:auto;mix-blend-mode:normal;shape-rendering:auto;solid-color:#000000;image-rendering:auto" rx=".9245" ry=".9278" cy="15.3" cx="275"/>
    <ellipse style="color-rendering:auto;color:#000000;isolation:auto;mix-blend-mode:normal;shape-rendering:auto;solid-color:#000000;image-rendering:auto" rx=".9245" ry=".9278" cy="15.3" cx="277"/>
    <ellipse style="color-rendering:auto;color:#000000;isolation:auto;mix-blend-mode:normal;shape-rendering:auto;solid-color:#000000;image-rendering:auto" rx=".9245" ry=".9278" cy="15.81" cx="282.2"/>
    <ellipse style="color-rendering:auto;color:#000000;isolation:auto;mix-blend-mode:normal;shape-rendering:auto;solid-color:#000000;image-rendering:auto" rx=".9245" ry=".9278" cy="17.87" cx="286.7"/>
    <ellipse style="color-rendering:auto;color:#000000;isolation:auto;mix-blend-mode:normal;shape-rendering:auto;solid-color:#000000;image-rendering:auto" rx=".9245" ry=".9278" cy="40.14" cx="286.4"/>
    <ellipse style="color-rendering:auto;color:#000000;isolation:auto;mix-blend-mode:normal;shape-rendering:auto;solid-color:#000000;image-rendering:auto" rx=".9245" ry=".9278" cy="42.2" cx="280.8"/>
    <ellipse style="color-rendering:auto;color:#000000;isolation:auto;mix-blend-mode:normal;shape-rendering:auto;solid-color:#000000;image-rendering:auto" rx=".9245" ry=".9278" cy="42.51" cx="270.6"/>
    <ellipse style="color-rendering:auto;color:#000000;isolation:auto;mix-blend-mode:normal;shape-rendering:auto;solid-color:#000000;image-rendering:auto" rx=".9245" ry=".9278" cy="39.73" cx="265"/>
   </g>
  </g>
  <rect stroke-linejoin="round" style="color-rendering:auto;color:#000000;isolation:auto;mix-blend-mode:normal;shape-rendering:auto;solid-color:#000000;image-rendering:auto" ry="8.345" height="16.69" width="30.05" stroke-linecap="round" y="58.83" x="392.3" fill="#d38d5f"/>
  <rect stroke-linejoin="round" style="color-rendering:auto;color:#000000;isolation:auto;mix-blend-mode:normal;shape-rendering:auto;solid-color:#000000;image-rendering:auto" ry="8.904" height="17.81" width="35.96" stroke-linecap="round" y="67.39" x="389.3" fill="#c83737"/>
 </g>
 <rect height="57.71" stroke="#ccc" fill="#f9f9f9" style="color-rendering:auto;color:#000000;isolation:auto;mix-blend-mode:normal;shape-rendering:auto;solid-color:#000000;image-rendering:auto" ry="13.99" width="365.5" y="20.88" x="220.3"/>
 <path fill-rule="evenodd" fill="#b3b3b3" d="m50.5 286.2 699.1.0162 50.36 13.1h-800c17.1-4.3 33.23-8.866 50.5-13.12z"/>
 <path stroke-linejoin="round" style="color-rendering:auto;color:#000000;isolation:auto;mix-blend-mode:normal;shape-rendering:auto;solid-color:#000000;image-rendering:auto" d="m381.8 240h36.4c-17.69 25.51 0 51.7 0 51.7h-36.4s18.7-26.19 0-51.7z" stroke="#999" stroke-linecap="round" fill="#ccc"/>
 <ellipse stroke-linejoin="round" style="color-rendering:auto;color:#000000;isolation:auto;mix-blend-mode:normal;shape-rendering:auto;solid-color:#000000;image-rendering:auto" stroke-linecap="round" rx="20.12" ry="12.24" stroke="#000" cy="271.2" cx="400" fill="#800080"/>
 <rect stroke-linejoin="round" style="color-rendering:auto;color:#000000;isolation:auto;mix-blend-mode:normal;shape-rendering:auto;solid-color:#000000;image-rendering:auto" transform="scale(1,-1)" ry="11.24" height="22.48" width="86.08" stroke="#000" stroke-linecap="round" y="-270.6" x="357" fill="#fc0"/>
 <rect stroke-linejoin="round" style="color-rendering:auto;color:#000000;isolation:auto;mix-blend-mode:normal;shape-rendering:auto;solid-color:#000000;image-rendering:auto" transform="scale(1,-1)" ry="11.2" height="22.4" width="103" stroke="#000" stroke-linecap="round" y="-257.5" x="348.5" fill="#d4aa00"/>
 <rect stroke-linejoin="round" style="color-rendering:auto;color:#000000;isolation:auto;mix-blend-mode:normal;shape-rendering:auto;solid-color:#000000;image-rendering:auto" ry="13.99" height="194.7" width="752.2" stroke="#ccc" stroke-linecap="round" y="65.78" x="22.61" fill="#fff"/>
 <rect style="color-rendering:auto;color:#000000;isolation:auto;mix-blend-mode:normal;shape-rendering:auto;solid-color:#000000;image-rendering:auto" fill-opacity=".9968" ry="14.93" height="180.4" width="738.7" y="72.92" x="28.21" fill="#fc0"/>
 <text font-size="45px" style="word-spacing:0px;letter-spacing:0px" line-height="125%" xml:space="preserve" y="54.429749" x="392.96075" font-family="&apos;Futura Md BT&apos;" fill="#000000"><tspan style="text-anchor:middle;text-align:center" font-weight="900" font-size="30px" y="54.429749" x="399.77228" font-family="&apos;Source Code Pro&apos;" fill="#000000">The awesome art of</tspan></text>
 <g stroke-linejoin="round" stroke="#000" stroke-linecap="round">
  <path style="color-rendering:auto;color:#000000;isolation:auto;mix-blend-mode:normal;shape-rendering:auto;solid-color:#000000;image-rendering:auto" d="m20.5 36.1a20 20 0 0 0 -20 20 20 20 0 0 0 20 20 20 20 0 0 0 20 -20 20 20 0 0 0 -20 -20zm0 11.02a8.976 8.976 0 0 1 8.975 8.977 8.976 8.976 0 0 1 -8.975 8.977 8.976 8.976 0 0 1 -8.977 -8.977 8.976 8.976 0 0 1 8.977 -8.977z" fill="#f60"/>
  <circle style="color-rendering:auto;color:#000000;isolation:auto;mix-blend-mode:normal;shape-rendering:auto;solid-color:#000000;image-rendering:auto" cy="36.3" cx="9.574" r="5.585" fill="#fff"/>
 </g>
 <g stroke-linejoin="round" stroke="#000" stroke-linecap="round">
  <path style="color-rendering:auto;color:#000000;isolation:auto;mix-blend-mode:normal;shape-rendering:auto;solid-color:#000000;image-rendering:auto" d="m20.5 284.7a20 20 0 0 1 -20 -20 20 20 0 0 1 20 -20 20 20 0 0 1 20 20 20 20 0 0 1 -20 20zm0-11.02a8.976 8.976 0 0 0 8.975 -8.977 8.976 8.976 0 0 0 -8.975 -8.977 8.976 8.976 0 0 0 -8.977 8.977 8.976 8.976 0 0 0 8.977 8.977z" fill="#808000"/>
  <circle style="color-rendering:auto;color:#000000;isolation:auto;mix-blend-mode:normal;shape-rendering:auto;solid-color:#000000;image-rendering:auto" cx="9.574" transform="scale(1,-1)" cy="-284.5" r="5.585" fill="#fff"/>
 </g>
 <g stroke-linejoin="round" stroke="#000" stroke-linecap="round">
  <path style="color-rendering:auto;color:#000000;isolation:auto;mix-blend-mode:normal;shape-rendering:auto;solid-color:#000000;image-rendering:auto" d="m777.8 38.1a20 20 0 0 1 20 20 20 20 0 0 1 -20 20 20 20 0 0 1 -20 -20 20 20 0 0 1 20 -20zm0 11.02a8.976 8.976 0 0 0 -8.975 8.977 8.976 8.976 0 0 0 8.975 8.977 8.976 8.976 0 0 0 8.977 -8.977 8.976 8.976 0 0 0 -8.98 -8.976z" fill="#784421"/>
  <circle style="color-rendering:auto;color:#000000;isolation:auto;mix-blend-mode:normal;shape-rendering:auto;solid-color:#000000;image-rendering:auto" cx="-793.9" transform="scale(-1,1)" cy="44.3" r="5.585" fill="#fff"/>
 </g>
 <g stroke-linejoin="round" stroke="#000" stroke-linecap="round">
  <path style="color-rendering:auto;color:#000000;isolation:auto;mix-blend-mode:normal;shape-rendering:auto;solid-color:#000000;image-rendering:auto" d="m777.8 282.7a20 20 0 0 0 20 -20 20 20 0 0 0 -20 -20 20 20 0 0 0 -20 20 20 20 0 0 0 20 20zm0-11.02a8.976 8.976 0 0 1 -8.975 -8.977 8.976 8.976 0 0 1 8.975 -8.977 8.976 8.976 0 0 1 8.977 8.977 8.976 8.976 0 0 1 -8.977 8.977z" fill="#d35f5f"/>
  <circle style="color-rendering:auto;color:#000000;isolation:auto;mix-blend-mode:normal;shape-rendering:auto;solid-color:#000000;image-rendering:auto" cx="-793.9" transform="scale(-1)" cy="-276.5" r="5.585" fill="#fff"/>
 </g>
 <text font-size="45px" style="word-spacing:0px;letter-spacing:0px" line-height="125%" stroke="#000000" xml:space="preserve" y="154.5255" x="393.0899" font-family="&apos;Futura Md BT&apos;" fill="#ff6600"><tspan style="text-anchor:middle;text-align:center" font-weight="900" font-size="75px" y="154.5255" x="399.90143" font-family="&apos;Source Code Pro&apos;" fill="#ff6600">Christopher</tspan></text>
 <text font-size="45px" style="word-spacing:0px;letter-spacing:0px" line-height="125%" stroke="#000000" xml:space="preserve" y="226.90257" x="393.0899" font-family="&apos;Futura Md BT&apos;" fill="#ff6600"><tspan style="text-anchor:middle;text-align:center" font-weight="900" font-size="75px" y="226.90257" x="399.90143" font-family="&apos;Source Code Pro&apos;" fill="#ff6600">John Dennett</tspan></text>
 <rect style="color-rendering:auto;color:#000000;isolation:auto;mix-blend-mode:normal;shape-rendering:auto;solid-color:#000000;image-rendering:auto" ry="0" height="16.16" width="800" y="298.5" x="3.787e-29" fill="#666"/>
</svg>
