<svg xmlns:rdf="http://www.w3.org/1999/02/22-rdf-syntax-ns#" xmlns="http://www.w3.org/2000/svg" height="109.7" width="800" version="1.1" xmlns:cc="http://creativecommons.org/ns#" xmlns:dc="http://purl.org/dc/elements/1.1/" viewBox="0 0 799.99974 109.72265">
 <g stroke="#000" transform="translate(206.1 -154.5)">
  <rect stroke-linejoin="round" style="color-rendering:auto;color:#000000;isolation:auto;mix-blend-mode:normal;shape-rendering:auto;solid-color:#000000;image-rendering:auto" ry="5.566" height="77.9" width="107.6" stroke-linecap="round" y="170" x="139.5" fill="#e6e6e6"/>
  <g fill="none">
   <path style="color-rendering:auto;color:#000000;isolation:auto;mix-blend-mode:normal;shape-rendering:auto;solid-color:#000000;image-rendering:auto" d="m263 256.7a6.752 6.752 0 0 0 -.3848 -.0195 6.752 6.752 0 0 0 -.4785 .0176 6.752 6.752 0 0 0 -.6699 .0801 6.752 6.752 0 0 0 -.6582 .1484 6.752 6.752 0 0 0 -.6406 .2129 6.752 6.752 0 0 0 -.6152 .2754 6.752 6.752 0 0 0 -.5859 .3359 6.752 6.752 0 0 0 -.5488 .3926 6.752 6.752 0 0 0 -.5078 .4453 6.752 6.752 0 0 0 -.4590 .4941 6.752 6.752 0 0 0 -.4082 .5371 6.752 6.752 0 0 0 -.3535 .5762 6.752 6.752 0 0 0 -.2930 .6074 6.752 6.752 0 0 0 -.2324 .6328 6.752 6.752 0 0 0 -.1660 .6543 6.752 6.752 0 0 0 -.1016 .6680 6.752 6.752 0 0 0 -.0332 .6738 6.752 6.752 0 0 0 .0117 .2988h7.125v-7.031z"/>
   <path style="color-rendering:auto;color:#000000;isolation:auto;mix-blend-mode:normal;shape-rendering:auto;solid-color:#000000;image-rendering:auto" d="m131.4 263.7a6.752 6.752 0 0 0 .0156 -.2988 6.752 6.752 0 0 0 -.0176 -.4766 6.752 6.752 0 0 0 -.0801 -.6699 6.752 6.752 0 0 0 -.1484 -.6602 6.752 6.752 0 0 0 -.2129 -.6406 6.752 6.752 0 0 0 -.2754 -.6152 6.752 6.752 0 0 0 -.3359 -.5859 6.752 6.752 0 0 0 -.3926 -.5488 6.752 6.752 0 0 0 -.4453 -.5059 6.752 6.752 0 0 0 -.4941 -.4609 6.752 6.752 0 0 0 -.5371 -.4082 6.752 6.752 0 0 0 -.5762 -.3535 6.752 6.752 0 0 0 -.6074 -.2930 6.752 6.752 0 0 0 -.6328 -.2305 6.752 6.752 0 0 0 -.6543 -.1680 6.752 6.752 0 0 0 -.6680 -.1016 6.752 6.752 0 0 0 -.4453 -.0215v7.039h6.508z"/>
   <path style="color-rendering:auto;color:#000000;isolation:auto;mix-blend-mode:normal;shape-rendering:auto;solid-color:#000000;image-rendering:auto" d="m138.2 162.2a6.033 5.879 0 0 1 .014 .3690 6.033 5.879 0 0 1 -.0296 .5867 6.033 5.879 0 0 1 -.0908 .5816 6.033 5.879 0 0 1 -.1501 .5697 6.033 5.879 0 0 1 -.2059 .5510 6.033 5.879 0 0 1 -.2618 .5289 6.033 5.879 0 0 1 -.3159 .5017 6.033 5.879 0 0 1 -.3648 .4677 6.033 5.879 0 0 1 -.4118 .4303 6.033 5.879 0 0 1 -.452 .3877 6.033 5.879 0 0 1 -.4904 .3418 6.033 5.879 0 0 1 -.5236 .2925 6.033 5.879 0 0 1 -.5497 .2398 6.033 5.879 0 0 1 -.5724 .1854 6.033 5.879 0 0 1 -.5898 .1292 6.033 5.879 0 0 1 -.5986 .0697 6.033 5.879 0 0 1 -.2216 .008v82.3a6.033 5.879 0 0 1 .3979 .0187 6.033 5.879 0 0 1 .5968 .0884 6.033 5.879 0 0 1 .5846 .1462 6.033 5.879 0 0 1 .5654 .2007 6.033 5.879 0 0 1 .5428 .2551 6.033 5.879 0 0 1 .5148 .3078 6.033 5.879 0 0 1 .4799 .3554 6.033 5.879 0 0 1 .4415 .4014 6.033 5.879 0 0 1 .3979 .4405 6.033 5.879 0 0 1 .3508 .4779 6.033 5.879 0 0 1 .3002 .5102 6.033 5.879 0 0 1 .2461 .5357 6.033 5.879 0 0 1 .1902 .5578 6.033 5.879 0 0 1 .1326 .5748 6.033 5.879 0 0 1 .0715 .5833 6.033 5.879 0 0 1 .0158 .4150 6.033 5.879 0 0 1 -.014 .2602h111.3a6.033 5.879 0 0 1 -.0103 -.2602 6.033 5.879 0 0 1 .0296 -.5867 6.033 5.879 0 0 1 .0908 -.5816 6.033 5.879 0 0 1 .1483 -.5697 6.033 5.879 0 0 1 .2077 -.5510 6.033 5.879 0 0 1 .2618 -.5289 6.033 5.879 0 0 1 .3159 -.5017 6.033 5.879 0 0 1 .3648 -.4677 6.033 5.879 0 0 1 .4101 -.4303 6.033 5.879 0 0 1 .4538 -.3877 6.033 5.879 0 0 1 .4904 -.3418 6.033 5.879 0 0 1 .5236 -.2925 6.033 5.879 0 0 1 .5497 -.2398 6.033 5.879 0 0 1 .5724 -.1854 6.033 5.879 0 0 1 .5881 -.1292 6.033 5.879 0 0 1 .5986 -.0697 6.033 5.879 0 0 1 .4276 -.0153 6.033 5.879 0 0 1 .3438 .017v-82.31a6.033 5.879 0 0 1 -.3438 .0119 6.033 5.879 0 0 1 -.6021 -.0289 6.033 5.879 0 0 1 -.5968 -.0884 6.033 5.879 0 0 1 -.5846 -.1446 6.033 5.879 0 0 1 -.5654 -.2024 6.033 5.879 0 0 1 -.5428 -.2551 6.033 5.879 0 0 1 -.5148 -.3078 6.033 5.879 0 0 1 -.4799 -.3554 6.033 5.879 0 0 1 -.4415 -.3996 6.033 5.879 0 0 1 -.3979 -.4422 6.033 5.879 0 0 1 -.3508 -.4779 6.033 5.879 0 0 1 -.3002 -.5102 6.033 5.879 0 0 1 -.2460 -.5357 6.033 5.879 0 0 1 -.1902 -.5578 6.033 5.879 0 0 1 -.1326 -.5731 6.033 5.879 0 0 1 -.0715 -.5833 6.033 5.879 0 0 1 -.0158 -.4166 6.033 5.879 0 0 1 .0192 -.3690h-111.3z"/>
   <path style="color-rendering:auto;color:#000000;isolation:auto;mix-blend-mode:normal;shape-rendering:auto;solid-color:#000000;image-rendering:auto" d="m255.9 155a6.752 6.752 0 0 0 -.0215 .4238 6.752 6.752 0 0 0 .0176 .4785 6.752 6.752 0 0 0 .0801 .6699 6.752 6.752 0 0 0 .1484 .6582 6.752 6.752 0 0 0 .2129 .6406 6.752 6.752 0 0 0 .2754 .6152 6.752 6.752 0 0 0 .3359 .5859 6.752 6.752 0 0 0 .3926 .5488 6.752 6.752 0 0 0 .4453 .5078 6.752 6.752 0 0 0 .4941 .4590 6.752 6.752 0 0 0 .5371 .4082 6.752 6.752 0 0 0 .5762 .3535 6.752 6.752 0 0 0 .6074 .2930 6.752 6.752 0 0 0 .6328 .2324 6.752 6.752 0 0 0 .6543 .1660 6.752 6.752 0 0 0 .6680 .1016 6.752 6.752 0 0 0 .6738 .0332 6.752 6.752 0 0 0 .3848 -.0137v-7.162h-7.115z"/>
   <path style="color-rendering:auto;color:#000000;isolation:auto;mix-blend-mode:normal;shape-rendering:auto;solid-color:#000000;image-rendering:auto" d="m124.9 162.1a6.752 6.752 0 0 0 .2480 -.01 6.752 6.752 0 0 0 .6699 -.0801 6.752 6.752 0 0 0 .6602 -.1484 6.752 6.752 0 0 0 .6406 -.2129 6.752 6.752 0 0 0 .6152 -.2754 6.752 6.752 0 0 0 .5859 -.3359 6.752 6.752 0 0 0 .5488 -.3926 6.752 6.752 0 0 0 .5059 -.4453 6.752 6.752 0 0 0 .4609 -.4941 6.752 6.752 0 0 0 .4082 -.5371 6.752 6.752 0 0 0 .3535 -.5762 6.752 6.752 0 0 0 .2930 -.6074 6.752 6.752 0 0 0 .2305 -.6328 6.752 6.752 0 0 0 .1680 -.6543 6.752 6.752 0 0 0 .1016 -.6680 6.752 6.752 0 0 0 .0332 -.6738 6.752 6.752 0 0 0 -.0156 -.4238h-6.508v7.168z"/>
  </g>
  <g stroke-width="1px" fill="none">
   <path d="m124.4 209.3h5.164"/>
   <path d="m258.4 209.3h5.164"/>
   <path d="m193.9 154.5v5.164"/>
   <path d="m193.9 259v5.164"/>
  </g>
 </g>
 <path d="m312.8 5.324v99.08" stroke="#000" stroke-width="1px" fill="none"/>
 <path d="m285.3 20.88v67.96" stroke="#000" stroke-width="1px" fill="none"/>
 <path d="m257.9 8.599v92.52" stroke="#000" stroke-width="1px" fill="none"/>
 <path d="m230.5 38.08v33.57" stroke="#000" stroke-width="1px" fill="none"/>
 <g transform="translate(-20.58)" stroke="#000" stroke-width="1px" fill="none">
  <path d="m224.1 20.47h-60.59"/>
  <path d="m224.1 88.47h-60.59"/>
  <path d="m224.1 54.47h-60.59"/>
 </g>
 <path d="m116 5.324v99.08" stroke="#000" stroke-width="1px" fill="none"/>
 <path d="m88.54 20.88v67.96" stroke="#000" stroke-width="1px" fill="none"/>
 <path d="m61.1 8.599v92.52" stroke="#000" stroke-width="1px" fill="none"/>
 <path d="m33.66 38.08v33.57" stroke="#000" stroke-width="1px" fill="none"/>
 <path d="m6.215 8.599v92.52" stroke="#000" stroke-width="1px" fill="none"/>
 <path d="m478.2 5.324v99.08" stroke="#000" stroke-width="1px" fill="none"/>
 <path d="m505.7 20.88v67.96" stroke="#000" stroke-width="1px" fill="none"/>
 <path d="m533.1 8.599v92.52" stroke="#000" stroke-width="1px" fill="none"/>
 <path d="m560.5 38.08v33.57" stroke="#000" stroke-width="1px" fill="none"/>
 <g transform="matrix(-1 0 0 1 811.6 3.684e-8)" stroke="#000" stroke-width="1px" fill="none">
  <path d="m224.1 20.47h-60.59"/>
  <path d="m224.1 88.47h-60.59"/>
  <path d="m224.1 54.47h-60.59"/>
 </g>
 <path d="m675 5.324v99.08" stroke="#000" stroke-width="1px" fill="none"/>
 <path d="m702.5 20.88v67.96" stroke="#000" stroke-width="1px" fill="none"/>
 <path d="m729.9 8.599v92.52" stroke="#000" stroke-width="1px" fill="none"/>
 <path d="m757.3 38.08v33.57" stroke="#000" stroke-width="1px" fill="none"/>
 <path d="m784.8 8.599v92.52" stroke="#000" stroke-width="1px" fill="none"/>
</svg>
