<?xml version="1.0" encoding="UTF-8" standalone="no"?>
<!-- Created with Inkscape (http://www.inkscape.org/) -->

<svg
   xmlns:dc="http://purl.org/dc/elements/1.1/"
   xmlns:cc="http://creativecommons.org/ns#"
   xmlns:rdf="http://www.w3.org/1999/02/22-rdf-syntax-ns#"
   xmlns:svg="http://www.w3.org/2000/svg"
   xmlns="http://www.w3.org/2000/svg"
   xmlns:sodipodi="http://sodipodi.sourceforge.net/DTD/sodipodi-0.dtd"
   xmlns:inkscape="http://www.inkscape.org/namespaces/inkscape"
   width="172.51132"
   height="27.915129"
   viewBox="0 0 45.643619 7.385878"
   version="1.1"
   id="svg1337"
   inkscape:version="0.92.2 (5c3e80d, 2017-08-06)"
   sodipodi:docname="about-us.svg">
  <defs
     id="defs1331" />
  <sodipodi:namedview
     id="base"
     pagecolor="#ffffff"
     bordercolor="#666666"
     borderopacity="1.0"
     inkscape:pageopacity="0.0"
     inkscape:pageshadow="2"
     inkscape:zoom="1.2726177"
     inkscape:cx="44.638556"
     inkscape:cy="6.5297395"
     inkscape:document-units="mm"
     inkscape:current-layer="layer1"
     showgrid="false"
     units="px"
     fit-margin-top="0"
     fit-margin-left="0"
     fit-margin-right="0"
     fit-margin-bottom="0" />
  <metadata
     id="metadata1334">
    <rdf:RDF>
      <cc:Work
         rdf:about="">
        <dc:format>image/svg+xml</dc:format>
        <dc:type
           rdf:resource="http://purl.org/dc/dcmitype/StillImage" />
        <dc:title></dc:title>
      </cc:Work>
    </rdf:RDF>
  </metadata>
  <g
     inkscape:label="Layer 1"
     inkscape:groupmode="layer"
     id="layer1">
    <path
       inkscape:connector-curvature="0"
       id="path1894"
       style="color:#000000;font-style:normal;font-variant:normal;font-weight:normal;font-stretch:normal;font-size:medium;line-height:125%;font-family:ChunkFive;-inkscape-font-specification:ChunkFive;text-align:start;text-anchor:start;clip-rule:nonzero;visibility:visible;isolation:auto;mix-blend-mode:normal;color-interpolation:sRGB;color-interpolation-filters:linearRGB;solid-color:#000000;solid-opacity:1;fill:#5f4427;fill-opacity:1;fill-rule:nonzero;stroke:none;stroke-width:0.26458332;stroke-linecap:round;stroke-linejoin:miter;stroke-miterlimit:4;stroke-dasharray:none;stroke-dashoffset:0;stroke-opacity:1;color-rendering:auto;image-rendering:auto;shape-rendering:auto;text-rendering:auto"
       d="M 6.230287,4.2999528 H 5.700363 L 5.344672,8.0396143e-7 H 2.437662 L 2.214124,0.9765748 H 2.524508 L 0.741792,4.2999528 H 0.227009 L 6e-6,5.2916668 H 2.407374 L 2.634377,4.2999528 H 2.04389 l 0.276811,-0.514783 h 1.55192 l 0.04114,0.514783 H 3.194579 L 2.967576,5.2916668 H 6.003281 Z M 3.675113,1.2415358 3.80046,2.8767288 H 2.808746 Z" />
    <path
       inkscape:connector-curvature="0"
       id="path1896"
       style="color:#000000;font-style:normal;font-variant:normal;font-weight:normal;font-stretch:normal;font-size:medium;line-height:125%;font-family:ChunkFive;-inkscape-font-specification:ChunkFive;text-align:start;text-anchor:start;clip-rule:nonzero;visibility:visible;isolation:auto;mix-blend-mode:normal;color-interpolation:sRGB;color-interpolation-filters:linearRGB;solid-color:#000000;solid-opacity:1;fill:#5f4427;fill-opacity:1;fill-rule:nonzero;stroke:none;stroke-width:0.26458332;stroke-linecap:round;stroke-linejoin:miter;stroke-miterlimit:4;stroke-dasharray:none;stroke-dashoffset:0;stroke-opacity:1;color-rendering:auto;image-rendering:auto;shape-rendering:auto;text-rendering:auto"
       d="m 9.115498,5.2916668 c 1.461075,0 2.166568,-0.469361 2.4109,-1.536779 0.168086,-0.734322 -0.194293,-1.13555 -0.704701,-1.286957 0.619762,-0.227111 0.864925,-0.537494 1.010485,-1.173402 C 12.021062,0.4693608 11.530443,8.0396142e-7 10.273766,8.0396142e-7 H 7.450031 L 7.226493,0.9765748 H 7.665572 L 6.903119,4.3075228 H 6.46404 L 6.23877,5.2916668 Z M 9.075808,4.3075228 H 8.470181 l 0.301516,-1.317238 h 0.582916 c 0.416369,0 0.571793,0.280101 0.483417,0.666189 -0.09357,0.408798 -0.444268,0.651049 -0.762222,0.651049 z m 0.628559,-3.308238 c 0.287673,0 0.452855,0.204399 0.373144,0.552635 -0.08318,0.363376 -0.246983,0.582916 -0.648211,0.582916 H 8.967509 l 0.259927,-1.135551 z" />
    <path
       inkscape:connector-curvature="0"
       id="path1898"
       style="color:#000000;font-style:normal;font-variant:normal;font-weight:normal;font-stretch:normal;font-size:medium;line-height:125%;font-family:ChunkFive;-inkscape-font-specification:ChunkFive;text-align:start;text-anchor:start;clip-rule:nonzero;visibility:visible;isolation:auto;mix-blend-mode:normal;color-interpolation:sRGB;color-interpolation-filters:linearRGB;solid-color:#000000;solid-opacity:1;fill:#5f4427;fill-opacity:1;fill-rule:nonzero;stroke:none;stroke-width:0.26458332;stroke-linecap:round;stroke-linejoin:miter;stroke-miterlimit:4;stroke-dasharray:none;stroke-dashoffset:0;stroke-opacity:1;color-rendering:auto;image-rendering:auto;shape-rendering:auto;text-rendering:auto"
       d="m 14.203739,5.2916668 c 1.763572,0 2.973914,-0.992188 3.34585,-2.617075 C 17.91988,1.0568958 17.272213,-1.9603857e-7 15.360376,-1.9603857e-7 13.745069,-1.9603857e-7 12.376162,1.0712748 12.020684,2.6242638 c -0.411434,1.797441 0.552141,2.667403 2.183055,2.667403 z m 0.25838,-1.128794 c -0.499418,0 -0.729583,-0.596749 -0.513992,-1.538609 0.204072,-0.891531 0.67664,-1.524231 1.151003,-1.517041 0.600863,0 0.698739,0.697407 0.499605,1.567369 -0.204071,0.891532 -0.645,1.488281 -1.136616,1.488281 z" />
    <path
       inkscape:connector-curvature="0"
       id="path1900"
       style="color:#000000;font-style:normal;font-variant:normal;font-weight:normal;font-stretch:normal;font-size:medium;line-height:125%;font-family:ChunkFive;-inkscape-font-specification:ChunkFive;text-align:start;text-anchor:start;clip-rule:nonzero;visibility:visible;isolation:auto;mix-blend-mode:normal;color-interpolation:sRGB;color-interpolation-filters:linearRGB;solid-color:#000000;solid-opacity:1;fill:#5f4427;fill-opacity:1;fill-rule:nonzero;stroke:none;stroke-width:0.26458332;stroke-linecap:round;stroke-linejoin:miter;stroke-miterlimit:4;stroke-dasharray:none;stroke-dashoffset:0;stroke-opacity:1;color-rendering:auto;image-rendering:auto;shape-rendering:auto;text-rendering:auto"
       d="m 18.177366,0.9607798 h 0.413873 l -0.417851,1.825477 c -0.384017,1.677665 0.234847,2.461068 1.717597,2.505412 1.389432,0 2.302113,-0.790794 2.703047,-2.542366 l 0.411084,-1.795913 h 0.399092 L 23.622439,2.8039614e-6 H 21.434822 L 21.211517,0.9755608 h 0.399093 l -0.358642,1.566806 c -0.290973,1.271183 -0.627198,1.448557 -1.078024,1.448557 -0.472998,0 -0.681542,-0.251281 -0.409177,-1.441166 l 0.365408,-1.596368 h 0.399092 L 20.747497,2.8039614e-6 h -2.350209 z" />
    <path
       inkscape:connector-curvature="0"
       id="path1902"
       style="color:#000000;font-style:normal;font-variant:normal;font-weight:normal;font-stretch:normal;font-size:medium;line-height:125%;font-family:ChunkFive;-inkscape-font-specification:ChunkFive;text-align:start;text-anchor:start;clip-rule:nonzero;visibility:visible;isolation:auto;mix-blend-mode:normal;color-interpolation:sRGB;color-interpolation-filters:linearRGB;solid-color:#000000;solid-opacity:1;fill:#5f4427;fill-opacity:1;fill-rule:nonzero;stroke:none;stroke-width:0.26458332;stroke-linecap:round;stroke-linejoin:miter;stroke-miterlimit:4;stroke-dasharray:none;stroke-dashoffset:0;stroke-opacity:1;color-rendering:auto;image-rendering:auto;shape-rendering:auto;text-rendering:auto"
       d="M 23.857924,8.0396143e-7 23.407383,1.9682878 h 1.11284 l 0.221805,-0.969003 h 0.651049 l -0.752057,3.285527 h -0.620767 l -0.230469,1.006855 h 2.816165 l 0.230469,-1.006855 H 26.20808 l 0.752057,-3.285527 h 0.635908 l -0.221804,0.969003 H 28.48708 L 28.937621,8.0396143e-7 Z" />
    <path
       inkscape:connector-curvature="0"
       id="path1904"
       style="color:#000000;font-style:normal;font-variant:normal;font-weight:normal;font-stretch:normal;font-size:medium;line-height:125%;font-family:ChunkFive;-inkscape-font-specification:ChunkFive;text-align:start;text-anchor:start;clip-rule:nonzero;visibility:visible;isolation:auto;mix-blend-mode:normal;color-interpolation:sRGB;color-interpolation-filters:linearRGB;solid-color:#000000;solid-opacity:1;fill:#5f4427;fill-opacity:1;fill-rule:nonzero;stroke:none;stroke-width:0.26458332;stroke-linecap:round;stroke-linejoin:miter;stroke-miterlimit:4;stroke-dasharray:none;stroke-dashoffset:0;stroke-opacity:1;color-rendering:auto;image-rendering:auto;shape-rendering:auto;text-rendering:auto"
       d="m 31.572406,0.9607798 h 0.413874 l -0.417852,1.825477 c -0.384017,1.677665 0.234847,2.461068 1.717596,2.505412 1.389432,0 2.302115,-0.790794 2.703049,-2.542366 l 0.411084,-1.795913 h 0.399091 L 37.017478,2.8039614e-6 H 34.829862 L 34.606557,0.9755608 h 0.399093 l -0.358641,1.566806 c -0.290974,1.271183 -0.627198,1.448557 -1.078025,1.448557 -0.472998,0 -0.681542,-0.251281 -0.409177,-1.441166 l 0.365408,-1.596368 h 0.399092 L 34.142537,2.8039614e-6 h -2.350209 z" />
    <path
       inkscape:connector-curvature="0"
       id="path1906"
       style="color:#000000;font-style:normal;font-variant:normal;font-weight:normal;font-stretch:normal;font-size:medium;line-height:125%;font-family:ChunkFive;-inkscape-font-specification:ChunkFive;text-align:start;text-anchor:start;clip-rule:nonzero;visibility:visible;isolation:auto;mix-blend-mode:normal;color-interpolation:sRGB;color-interpolation-filters:linearRGB;solid-color:#000000;solid-opacity:1;fill:#5f4427;fill-opacity:1;fill-rule:nonzero;stroke:none;stroke-width:0.26458332;stroke-linecap:round;stroke-linejoin:miter;stroke-miterlimit:4;stroke-dasharray:none;stroke-dashoffset:0;stroke-opacity:1;color-rendering:auto;image-rendering:auto;shape-rendering:auto;text-rendering:auto"
       d="m 37.266219,5.1832318 0.206934,-0.556637 c 0.200241,0.325307 0.628503,0.665073 1.358637,0.665073 0.860257,0 2.008363,-0.404827 2.266501,-1.53256 0.388861,-1.698827 -2.513557,-1.52533 -2.34312,-2.269922 0.05791,-0.253017 0.376862,-0.38314 0.586505,-0.38314 0.506033,0 0.85582,0.30362 0.73337,0.83857 h 1.308459 l 0.415337,-1.814492 h -1.243397 l -0.211287,0.60724 C 40.1791,0.1951848 39.609309,8.0396142e-7 39.002068,8.0396142e-7 38.293621,8.0396142e-7 37.170687,0.4843478 36.925787,1.5542468 c -0.421956,1.843409 2.408607,1.60485 2.279538,2.168716 -0.0695,0.30362 -0.44419,0.361453 -0.697206,0.361453 -0.300311,-0.01446 -0.884385,-0.115665 -0.745388,-0.722906 h -1.344604 l -0.416991,1.821722 z" />
    <path
       inkscape:connector-curvature="0"
       id="path1894-3"
       style="color:#000000;font-style:normal;font-variant:normal;font-weight:normal;font-stretch:normal;font-size:medium;line-height:125%;font-family:ChunkFive;-inkscape-font-specification:ChunkFive;text-align:start;text-anchor:start;clip-rule:nonzero;visibility:visible;opacity:0.2;isolation:auto;mix-blend-mode:normal;color-interpolation:sRGB;color-interpolation-filters:linearRGB;solid-color:#000000;solid-opacity:1;fill:#000000;fill-opacity:1;fill-rule:nonzero;stroke:none;stroke-width:0.26458332;stroke-linecap:round;stroke-linejoin:miter;stroke-miterlimit:4;stroke-dasharray:none;stroke-dashoffset:0;stroke-opacity:1;color-rendering:auto;image-rendering:auto;shape-rendering:auto;text-rendering:auto"
       d="M 6.968999,5.6841678 H 6.439075 l 2.847304,1.701709 H 6.379369 L 5.428391,6.9993968 H 5.738775 L 1.480504,5.6841678 H 0.965721 L 0,5.2916958 h 2.407368 l 0.965721,0.392472 H 2.782602 L 3.44287,5.8878938 H 4.99479 L 4.652476,5.6841678 H 3.933294 L 2.967573,5.2916958 H 6.003278 Z M 6.692012,6.8945388 5.599319,6.2474098 H 4.607605 Z" />
    <path
       inkscape:connector-curvature="0"
       id="path1896-0"
       style="color:#000000;font-style:normal;font-variant:normal;font-weight:normal;font-stretch:normal;font-size:medium;line-height:125%;font-family:ChunkFive;-inkscape-font-specification:ChunkFive;text-align:start;text-anchor:start;clip-rule:nonzero;visibility:visible;opacity:0.2;isolation:auto;mix-blend-mode:normal;color-interpolation:sRGB;color-interpolation-filters:linearRGB;solid-color:#000000;solid-opacity:1;fill:#000000;fill-opacity:1;fill-rule:nonzero;stroke:none;stroke-width:0.26458332;stroke-linecap:round;stroke-linejoin:miter;stroke-miterlimit:4;stroke-dasharray:none;stroke-dashoffset:0;stroke-opacity:1;color-rendering:auto;image-rendering:auto;shape-rendering:auto;text-rendering:auto"
       d="m 9.115492,5.2916958 c 1.461075,0 2.516191,0.18575 3.555633,0.608182 0.715076,0.290608 0.651568,0.449395 0.253941,0.509314 0.788935,0.08988 1.2653,0.212714 1.884541,0.464375 0.803541,0.326561 0.662544,0.51231 -0.594133,0.51231 h -2.823736 l -0.950978,-0.38648 h 0.439079 L 7.636193,5.6811718 H 7.197114 L 6.238764,5.2916958 Z M 9.80888,5.6811718 H 9.203253 l 1.282714,0.521298 h 0.582916 c 0.416369,0 0.363148,-0.11085 -0.01282,-0.263645 C 10.65798,5.7770428 10.126835,5.6811718 9.80888,5.6811718 Z m 3.092835,1.309238 c 0.287673,0 0.3006,-0.08089 -0.03851,-0.218706 -0.353852,-0.143806 -0.681192,-0.230689 -1.08242,-0.230689 h -0.461791 l 1.105789,0.449395 z" />
    <path
       inkscape:connector-curvature="0"
       id="path1898-9"
       style="color:#000000;font-style:normal;font-variant:normal;font-weight:normal;font-stretch:normal;font-size:medium;line-height:125%;font-family:ChunkFive;-inkscape-font-specification:ChunkFive;text-align:start;text-anchor:start;clip-rule:nonzero;visibility:visible;opacity:0.2;isolation:auto;mix-blend-mode:normal;color-interpolation:sRGB;color-interpolation-filters:linearRGB;solid-color:#000000;solid-opacity:1;fill:#000000;fill-opacity:1;fill-rule:nonzero;stroke:none;stroke-width:0.26458332;stroke-linecap:round;stroke-linejoin:miter;stroke-miterlimit:4;stroke-dasharray:none;stroke-dashoffset:0;stroke-opacity:1;color-rendering:auto;image-rendering:auto;shape-rendering:auto;text-rendering:auto"
       d="m 14.203733,5.2916958 c 1.763572,0 3.712986,0.39266 5.295286,1.03571 1.575297,0.640204 1.714903,1.058472 -0.196934,1.058472 -1.615307,0 -3.782197,-0.423958 -5.294483,-1.038555 -1.750332,-0.711338 -1.434783,-1.055627 0.196131,-1.055627 z m 1.099209,0.446722 c -0.499419,0 -0.285071,0.236163 0.632103,0.608905 0.868165,0.352824 1.812026,0.603216 2.281033,0.60037 0.600863,0 0.179247,-0.275999 -0.667914,-0.620287 -0.868165,-0.352825 -1.753607,-0.588988 -2.245222,-0.588988 z" />
    <path
       inkscape:connector-curvature="0"
       id="path1900-8"
       style="color:#000000;font-style:normal;font-variant:normal;font-weight:normal;font-stretch:normal;font-size:medium;line-height:125%;font-family:ChunkFive;-inkscape-font-specification:ChunkFive;text-align:start;text-anchor:start;clip-rule:nonzero;visibility:visible;opacity:0.2;isolation:auto;mix-blend-mode:normal;color-interpolation:sRGB;color-interpolation-filters:linearRGB;solid-color:#000000;solid-opacity:1;fill:#000000;fill-opacity:1;fill-rule:nonzero;stroke:none;stroke-width:0.26458332;stroke-linecap:round;stroke-linejoin:miter;stroke-miterlimit:4;stroke-dasharray:none;stroke-dashoffset:0;stroke-opacity:1;color-rendering:auto;image-rendering:auto;shape-rendering:auto;text-rendering:auto"
       d="m 21.403398,7.0056478 h 0.413874 l -1.777633,-0.722434 c -1.633694,-0.663937 -1.598381,-0.973969 -0.148662,-0.991518 1.389432,0 2.891168,0.312957 4.596833,1.006143 l 1.748843,0.710734 h 0.399092 l 0.9284,0.377303 h -2.187616 l -0.94999,-0.386077 h 0.399093 L 23.29989,6.3797338 c -1.237866,-0.503072 -1.706215,-0.573268 -2.157041,-0.573268 -0.472998,0 -0.494364,0.09944 0.664334,0.570343 l 1.554529,0.631764 h 0.399092 l 0.928399,0.377303 h -2.350209 z" />
    <path
       inkscape:connector-curvature="0"
       id="path1902-9"
       style="color:#000000;font-style:normal;font-variant:normal;font-weight:normal;font-stretch:normal;font-size:medium;line-height:125%;font-family:ChunkFive;-inkscape-font-specification:ChunkFive;text-align:start;text-anchor:start;clip-rule:nonzero;visibility:visible;opacity:0.2;isolation:auto;mix-blend-mode:normal;color-interpolation:sRGB;color-interpolation-filters:linearRGB;solid-color:#000000;solid-opacity:1;fill:#000000;fill-opacity:1;fill-rule:nonzero;stroke:none;stroke-width:0.26458332;stroke-linecap:round;stroke-linejoin:miter;stroke-miterlimit:4;stroke-dasharray:none;stroke-dashoffset:0;stroke-opacity:1;color-rendering:auto;image-rendering:auto;shape-rendering:auto;text-rendering:auto"
       d="m 27.799631,7.3858768 -1.916699,-0.778951 h 1.11284 l 0.943606,0.383484 h 0.651049 l -3.199416,-1.30025 h -0.620767 l -0.980466,-0.398464 h 2.816165 l 0.980466,0.398464 h -0.628338 l 3.199416,1.30025 h 0.635908 l -0.943606,-0.383484 h 1.11284 l 1.916699,0.778951 z" />
    <path
       inkscape:connector-curvature="0"
       id="path1904-8"
       style="color:#000000;font-style:normal;font-variant:normal;font-weight:normal;font-stretch:normal;font-size:medium;line-height:125%;font-family:ChunkFive;-inkscape-font-specification:ChunkFive;text-align:start;text-anchor:start;clip-rule:nonzero;visibility:visible;opacity:0.2;isolation:auto;mix-blend-mode:normal;color-interpolation:sRGB;color-interpolation-filters:linearRGB;solid-color:#000000;solid-opacity:1;fill:#000000;fill-opacity:1;fill-rule:nonzero;stroke:none;stroke-width:0.26458332;stroke-linecap:round;stroke-linejoin:miter;stroke-miterlimit:4;stroke-dasharray:none;stroke-dashoffset:0;stroke-opacity:1;color-rendering:auto;image-rendering:auto;shape-rendering:auto;text-rendering:auto"
       d="m 34.798438,7.0056478 h 0.413874 l -1.777633,-0.722434 c -1.633694,-0.663937 -1.59838,-0.973969 -0.148662,-0.991518 1.389432,0 2.891169,0.312957 4.596834,1.006143 l 1.748843,0.710734 h 0.399091 l 0.9284,0.377303 h -2.187616 l -0.94999,-0.386077 h 0.399093 l -1.525741,-0.620065 c -1.237866,-0.503072 -1.706215,-0.573268 -2.157042,-0.573268 -0.472998,0 -0.494364,0.09944 0.664334,0.570343 l 1.554529,0.631764 h 0.399092 l 0.9284,0.377303 h -2.35021 z" />
    <path
       inkscape:connector-curvature="0"
       id="path1906-4"
       style="color:#000000;font-style:normal;font-variant:normal;font-weight:normal;font-stretch:normal;font-size:medium;line-height:125%;font-family:ChunkFive;-inkscape-font-specification:ChunkFive;text-align:start;text-anchor:start;clip-rule:nonzero;visibility:visible;opacity:0.2;isolation:auto;mix-blend-mode:normal;color-interpolation:sRGB;color-interpolation-filters:linearRGB;solid-color:#000000;solid-opacity:1;fill:#000000;fill-opacity:1;fill-rule:nonzero;stroke:none;stroke-width:0.26458332;stroke-linecap:round;stroke-linejoin:miter;stroke-miterlimit:4;stroke-dasharray:none;stroke-dashoffset:0;stroke-opacity:1;color-rendering:auto;image-rendering:auto;shape-rendering:auto;text-rendering:auto"
       d="m 37.346985,5.3346098 0.621567,0.220289 c -0.04208,-0.12874 0.133097,-0.263203 0.863231,-0.263203 0.860257,0 2.309915,0.160211 3.408091,0.606512 1.654302,0.672312 -1.377353,0.60365 -0.652276,0.898323 0.246386,0.100132 0.66226,0.151628 0.871903,0.151628 0.506033,0 0.629656,-0.120158 0.108727,-0.331865 h 1.308459 l 1.766935,0.718087 H 44.400225 L 43.73661,7.0940648 c 0.238807,0.214568 -0.185594,0.291812 -0.792835,0.291812 -0.708447,0 -2.192166,-0.19168 -3.234024,-0.615094 -1.795094,-0.72953 1.213168,-0.63512 0.664081,-0.858271 -0.295662,-0.120158 -0.713433,-0.143045 -0.966449,-0.143045 -0.28954,0.0057 -0.798227,0.04577 -0.206902,0.286091 h -1.344604 l -1.773975,-0.720948 z" />
  </g>
</svg>
