<?xml version="1.0" encoding="UTF-8" standalone="no"?>
<svg
   xmlns:dc="http://purl.org/dc/elements/1.1/"
   xmlns:cc="http://creativecommons.org/ns#"
   xmlns:rdf="http://www.w3.org/1999/02/22-rdf-syntax-ns#"
   xmlns:svg="http://www.w3.org/2000/svg"
   xmlns="http://www.w3.org/2000/svg"
   xmlns:sodipodi="http://sodipodi.sourceforge.net/DTD/sodipodi-0.dtd"
   xmlns:inkscape="http://www.inkscape.org/namespaces/inkscape"
   height="30.126747"
   width="29.361347"
   version="1.1"
   viewBox="0 0 29.360261 30.126748"
   id="svg6603"
   inkscape:version="0.91 r13725"
   sodipodi:docname="button-settings-icon.svg">
  <metadata
     id="metadata6621">
    <rdf:RDF>
      <cc:Work
         rdf:about="">
        <dc:format>image/svg+xml</dc:format>
        <dc:type
           rdf:resource="http://purl.org/dc/dcmitype/StillImage" />
        <dc:title></dc:title>
      </cc:Work>
    </rdf:RDF>
  </metadata>
  <defs
     id="defs6619" />
  <sodipodi:namedview
     pagecolor="#ffffff"
     bordercolor="#666666"
     borderopacity="1"
     objecttolerance="10"
     gridtolerance="10"
     guidetolerance="10"
     inkscape:pageopacity="0"
     inkscape:pageshadow="2"
     inkscape:window-width="640"
     inkscape:window-height="480"
     id="namedview6617"
     showgrid="false"
     inkscape:zoom="3.4153846"
     inkscape:cx="1.280179"
     inkscape:cy="0.57910211"
     inkscape:current-layer="svg6603"
     fit-margin-top="0"
     fit-margin-left="0"
     fit-margin-right="0"
     fit-margin-bottom="0" />
  <g
     id="g6605"
     transform="matrix(0.77142702,0,0,0.77161866,1.7997431,0.94251354)"
     style="fill:#ffffff;stroke:#000000;stroke-width:1.29613781">
    <path
       d="m 17.351712,2.9557478 c -0.8658,0.00425 -1.724,0.07655 -2.56,0.2177 -0.7748,0.1344 -1.332,0.8067 -1.332,1.58 l 0,2.2659999 c -1.38,0.4773 -2.644,1.21 -3.7320004,2.131 l -1.978,-1.13 c -0.6865,-0.3899 -1.556,-0.242 -2.059,0.3564 -1.101,1.304 -2.263,2.7970003 -2.868,4.4240003 -0.2787,0.7328 0.02717,1.56 0.7137,1.95 l 2.263,1.136 c -0.2651,1.412 -0.2651,2.857 0,4.262 l -2.263,1.13 c -0.6865,0.3966 -0.9856,1.224 -0.7137,1.956 0.6049,1.62 1.767,3.113 2.868,4.417 0.503,0.5983 1.38,0.7463 2.059,0.3564 l 1.978,-1.123 c 1.0870004,0.921 2.3520004,1.647 3.7320004,2.131 l 0,2.259 c 0,0.7866 0.5778,1.452 1.359,1.587 1.733,0.2958 3.487,0.2824 5.159,0 0.7748,-0.1344 1.339,-0.8067 1.339,-1.587 l 0,-2.259 c 1.38,-0.4773 2.644,-1.21 3.732,-2.131 l 1.978,1.13 c 0.6865,0.3899 1.557,0.242 2.06,-0.3564 1.101,-1.304 2.291,-2.797 2.895,-4.424 0.2719,-0.7395 -0.02717,-1.566 -0.7137,-1.956 l -2.291,-1.13 c 0.2651,-1.412 0.2651,-2.857 0,-4.269 l 2.291,-1.13 c 0.6865,-0.3967 0.9516,-1.224 0.6797,-1.956 -0.6049,-1.627 -1.76,-3.1190003 -2.861,-4.4240003 -0.503,-0.5983 -1.38,-0.7463 -2.06,-0.3564 l -1.98,1.13 c -1.09,-0.93 -2.36,-1.65 -3.74,-2.14 l 0,-2.2589999 c 0,-0.7866 -0.5777,-1.452 -1.359,-1.587 -0.86,-0.139 -1.74,-0.208 -2.6,-0.205 z m 0.1114,10.2000002 c 3.821,0.05525 6.601,4.448 3.521,8.412 -5.234,3.98 -11.2100004,-1.929 -7.184,-7.106 1.227,-0.9328 2.494,-1.322 3.664,-1.305 z"
       id="path6609"
       inkscape:connector-curvature="0"
       style="fill:#ffffff;stroke:#000000;stroke-width:1.29613781" />
  </g>
  <rect
     style="color:#000000;clip-rule:nonzero;display:inline;overflow:visible;visibility:visible;opacity:1;isolation:auto;mix-blend-mode:normal;color-interpolation:sRGB;color-interpolation-filters:linearRGB;solid-color:#000000;solid-opacity:1;fill:none;fill-opacity:1;fill-rule:nonzero;stroke:#000000;stroke-width:1;stroke-linecap:round;stroke-linejoin:round;stroke-miterlimit:4;stroke-dasharray:none;stroke-dashoffset:0;stroke-opacity:1;color-rendering:auto;image-rendering:auto;shape-rendering:auto;text-rendering:auto;enable-background:accumulate"
     id="rect7163"
     width="29.425676"
     height="30.011261"
     x="0.29225016"
     y="-0.47009969"
     ry="3.0343153" />
</svg>
