<?xml version="1.0" encoding="UTF-8" standalone="no"?>
<!-- Created with Inkscape (http://www.inkscape.org/) -->

<svg
   xmlns:dc="http://purl.org/dc/elements/1.1/"
   xmlns:cc="http://creativecommons.org/ns#"
   xmlns:rdf="http://www.w3.org/1999/02/22-rdf-syntax-ns#"
   xmlns:svg="http://www.w3.org/2000/svg"
   xmlns="http://www.w3.org/2000/svg"
   xmlns:sodipodi="http://sodipodi.sourceforge.net/DTD/sodipodi-0.dtd"
   xmlns:inkscape="http://www.inkscape.org/namespaces/inkscape"
   width="2675"
   height="1108"
   viewBox="0 0 2675.0001 1107.9999"
   id="svg9495"
   version="1.1"
   inkscape:version="0.91 r13725"
   sodipodi:docname="cityscape.svg">
  <defs
     id="defs9497" />
  <sodipodi:namedview
     id="base"
     pagecolor="#ffffff"
     bordercolor="#666666"
     borderopacity="1.0"
     inkscape:pageopacity="0.0"
     inkscape:pageshadow="2"
     inkscape:zoom="0.5518913"
     inkscape:cx="1484.4828"
     inkscape:cy="628.31596"
     inkscape:document-units="px"
     inkscape:current-layer="layer1"
     showgrid="false"
     inkscape:window-width="1920"
     inkscape:window-height="1027"
     inkscape:window-x="-8"
     inkscape:window-y="-8"
     inkscape:window-maximized="1"
     fit-margin-top="0"
     fit-margin-left="0"
     fit-margin-right="0"
     fit-margin-bottom="0"
     units="px" />
  <metadata
     id="metadata9500">
    <rdf:RDF>
      <cc:Work
         rdf:about="">
        <dc:format>image/svg+xml</dc:format>
        <dc:type
           rdf:resource="http://purl.org/dc/dcmitype/StillImage" />
        <dc:title></dc:title>
      </cc:Work>
    </rdf:RDF>
  </metadata>
  <g
     inkscape:label="Layer 1"
     inkscape:groupmode="layer"
     id="layer1"
     transform="translate(0,-145.84729)">
    <path
       style="display:inline;fill:#e0e9ee;fill-opacity:1;fill-rule:evenodd;stroke:none;stroke-width:1px;stroke-linecap:butt;stroke-linejoin:miter;stroke-opacity:1"
       d="m 605.98232,291.40217 c 0,0 12.38563,21.67216 -1.54413,27.86356 -13.92952,6.1914 -21.66821,30.95634 -21.66821,30.95634 l -29.40974,0 c -7.7387,66.55747 -57.26711,84.71394 -57.26711,84.71394 l -16.81696,0 0,29.40778 16.81696,0 0,512.3407 133.97684,1.24133 0,0.0495 2.65895,-0.0256 2.66338,0.0256 0,-0.0495 133.9766,-1.24133 0,-512.3407 16.81712,0 0,-29.40778 -16.81712,0 c 0,0 -47.98062,-19.70416 -57.26713,-84.71394 l -29.40973,0 c 0,0 -7.73878,-24.76494 -21.66821,-30.95634 -13.92968,-6.1914 -1.54414,-27.86356 -1.54414,-27.86356 l -24.08739,0 -5.32233,0 z"
       id="path5010-71"
       inkscape:connector-curvature="0"
       sodipodi:nodetypes="cscccccccccccccccccccscccc" />
    <path
       style="display:inline;fill:#e0e9ee;fill-opacity:1;fill-rule:evenodd;stroke:none;stroke-width:1px;stroke-linecap:butt;stroke-linejoin:miter;stroke-opacity:1"
       d="m 1419.0028,285.08503 0,0.2553 c -27.0131,2.70342 -51.7657,15.83428 -60.1229,39.50196 l -26.2439,11.57852 0,30.2315 c 0,0 -27.9353,-1.93011 -34.7077,26.37074 l -20.3157,0 0,584.95232 141.3902,0 2.5221,0 141.3903,0 0,-584.95232 -20.3154,0 c -6.7724,-28.30085 -34.708,-26.37074 -34.708,-26.37074 l 0,-30.2315 -26.2437,-11.57852 c -8.3571,-23.66768 -33.1098,-36.79854 -60.1232,-39.50196 l 0,-0.2553 c -0.4225,0.0322 -0.8392,0.0895 -1.2609,0.12532 -0.4216,-0.0376 -0.8387,-0.0949 -1.2612,-0.12532 z"
       id="path5033-2"
       inkscape:connector-curvature="0"
       sodipodi:nodetypes="cccccccccccccccccccc" />
    <path
       style="color:#000000;clip-rule:nonzero;display:inline;overflow:visible;visibility:visible;opacity:1;isolation:auto;mix-blend-mode:normal;color-interpolation:sRGB;color-interpolation-filters:linearRGB;solid-color:#000000;solid-opacity:1;fill:#e0e9ee;fill-opacity:1;fill-rule:nonzero;stroke:none;stroke-width:2;stroke-linecap:butt;stroke-linejoin:miter;stroke-miterlimit:4;stroke-dasharray:none;stroke-dashoffset:0;stroke-opacity:1;color-rendering:auto;image-rendering:auto;shape-rendering:auto;text-rendering:auto;enable-background:accumulate"
       d="m 225.37699,327.2091 0,58.80951 -68.91007,0 0,38.69122 15.79534,0 0,553.26554 293.39263,0 0,-553.26554 15.8274,0 0,-38.69122 -70.50061,0 0,-32.55297 4.84613,0 0,-11.55429 -59.92497,0 0,11.55429 4.84612,0 0,32.55297 -44.59917,0 0,-10.50168 -61.69167,0 0,10.50168 -7.9297,0 0,-19.95105 -7.93383,0 0,19.95105 -6.16715,0 0,-58.80951 z"
       id="rect5066-8"
       inkscape:connector-curvature="0"
       sodipodi:nodetypes="ccccccccccccccccccccccccccccc" />
    <path
       style="color:#000000;clip-rule:nonzero;display:inline;overflow:visible;visibility:visible;opacity:1;isolation:auto;mix-blend-mode:normal;color-interpolation:sRGB;color-interpolation-filters:linearRGB;solid-color:#000000;solid-opacity:1;fill:#e0e9ee;fill-opacity:1;fill-rule:nonzero;stroke:none;stroke-width:2;stroke-linecap:butt;stroke-linejoin:miter;stroke-miterlimit:4;stroke-dasharray:none;stroke-dashoffset:0;stroke-opacity:1;color-rendering:auto;image-rendering:auto;shape-rendering:auto;text-rendering:auto;enable-background:accumulate"
       d="m 1135.4423,408.06145 0,66.47958 92.8162,0 0,43.73743 -21.275,0 0,459.69691 -395.17597,0 0,-459.69691 -21.31816,0 0,-43.73743 94.95857,0 0,-139.30999 -6.52736,0 0,-13.06124 80.71392,0 0,13.06124 -6.5273,0 0,139.30999 60.0716,0 0,-11.87133 83.0936,0 0,11.87133 10.6806,0 0,-22.5531 10.6862,0 0,22.5531 8.3066,0 0,-66.47958 z"
       id="rect5066-8-8"
       inkscape:connector-curvature="0"
       sodipodi:nodetypes="ccccccccccccccccccccccccccccc" />
    <path
       style="color:#000000;clip-rule:nonzero;display:inline;overflow:visible;visibility:visible;opacity:1;isolation:auto;mix-blend-mode:normal;color-interpolation:sRGB;color-interpolation-filters:linearRGB;solid-color:#000000;solid-opacity:1;fill:#e0e9ee;fill-opacity:1;fill-rule:nonzero;stroke:none;stroke-width:2;stroke-linecap:butt;stroke-linejoin:miter;stroke-miterlimit:4;stroke-dasharray:none;stroke-dashoffset:0;stroke-opacity:1;color-rendering:auto;image-rendering:auto;shape-rendering:auto;text-rendering:auto;enable-background:accumulate"
       d="m 1738.1654,224.43931 0,35.81984 -13.3977,0 0,13.76877 -30.4472,0 0,55.08159 -54.8098,0 0,17.70556 12.18,0 0,42.96589 -55.0281,0 0,35.40875 25.5778,0 0,552.78566 270.3836,0 0,-552.78566 25.5777,0 0,-35.40875 -55.028,0 0,-42.96589 12.1773,0 0,-17.70556 -54.8071,0 0,-55.08159 -30.447,0 0,-13.76877 -13.3979,0 0,-35.81984 z"
       id="rect5098-0-7"
       inkscape:connector-curvature="0"
       sodipodi:nodetypes="ccccccccccccccccccccccccccccc" />
    <path
       id="path10501"
       d="m 0,977.97544 151.57747,0 0,-609.86536 8.31935,0 0,-12.64249 12.85811,0 0,-30.70099 -23.77045,0 L 80.252719,290.99172 6.3678917,254.68317 0,257.81228 0,977.97544 Z"
       style="color:#000000;clip-rule:nonzero;display:inline;overflow:visible;visibility:visible;opacity:1;isolation:auto;mix-blend-mode:normal;color-interpolation:sRGB;color-interpolation-filters:linearRGB;solid-color:#000000;solid-opacity:1;fill:#e0e9ee;fill-opacity:1;fill-rule:nonzero;stroke:none;stroke-width:2;stroke-linecap:butt;stroke-linejoin:miter;stroke-miterlimit:4;stroke-dasharray:none;stroke-dashoffset:0;stroke-opacity:1;color-rendering:auto;image-rendering:auto;shape-rendering:auto;text-rendering:auto;enable-background:accumulate"
       inkscape:connector-curvature="0" />
    <path
       id="path10526"
       d="m 0,1238.9683 8.3852692,0.078 0,0.049 2.5561788,-0.026 2.559979,0.026 0,-0.049 128.777903,-1.1927 0,-92.5413 37.09354,0 0,93.7824 387.27757,0 0,-120.0408 38.31247,0 0,118.7497 133.97548,1.241 0,0.049 2.65879,-0.026 2.6646,0.026 0,-0.049 133.97547,-1.241 0,-118.7497 47.13953,0 0,120.0408 395.17472,0 0,-100.322 42.6417,0 0,100.322 270.3829,0 0,-124.97 28.6424,0 0,124.97 278.6519,0 0,-759.74062 -51.905,41.26546 0,-69.75207 -73.7606,0 0,128.38906 -81.9581,65.15417 0,-55.84099 -16.3908,0 0,68.87527 -54.6374,43.43496 0,107.59669 -28.6424,0 0,-122.16879 25.5785,0 0,-35.40761 -66.9877,0 0,-66.88528 12.1778,0 0,-17.7064 -54.806,0 0,-55.08158 -30.4484,0 0,-13.7678 -13.3967,0 0,-90.49266 -14.6159,0 0,90.49266 -13.3986,0 0,13.7678 -30.4465,0 0,55.08158 -54.8099,0 0,17.7064 12.1798,0 0,66.88528 -66.9878,0 0,35.40761 25.5785,0 0,132.02735 -23.5669,0 0,-54.22724 -19.0748,0 0,-150.43793 21.3189,0 0,-43.73699 -94.9596,0 0,-36.79874 6.5289,0 0,-13.06188 -80.7138,0 0,13.06188 6.5268,0 0,36.79874 -60.0714,0 0,-11.871 -83.0936,0 0,11.871 -10.6818,0 0,-22.55284 -10.6856,0 0,22.55284 -8.3059,0 0,-66.47968 -9.49764,0 0,66.47968 -92.81617,0 0,43.73699 21.27619,0 0,150.43793 -47.13953,0 0,-38.64548 16.81715,0 0,-29.40825 -16.81715,0 c 0,0 -47.98068,-19.70443 -57.26721,-84.71422 l -29.40971,0 c 0,0 -7.73835,-24.76502 -21.66775,-30.95641 -13.92971,-6.1914 -1.54449,-27.86355 -1.54449,-27.86356 l -24.08631,0 -5.32339,0 -24.08631,0 c 0,0 12.38512,21.67216 -1.54449,27.86356 -13.92951,6.19139 -21.66776,30.95642 -21.66776,30.95641 l -29.4098,0 c -7.73875,66.55749 -57.26712,84.71422 -57.26712,84.71422 l -16.81724,0 0,29.40825 16.81724,0 0,38.64548 -38.31247,0 0,-107.35335 11.09458,0 0,-12.07293 17.14461,0 0,-29.31505 -31.69643,0 -91.65526,-32.25088 -98.52523,-34.67064 -98.52534,34.67064 -91.65335,32.25088 -31.69844,0 0,29.31505 17.14661,0 0,12.07293 11.09068,0 0,107.35335 -37.09354,0 0,-18.71608 7.88337,0 0,-28.26568 -7.88337,0 c 0,0 -46.118134,-101.77033 -55.044405,-164.25751 l -28.26829,0 C 50.907727,503.90341 45.986906,448.87546 36.653559,396.93527 l -23.152132,0 -5.1161578,0 -8.3852692,0 0,842.03333 z"
       style="display:inline;fill:#cddce4;fill-opacity:1;fill-rule:evenodd;stroke:none;stroke-width:1px;stroke-linecap:butt;stroke-linejoin:miter;stroke-opacity:1"
       inkscape:connector-curvature="0" />
    <path
       inkscape:connector-curvature="0"
       id="path5089-1-6"
       d="m 2674.9979,977.97544 0,-720.16316 -67.5167,33.17944 -68.7319,33.77488 -23.7704,0 0,30.70099 12.8581,0 0,12.64249 8.3174,0 0,609.86536 138.8435,0 z"
       style="color:#000000;clip-rule:nonzero;display:inline;overflow:visible;visibility:visible;opacity:1;isolation:auto;mix-blend-mode:normal;color-interpolation:sRGB;color-interpolation-filters:linearRGB;solid-color:#000000;solid-opacity:1;fill:#e0e9ee;fill-opacity:1;fill-rule:nonzero;stroke:none;stroke-width:2;stroke-linecap:butt;stroke-linejoin:miter;stroke-miterlimit:4;stroke-dasharray:none;stroke-dashoffset:0;stroke-opacity:1;color-rendering:auto;image-rendering:auto;shape-rendering:auto;text-rendering:auto;enable-background:accumulate" />
    <path
       inkscape:connector-curvature="0"
       id="rect5098-0-3"
       d="m 2339.7196,145.8472 0,90.49258 -13.3977,0 0,13.76878 -30.4472,0 0,55.08159 -54.8098,0 0,17.70555 12.18,0 0,66.88522 -66.9868,0 0,35.40875 25.5777,0 0,552.78566 270.3837,0 0,-552.78566 25.5777,0 0,-35.40875 -66.9869,0 0,-66.88522 12.1773,0 0,-17.70555 -54.8071,0 0,-55.08159 -30.447,0 0,-13.76878 -13.3979,0 0,-90.49258 -14.616,0 z"
       style="color:#000000;clip-rule:nonzero;display:inline;overflow:visible;visibility:visible;opacity:1;isolation:auto;mix-blend-mode:normal;color-interpolation:sRGB;color-interpolation-filters:linearRGB;solid-color:#000000;solid-opacity:1;fill:#e0e9ee;fill-opacity:1;fill-rule:nonzero;stroke:none;stroke-width:2;stroke-linecap:butt;stroke-linejoin:miter;stroke-miterlimit:4;stroke-dasharray:none;stroke-dashoffset:0;stroke-opacity:1;color-rendering:auto;image-rendering:auto;shape-rendering:auto;text-rendering:auto;enable-background:accumulate" />
    <path
       sodipodi:nodetypes="cccccccccccccccccc"
       inkscape:connector-curvature="0"
       id="path5089-1-4-2"
       d="m 2061.613,373.73518 -54.3723,36.30894 -50.5802,33.77472 -17.4927,0 0,30.70146 9.4621,0 0,12.64265 6.1213,0 0,609.86435 213.7237,0 0,-609.86435 6.1226,0 0,-12.64265 9.4619,0 0,-30.70146 -17.4927,0 -50.5814,-33.77472 z"
       style="color:#000000;clip-rule:nonzero;display:inline;overflow:visible;visibility:visible;opacity:1;isolation:auto;mix-blend-mode:normal;color-interpolation:sRGB;color-interpolation-filters:linearRGB;solid-color:#000000;solid-opacity:1;fill:#e0e9ee;fill-opacity:1;fill-rule:nonzero;stroke:none;stroke-width:2;stroke-linecap:butt;stroke-linejoin:miter;stroke-miterlimit:4;stroke-dasharray:none;stroke-dashoffset:0;stroke-opacity:1;color-rendering:auto;image-rendering:auto;shape-rendering:auto;text-rendering:auto;enable-background:accumulate" />
    <path
       inkscape:connector-curvature="0"
       id="path5010-1"
       d="m 2674.9979,1238.9683 0,-842.03333 -14.7669,0 -22.3111,155.93332 -28.2683,0 c -7.4384,63.97483 -55.0463,164.25751 -55.0463,164.25751 l -7.8815,0 0,28.26569 7.8815,0 0,63.08476 -30.1946,0 0,-154.3351 -15.4335,0 c -5.1452,-28.30085 -26.3691,-26.37061 -26.3691,-26.3706 l 0,-30.23153 -19.9392,-11.57932 c -6.3493,-23.66768 -25.1534,-36.79813 -45.6765,-39.50155 l 0,-0.25543 c -0.321,0.0322 -0.639,0.0902 -0.9593,0.12599 -0.3202,-0.0376 -0.6363,-0.0956 -0.9573,-0.12599 l 0,0.25543 c -20.523,2.70342 -39.3293,15.83387 -45.6785,39.50155 l -19.9372,11.57932 0,30.23153 c 0,0 -21.224,-1.93025 -26.3692,26.3706 l -15.4353,0 0,134.61626 -31.2392,0 0,-134.29696 -20.3151,0 c -6.7724,-28.30084 -34.7079,-26.37061 -34.7079,-26.37061 l 0,-30.23152 -26.2451,-11.57933 c -2.0957,-5.93504 -5.2219,-11.20663 -9.1566,-15.81822 l 0,-49.63452 -26.1134,0 0,31.79178 c -7.7402,-3.0222 -16.1773,-4.97248 -24.8518,-5.84057 l 0,-0.25544 c -0.4225,0.0324 -0.8399,0.0901 -1.2615,0.12598 -0.4216,-0.0376 -0.8391,-0.0956 -1.2616,-0.12598 l 0,0.25544 c -7.2371,0.72426 -14.3062,2.20379 -20.9468,4.42702 l 0,-30.37823 -32.6423,0 0,52.9863 c -2.7144,3.76895 -4.9275,7.92097 -6.5326,12.46644 l -26.2432,11.57933 0,30.23152 c 0,0 -27.9375,-1.93023 -34.7099,26.37061 l -20.3151,0 0,61.84726 -49.157,0 c -0.8176,0 -1.4767,0.65798 -1.4767,1.47568 l 0,436.36361 c 0,0.8178 0.6591,1.4757 1.4767,1.4757 l 49.157,0 0,83.7891 141.3899,0 2.5231,0 141.3899,0 0,-287.97093 31.2392,0 0,287.65343 107.4202,0 1.9166,0 107.4183,0 0,-149.6198 30.1946,0 0,148.3788 z"
       style="display:inline;fill:#cddce4;fill-opacity:1;fill-rule:evenodd;stroke:none;stroke-width:1px;stroke-linecap:butt;stroke-linejoin:miter;stroke-opacity:1"
       sodipodi:nodetypes="ccccccccccccccccccccccccccccccccccccccccccccccccccccssssccccccccccccccc" />
    <path
       inkscape:connector-curvature="0"
       id="path5089-16"
       d="m 2674.9979,1249.9677 0,-368.43251 -57.616,19.74129 0,-59.53278 -23.4681,0 0,67.57393 -76.373,26.16521 -32.555,0 0,29.31679 17.6098,0 0,12.07121 11.3931,0 0,116.67006 -22.8267,0 0,-74.6659 -68.135,0 0,-42.00416 12.4008,0 0,-12.07121 19.162,0 0,-29.31679 -35.427,0 -48.2946,-15.20379 0,-42.62548 -23.4681,0 0,-58.75957 -10.0558,0 0,0.002 0,58.75956 -16.7629,0 0,26.79518 -3.8622,-1.21678 -39.7214,-12.50442 0,-52.24759 -10.0559,0 0,49.0805 -60.3445,-18.99912 -110.1217,34.67063 -7.2109,2.27134 0,-34.37896 -50.2888,0 0,50.20927 -44.942,14.14922 -35.429,0 0,29.3168 19.164,0 0,12.0712 12.3988,0 0,96.64557 -18.2396,0 0,47.6843 -28.65,0 c -0.9701,0 -1.75,0.7605 -1.75,1.7051 l 0,125.3549 0,0.4006 c 0,0.7222 0.5973,1.3047 1.3391,1.3047 l 47.3005,0 37.4908,0 395.3703,0 68.135,0 56.1102,0 127.7257,0 z"
       style="color:#000000;clip-rule:nonzero;display:inline;overflow:visible;visibility:visible;opacity:1;isolation:auto;mix-blend-mode:normal;color-interpolation:sRGB;color-interpolation-filters:linearRGB;solid-color:#000000;solid-opacity:1;fill:#c2d4de;fill-opacity:1;fill-rule:nonzero;stroke:none;stroke-width:2;stroke-linecap:butt;stroke-linejoin:miter;stroke-miterlimit:4;stroke-dasharray:none;stroke-dashoffset:0;stroke-opacity:1;color-rendering:auto;image-rendering:auto;shape-rendering:auto;text-rendering:auto;enable-background:accumulate" />
    <path
       id="path10535"
       d="m 0,1249.9677 236.7427,0 64.18552,0 132.18673,0 2.59099,0 135.7176,0 9.49767,0 119.20851,0 c 0.31316,-3e-4 0.61312,-0.062 0.88367,-0.1727 0.81315,-0.3343 1.38176,-1.1184 1.38176,-2.0348 l 0,-2.4232 235.28163,4.6307 0,-273.09686 8.29225,0.16223 0,-12.0712 12.8174,0.25197 0,-29.31677 -23.69474,-0.466 -31.09772,-15.24866 0,-33.39863 -21.96041,-0.43148 0,23.06025 -15.45679,-7.58032 -73.65018,-36.12044 -69.49541,31.34822 0,-59.53277 -17.08079,-0.33656 0,67.57391 -55.58691,25.07099 -23.69483,-0.46601 0,29.31678 12.8173,0.25199 0,12.07121 8.29235,0.16397 0,112.15668 -67.25909,0 0,-127.86618 -20.8654,0 c -1.30425,-5.30641 -3.37173,-9.55 -5.8718,-12.9428 -10.83123,-14.69857 -29.76507,-13.4284 -29.77417,-13.4278 l 0,-30.23152 -26.95235,-11.57933 c -0.80465,-2.21884 -1.75803,-4.34362 -2.84683,-6.37734 -0.72583,-1.3558 -1.51118,-2.6719 -2.35454,-3.94549 -0.84326,-1.2736 -1.74403,-2.50552 -2.6976,-3.69696 -0.47669,-0.59571 -0.96579,-1.18181 -1.46888,-1.75701 -1.50898,-1.72556 -3.13519,-3.35728 -4.86421,-4.8982 -2.30593,-2.05491 -4.7954,-3.94624 -7.44339,-5.67317 -1.32375,-0.86333 -2.68671,-1.6849 -4.08517,-2.46636 -10.48956,-5.86086 -22.9838,-9.41979 -35.98893,-10.687 l 0,-0.25544 c -0.43408,0.0325 -0.86146,0.0902 -1.29454,0.12598 -0.43299,-0.0376 -0.86247,-0.0956 -1.29645,-0.12598 l 0,0.25544 c -2.60098,0.25342 -5.18017,0.59873 -7.72834,1.03555 -0.84896,0.14551 -1.69752,0.30186 -2.53868,0.46774 -7.57512,1.494 -14.82367,3.81444 -21.42161,6.96243 -1.46627,0.69961 -2.90174,1.43983 -4.3003,2.22128 -3.49646,1.95362 -6.76957,4.16364 -9.76513,6.62932 -0.59901,0.49314 -1.18712,0.99656 -1.76343,1.51021 -1.15271,1.02726 -2.25902,2.094 -3.31572,3.20334 -1.0568,1.10934 -2.06389,2.26043 -3.01746,3.45187 -0.47669,0.59572 -0.93978,1.20115 -1.38936,1.81741 -0.89937,1.23251 -1.74373,2.50654 -2.52908,3.82124 -1.17792,1.97203 -2.22371,4.03727 -3.12588,6.19438 -0.30056,0.71904 -0.58621,1.44715 -0.85456,2.18676 l -26.95245,11.57933 0,30.23152 c 0,0 -1.79433,-0.12145 -4.59286,0.1398 -0.69893,0.0653 -1.46277,0.15541 -2.27502,0.27616 -6.50352,0.96748 -16.24004,3.96522 -22.90619,13.01184 -0.41648,0.56547 -0.82195,1.15365 -1.21303,1.76736 -1.56499,2.45515 -2.91224,5.30305 -3.94563,8.60898 -0.25825,0.82634 -0.4977,1.68205 -0.71514,2.56646 l -20.8634,0 0,165.73838 -51.15898,0 0,-144.33156 11.39494,0 0,-12.07121 17.60979,0 0,-29.31679 -32.55499,0 -42.727,-14.63767 0,-33.39863 -30.17134,0 0,23.06198 -21.23748,-7.27655 L 37.866686,868.56133 0,881.53519 0,1249.9677 Z m 1895.2985,-412.77529 -17.0807,0.33656 0,59.53278 -69.4953,-31.34822 -73.6503,36.12043 -15.4568,7.58031 0,-23.06025 -21.9604,0.43148 0,33.39863 -31.0976,15.24866 -23.6948,0.46601 0,29.31678 12.8173,-0.25199 0,12.07121 8.2924,-0.16224 0,94.34834 c -0.3904,-0.1262 -0.7823,-0.2474 -1.1764,-0.3607 -1.6718,-0.4804 -3.3764,-0.8428 -5.0987,-1.0872 l 0,-0.1831 c -0.2152,0.023 -0.4284,0.064 -0.6433,0.09 -0.215,-0.027 -0.4279,-0.068 -0.6433,-0.09 l 0,0.1831 c -0.43,0.061 -0.8613,0.1296 -1.2889,0.2053 -2.9957,0.531 -5.926,1.4248 -8.7147,2.6786 -0.3979,0.179 -0.7959,0.3656 -1.1879,0.5593 -0.392,0.1937 -0.7811,0.3956 -1.1666,0.604 -0.3856,0.2085 -0.7705,0.4239 -1.1491,0.6473 -0.3789,0.2231 -0.7546,0.4558 -1.1261,0.6938 -0.3713,0.238 -0.7408,0.4842 -1.1046,0.737 -4.0045,2.7839 -7.5273,6.4632 -10.2747,11.0408 -0.4995,0.8323 -0.974,1.6937 -1.4206,2.5854 -0.4461,0.8913 -0.8658,1.8126 -1.2557,2.7632 -0.7799,1.9025 -1.4419,3.9244 -1.9747,6.065 l -13.3871,8.3777 0,3.4329 c -4.3091,-6.223 -10.5775,-11.6707 -18.3326,-16.3447 -0.8612,-0.5191 -1.7403,-1.0291 -2.6375,-1.5292 -0.8979,-0.5001 -1.8116,-0.991 -2.7441,-1.4722 -8.3924,-4.3302 -18.1664,-7.887 -28.8497,-10.6731 -2.374,-0.6192 -4.7929,-1.2003 -7.2517,-1.7433 -1.2293,-0.2716 -2.4702,-0.5327 -3.7188,-0.7852 -1.2484,-0.2525 -2.5047,-0.4966 -3.7712,-0.7301 -7.5989,-1.4008 -15.51,-2.4588 -23.5901,-3.1758 -1.3467,-0.1194 -2.6965,-0.2291 -4.0522,-0.3296 -1.3556,-0.1004 -2.7161,-0.1911 -4.0793,-0.2727 l 0,-0.2554 c -0.7071,0.032 -1.4029,0.088 -2.1084,0.1243 -0.7053,-0.038 -1.4035,-0.094 -2.1104,-0.1243 l 0,0.2554 c -7.0621,0.4224 -14.0338,1.0995 -20.8209,2.0314 -6.7878,0.9321 -13.3915,2.1182 -19.724,3.5606 -3.7995,0.8655 -7.5015,1.8226 -11.0848,2.8719 -1.1941,0.3496 -2.3773,0.7105 -3.5445,1.0805 -18.6811,5.9245 -33.8304,14.4687 -42.4906,25.644 -1.0826,1.397 -2.0639,2.8338 -2.9378,4.3131 l -43.915,11.5775 0,30.2316 c 0,0 -1.6443,-0.068 -4.3894,0.011 -0.9146,0.025 -1.9539,0.068 -3.0929,0.1329 -5.1293,0.2941 -12.3316,1.072 -19.7783,3.048 -1.6544,0.4391 -3.3238,0.9365 -4.9824,1.5015 -4.9768,1.6963 -9.8836,3.9979 -14.1758,7.1127 -0.7149,0.5189 -1.4143,1.0607 -2.0929,1.6259 -0.6784,0.5652 -1.3378,1.1557 -1.9748,1.769 -0.6372,0.6138 -1.2522,1.2518 -1.8428,1.9159 -0.8861,0.9959 -1.7174,2.0492 -2.4845,3.1636 -0.5114,0.743 -0.9934,1.5129 -1.4458,2.311 -0.4521,0.798 -0.8733,1.6233 -1.2615,2.4784 -0.194,0.4275 -0.3809,0.8628 -0.5581,1.3049 l -6.6741,0 0,-139.6939 6.2517,-0.1226 0,-9.044 9.6623,-0.1897 0,-21.9644 -17.8636,0.3504 -41.9112,-18.78338 0,-50.62521 -12.8794,0.25026 0,0.002 0,44.60168 -52.3972,-23.48656 -55.5288,27.06099 -11.6525,5.67832 0,-17.27662 -16.5575,0.32447 0,25.02095 -23.4448,11.4256 -17.8657,0.3487 0,21.9643 9.6643,-0.1881 0,9.0439 6.2517,-0.1226 0,100.1424 -24.6017,0 0,-35.9081 -23.4681,0 0,35.9081 -73.75299,0 0,104.4607 121.82279,0 203.3643,0 224.1792,0 4.2189,0 150.6415,0 85.952,0 0,-1.6914 89.2543,-1.7571 0,1.2409 c 0,1.0698 0.7736,1.9577 1.8081,2.1627 0.1479,0.029 0.3024,0.045 0.4593,0.045 l 128.7063,0 c 1.0985,0 2.0102,-0.7531 2.2207,-1.7605 0.03,-0.1439 0.047,-0.2941 0.047,-0.4471 l 0,-162.2224 c 0,-0.1529 -0.017,-0.3032 -0.047,-0.4471 -0.2105,-1.0074 -1.1222,-1.7605 -2.2207,-1.7605 l -16.6815,0 0,-112.15664 8.2922,-0.16397 0,-12.07121 12.8173,-0.25199 0,-29.31677 -23.6947,0.466 -55.587,-25.07098 0,-67.57392 0,0 z"
       style="color:#000000;clip-rule:nonzero;display:inline;overflow:visible;visibility:visible;opacity:1;isolation:auto;mix-blend-mode:normal;color-interpolation:sRGB;color-interpolation-filters:linearRGB;solid-color:#000000;solid-opacity:1;fill:#c2d4de;fill-opacity:1;fill-rule:nonzero;stroke:none;stroke-width:2;stroke-linecap:butt;stroke-linejoin:miter;stroke-miterlimit:4;stroke-dasharray:none;stroke-dashoffset:0;stroke-opacity:1;color-rendering:auto;image-rendering:auto;shape-rendering:auto;text-rendering:auto;enable-background:accumulate"
       inkscape:connector-curvature="0" />
    <path
       inkscape:connector-curvature="0"
       id="path5521"
       d="m 2674.9998,1253.8372 0,-58.8665 c -5.9673,-4.7606 -13.262,-7.9626 -21.3345,-8.8834 -2.9838,-37.5171 -27.0928,-66.0273 -55.8679,-66.069 -15.9458,0.031 -31.1307,8.9337 -41.7775,24.4945 -7.797,-18.9432 -25.9845,-31.278 -46.1494,-31.2997 -5.9864,0.01 -11.9219,1.1132 -17.5264,3.2567 -10.6482,-24.1251 -33.2723,-39.5148 -58.1315,-39.5447 l 0,0 c -31.8862,0.043 -58.9441,25.135 -63.6313,59.0081 l -0.054,0 c -9.6088,-9.9679 -21.7237,-15.8906 -34.8126,-15.9096 -15.9458,0.031 -31.1306,8.9336 -41.7774,24.4944 -7.7971,-18.9432 -25.9846,-31.278 -46.1494,-31.2997 -5.9865,0.01 -11.9221,1.1133 -17.5265,3.2567 -10.6482,-24.125 -33.2723,-39.5147 -58.1314,-39.5447 l 0,0 c -31.8863,0.043 -58.9441,25.1349 -63.6313,59.0081 -0.2602,-0.015 -0.5207,-0.027 -0.781,-0.038 -24.6644,0.019 -77.5496,17.2244 -81.9949,40.9047 -0.6326,-0.034 -1.2654,-0.062 -1.8992,-0.079 -32.6762,0.026 -59.3853,21.5699 -60.2418,48.5904 -6.0611,5.1635 -12.8025,16.7206 -17.9974,28.5245 l 293.8337,0 185.7582,0 249.8237,0 z"
       style="color:#000000;clip-rule:nonzero;display:inline;overflow:visible;visibility:visible;opacity:1;isolation:auto;mix-blend-mode:normal;color-interpolation:sRGB;color-interpolation-filters:linearRGB;solid-color:#000000;solid-opacity:1;fill:#a7c1d0;fill-opacity:1;fill-rule:nonzero;stroke:none;stroke-width:2;stroke-linecap:butt;stroke-linejoin:miter;stroke-miterlimit:4;stroke-dasharray:none;stroke-dashoffset:0;stroke-opacity:1;color-rendering:auto;image-rendering:auto;shape-rendering:auto;text-rendering:auto;enable-background:accumulate"
       sodipodi:nodetypes="ccccccccccccccccccccccccccc" />
    <path
       id="path10544"
       d="m 0,1253.8372 12.259194,0 427.128736,0 212.99176,0 443.66101,0 147.6125,0 301.7694,0 427.1287,0 c 2.5355,-4.6492 3.5672,-9.6968 3.5775,-13.8334 -0.012,-11.311 -16.0048,-20.8182 -37.173,-22.0989 -2.9836,-19.8984 -27.0908,-35.0196 -55.866,-35.0417 -15.9458,0.016 -31.1329,4.738 -41.7795,12.9912 -7.7971,-10.0474 -25.9825,-16.5885 -46.1474,-16.6001 -5.9865,0.01 -11.922,0.5891 -17.5264,1.7259 -10.6483,-12.7954 -33.2743,-20.9578 -58.1334,-20.9736 l 0,0 c -31.8864,0.023 -58.9442,13.3325 -63.6313,31.2982 -0.2603,-0.01 -0.5207,-0.015 -0.781,-0.02 -24.6644,0.01 -45.797,9.1352 -50.2422,21.6951 -0.6325,-0.018 -1.2673,-0.031 -1.901,-0.04 -23.5883,0.01 -44.0605,5.9668 -53.9496,14.6706 -0.085,-21.2614 -16.0495,-39.11 -37.1691,-41.5192 -2.9837,-37.517 -27.0928,-66.0272 -55.868,-66.0689 -15.9457,0.031 -31.1305,8.9336 -41.7773,24.4944 -7.7972,-18.9431 -25.9847,-31.278 -46.1495,-31.2997 -5.9865,0.01 -11.9219,1.1132 -17.5265,3.2568 -10.6482,-24.1251 -33.2722,-39.5148 -58.1314,-39.5447 l 0,0 c -31.8861,0.043 -58.9442,25.1349 -63.6313,59.0081 -0.26,-0.015 -0.5207,-0.027 -0.781,-0.038 -11.5264,0.01 -22.2816,3.7741 -30.9232,10.1968 -10.3497,-16.002 -25.7772,-26.0472 -42.849,-26.0719 -15.9458,0.031 -31.1328,8.9335 -41.7795,24.4944 -7.797,-18.9432 -25.9845,-31.278 -46.1494,-31.2998 -5.9864,0.01 -11.9221,1.1135 -17.5263,3.2569 -10.6482,-24.125 -33.2724,-39.5148 -58.13152,-39.5447 l 0,0 c -31.88637,0.043 -58.94413,25.1348 -63.63131,59.0081 -0.26014,-0.015 -0.52069,-0.027 -0.78094,-0.038 -10.63659,0.01 -20.61256,3.2191 -28.88071,8.7609 -23.29016,0.9595 -44.11395,10.2269 -54.19754,24.3373 -5.60435,-1.3239 -11.54186,-2.0007 -17.52838,-2.0106 -20.16487,0.013 -38.35038,7.6319 -46.14734,19.3322 -10.64679,-9.6113 -25.83363,-15.1106 -41.77951,-15.1296 -28.77509,0.026 -52.8822,17.6359 -55.86606,40.8081 -10.56498,0.7444 -19.84031,3.8751 -26.48346,8.4622 -3.17259,-17.9937 -17.82333,-32.2337 -36.52373,-34.3668 -2.98376,-37.517 -27.09277,-66.0272 -55.86806,-66.0689 -15.94568,0.031 -31.13252,8.9336 -41.77931,24.4944 -7.79696,-18.9431 -25.98247,-31.278 -46.14734,-31.2997 -5.98652,0.01 -11.92193,1.1133 -17.52648,3.2568 -10.64819,-24.1251 -33.27223,-39.5148 -58.13148,-39.5447 l 0,0 c -31.88617,0.043 -58.94603,25.135 -63.63321,59.0081 -0.26015,-0.015 -0.52069,-0.027 -0.78094,-0.038 -24.66452,0.019 -45.79687,17.2244 -50.24221,40.9046 -0.63251,-0.034 -1.26543,-0.061 -1.89925,-0.078 -6.65065,0.01 -13.04734,0.9154 -19.03596,2.5681 -0.58121,-0.011 -1.15762,-0.036 -1.74223,-0.036 -5.98632,0.01 -11.92403,0.5891 -17.52838,1.7259 -10.64819,-12.7954 -33.27223,-20.9576 -58.13148,-20.9736 l 0,0 c -31.88617,0.023 -58.94413,13.3324 -63.63131,31.2982 -0.26015,-0.01 -0.52069,-0.015 -0.78094,-0.021 -24.664418,0.01 -45.796773,9.1353 -50.242205,21.6951 -0.632518,-0.018 -1.267437,-0.031 -1.901156,-0.04 -23.586614,0.01 -44.059545,5.966 -53.949396,14.6688 C 15.781653,1214.4807 9.6442048,1202.6746 0,1194.9807 l 0,58.8665 z"
       style="color:#000000;clip-rule:nonzero;display:inline;overflow:visible;visibility:visible;opacity:1;isolation:auto;mix-blend-mode:normal;color-interpolation:sRGB;color-interpolation-filters:linearRGB;solid-color:#000000;solid-opacity:1;fill:#a7c1d0;fill-opacity:1;fill-rule:nonzero;stroke:none;stroke-width:2;stroke-linecap:butt;stroke-linejoin:miter;stroke-miterlimit:4;stroke-dasharray:none;stroke-dashoffset:0;stroke-opacity:1;color-rendering:auto;image-rendering:auto;shape-rendering:auto;text-rendering:auto;enable-background:accumulate"
       inkscape:connector-curvature="0" />
  </g>
</svg>
