<?xml version="1.0" encoding="UTF-8" standalone="no"?>
<!-- Created with Inkscape (http://www.inkscape.org/) -->

<svg
   xmlns:dc="http://purl.org/dc/elements/1.1/"
   xmlns:cc="http://creativecommons.org/ns#"
   xmlns:rdf="http://www.w3.org/1999/02/22-rdf-syntax-ns#"
   xmlns:svg="http://www.w3.org/2000/svg"
   xmlns="http://www.w3.org/2000/svg"
   xmlns:sodipodi="http://sodipodi.sourceforge.net/DTD/sodipodi-0.dtd"
   xmlns:inkscape="http://www.inkscape.org/namespaces/inkscape"
   width="416.26898"
   height="223.0424"
   viewBox="0 0 416.26899 223.04241"
   id="svg6531"
   version="1.1"
   inkscape:version="0.91 r13725"
   sodipodi:docname="gallery-controls-splat.svg">
  <defs
     id="defs6533" />
  <sodipodi:namedview
     id="base"
     pagecolor="#ffffff"
     bordercolor="#666666"
     borderopacity="1.0"
     inkscape:pageopacity="0.0"
     inkscape:pageshadow="2"
     inkscape:zoom="0.35"
     inkscape:cx="-134.00837"
     inkscape:cy="362.9498"
     inkscape:document-units="px"
     inkscape:current-layer="layer1"
     showgrid="false"
     units="px"
     fit-margin-top="0"
     fit-margin-left="0"
     fit-margin-right="0"
     fit-margin-bottom="0" />
  <metadata
     id="metadata6536">
    <rdf:RDF>
      <cc:Work
         rdf:about="">
        <dc:format>image/svg+xml</dc:format>
        <dc:type
           rdf:resource="http://purl.org/dc/dcmitype/StillImage" />
        <dc:title></dc:title>
      </cc:Work>
    </rdf:RDF>
  </metadata>
  <g
     inkscape:label="Layer 1"
     inkscape:groupmode="layer"
     id="layer1">
    <path
       style="color:#000000;clip-rule:nonzero;display:inline;overflow:visible;visibility:visible;opacity:1;isolation:auto;mix-blend-mode:normal;color-interpolation:sRGB;color-interpolation-filters:linearRGB;solid-color:#000000;solid-opacity:1;fill:#990000;fill-opacity:1;fill-rule:nonzero;stroke:none;stroke-width:0.99999982;stroke-linecap:round;stroke-linejoin:round;stroke-miterlimit:4;stroke-dasharray:none;stroke-dashoffset:0;stroke-opacity:1;color-rendering:auto;image-rendering:auto;shape-rendering:auto;text-rendering:auto;enable-background:accumulate"
       d="m 231.91637,40.803019 c -58.54039,41.69906 -11.15448,-60.3614 -58.07011,-37.3906896 -25.07028,20.2888896 18.05948,51.5054296 -5.65016,57.4683696 -28.97835,6.8235 -41.44516,-39.16538 -63.10429,-25.28471 -10.011737,10.33581 9.81666,7.03378 -16.617907,41.93266 -15.7686,20.81768 -47.623394,-7.82065 -56.008214,19.64689 -4.66357,15.277201 15.48973,27.697001 9.68691,48.632611 -8.76871,31.63604 -34.7685101,-0.20929 -41.73572006,23.59822 -4.27248004,14.59942 25.82301006,9.24072 20.68542006,50.92362 -0.1156,0.9379 12.88699,3.2728 -0.43185,2.5888 l 391.886071,0 c 1.64913,-3.3027 4.52652,-7.137 3.4944,-11.4436 -8.56902,-35.75498 -31.53321,2.8764 -34.69251,-40.11535 -3.15927,-42.9918 14.99031,-3.9318 20.97308,-33.51135 -1.04152,-39.882471 -38.69061,5.69066 -46.53381,-17.78603 -9.88902,-29.600371 34.26358,-29.035061 23.80678,-49.459241 -11.48071,-13.97279 -32.73999,28.07556 -60.49082,13.37705 -41.28651,-21.86782 41.54685,-51.5053 7.94673,-71.39561 -33.6001,-19.8902996 -15.61993,59.64608 -51.26174,45.06799 -16.97133,-2.4054 -5.2908,-36.31654 -43.88226,-16.84963 z"
       id="path5838-0"
       inkscape:connector-curvature="0"
       sodipodi:nodetypes="ccccsssssccsscscsscc" />
  </g>
</svg>
