<?xml version="1.0" encoding="UTF-8" standalone="no"?>
<!-- Created with Inkscape (http://www.inkscape.org/) -->

<svg
   xmlns:dc="http://purl.org/dc/elements/1.1/"
   xmlns:cc="http://creativecommons.org/ns#"
   xmlns:rdf="http://www.w3.org/1999/02/22-rdf-syntax-ns#"
   xmlns:svg="http://www.w3.org/2000/svg"
   xmlns="http://www.w3.org/2000/svg"
   xmlns:sodipodi="http://sodipodi.sourceforge.net/DTD/sodipodi-0.dtd"
   xmlns:inkscape="http://www.inkscape.org/namespaces/inkscape"
   width="21"
   height="21"
   viewBox="0 0 21 21"
   id="svg5612"
   version="1.1"
   inkscape:version="0.91 r13725"
   sodipodi:docname="icon_gallery.svg">
  <defs
     id="defs5614" />
  <sodipodi:namedview
     id="base"
     pagecolor="#e9e9e9"
     bordercolor="#a9a9a9"
     borderopacity="1"
     inkscape:pageopacity="0"
     inkscape:pageshadow="2"
     inkscape:zoom="8.133125"
     inkscape:cx="21.000538"
     inkscape:cy="33.566433"
     inkscape:document-units="px"
     inkscape:current-layer="layer1"
     showgrid="false"
     units="px"
     fit-margin-top="0"
     fit-margin-left="0"
     fit-margin-right="0"
     fit-margin-bottom="0" />
  <metadata
     id="metadata5617">
    <rdf:RDF>
      <cc:Work
         rdf:about="">
        <dc:format>image/svg+xml</dc:format>
        <dc:type
           rdf:resource="http://purl.org/dc/dcmitype/StillImage" />
        <dc:title></dc:title>
      </cc:Work>
    </rdf:RDF>
  </metadata>
  <g
     inkscape:label="Layer 1"
     inkscape:groupmode="layer"
     id="layer1"
     transform="translate(0,-44)">
    <path
       inkscape:connector-curvature="0"
       id="path6845"
       d="m 1.3674275,62.992418 c -0.1239031,-0.08328 -0.1314281,-0.122747 -0.123641,-0.647684 0.00695,-0.464839 0.00757,-0.470308 0.068163,-0.592468 0.094356,-0.190135 0.2511099,-0.345381 0.4439055,-0.439623 l 0.1649627,-0.08064 8.5678713,0 8.56787,0 0.143665,0.06733 c 0.247686,0.116076 0.408507,0.292033 0.498869,0.545831 0.04421,0.124239 0.04916,0.178417 0.05024,0.555955 0.0023,0.468536 -0.01,0.514705 -0.147183,0.598568 l -0.07358,0.04495 -9.041694,0 -9.0417174,0 -0.077734,-0.05235 z M 2.454431,60.224831 c 0,-0.483325 0.018171,-0.568069 0.1495598,-0.698034 0.1352502,-0.133785 0.2118614,-0.150363 0.6950381,-0.150363 l 0.3916238,0 0,-3.657505 0,-3.65751 1.2362158,0 1.236205,0 0,3.65751 0,3.657505 0.6181072,0 0.6181084,0 0,-3.657505 0,-3.65751 1.2362156,0 1.2362156,0 0,3.65751 0,3.657505 0.6181087,0 0.618102,0 0,-3.657505 0,-3.65751 1.236199,0 1.236221,0 0,3.65751 0,3.657505 0.618108,0 0.618107,0 0,-3.657505 0,-3.65751 1.236216,0 1.23621,0 0,3.65751 0,3.657505 0.391612,0 c 0.438273,0 0.543696,0.01778 0.658269,0.111228 0.156657,0.127709 0.172909,0.188103 0.182371,0.677129 l 0.0084,0.434393 -8.037631,0 -8.0376073,0 0,-0.374353 z m 0.2669745,-8.83984 C 2.5185956,51.285019 2.454431,51.127256 2.454431,50.728495 l 0,-0.211594 -0.5117385,0 c -0.4834501,0 -0.5152532,-0.0023 -0.57506,-0.0446 -0.1176939,-0.08291 -0.1277253,-0.128443 -0.1277253,-0.579868 l 0,-0.412068 0.081334,-0.0744 c 0.070944,-0.06487 0.6571227,-0.290399 4.5924253,-1.766822 3.8375751,-1.439771 4.5240335,-1.691132 4.5978475,-1.683619 0.08117,0.0084 8.942525,3.318711 9.09008,3.395908 0.118919,0.0622 0.14437,0.133855 0.155478,0.4378 0.0059,0.149764 0.0028,0.338549 -0.0062,0.419542 -0.01458,0.134509 -0.02325,0.154173 -0.101295,0.227667 l -0.0854,0.08045 -0.519611,0 -0.519588,0 0,0.231302 c 0,0.383126 -0.06287,0.531386 -0.269936,0.636616 l -0.107278,0.05451 -7.658187,0 -7.6581787,0 -0.1102373,-0.05441 z"
       style="display:inline;opacity:1;fill:#000000" />
  </g>
</svg>
