<?xml version="1.0" encoding="UTF-8" standalone="no"?>
<!-- Created with Inkscape (http://www.inkscape.org/) -->

<svg
   xmlns:dc="http://purl.org/dc/elements/1.1/"
   xmlns:cc="http://creativecommons.org/ns#"
   xmlns:rdf="http://www.w3.org/1999/02/22-rdf-syntax-ns#"
   xmlns:svg="http://www.w3.org/2000/svg"
   xmlns="http://www.w3.org/2000/svg"
   xmlns:sodipodi="http://sodipodi.sourceforge.net/DTD/sodipodi-0.dtd"
   xmlns:inkscape="http://www.inkscape.org/namespaces/inkscape"
   width="20.996632"
   height="21.000057"
   viewBox="0 0 20.996631 21.000057"
   id="svg6684"
   version="1.1"
   inkscape:version="0.91 r13725"
   sodipodi:docname="icon_addArt.svg">
  <defs
     id="defs6686" />
  <sodipodi:namedview
     id="base"
     pagecolor="#ffffff"
     bordercolor="#666666"
     borderopacity="1.0"
     inkscape:pageopacity="0.0"
     inkscape:pageshadow="2"
     inkscape:zoom="13.552145"
     inkscape:cx="11.856625"
     inkscape:cy="10.776517"
     inkscape:document-units="px"
     inkscape:current-layer="layer1"
     showgrid="false"
     units="px"
     fit-margin-top="0"
     fit-margin-left="0"
     fit-margin-right="0"
     fit-margin-bottom="0" />
  <metadata
     id="metadata6689">
    <rdf:RDF>
      <cc:Work
         rdf:about="">
        <dc:format>image/svg+xml</dc:format>
        <dc:type
           rdf:resource="http://purl.org/dc/dcmitype/StillImage" />
        <dc:title></dc:title>
      </cc:Work>
    </rdf:RDF>
  </metadata>
  <g
     inkscape:label="Layer 1"
     inkscape:groupmode="layer"
     id="layer1">
    <path
       id="path6693-1-4-9"
       d="m 18.623218,17.9183 -16.2499609,0 c -1.0355067,0 -1.8749411,-0.830306 -1.8749411,-1.854573 l 0,-11.1274015 c 0,-1.0242623 0.8394344,-1.8545687 1.8749411,-1.8545687 l 16.2499609,0 c 1.035664,0 1.875098,0.8303064 1.875098,1.8545687 l 0,11.1274015 c 0,1.024267 -0.839434,1.854573 -1.875098,1.854573 z M 4.8733357,5.2454206 c -1.2081697,0 -2.1874313,0.9687148 -2.1874313,2.1636685 0,1.1949536 0.9792616,2.1636654 2.1874313,2.1636654 1.2081692,0 2.1874312,-0.9687118 2.1874312,-2.1636654 0,-1.1949537 -0.979262,-2.1636685 -2.1874312,-2.1636685 z m -1.8750982,10.2001154 15.0000005,0 0,-4.327305 -3.418539,-3.3813037 c -0.183033,-0.1810495 -0.479812,-0.1810495 -0.662844,0 L 8.6233749,12.972776 6.4547969,10.827854 c -0.183032,-0.181053 -0.479812,-0.181053 -0.663001,0 l -2.7935584,2.763114 0,1.854568 z"
       inkscape:connector-curvature="0" />
  </g>
</svg>
