<?xml version="1.0" encoding="UTF-8" standalone="no"?>
<!-- Created with Inkscape (http://www.inkscape.org/) -->

<svg
   xmlns:dc="http://purl.org/dc/elements/1.1/"
   xmlns:cc="http://creativecommons.org/ns#"
   xmlns:rdf="http://www.w3.org/1999/02/22-rdf-syntax-ns#"
   xmlns:svg="http://www.w3.org/2000/svg"
   xmlns="http://www.w3.org/2000/svg"
   xmlns:sodipodi="http://sodipodi.sourceforge.net/DTD/sodipodi-0.dtd"
   xmlns:inkscape="http://www.inkscape.org/namespaces/inkscape"
   width="20.996632"
   height="21.000057"
   viewBox="0 0 20.996631 21.000057"
   id="svg6684"
   version="1.1"
   inkscape:version="0.91 r13725"
   sodipodi:docname="icon_editArt.svg">
  <defs
     id="defs6686" />
  <sodipodi:namedview
     id="base"
     pagecolor="#ffffff"
     bordercolor="#666666"
     borderopacity="1.0"
     inkscape:pageopacity="0.0"
     inkscape:pageshadow="2"
     inkscape:zoom="9.4790269"
     inkscape:cx="10.623423"
     inkscape:cy="11.983479"
     inkscape:document-units="px"
     inkscape:current-layer="layer1"
     showgrid="false"
     units="px"
     fit-margin-top="0"
     fit-margin-left="0"
     fit-margin-right="0"
     fit-margin-bottom="0" />
  <metadata
     id="metadata6689">
    <rdf:RDF>
      <cc:Work
         rdf:about="">
        <dc:format>image/svg+xml</dc:format>
        <dc:type
           rdf:resource="http://purl.org/dc/dcmitype/StillImage" />
        <dc:title></dc:title>
      </cc:Work>
    </rdf:RDF>
  </metadata>
  <g
     inkscape:label="Layer 1"
     inkscape:groupmode="layer"
     id="layer1">
    <path
       inkscape:connector-curvature="0"
       style="display:inline;opacity:1"
       d="m 12.263165,4.4638774 4.336332,4.2891117 c 0.183643,0.1815996 0.183643,0.4752602 0,0.6568914 L 5.9968237,19.896905 1.5395252,20.383777 C 0.94171913,20.449439 0.43784153,19.950995 0.50420593,19.359796 L 1.0003585,14.947052 11.598995,4.4638774 c 0.183643,-0.1816049 0.480527,-0.1816049 0.66417,0 z"
       id="path7309" />
    <path
       inkscape:connector-curvature="0"
       style="display:inline;opacity:1"
       d="m 19.947387,3.4746954 -2.34786,-2.3223088 c -0.730534,-0.72257981 -1.91807,-0.72257981 -2.652643,0 l -1.800968,1.7813286 c -0.183467,0.1816136 -0.183467,0.4752935 0,0.6568931 l 4.336333,4.2890907 c 0.183643,0.1816329 0.480702,0.1816329 0.66417,0 l 1.800968,-1.781311 c 0.734572,-0.7264423 0.734572,-1.9011391 0,-2.6236926 z"
       id="path6704-2-7-1" />
  </g>
</svg>
