<?xml version="1.0" encoding="UTF-8" standalone="no"?>
<!-- Created with Inkscape (http://www.inkscape.org/) -->

<svg
   xmlns:dc="http://purl.org/dc/elements/1.1/"
   xmlns:cc="http://creativecommons.org/ns#"
   xmlns:rdf="http://www.w3.org/1999/02/22-rdf-syntax-ns#"
   xmlns:svg="http://www.w3.org/2000/svg"
   xmlns="http://www.w3.org/2000/svg"
   xmlns:sodipodi="http://sodipodi.sourceforge.net/DTD/sodipodi-0.dtd"
   xmlns:inkscape="http://www.inkscape.org/namespaces/inkscape"
   width="52.92355"
   height="30.123003"
   viewBox="0 0 52.92355 30.123003"
   id="svg8088"
   version="1.1"
   inkscape:version="0.91 r13725"
   sodipodi:docname="icon-settings.svg">
  <defs
     id="defs8090" />
  <sodipodi:namedview
     id="base"
     pagecolor="#ebebeb"
     bordercolor="#666666"
     borderopacity="1.0"
     inkscape:pageopacity="1"
     inkscape:pageshadow="2"
     inkscape:zoom="5.5253345"
     inkscape:cx="24.870903"
     inkscape:cy="-1.7512342"
     inkscape:document-units="px"
     inkscape:current-layer="layer1"
     showgrid="false"
     units="px"
     fit-margin-top="0"
     fit-margin-left="0"
     fit-margin-right="0"
     fit-margin-bottom="0" />
  <metadata
     id="metadata8093">
    <rdf:RDF>
      <cc:Work
         rdf:about="">
        <dc:format>image/svg+xml</dc:format>
        <dc:type
           rdf:resource="http://purl.org/dc/dcmitype/StillImage" />
        <dc:title></dc:title>
      </cc:Work>
    </rdf:RDF>
  </metadata>
  <g
     inkscape:label="Layer 1"
     inkscape:groupmode="layer"
     id="layer1">
    <path
       d="M 14.632033,6.6842163e-5 C 13.766251,0.00431684 12.908035,0.07661584 12.072019,0.21778034 11.297185,0.35222914 10.739843,1.0245105 10.739843,1.7976522 l 0,2.26559 c -1.3797836,0.477329 -2.6440626,1.210208 -3.7315606,2.13123 l -1.977883,-1.1295 c -0.686511,-0.38991 -1.556432,-0.241978 -2.059401,0.356359 -1.1011146,1.304258 -2.26349767,2.796664 -2.86840537,4.423608 -0.2786688,0.7327848 0.027168,1.5597148 0.7136555,1.9496668 L 3.0796994,12.93078 c -0.265057,1.411835 -0.265057,2.857258 0,4.262376 l -2.26345087,1.129501 c -0.6864685,0.396626 -0.9855632,1.223555 -0.7136555,1.956341 0.6049077,1.620223 1.76729077,3.112629 2.86840537,4.416887 0.502969,0.598341 1.379699,0.746312 2.059401,0.356364 l 1.977883,-1.122785 c 1.087498,0.921022 2.351777,1.647181 3.7315606,2.131231 l 0,2.258869 c 0,0.786578 0.577768,1.452144 1.35941,1.586592 1.733205,0.295808 3.486836,0.282372 5.15891,0 0.774834,-0.134448 1.338937,-0.806735 1.338937,-1.586592 l 0,-2.258869 c 1.379789,-0.477329 2.644064,-1.210209 3.731561,-2.131231 l 1.977931,1.129501 c 0.686468,0.389905 1.556518,0.241977 2.059534,-0.356364 1.101067,-1.304254 2.290552,-2.796659 2.895459,-4.423603 0.271908,-0.739506 -0.02717,-1.566436 -0.713655,-1.956341 l -2.290552,-1.129501 c 0.265104,-1.411834 0.265104,-2.857257 0,-4.269049 l 2.290552,-1.129501 c 0.686468,-0.396668 0.951567,-1.223555 0.67966,-1.9563408 -0.604908,-1.626944 -1.760397,-3.119349 -2.861464,-4.423608 -0.503016,-0.598341 -1.379832,-0.746311 -2.059534,-0.356359 l -1.977931,1.129501 C 21.241164,5.2667302 19.976889,4.5405712 18.5971,4.0565262 l 0,-2.258874 c 0,-0.7865733 -0.577721,-1.45209636 -1.359362,-1.58654516 C 16.371114,0.06653974 15.497814,-0.00245216 14.632033,6.6842163e-5 Z M 14.743402,10.200149 c 3.821263,0.05525 6.60148,4.448132 3.520789,8.41151 -5.233706,3.979958 -11.2082956,-1.929425 -7.184497,-7.10606 1.226635,-0.932823 2.493941,-1.322379 3.663708,-1.30545 z"
       id="path6620"
       inkscape:connector-curvature="0" />
    <path
       id="path6660"
       d="m 38.906711,4.8384392 c 0,-2.088313 1.711499,-3.781144 3.822767,-3.781144 2.11131,0 3.822809,1.692831 3.822809,3.781144 0,2.088233 -1.711499,3.781101 -3.822809,3.781101 -2.111268,0 -3.822767,-1.692868 -3.822767,-3.781101 z m 13.519212,0.07209 c -0.663473,-0.656274 -1.739271,-0.656274 -2.402749,0 l -4.599413,4.549271 -5.388596,0 -4.599383,-4.549271 c -0.66344,-0.656274 -1.739229,-0.656274 -2.402707,0 -0.663507,0.656307 -0.663507,1.720308 0,2.376615 l 5.024141,4.9693288 0,14.008359 c 0,0.928116 0.760693,1.680505 1.699024,1.680505 l 0.849495,0 c 0.938331,0 1.699014,-0.752389 1.699014,-1.680505 l 0,-5.881782 0.849495,0 0,5.881782 c 0,0.928116 0.760688,1.680505 1.699019,1.680505 l 0.849495,0 c 0.938331,0 1.699024,-0.752389 1.699024,-1.680505 l 0,-14.008359 5.024141,-4.9693998 c 0.663502,-0.656269 0.663502,-1.720237 0,-2.376544 z"
       inkscape:connector-curvature="0" />
  </g>
</svg>
