<?xml version="1.0" encoding="UTF-8" standalone="no"?>
<!-- Created with Inkscape (http://www.inkscape.org/) -->

<svg
   xmlns:dc="http://purl.org/dc/elements/1.1/"
   xmlns:cc="http://creativecommons.org/ns#"
   xmlns:rdf="http://www.w3.org/1999/02/22-rdf-syntax-ns#"
   xmlns:svg="http://www.w3.org/2000/svg"
   xmlns="http://www.w3.org/2000/svg"
   xmlns:sodipodi="http://sodipodi.sourceforge.net/DTD/sodipodi-0.dtd"
   xmlns:inkscape="http://www.inkscape.org/namespaces/inkscape"
   width="20.996632"
   height="21.000057"
   viewBox="0 0 20.996631 21.000057"
   id="svg6684"
   version="1.1"
   inkscape:version="0.91 r13725"
   sodipodi:docname="icon_settings.svg">
  <defs
     id="defs6686" />
  <sodipodi:namedview
     id="base"
     pagecolor="#ffffff"
     bordercolor="#666666"
     borderopacity="1.0"
     inkscape:pageopacity="0.0"
     inkscape:pageshadow="2"
     inkscape:zoom="13.552145"
     inkscape:cx="11.856625"
     inkscape:cy="10.776517"
     inkscape:document-units="px"
     inkscape:current-layer="layer1"
     showgrid="false"
     units="px"
     fit-margin-top="0"
     fit-margin-left="0"
     fit-margin-right="0"
     fit-margin-bottom="0" />
  <metadata
     id="metadata6689">
    <rdf:RDF>
      <cc:Work
         rdf:about="">
        <dc:format>image/svg+xml</dc:format>
        <dc:type
           rdf:resource="http://purl.org/dc/dcmitype/StillImage" />
        <dc:title></dc:title>
      </cc:Work>
    </rdf:RDF>
  </metadata>
  <g
     inkscape:label="Layer 1"
     inkscape:groupmode="layer"
     id="layer1">
    <path
       style="fill:#ffff00;fill-opacity:1;stroke:#000000;stroke-width:1;stroke-miterlimit:4;stroke-dasharray:none"
       d="m 10.461682,0.50045173 0.002,0.002 c -0.5896605,0.004 -1.1738808,0.0513 -1.7432611,0.14501 -0.5278702,0.0893 -0.9072104,0.53529996 -0.9072104,1.04867996 l 0,1.50525 c -0.9400704,0.31687 -1.8018408,0.80347 -2.5428612,1.4149 l -1.3473906,-0.75145 c -0.4676002,-0.25885 -1.0583805,-0.15944 -1.4011007,0.2378 -0.7498403,0.86568 -1.54156063,1.85667 -1.95357082,2.93678 -0.18986009,0.48649 0.0188,1.03471 0.48656022,1.29361 l 1.5404407,0.75383 c -0.1802801,0.9373803 -0.1802801,1.8970303 0,2.8297803 l -1.5404407,0.75143 c -0.46760021,0.26328 -0.67173031,0.81241 -0.48656022,1.29837 0.41201019,1.07546 1.20373052,2.06634 1.95357082,2.93202 0.3427202,0.39721 0.9385705,0.49427 1.4011007,0.23543 l 1.3473906,-0.74431 c 0.7402704,0.61143 1.6027908,1.09357 2.5428612,1.41489 l 0,1.49812 c 0,0.52219 0.3945502,0.96381 0.9267404,1.05345 1.1804506,0.19636 2.3747911,0.18747 3.5137411,0 0.527691,-0.0893 0.911911,-0.53544 0.911911,-1.05345 l 0,-1.49812 c 0.94007,-0.31686 1.799401,-0.80346 2.540601,-1.41489 l 1.349651,0.74906 c 0.46759,0.25884 1.05857,0.16181 1.4011,-0.23541 0.750031,-0.86569 1.561841,-1.85667 1.973291,-2.93679 0.18591,-0.49094 -0.0188,-1.03947 -0.48656,-1.29837 l -1.560161,-0.75143 c 0.18028,-0.93739 0.18028,-1.89717 0,-2.8345503 l 1.560161,-0.74906 c 0.46759,-0.26335 0.64731,-0.81241 0.46196,-1.29835 -0.41201,-1.08013 -1.19866,-2.07045 -1.948691,-2.93679 -0.34253,-0.3972 -0.93783,-0.49665 -1.4011,-0.2378 l -1.349651,0.75143 c -0.74252,-0.6174 -1.607851,-1.09673 -2.547931,-1.42201 l 0,-1.49814 c 0,-0.52219 -0.39454,-0.96380996 -0.926741,-1.05342996 -0.58572,-0.0922 -1.18439,-0.13989 -1.77029,-0.13788001 z m 0.0357,6.70110997 a 3.3872995,3.2991234 0 0 1 0.33727,0.0164 3.3872995,3.2991234 0 0 1 0.33501,0.0499 3.3872995,3.2991234 0 0 1 0.3277,0.0809 3.3872995,3.2991234 0 0 1 0.31792,0.11414 3.3872995,3.2991234 0 0 1 0.30554,0.14264 3.3872995,3.2991234 0 0 1 0.28863,0.17368 3.3872995,3.2991234 0 0 1 0.268921,0.19974 3.3872995,3.2991234 0 0 1 0.24938,0.22354 3.3872995,3.2991234 0 0 1 0.22253,0.2473 3.3872995,3.2991234 0 0 1 0.19793,0.2687 3.3872995,3.2991234 0 0 1 0.16901,0.28536 3.3872995,3.2991234 0 0 1 0.13709,0.302 3.3872995,3.2991234 0 0 1 0.10704,0.3139 3.3872995,3.2991234 0 0 1 0.0732,0.32103 3.3872995,3.2991234 0 0 1 0.0413,0.3281503 3.3872995,3.2991234 0 0 1 0,0.23304 3.3872995,3.2991234 0 0 1 -0.0188,0.32817 3.3872995,3.2991234 0 0 1 -0.0488,0.32577 3.3872995,3.2991234 0 0 1 -0.0864,0.32103 3.3872995,3.2991234 0 0 1 -0.11455,0.30914 3.3872995,3.2991234 0 0 1 -0.14647,0.29725 3.3872995,3.2991234 0 0 1 -0.1784,0.28059 3.3872995,3.2991234 0 0 1 -0.20526,0.26158 3.3872995,3.2991234 0 0 1 -0.22985,0.24255 3.3872995,3.2991234 0 0 1 -0.25427,0.2164 3.3872995,3.2991234 0 0 1 -0.276431,0.1926 3.3872995,3.2991234 0 0 1 -0.29332,0.16401 3.3872995,3.2991234 0 0 1 -0.30817,0.13551 3.3872995,3.2991234 0 0 1 -0.32018,0.10464 3.3872995,3.2991234 0 0 1 -0.33257,0.0714 3.3872995,3.2991234 0 0 1 -0.33502,0.0404 3.3872995,3.2991234 0 0 1 -0.23962,0.007 3.3872995,3.2991234 0 0 1 -0.33746,-0.0164 3.3872995,3.2991234 0 0 1 -0.3350206,-0.0499 3.3872995,3.2991234 0 0 1 -0.3276901,-0.0809 3.3872995,3.2991234 0 0 1 -0.3201802,-0.11177 3.3872995,3.2991234 0 0 1 -0.3032801,-0.14501 3.3872995,3.2991234 0 0 1 -0.2884501,-0.17112 3.3872995,3.2991234 0 0 1 -0.2715402,-0.19975 3.3872995,3.2991234 0 0 1 -0.2469401,-0.22591 3.3872995,3.2991234 0 0 1 -0.2223501,-0.2473 3.3872995,3.2991234 0 0 1 -0.1981101,-0.2687 3.3872995,3.2991234 0 0 1 -0.16901,-0.28536 3.3872995,3.2991234 0 0 1 -0.1370901,-0.302 3.3872995,3.2991234 0 0 1 -0.1070401,-0.31153 3.3872995,3.2991234 0 0 1 -0.0732,-0.32101 3.3872995,3.2991234 0 0 1 -0.0413,-0.32817 3.3872995,3.2991234 0 0 1 0,-0.23303 3.3872995,3.2991234 0 0 1 0.0188,-0.33055 3.3872995,3.2991234 0 0 1 0.0488,-0.3257703 3.3872995,3.2991234 0 0 1 0.0826,-0.31866 3.3872995,3.2991234 0 0 1 0.11643,-0.31151 3.3872995,3.2991234 0 0 1 0.1464701,-0.29487 3.3872995,3.2991234 0 0 1 0.1784001,-0.28297 3.3872995,3.2991234 0 0 1 0.2030101,-0.26158 3.3872995,3.2991234 0 0 1 0.2321001,-0.24255 3.3872995,3.2991234 0 0 1 0.2544601,-0.2164 3.3872995,3.2991234 0 0 1 0.2738001,-0.1926 3.3872995,3.2991234 0 0 1 0.2957601,-0.16401 3.3872995,3.2991234 0 0 1 0.3081702,-0.13313 3.3872995,3.2991234 0 0 1 0.3203701,-0.10465 3.3872995,3.2991234 0 0 1 0.3301302,-0.0714 3.3872995,3.2991234 0 0 1 0.3372706,-0.0404 3.3872995,3.2991234 0 0 1 0.23962,-0.009 z"
       id="path6609-5-3-8"
       inkscape:connector-curvature="0" />
  </g>
</svg>
