<?xml version="1.0" encoding="UTF-8" standalone="no"?>
<!-- Created with Inkscape (http://www.inkscape.org/) -->

<svg
   xmlns:dc="http://purl.org/dc/elements/1.1/"
   xmlns:cc="http://creativecommons.org/ns#"
   xmlns:rdf="http://www.w3.org/1999/02/22-rdf-syntax-ns#"
   xmlns:svg="http://www.w3.org/2000/svg"
   xmlns="http://www.w3.org/2000/svg"
   xmlns:sodipodi="http://sodipodi.sourceforge.net/DTD/sodipodi-0.dtd"
   xmlns:inkscape="http://www.inkscape.org/namespaces/inkscape"
   width="20.996632"
   height="21.000057"
   viewBox="0 0 20.996631 21.000057"
   id="svg6684"
   version="1.1"
   inkscape:version="0.91 r13725"
   sodipodi:docname="icon_signOut.svg">
  <defs
     id="defs6686" />
  <sodipodi:namedview
     id="base"
     pagecolor="#ffffff"
     bordercolor="#666666"
     borderopacity="1.0"
     inkscape:pageopacity="0.0"
     inkscape:pageshadow="2"
     inkscape:zoom="9.4790269"
     inkscape:cx="12.871144"
     inkscape:cy="11.983479"
     inkscape:document-units="px"
     inkscape:current-layer="layer1"
     showgrid="false"
     units="px"
     fit-margin-top="0"
     fit-margin-left="0"
     fit-margin-right="0"
     fit-margin-bottom="0" />
  <metadata
     id="metadata6689">
    <rdf:RDF>
      <cc:Work
         rdf:about="">
        <dc:format>image/svg+xml</dc:format>
        <dc:type
           rdf:resource="http://purl.org/dc/dcmitype/StillImage" />
        <dc:title></dc:title>
      </cc:Work>
    </rdf:RDF>
  </metadata>
  <g
     inkscape:label="Layer 1"
     inkscape:groupmode="layer"
     id="layer1">
    <path
       style="fill:#000000;stroke:none;stroke-width:2;stroke-miterlimit:4;stroke-dasharray:none"
       d="m 20.238506,11.125454 -6.258255,6.184509 C 13.421488,17.862157 12.45297,17.47562 12.45297,16.68415 l 0,-3.534019 -5.0661941,0 c -0.49542,0 -0.894067,-0.393895 -0.894067,-0.883482 l 0,-3.5340188 c 0,-0.4896083 0.398647,-0.8835038 0.894067,-0.8835038 l 5.0661941,0 0,-3.5339929 c 0,-0.7877904 0.964799,-1.1780063 1.527281,-0.6258387 l 6.258255,6.1845344 c 0.346413,0.3460258 0.346413,0.9055738 0,1.2516248 z"
       id="path4524-7-5-5"
       inkscape:connector-curvature="0" />
    <path
       style="fill:#000000;stroke:none;stroke-width:2;stroke-miterlimit:4;stroke-dasharray:none"
       d="m 9.1263949,18.492493 0,-1.776084 c 0,-0.293073 -0.242649,-0.532848 -0.539221,-0.532848 l -3.774806,0 c -0.7954163,0 -1.438028,-0.634958 -1.438028,-1.420892 l 0,-8.5253086 c 0,-0.7859325 0.6426117,-1.42089 1.438028,-1.42089 l 3.774806,0 c 0.296572,0 0.539221,-0.2397758 0.539221,-0.532818 l 0,-1.7761138 c 0,-0.2930468 -0.242649,-0.5328219 -0.539221,-0.5328219 l -3.774806,0 c -2.3816917,0 -4.3140519,1.9093118 -4.3140519,4.2626437 l 0,8.5253086 c 0,2.353361 1.9323602,4.262672 4.3140519,4.262672 l 3.774806,0 c 0.296572,0 0.539221,-0.239771 0.539221,-0.532848 z"
       id="path6737-3-5-8-4"
       inkscape:connector-curvature="0" />
  </g>
</svg>
