<?xml version="1.0" encoding="UTF-8" standalone="no"?>
<!-- Created with Inkscape (http://www.inkscape.org/) -->

<svg
   xmlns:dc="http://purl.org/dc/elements/1.1/"
   xmlns:cc="http://creativecommons.org/ns#"
   xmlns:rdf="http://www.w3.org/1999/02/22-rdf-syntax-ns#"
   xmlns:svg="http://www.w3.org/2000/svg"
   xmlns="http://www.w3.org/2000/svg"
   xmlns:sodipodi="http://sodipodi.sourceforge.net/DTD/sodipodi-0.dtd"
   xmlns:inkscape="http://www.inkscape.org/namespaces/inkscape"
   width="20.996632"
   height="21.000057"
   viewBox="0 0 20.996631 21.000057"
   id="svg6684"
   version="1.1"
   inkscape:version="0.91 r13725"
   sodipodi:docname="icon_addArt2.svg">
  <defs
     id="defs6686" />
  <sodipodi:namedview
     id="base"
     pagecolor="#ffffff"
     bordercolor="#666666"
     borderopacity="1.0"
     inkscape:pageopacity="0.0"
     inkscape:pageshadow="2"
     inkscape:zoom="13.552145"
     inkscape:cx="-7.441663"
     inkscape:cy="9.6696811"
     inkscape:document-units="px"
     inkscape:current-layer="layer1"
     showgrid="false"
     units="px"
     fit-margin-top="0"
     fit-margin-left="0"
     fit-margin-right="0"
     fit-margin-bottom="0" />
  <metadata
     id="metadata6689">
    <rdf:RDF>
      <cc:Work
         rdf:about="">
        <dc:format>image/svg+xml</dc:format>
        <dc:type
           rdf:resource="http://purl.org/dc/dcmitype/StillImage" />
        <dc:title></dc:title>
      </cc:Work>
    </rdf:RDF>
  </metadata>
  <g
     inkscape:label="Layer 1"
     inkscape:groupmode="layer"
     id="layer1">
    <path
       style="fill:#00ffff;stroke:#000000;stroke-width:0.99999988"
       d="m 16.8903,20.512127 -14.6963056,0 c -0.9365021,0 -1.69567838,-0.744321 -1.69567838,-1.662517 l 0,-12.3919816 c 0,-0.9181911 0.75917628,-1.662512 1.69567838,-1.662512 l 6.2179581,0 8.4783475,0 c 0.934295,0 1.695821,0.7443209 1.695821,1.662512 l 0,12.3919816 c 0,0.918196 -0.759176,1.662517 -1.695821,1.662517 z"
       id="path5287" />
    <path
       style="fill:#ff0000;stroke:#000000;stroke-width:0.99999988"
       d="m 4.7887118,7.6793104 c -1.0926571,0 -1.9782917,0.8683956 -1.9782917,1.9396022 0,1.0712064 0.8856346,1.9395994 1.9782917,1.9395994 1.0926563,0 1.9782913,-0.868393 1.9782913,-1.9395994 0,-1.0712066 -0.885635,-1.9396022 -1.9782913,-1.9396022 z"
       id="path5285" />
    <path
       style="fill:#ffff00;stroke:#000000;stroke-width:0.99999988"
       d="m 2.7592206,18.295439 13.5658544,0 0,-3.879176 -3.091694,-3.548234 c -0.165533,-0.1623 -0.433937,-0.1623 -0.59947,0 L 7.84654,16.078755 5.8852991,14.155958 c -0.1655323,-0.162304 -0.4339373,-0.162304 -0.5996116,0 l -2.5264669,2.476968 z"
       id="path6693-1-4-9" />
    <rect
       style="color:#000000;clip-rule:nonzero;display:inline;overflow:visible;visibility:visible;opacity:1;isolation:auto;mix-blend-mode:normal;color-interpolation:sRGB;color-interpolation-filters:linearRGB;solid-color:#000000;solid-opacity:1;fill:#aad400;fill-opacity:1;fill-rule:nonzero;stroke:#000000;stroke-width:0.80000007;stroke-linecap:butt;stroke-linejoin:miter;stroke-miterlimit:4;stroke-dasharray:none;stroke-dashoffset:0;stroke-opacity:0.99029122;color-rendering:auto;image-rendering:auto;shape-rendering:auto;text-rendering:auto;enable-background:accumulate"
       id="rect4714"
       width="8.5837336"
       height="8.2798233"
       x="12.014584"
       y="0.41212696"
       ry="1.3896207" />
    <path
       style="color:#000000;clip-rule:nonzero;display:inline;overflow:visible;visibility:visible;opacity:1;isolation:auto;mix-blend-mode:normal;color-interpolation:sRGB;color-interpolation-filters:linearRGB;solid-color:#000000;solid-opacity:1;fill:#000000;fill-opacity:1;fill-rule:nonzero;stroke:none;stroke-width:0.80000001;stroke-linecap:butt;stroke-linejoin:miter;stroke-miterlimit:4;stroke-dasharray:none;stroke-dashoffset:0;stroke-opacity:1;color-rendering:auto;image-rendering:auto;shape-rendering:auto;text-rendering:auto;enable-background:accumulate"
       d="m 15.701976,1.6824278 0,2.2649032 -2.264038,0 0,1.2084147 2.264038,0 0,2.2659035 1.20795,0 0,-2.2659035 2.265034,0 0,-1.2084147 -2.265034,0 0,-2.2649032 z"
       id="rect4693"
       inkscape:connector-curvature="0"
       sodipodi:nodetypes="ccccccccccccc" />
  </g>
</svg>
