<?xml version="1.0" encoding="UTF-8" standalone="no"?>
<svg
   xmlns:dc="http://purl.org/dc/elements/1.1/"
   xmlns:cc="http://creativecommons.org/ns#"
   xmlns:rdf="http://www.w3.org/1999/02/22-rdf-syntax-ns#"
   xmlns:svg="http://www.w3.org/2000/svg"
   xmlns="http://www.w3.org/2000/svg"
   xmlns:sodipodi="http://sodipodi.sourceforge.net/DTD/sodipodi-0.dtd"
   xmlns:inkscape="http://www.inkscape.org/namespaces/inkscape"
   width="155.43443"
   height="184.39146"
   version="1.1"
   viewBox="0 0 155.43443 184.39146"
   id="svg853"
   sodipodi:docname="pic-3-frameIt.svg"
   inkscape:version="0.92.2 (5c3e80d, 2017-08-06)">
  <metadata
     id="metadata859">
    <rdf:RDF>
      <cc:Work
         rdf:about="">
        <dc:format>image/svg+xml</dc:format>
        <dc:type
           rdf:resource="http://purl.org/dc/dcmitype/StillImage" />
        <dc:title />
      </cc:Work>
    </rdf:RDF>
  </metadata>
  <defs
     id="defs857" />
  <sodipodi:namedview
     pagecolor="#ffffff"
     bordercolor="#666666"
     borderopacity="1"
     objecttolerance="10"
     gridtolerance="10"
     guidetolerance="10"
     inkscape:pageopacity="0"
     inkscape:pageshadow="2"
     inkscape:window-width="640"
     inkscape:window-height="480"
     id="namedview855"
     showgrid="false"
     inkscape:zoom="2.9805219"
     inkscape:cx="28.404471"
     inkscape:cy="72.143222"
     inkscape:current-layer="svg853"
     fit-margin-top="0"
     fit-margin-left="0"
     fit-margin-right="0"
     fit-margin-bottom="0" />
  <path
     style="color:#000000;clip-rule:nonzero;display:inline;overflow:visible;visibility:visible;opacity:1;isolation:auto;mix-blend-mode:normal;color-interpolation:sRGB;color-interpolation-filters:linearRGB;solid-color:#000000;solid-opacity:1;fill:#1a1a1a;fill-opacity:1;fill-rule:nonzero;stroke:none;stroke-width:1;stroke-linecap:round;stroke-linejoin:miter;stroke-miterlimit:4;stroke-dasharray:none;stroke-dashoffset:0;stroke-opacity:1;color-rendering:auto;image-rendering:auto;shape-rendering:auto;text-rendering:auto;enable-background:accumulate"
     d="M 152.46043,0.35867674 2.9740192,184.19057 H 152.46043 Z"
     id="frameBottomRight"
     inkscape:connector-curvature="0" />
  <path
     inkscape:connector-curvature="0"
     style="color:#000000;clip-rule:nonzero;display:inline;overflow:visible;visibility:visible;opacity:1;isolation:auto;mix-blend-mode:normal;color-interpolation:sRGB;color-interpolation-filters:linearRGB;solid-color:#000000;solid-opacity:1;fill:#393939;fill-opacity:1;fill-rule:nonzero;stroke:none;stroke-width:1;stroke-linecap:round;stroke-linejoin:miter;stroke-miterlimit:4;stroke-dasharray:none;stroke-dashoffset:0;stroke-opacity:1;color-rendering:auto;image-rendering:auto;shape-rendering:auto;text-rendering:auto;enable-background:accumulate"
     d="M 152.46043,0.35867674 2.9740078,184.19056 V 0.35867253 Z"
     id="frameTopLeft" />
  <rect
     style="color:#000000;clip-rule:nonzero;display:inline;overflow:visible;visibility:visible;opacity:1;isolation:auto;mix-blend-mode:normal;color-interpolation:sRGB;color-interpolation-filters:linearRGB;solid-color:#000000;solid-opacity:1;fill:#ffcc00;fill-opacity:1;fill-rule:nonzero;stroke:none;stroke-width:2.00001025;stroke-linecap:round;stroke-linejoin:miter;stroke-miterlimit:4;stroke-dasharray:none;stroke-dashoffset:0;stroke-opacity:1;color-rendering:auto;image-rendering:auto;shape-rendering:auto;text-rendering:auto;enable-background:accumulate"
     id="mount"
     width="132.39214"
     height="163.79057"
     x="11.521149"
     y="10.379328"
     ry="0" />
  <path
     style="color:#000000;clip-rule:nonzero;display:inline;overflow:visible;visibility:visible;opacity:1;isolation:auto;mix-blend-mode:normal;color-interpolation:sRGB;color-interpolation-filters:linearRGB;solid-color:#000000;solid-opacity:1;fill:#ffe374;fill-opacity:1;fill-rule:nonzero;stroke:none;stroke-width:1;stroke-linecap:round;stroke-linejoin:miter;stroke-miterlimit:4;stroke-dasharray:none;stroke-dashoffset:0;stroke-opacity:1;color-rendering:auto;image-rendering:auto;shape-rendering:auto;text-rendering:auto;enable-background:accumulate"
     d="M 125.9406,32.614451 29.493835,151.9348 H 125.9406 Z"
     id="mountEdgeBottomRight"
     inkscape:connector-curvature="0" />
  <path
     inkscape:connector-curvature="0"
     style="color:#000000;clip-rule:nonzero;display:inline;overflow:visible;visibility:visible;opacity:1;isolation:auto;mix-blend-mode:normal;color-interpolation:sRGB;color-interpolation-filters:linearRGB;solid-color:#000000;solid-opacity:1;fill:#bd9700;fill-opacity:1;fill-rule:nonzero;stroke:none;stroke-width:1;stroke-linecap:round;stroke-linejoin:miter;stroke-miterlimit:4;stroke-dasharray:none;stroke-dashoffset:0;stroke-opacity:1;color-rendering:auto;image-rendering:auto;shape-rendering:auto;text-rendering:auto;enable-background:accumulate"
     d="M 125.9406,32.614441 29.493833,151.93479 V 32.614439 Z"
     id="mountEdgeTopLeft" />
  <rect
     style="color:#000000;clip-rule:nonzero;display:inline;overflow:visible;visibility:visible;opacity:1;isolation:auto;mix-blend-mode:normal;color-interpolation:sRGB;color-interpolation-filters:linearRGB;solid-color:#000000;solid-opacity:1;fill:#fff6d5;fill-opacity:1;fill-rule:nonzero;stroke:none;stroke-width:2.00001025;stroke-linecap:round;stroke-linejoin:miter;stroke-miterlimit:4;stroke-dasharray:none;stroke-dashoffset:0;stroke-opacity:1;color-rendering:auto;image-rendering:auto;shape-rendering:auto;text-rendering:auto;enable-background:accumulate"
     id="rect896"
     width="92.71312"
     height="115.24316"
     x="31.360657"
     y="34.653042"
     ry="0" />
  <g
     id="g994">
    <path
       d="m 84.438167,133.80228 c 3.787857,-0.21927 7.862022,-5.07796 4.814117,-10.60259 -2.953589,-5.36034 -7.375595,-9.89403 -7.375595,-9.89403 -7.494356,5.32439 -3.478669,21.01519 2.562492,20.49662 z"
       style="color:#000000;isolation:auto;mix-blend-mode:normal;solid-color:#000000;fill:#ffffff;stroke:#000000;stroke-width:1.88976395;stroke-linecap:round;stroke-linejoin:round;stroke-miterlimit:4;stroke-dasharray:none;color-rendering:auto;image-rendering:auto;shape-rendering:auto"
       id="path815"
       inkscape:connector-curvature="0" />
    <path
       d="m 109.7053,116.24254 c -2.73197,6.61316 -11.226358,11.24952 -17.833375,6.92633 -6.40787,-4.19172 -10.909474,-10.49475 -10.909474,-10.49475 11.418602,-10.73608 33.089379,-10.05833 28.742809,3.56535 z"
       style="color:#000000;isolation:auto;mix-blend-mode:normal;solid-color:#000000;fill:#ffffff;stroke:#000000;stroke-width:1.88976395;stroke-linecap:round;stroke-linejoin:round;stroke-miterlimit:4;stroke-dasharray:none;color-rendering:auto;image-rendering:auto;shape-rendering:auto"
       id="path817"
       inkscape:connector-curvature="0" />
    <path
       d="m 36.136653,85.400051 c 0.191218,-3.839497 4.96534,-7.999411 10.452408,-4.970106 5.320756,2.936881 9.847032,7.373036 9.847032,7.373036 -5.200064,7.624602 -20.744872,3.699352 -20.299438,-2.403428 z"
       style="color:#000000;isolation:auto;mix-blend-mode:normal;solid-color:#000000;fill:#ffffff;stroke:#000000;stroke-width:1.88976395;stroke-linecap:round;stroke-linejoin:round;stroke-miterlimit:4;stroke-dasharray:none;color-rendering:auto;image-rendering:auto;shape-rendering:auto"
       id="path819"
       inkscape:connector-curvature="0" />
    <path
       d="m 53.320577,59.687899 c -6.515521,2.819827 -11.02663,11.449761 -6.69474,18.093707 4.200198,6.443707 10.471574,10.941466 10.471574,10.941466 10.517312,-11.634606 9.659873,-33.548327 -3.773787,-29.035173 z"
       style="color:#000000;isolation:auto;mix-blend-mode:normal;solid-color:#000000;fill:#ffffff;stroke:#000000;stroke-width:1.88976395;stroke-linecap:round;stroke-linejoin:round;stroke-miterlimit:4;stroke-dasharray:none;color-rendering:auto;image-rendering:auto;shape-rendering:auto"
       id="path821"
       inkscape:connector-curvature="0" />
    <path
       d="M 97.956552,96.064249 73.641063,71.686023 99.650941,69.744694 98.803241,82.904229 Z"
       style="color:#000000;isolation:auto;mix-blend-mode:normal;solid-color:#000000;fill:#e9ddaf;stroke:#000000;stroke-width:1.88976395;stroke-linecap:round;stroke-linejoin:round;stroke-miterlimit:4;stroke-dasharray:none;color-rendering:auto;image-rendering:auto;shape-rendering:auto"
       id="path823"
       inkscape:connector-curvature="0" />
    <path
       d="m 89.157909,70.556442 c 3.842375,2.179041 7.239482,5.252533 9.853213,9.878634 l 0.687744,-10.664198 z"
       style="color:#000000;isolation:auto;mix-blend-mode:normal;solid-color:#000000;fill:#ff0000;stroke:#000000;stroke-width:1.88976395;stroke-linecap:round;stroke-linejoin:round;stroke-miterlimit:4;stroke-dasharray:none;color-rendering:auto;image-rendering:auto;shape-rendering:auto"
       id="path825"
       inkscape:connector-curvature="0" />
    <path
       d="m 79.954748,79.115533 c 7.139957,0.737812 9.736064,5.082555 10.698208,10.725818 L 59.551123,121.56695 48.852918,110.84115 Z"
       style="color:#000000;isolation:auto;mix-blend-mode:normal;solid-color:#000000;fill:#ffcc00;stroke:#000000;stroke-width:1.88976395;stroke-miterlimit:4;stroke-dasharray:none;color-rendering:auto;image-rendering:auto;shape-rendering:auto"
       id="path827"
       inkscape:connector-curvature="0" />
    <path
       d="m 72.697992,71.840052 c 5.890389,-0.515495 7.395653,2.733563 7.323325,7.342217 l -31.101828,31.725601 -7.323324,-7.34221 z"
       style="color:#000000;isolation:auto;mix-blend-mode:normal;solid-color:#000000;fill:#ff6600;stroke:#000000;stroke-width:1.88976395;stroke-miterlimit:4;stroke-dasharray:none;color-rendering:auto;image-rendering:auto;shape-rendering:auto"
       id="path829"
       inkscape:connector-curvature="0" />
    <path
       d="m 90.591458,89.774599 c 5.890382,-0.515493 7.395645,2.733549 7.323331,7.342232 l -31.101835,31.725599 -7.323332,-7.34224 z"
       style="color:#000000;isolation:auto;mix-blend-mode:normal;solid-color:#000000;fill:#ff6600;stroke:#000000;stroke-width:1.88976395;stroke-miterlimit:4;stroke-dasharray:none;color-rendering:auto;image-rendering:auto;shape-rendering:auto"
       id="path831"
       inkscape:connector-curvature="0" />
    <ellipse
       transform="matrix(0.70619511,0.70801728,-0.70005187,0.714092,0,0)"
       cx="109.27882"
       cy="14.039925"
       rx="10.481265"
       ry="10.524291"
       style="color:#000000;isolation:auto;mix-blend-mode:normal;solid-color:#000000;fill:#ffffff;stroke:#000000;stroke-width:1.88982391;stroke-miterlimit:4;stroke-dasharray:none;color-rendering:auto;image-rendering:auto;shape-rendering:auto"
       id="ellipse833" />
    <ellipse
       transform="matrix(0.70619511,0.70801728,-0.70005187,0.714092,0,0)"
       cx="109.27882"
       cy="14.039925"
       rx="4.8852744"
       ry="4.9042177"
       style="color:#000000;isolation:auto;mix-blend-mode:normal;solid-color:#000000;stroke-width:1.88982391;stroke-miterlimit:4;stroke-dasharray:none;color-rendering:auto;image-rendering:auto;shape-rendering:auto"
       id="ellipse835" />
    <ellipse
       transform="matrix(0.70619511,0.70801728,-0.70005187,0.714092,0,0)"
       cx="130.07213"
       cy="14.039925"
       rx="10.481265"
       ry="10.524291"
       style="color:#000000;isolation:auto;mix-blend-mode:normal;solid-color:#000000;fill:#ffffff;stroke:#000000;stroke-width:1.88982391;stroke-miterlimit:4;stroke-dasharray:none;color-rendering:auto;image-rendering:auto;shape-rendering:auto"
       id="ellipse837" />
    <ellipse
       transform="matrix(0.70619511,0.70801728,-0.70005187,0.714092,0,0)"
       cx="130.07213"
       cy="14.039925"
       rx="4.8852744"
       ry="4.9042177"
       style="color:#000000;isolation:auto;mix-blend-mode:normal;solid-color:#000000;stroke-width:1.88982391;stroke-miterlimit:4;stroke-dasharray:none;color-rendering:auto;image-rendering:auto;shape-rendering:auto"
       id="ellipse839" />
    <path
       d="m 42.493718,115.31835 -1.663087,-11.02362 11.624407,2.654 11.127319,10.43827 2.433263,12.08645 -10.798666,-1.6846 z"
       style="color:#000000;isolation:auto;mix-blend-mode:normal;solid-color:#000000;fill:#e9ddaf;stroke:#000000;stroke-width:1.88976395;stroke-linecap:round;stroke-linejoin:round;stroke-miterlimit:4;stroke-dasharray:none;color-rendering:auto;image-rendering:auto;shape-rendering:auto"
       id="path841"
       inkscape:connector-curvature="0" />
    <ellipse
       transform="matrix(0.70619511,0.70801728,-0.70005187,0.714092,0,0)"
       cx="120.07288"
       cy="44.793224"
       rx="5.2508879"
       ry="1.2695243"
       style="color:#000000;isolation:auto;mix-blend-mode:normal;solid-color:#000000;fill:#ff0000;stroke:#000000;stroke-width:1.88982391;stroke-linecap:round;stroke-linejoin:round;stroke-miterlimit:4;stroke-dasharray:none;color-rendering:auto;image-rendering:auto;shape-rendering:auto"
       id="ellipse843" />
    <ellipse
       transform="matrix(0.67352739,0.73916226,-0.66653772,0.74547131,0,0)"
       cx="111.46503"
       cy="6.7269669"
       rx="3.137825"
       ry="3.1499312"
       style="color:#000000;isolation:auto;mix-blend-mode:normal;solid-color:#000000;fill:#ffffff;stroke-width:1.89472067;stroke-miterlimit:4;stroke-dasharray:none;color-rendering:auto;image-rendering:auto;shape-rendering:auto"
       id="ellipse845" />
    <ellipse
       transform="matrix(0.67352739,0.73916226,-0.66653772,0.74547131,0,0)"
       cx="132.56682"
       cy="5.7553363"
       rx="3.137825"
       ry="3.1499312"
       style="color:#000000;isolation:auto;mix-blend-mode:normal;solid-color:#000000;fill:#ffffff;stroke-width:1.89472067;stroke-miterlimit:4;stroke-dasharray:none;color-rendering:auto;image-rendering:auto;shape-rendering:auto"
       id="ellipse847" />
    <path
       sodipodi:type="star"
       style="color:#000000;clip-rule:nonzero;display:inline;overflow:visible;visibility:visible;opacity:1;isolation:auto;mix-blend-mode:normal;color-interpolation:sRGB;color-interpolation-filters:linearRGB;solid-color:#000000;solid-opacity:1;fill:#ff0000;fill-opacity:1;fill-rule:nonzero;stroke:none;stroke-width:3.95423746;stroke-linecap:butt;stroke-linejoin:miter;stroke-miterlimit:4;stroke-dasharray:none;stroke-dashoffset:0;stroke-opacity:1;color-rendering:auto;image-rendering:auto;shape-rendering:auto;text-rendering:auto;enable-background:accumulate"
       id="path2022"
       sodipodi:sides="5"
       sodipodi:cx="-58.818035"
       sodipodi:cy="-17.069559"
       sodipodi:r1="6.229311"
       sodipodi:r2="10.211985"
       sodipodi:arg1="0.78539816"
       sodipodi:arg2="1.4137167"
       inkscape:flatsided="false"
       inkscape:rounded="0.49"
       inkscape:randomized="-0.203"
       d="m -55.13136,-12.654447 c -2.142053,2.153759 1.515395,3.2931371 -1.254741,4.3236214 -2.770136,1.0304844 -3.685247,-1.4632875 -6.027319,-3.2300794 -2.342073,-1.766792 -3.102575,2.2958433 -3.998122,-0.95551 -0.895547,-3.251353 -0.171637,-2.802962 0.329945,-6.067034 0.501583,-3.264072 -3.803324,-4.404606 -1.086354,-6.235301 2.71697,-1.830695 2.55928,-0.176123 5.640544,-0.308161 3.081263,-0.132037 4.700468,-4.326061 7.511047,-2.800888 2.810579,1.525174 -1.726851,3.971003 -0.287723,6.440648 1.439129,2.469646 3.447976,3.250608 3.623989,6.594468 0.176014,3.343859 -2.309214,0.08448 -4.451266,2.238236 z"
       inkscape:transform-center-x="0.5295269"
       inkscape:transform-center-y="-1.4268483"
       transform="matrix(0.8218969,0,0.24906893,0.71139756,156.81917,69.869402)" />
    <path
       sodipodi:type="star"
       style="color:#000000;clip-rule:nonzero;display:inline;overflow:visible;visibility:visible;opacity:1;isolation:auto;mix-blend-mode:normal;color-interpolation:sRGB;color-interpolation-filters:linearRGB;solid-color:#000000;solid-opacity:1;fill:#800080;fill-opacity:1;fill-rule:nonzero;stroke:none;stroke-width:4.73789883;stroke-linecap:butt;stroke-linejoin:miter;stroke-miterlimit:4;stroke-dasharray:none;stroke-dashoffset:0;stroke-opacity:1;color-rendering:auto;image-rendering:auto;shape-rendering:auto;text-rendering:auto;enable-background:accumulate"
       id="path2022-7-3"
       sodipodi:sides="7"
       sodipodi:cx="-58.818035"
       sodipodi:cy="-17.069559"
       sodipodi:r1="6.229311"
       sodipodi:r2="10.211985"
       sodipodi:arg1="0.78539816"
       sodipodi:arg2="1.2341971"
       inkscape:flatsided="false"
       inkscape:rounded="0.49"
       inkscape:randomized="-0.203"
       d="m -55.13136,-12.654447 c -1.803267,1.813121 0.516841,5.6133368 -1.745993,6.776178 -2.262834,1.1628411 0.17503,-5.160256 -2.202834,-5.889123 -2.377865,-0.728867 -4.896731,6.6792348 -7.10406,5.3620424 -2.207329,-1.3171924 1.427072,-6.0179334 0.0556,-8.2176584 -1.371466,-2.199726 -1.781208,3.514328 -1.909348,0.64594 -0.12814,-2.868387 0.82629,-2.942425 1.359228,-5.417818 0.532938,-2.475393 -2.776444,-3.882711 -0.489189,-5.423864 2.287255,-1.541153 3.794927,4.005917 6.443623,3.789404 2.648696,-0.216514 -0.678882,-6.441567 1.744434,-5.600413 2.423317,0.841153 -0.108221,3.024106 2.037729,4.604987 2.145949,1.58088 3.441921,-0.971217 5.06183,0.835203 1.619908,1.806421 -2.000869,-0.659877 -2.095389,1.700243 -0.09452,2.360119 3.717012,1.669114 3.263777,4.296781 -0.453234,2.627667 -2.616147,0.724978 -4.419413,2.538098 z"
       inkscape:transform-center-x="0.53470267"
       inkscape:transform-center-y="-0.98425619"
       transform="matrix(0.82992517,0,0.23799408,0.49073237,165.93568,79.451726)" />
    <path
       sodipodi:type="star"
       style="color:#000000;clip-rule:nonzero;display:inline;overflow:visible;visibility:visible;opacity:1;isolation:auto;mix-blend-mode:normal;color-interpolation:sRGB;color-interpolation-filters:linearRGB;solid-color:#000000;solid-opacity:1;fill:#2ca02c;fill-opacity:1;fill-rule:nonzero;stroke:none;stroke-width:4.70538568;stroke-linecap:butt;stroke-linejoin:miter;stroke-miterlimit:4;stroke-dasharray:none;stroke-dashoffset:0;stroke-opacity:1;color-rendering:auto;image-rendering:auto;shape-rendering:auto;text-rendering:auto;enable-background:accumulate"
       id="path2022-7-3-6"
       sodipodi:sides="8"
       sodipodi:cx="-58.818035"
       sodipodi:cy="-17.069559"
       sodipodi:r1="6.229311"
       sodipodi:r2="10.211985"
       sodipodi:arg1="0.78539816"
       sodipodi:arg2="1.1780972"
       inkscape:flatsided="false"
       inkscape:rounded="0.49"
       inkscape:randomized="-0.203"
       d="m -55.13136,-12.654447 c -1.708432,1.717768 3.986631,3.898356 1.591956,4.8168797 -2.394675,0.9185238 -1.948518,-2.1382467 -4.473346,-2.2288577 -2.524827,-0.09061 -4.67304,1.6979934 -6.782608,0.6857239 -2.109569,-1.0122699 3.632036,-1.5733359 1.862406,-3.5353419 -1.769631,-1.962006 -2.706996,3.8742392 -3.689763,1.578568 -0.982767,-2.295672 1.088556,-3.118384 0.781922,-5.61318 -0.306634,-2.494797 -1.889704,-2.912842 -0.81666,-5.053691 1.073044,-2.14085 1.778054,0.979988 3.693631,-0.822426 1.915576,-1.802415 -4.179474,-1.846257 -1.819669,-2.483584 2.359804,-0.637326 4.254628,0.381428 6.75714,0.347992 2.50251,-0.03344 2.147851,-4.215053 4.498815,-2.950924 2.350963,1.264129 -3.379454,3.684504 -1.634695,5.348112 1.744759,1.663607 3.99094,-2.627376 4.903608,-0.09522 0.912669,2.532158 -2.962065,3.964019 -3.133923,6.368443 -0.171859,2.404424 3.966703,2.150562 3.168661,4.298428 -0.798042,2.1478658 -3.199044,-2.378691 -4.907475,-0.660924 z"
       inkscape:transform-center-x="0.53468025"
       inkscape:transform-center-y="-0.99789111"
       transform="matrix(0.82992517,0,0.23799408,0.49753743,140.30838,68.895016)" />
  </g>
</svg>
