<?xml version="1.0" encoding="UTF-8" standalone="no"?>
<svg
   xmlns:dc="http://purl.org/dc/elements/1.1/"
   xmlns:cc="http://creativecommons.org/ns#"
   xmlns:rdf="http://www.w3.org/1999/02/22-rdf-syntax-ns#"
   xmlns:svg="http://www.w3.org/2000/svg"
   xmlns="http://www.w3.org/2000/svg"
   xmlns:sodipodi="http://sodipodi.sourceforge.net/DTD/sodipodi-0.dtd"
   xmlns:inkscape="http://www.inkscape.org/namespaces/inkscape"
   width="155.43443"
   height="184.39146"
   version="1.1"
   viewBox="0 0 155.43443 184.39146"
   id="svg853"
   sodipodi:docname="pic-1-takePic.svg"
   inkscape:version="0.92.2 (5c3e80d, 2017-08-06)">
  <metadata
     id="metadata859">
    <rdf:RDF>
      <cc:Work
         rdf:about="">
        <dc:format>image/svg+xml</dc:format>
        <dc:type
           rdf:resource="http://purl.org/dc/dcmitype/StillImage" />
        <dc:title></dc:title>
      </cc:Work>
    </rdf:RDF>
  </metadata>
  <defs
     id="defs857" />
  <sodipodi:namedview
     pagecolor="#ffffff"
     bordercolor="#666666"
     borderopacity="1"
     objecttolerance="10"
     gridtolerance="10"
     guidetolerance="10"
     inkscape:pageopacity="0"
     inkscape:pageshadow="2"
     inkscape:window-width="640"
     inkscape:window-height="480"
     id="namedview855"
     showgrid="false"
     inkscape:zoom="3.4170683"
     inkscape:cx="-32.789267"
     inkscape:cy="88.00718"
     inkscape:current-layer="svg853"
     fit-margin-top="0"
     fit-margin-left="0"
     fit-margin-right="0"
     fit-margin-bottom="0" />
  <g
     id="picture"
     transform="translate(2.4711763,8.1341163)">
    <rect
       transform="matrix(1,0,-0.44069516,0.89765682,0,0)"
       ry="0"
       y="99.716507"
       x="108.01427"
       height="94.933762"
       width="86.594696"
       id="rect896"
       style="color:#000000;clip-rule:nonzero;display:inline;overflow:visible;visibility:visible;opacity:1;isolation:auto;mix-blend-mode:normal;color-interpolation:sRGB;color-interpolation-filters:linearRGB;solid-color:#000000;solid-opacity:1;fill:#fff6d5;fill-opacity:1;fill-rule:nonzero;stroke:#000000;stroke-width:3.19133496;stroke-linecap:round;stroke-linejoin:miter;stroke-miterlimit:4;stroke-dasharray:none;stroke-dashoffset:0;stroke-opacity:1;color-rendering:auto;image-rendering:auto;shape-rendering:auto;text-rendering:auto;enable-background:accumulate" />
    <path
       d="m 77.780337,162.45577 c 3.197913,-0.17765 8.454138,-4.11368 8.121238,-8.58922 -0.319981,-4.34244 -2.171109,-8.01521 -2.171109,-8.01521 -8.248938,4.31332 -11.115917,17.02453 -5.949295,16.60443 z"
       style="color:#000000;isolation:auto;mix-blend-mode:normal;solid-color:#000000;fill:#ffffff;stroke:#000000;stroke-width:1.88976395;stroke-linecap:round;stroke-linejoin:round;stroke-miterlimit:4;stroke-dasharray:none;color-rendering:auto;image-rendering:auto;shape-rendering:auto"
       id="path815"
       inkscape:connector-curvature="0" />
    <path
       d="m 105.43772,148.23053 c -4.84304,5.35734 -13.64314,9.1133 -17.371988,5.61106 -3.616907,-3.39575 -4.838149,-8.50186 -4.838149,-8.50186 13.599308,-8.69736 31.135647,-8.14832 22.211327,2.8883 z"
       style="color:#000000;isolation:auto;mix-blend-mode:normal;solid-color:#000000;fill:#ffffff;stroke:#000000;stroke-width:1.88976395;stroke-linecap:round;stroke-linejoin:round;stroke-miterlimit:4;stroke-dasharray:none;color-rendering:auto;image-rendering:auto;shape-rendering:auto"
       id="path817"
       inkscape:connector-curvature="0" />
    <path
       d="m 57.120646,123.24485 c 1.665864,-3.11041 7.222515,-6.48038 10.539766,-4.02632 3.216943,2.37919 5.192062,5.97294 5.192062,5.97294 -7.268058,6.17674 -18.495717,2.99686 -15.731629,-1.94703 z"
       style="color:#000000;isolation:auto;mix-blend-mode:normal;solid-color:#000000;fill:#ffffff;stroke:#000000;stroke-width:1.88976395;stroke-linecap:round;stroke-linejoin:round;stroke-miterlimit:4;stroke-dasharray:none;color-rendering:auto;image-rendering:auto;shape-rendering:auto"
       id="path819"
       inkscape:connector-curvature="0" />
    <path
       d="m 81.341221,102.41528 c -6.460617,2.28436 -13.55775,9.27552 -12.609901,14.65782 0.918352,5.22008 4.302868,8.86374 4.302868,8.86374 13.211981,-9.42526 21.118849,-27.177696 8.309536,-23.52156 z"
       style="color:#000000;isolation:auto;mix-blend-mode:normal;solid-color:#000000;fill:#ffffff;stroke:#000000;stroke-width:1.88976395;stroke-linecap:round;stroke-linejoin:round;stroke-miterlimit:4;stroke-dasharray:none;color-rendering:auto;image-rendering:auto;shape-rendering:auto"
       id="path821"
       inkscape:connector-curvature="0" />
    <path
       d="m 103.71537,131.88398 -10.395579,-19.74895 22.130099,-1.57268 -5.86758,10.66061 z"
       style="color:#000000;isolation:auto;mix-blend-mode:normal;solid-color:#000000;fill:#e9ddaf;stroke:#000000;stroke-width:1.88976395;stroke-linecap:round;stroke-linejoin:round;stroke-miterlimit:4;stroke-dasharray:none;color-rendering:auto;image-rendering:auto;shape-rendering:auto"
       id="path823"
       inkscape:connector-curvature="0" />
    <path
       d="m 106.51084,111.21995 c 2.30024,1.76526 3.88322,4.2551 4.21253,8.00274 l 4.75562,-8.63913 z"
       style="color:#000000;isolation:auto;mix-blend-mode:normal;solid-color:#000000;fill:#ff0000;stroke:#000000;stroke-width:1.88976395;stroke-linecap:round;stroke-linejoin:round;stroke-miterlimit:4;stroke-dasharray:none;color-rendering:auto;image-rendering:auto;shape-rendering:auto"
       id="path825"
       inkscape:connector-curvature="0" />
    <path
       d="m 95.586998,118.15372 c 5.575582,0.59771 6.000972,4.11741 4.573792,8.68904 l -38.017256,25.70109 -4.573793,-8.68904 z"
       style="color:#000000;isolation:auto;mix-blend-mode:normal;solid-color:#000000;fill:#ffcc00;stroke:#000000;stroke-width:1.88976395;stroke-miterlimit:4;stroke-dasharray:none;color-rendering:auto;image-rendering:auto;shape-rendering:auto"
       id="path827"
       inkscape:connector-curvature="0" />
    <path
       d="m 92.484526,112.25981 c 5.041553,-0.41761 5.001378,2.21448 3.130935,5.94798 l -38.017257,25.70109 -3.130934,-5.94797 z"
       style="color:#000000;isolation:auto;mix-blend-mode:normal;solid-color:#000000;fill:#ff6600;stroke:#000000;stroke-width:1.88976395;stroke-miterlimit:4;stroke-dasharray:none;color-rendering:auto;image-rendering:auto;shape-rendering:auto"
       id="path829"
       inkscape:connector-curvature="0" />
    <path
       d="m 100.1365,126.78869 c 5.04155,-0.41761 5.00138,2.21447 3.13093,5.94798 l -38.017253,25.70109 -3.130935,-5.94798 z"
       style="color:#000000;isolation:auto;mix-blend-mode:normal;solid-color:#000000;fill:#ff6600;stroke:#000000;stroke-width:1.88976395;stroke-miterlimit:4;stroke-dasharray:none;color-rendering:auto;image-rendering:auto;shape-rendering:auto"
       id="path831"
       inkscape:connector-curvature="0" />
    <ellipse
       transform="matrix(0.46579528,0.88489251,-0.82844985,0.56006325,0,0)"
       cx="150.25917"
       cy="-14.463676"
       rx="6.7937384"
       ry="10.870555"
       style="color:#000000;isolation:auto;mix-blend-mode:normal;solid-color:#000000;fill:#ffffff;stroke:#000000;stroke-width:1.89549327;stroke-miterlimit:4;stroke-dasharray:none;color-rendering:auto;image-rendering:auto;shape-rendering:auto"
       id="ellipse833" />
    <ellipse
       transform="matrix(0.46579528,0.88489251,-0.82844985,0.56006325,0,0)"
       cx="150.25917"
       cy="-14.463676"
       rx="3.1665335"
       ry="5.0655732"
       style="color:#000000;isolation:auto;mix-blend-mode:normal;solid-color:#000000;stroke-width:1.89549327;stroke-miterlimit:4;stroke-dasharray:none;color-rendering:auto;image-rendering:auto;shape-rendering:auto"
       id="ellipse835" />
    <ellipse
       transform="matrix(0.46579528,0.88489251,-0.82844985,0.56006325,0,0)"
       cx="163.73697"
       cy="-14.463676"
       rx="6.7937384"
       ry="10.870555"
       style="color:#000000;isolation:auto;mix-blend-mode:normal;solid-color:#000000;fill:#ffffff;stroke:#000000;stroke-width:1.89549327;stroke-miterlimit:4;stroke-dasharray:none;color-rendering:auto;image-rendering:auto;shape-rendering:auto"
       id="ellipse837" />
    <ellipse
       transform="matrix(0.46579528,0.88489251,-0.82844985,0.56006325,0,0)"
       cx="163.73697"
       cy="-14.463676"
       rx="3.1665335"
       ry="5.0655732"
       style="color:#000000;isolation:auto;mix-blend-mode:normal;solid-color:#000000;stroke-width:1.89549327;stroke-miterlimit:4;stroke-dasharray:none;color-rendering:auto;image-rendering:auto;shape-rendering:auto"
       id="ellipse839" />
    <path
       d="m 50.586255,147.48183 2.965627,-8.93029 8.506586,2.15001 5.039302,8.45611 -2.750576,9.79129 -8.20917,-1.3647 z"
       style="color:#000000;isolation:auto;mix-blend-mode:normal;solid-color:#000000;fill:#e9ddaf;stroke:#000000;stroke-width:1.88976395;stroke-linecap:round;stroke-linejoin:round;stroke-miterlimit:4;stroke-dasharray:none;color-rendering:auto;image-rendering:auto;shape-rendering:auto"
       id="path841"
       inkscape:connector-curvature="0" />
    <ellipse
       transform="matrix(0.46579528,0.88489251,-0.82844985,0.56006325,0,0)"
       cx="157.25566"
       cy="17.301449"
       rx="3.4035165"
       ry="1.3112935"
       style="color:#000000;isolation:auto;mix-blend-mode:normal;solid-color:#000000;fill:#ff0000;stroke:#000000;stroke-width:1.89549327;stroke-linecap:round;stroke-linejoin:round;stroke-miterlimit:4;stroke-dasharray:none;color-rendering:auto;image-rendering:auto;shape-rendering:auto"
       id="ellipse843" />
    <ellipse
       transform="matrix(0.40193329,0.91566895,-0.81210827,0.58350678,0,0)"
       cx="154.16171"
       cy="-27.920221"
       rx="2.0519736"
       ry="3.2600765"
       style="color:#000000;isolation:auto;mix-blend-mode:normal;solid-color:#000000;fill:#ffffff;stroke-width:1.9107511;stroke-miterlimit:4;stroke-dasharray:none;color-rendering:auto;image-rendering:auto;shape-rendering:auto"
       id="ellipse845" />
    <ellipse
       transform="matrix(0.40193329,0.91566895,-0.81210827,0.58350678,0,0)"
       cx="167.96121"
       cy="-28.925833"
       rx="2.0519736"
       ry="3.2600765"
       style="color:#000000;isolation:auto;mix-blend-mode:normal;solid-color:#000000;fill:#ffffff;stroke-width:1.9107511;stroke-miterlimit:4;stroke-dasharray:none;color-rendering:auto;image-rendering:auto;shape-rendering:auto"
       id="ellipse847" />
    <path
       sodipodi:type="star"
       style="color:#000000;clip-rule:nonzero;display:inline;overflow:visible;visibility:visible;opacity:1;isolation:auto;mix-blend-mode:normal;color-interpolation:sRGB;color-interpolation-filters:linearRGB;solid-color:#000000;solid-opacity:1;fill:#ff0000;fill-opacity:1;fill-rule:nonzero;stroke:none;stroke-width:3.97066927;stroke-linecap:butt;stroke-linejoin:miter;stroke-miterlimit:4;stroke-dasharray:none;stroke-dashoffset:0;stroke-opacity:1;color-rendering:auto;image-rendering:auto;shape-rendering:auto;text-rendering:auto;enable-background:accumulate"
       id="path2022"
       sodipodi:sides="5"
       sodipodi:cx="-58.818035"
       sodipodi:cy="-17.069559"
       sodipodi:r1="6.229311"
       sodipodi:r2="10.211985"
       sodipodi:arg1="0.78539816"
       sodipodi:arg2="1.4137167"
       inkscape:flatsided="false"
       inkscape:rounded="0.49"
       inkscape:randomized="-0.203"
       d="m -55.13136,-12.654447 c -2.142053,2.153759 1.515395,3.2931371 -1.254741,4.3236214 -2.770136,1.0304844 -3.685247,-1.4632875 -6.027319,-3.2300794 -2.342073,-1.766792 -3.102575,2.2958433 -3.998122,-0.95551 -0.895547,-3.251353 -0.171637,-2.802962 0.329945,-6.067034 0.501583,-3.264072 -3.803324,-4.404606 -1.086354,-6.235301 2.71697,-1.830695 2.55928,-0.176123 5.640544,-0.308161 3.081263,-0.132037 4.700468,-4.326061 7.511047,-2.800888 2.810579,1.525174 -1.726851,3.971003 -0.287723,6.440648 1.439129,2.469646 3.447976,3.250608 3.623989,6.594468 0.176014,3.343859 -2.309214,0.08448 -4.451266,2.238236 z"
       inkscape:transform-center-x="0.88449947"
       inkscape:transform-center-y="-1.7207137"
       transform="matrix(0.96342311,0,0,0.60188083,182.13771,111.32855)" />
    <path
       sodipodi:type="star"
       style="color:#000000;clip-rule:nonzero;display:inline;overflow:visible;visibility:visible;opacity:1;isolation:auto;mix-blend-mode:normal;color-interpolation:sRGB;color-interpolation-filters:linearRGB;solid-color:#000000;solid-opacity:1;fill:#800080;fill-opacity:1;fill-rule:nonzero;stroke:none;stroke-width:5.76792002;stroke-linecap:butt;stroke-linejoin:miter;stroke-miterlimit:4;stroke-dasharray:none;stroke-dashoffset:0;stroke-opacity:1;color-rendering:auto;image-rendering:auto;shape-rendering:auto;text-rendering:auto;enable-background:accumulate"
       id="path2022-7-3"
       sodipodi:sides="7"
       sodipodi:cx="-58.818035"
       sodipodi:cy="-17.069559"
       sodipodi:r1="6.229311"
       sodipodi:r2="10.211985"
       sodipodi:arg1="0.78539816"
       sodipodi:arg2="1.2341971"
       inkscape:flatsided="false"
       inkscape:rounded="0.49"
       inkscape:randomized="-0.203"
       d="m -55.13136,-12.654447 c -1.803267,1.813121 0.516841,5.6133368 -1.745993,6.776178 -2.262834,1.1628411 0.17503,-5.160256 -2.202834,-5.889123 -2.377865,-0.728867 -4.896731,6.6792348 -7.10406,5.3620424 -2.207329,-1.3171924 1.427072,-6.0179334 0.0556,-8.2176584 -1.371466,-2.199726 -1.781208,3.514328 -1.909348,0.64594 -0.12814,-2.868387 0.82629,-2.942425 1.359228,-5.417818 0.532938,-2.475393 -2.776444,-3.882711 -0.489189,-5.423864 2.287255,-1.541153 3.794927,4.005917 6.443623,3.789404 2.648696,-0.216514 -0.678882,-6.441567 1.744434,-5.600413 2.423317,0.841153 -0.108221,3.024106 2.037729,4.604987 2.145949,1.58088 3.441921,-0.971217 5.06183,0.835203 1.619908,1.806421 -2.000869,-0.659877 -2.095389,1.700243 -0.09452,2.360119 3.717012,1.669114 3.263777,4.296781 -0.453234,2.627667 -2.616147,0.724978 -4.419413,2.538098 z"
       inkscape:transform-center-x="0.62593554"
       inkscape:transform-center-y="-1.1523009"
       transform="matrix(0.68178752,0,0,0.40305798,165.9548,118.70201)" />
    <path
       sodipodi:type="star"
       style="color:#000000;clip-rule:nonzero;display:inline;overflow:visible;visibility:visible;opacity:1;isolation:auto;mix-blend-mode:normal;color-interpolation:sRGB;color-interpolation-filters:linearRGB;solid-color:#000000;solid-opacity:1;fill:#2ca02c;fill-opacity:1;fill-rule:nonzero;stroke:none;stroke-width:5.76792002;stroke-linecap:butt;stroke-linejoin:miter;stroke-miterlimit:4;stroke-dasharray:none;stroke-dashoffset:0;stroke-opacity:1;color-rendering:auto;image-rendering:auto;shape-rendering:auto;text-rendering:auto;enable-background:accumulate"
       id="path2022-7-3-6"
       sodipodi:sides="8"
       sodipodi:cx="-58.818035"
       sodipodi:cy="-17.069559"
       sodipodi:r1="6.229311"
       sodipodi:r2="10.211985"
       sodipodi:arg1="0.78539816"
       sodipodi:arg2="1.1780972"
       inkscape:flatsided="false"
       inkscape:rounded="0.49"
       inkscape:randomized="-0.203"
       d="m -55.13136,-12.654447 c -1.708432,1.717768 3.986631,3.898356 1.591956,4.8168797 -2.394675,0.9185238 -1.948518,-2.1382467 -4.473346,-2.2288577 -2.524827,-0.09061 -4.67304,1.6979934 -6.782608,0.6857239 -2.109569,-1.0122699 3.632036,-1.5733359 1.862406,-3.5353419 -1.769631,-1.962006 -2.706996,3.8742392 -3.689763,1.578568 -0.982767,-2.295672 1.088556,-3.118384 0.781922,-5.61318 -0.306634,-2.494797 -1.889704,-2.912842 -0.81666,-5.053691 1.073044,-2.14085 1.778054,0.979988 3.693631,-0.822426 1.915576,-1.802415 -4.179474,-1.846257 -1.819669,-2.483584 2.359804,-0.637326 4.254628,0.381428 6.75714,0.347992 2.50251,-0.03344 2.147851,-4.215053 4.498815,-2.950924 2.350963,1.264129 -3.379454,3.684504 -1.634695,5.348112 1.744759,1.663607 3.99094,-2.627376 4.903608,-0.09522 0.912669,2.532158 -2.962065,3.964019 -3.133923,6.368443 -0.171859,2.404424 3.966703,2.150562 3.168661,4.298428 -0.798042,2.1478658 -3.199044,-2.378691 -4.907475,-0.660924 z"
       inkscape:transform-center-x="0.62593554"
       inkscape:transform-center-y="-1.1523009"
       transform="matrix(0.68178752,0,0,0.40305798,149.18407,109.87401)" />
  </g>
  <path
     inkscape:connector-curvature="0"
     style="color:#000000;clip-rule:nonzero;display:inline;overflow:visible;visibility:visible;opacity:1;isolation:auto;mix-blend-mode:normal;color-interpolation:sRGB;color-interpolation-filters:linearRGB;solid-color:#000000;solid-opacity:1;fill:#ffffff;fill-opacity:1;fill-rule:nonzero;stroke:#000000;stroke-width:2.83464575;stroke-linecap:round;stroke-linejoin:round;stroke-miterlimit:4;stroke-dasharray:none;stroke-dashoffset:0;stroke-opacity:1;color-rendering:auto;image-rendering:auto;shape-rendering:auto;text-rendering:auto;enable-background:accumulate"
     d="M 106.4052,69.02081 89.096246,55.132811 63.20694,69.962548 71.650346,48.815553 43.532343,46.254198 l 27.8377,-12.481873 -9.17327,-18.023694 26.26964,5.582355 16.679127,-19.9138249 4.92,19.4429549 29.97179,-6.808439 -20.13449,18.662615 20.6951,11.423839 -30.02731,3.828944 z"
     id="flash" />
  <g
     id="phone"
     transform="translate(2.4711763,8.1341163)">
    <rect
       transform="matrix(1,0,-0.22080091,0.9753189,0,0)"
       ry="12.070238"
       y="19.402035"
       x="31.324455"
       height="137.29897"
       width="77.859024"
       id="rect1553"
       style="color:#000000;clip-rule:nonzero;display:inline;overflow:visible;visibility:visible;opacity:1;isolation:auto;mix-blend-mode:normal;color-interpolation:sRGB;color-interpolation-filters:linearRGB;solid-color:#000000;solid-opacity:1;fill:#333333;fill-opacity:1;fill-rule:nonzero;stroke:#000000;stroke-width:3.06164026;stroke-linecap:round;stroke-linejoin:miter;stroke-miterlimit:4;stroke-dasharray:none;stroke-dashoffset:0;stroke-opacity:1;color-rendering:auto;image-rendering:auto;shape-rendering:auto;text-rendering:auto;enable-background:accumulate" />
    <rect
       transform="matrix(1,0,-0.22080091,0.9753189,0,0)"
       ry="0.34071028"
       y="34.419651"
       x="36.376564"
       height="101.91891"
       width="68.267693"
       id="rect1555"
       style="color:#000000;clip-rule:nonzero;display:inline;overflow:visible;visibility:visible;opacity:1;isolation:auto;mix-blend-mode:normal;color-interpolation:sRGB;color-interpolation-filters:linearRGB;solid-color:#000000;solid-opacity:1;fill:#ffffff;fill-opacity:1;fill-rule:nonzero;stroke:none;stroke-width:3.0616405;stroke-linecap:round;stroke-linejoin:miter;stroke-miterlimit:4;stroke-dasharray:none;stroke-dashoffset:0;stroke-opacity:1;color-rendering:auto;image-rendering:auto;shape-rendering:auto;text-rendering:auto;enable-background:accumulate" />
    <rect
       transform="matrix(1,0,-0.22080091,0.9753189,0,0)"
       ry="0.32777733"
       y="24.335215"
       x="58.200687"
       height="4.4699745"
       width="24.106552"
       id="rect1557"
       style="color:#000000;clip-rule:nonzero;display:inline;overflow:visible;visibility:visible;opacity:1;isolation:auto;mix-blend-mode:normal;color-interpolation:sRGB;color-interpolation-filters:linearRGB;solid-color:#000000;solid-opacity:1;fill:#b3b3b3;fill-opacity:1;fill-rule:nonzero;stroke:none;stroke-width:3.0616405;stroke-linecap:round;stroke-linejoin:miter;stroke-miterlimit:4;stroke-dasharray:none;stroke-dashoffset:0;stroke-opacity:1;color-rendering:auto;image-rendering:auto;shape-rendering:auto;text-rendering:auto;enable-background:accumulate" />
    <ellipse
       ry="5.5217333"
       rx="5.3855052"
       transform="matrix(1,0,-0.22080091,0.9753189,0,0)"
       cy="147.18706"
       cx="70.253967"
       id="path1559"
       style="color:#000000;clip-rule:nonzero;display:inline;overflow:visible;visibility:visible;opacity:1;isolation:auto;mix-blend-mode:normal;color-interpolation:sRGB;color-interpolation-filters:linearRGB;solid-color:#000000;solid-opacity:1;fill:#b3b3b3;fill-opacity:1;fill-rule:nonzero;stroke:none;stroke-width:3.0616405;stroke-linecap:round;stroke-linejoin:miter;stroke-miterlimit:4;stroke-dasharray:none;stroke-dashoffset:0;stroke-opacity:1;color-rendering:auto;image-rendering:auto;shape-rendering:auto;text-rendering:auto;enable-background:accumulate" />
    <rect
       transform="matrix(1,0,-0.22080091,0.9753189,0,0)"
       ry="0.2575233"
       y="47.35947"
       x="36.376564"
       height="77.034637"
       width="68.267693"
       id="rect1555-5"
       style="color:#000000;clip-rule:nonzero;display:inline;overflow:visible;visibility:visible;opacity:1;isolation:auto;mix-blend-mode:normal;color-interpolation:sRGB;color-interpolation-filters:linearRGB;solid-color:#000000;solid-opacity:1;fill:#fff6d5;fill-opacity:1;fill-rule:nonzero;stroke:none;stroke-width:3.0616405;stroke-linecap:round;stroke-linejoin:miter;stroke-miterlimit:4;stroke-dasharray:none;stroke-dashoffset:0;stroke-opacity:1;color-rendering:auto;image-rendering:auto;shape-rendering:auto;text-rendering:auto;enable-background:accumulate" />
    <path
       d="m 47.30874,112.1096 c 2.708209,-0.15331 6.650291,-3.5502 5.740341,-7.4127 -0.880309,-3.74763 -2.975598,-6.917318 -2.975598,-6.917318 -6.44702,3.722498 -7.120875,14.692578 -2.76403,14.330018 z"
       style="color:#000000;isolation:auto;mix-blend-mode:normal;solid-color:#000000;fill:#ffffff;stroke:#000000;stroke-width:1.88976383;stroke-linecap:round;stroke-linejoin:round;stroke-miterlimit:4;stroke-dasharray:none;color-rendering:auto;image-rendering:auto;shape-rendering:auto"
       id="path815-6"
       inkscape:connector-curvature="0" />
    <path
       d="m 68.957648,99.832881 c -3.390338,4.623509 -10.386286,7.864999 -14.0625,4.842489 -3.565665,-2.93062 -5.32294,-7.33732 -5.32294,-7.33732 10.406954,-7.50603 25.470775,-7.032191 19.386108,2.492677 z"
       style="color:#000000;isolation:auto;mix-blend-mode:normal;solid-color:#000000;fill:#ffffff;stroke:#000000;stroke-width:1.88976383;stroke-linecap:round;stroke-linejoin:round;stroke-miterlimit:4;stroke-dasharray:none;color-rendering:auto;image-rendering:auto;shape-rendering:auto"
       id="path817-2"
       inkscape:connector-curvature="0" />
    <path
       d="m 24.172731,78.269647 c 0.989027,-2.684366 5.266967,-5.592728 8.444939,-3.474815 3.081782,2.0533 5.271994,5.154787 5.271994,5.154787 -5.348322,5.330681 -15.388201,2.586368 -13.716821,-1.680331 z"
       style="color:#000000;isolation:auto;mix-blend-mode:normal;solid-color:#000000;fill:#ffffff;stroke:#000000;stroke-width:1.88976383;stroke-linecap:round;stroke-linejoin:round;stroke-miterlimit:4;stroke-dasharray:none;color-rendering:auto;image-rendering:auto;shape-rendering:auto"
       id="path819-7"
       inkscape:connector-curvature="0" />
    <path
       d="m 41.961503,60.293225 c -5.202209,1.971455 -10.29064,8.004997 -8.72842,12.650048 1.514342,4.505054 4.916042,7.649618 4.916042,7.649618 9.974211,-8.134225 14.250812,-23.454998 3.814517,-20.299666 z"
       style="color:#000000;isolation:auto;mix-blend-mode:normal;solid-color:#000000;fill:#ffffff;stroke:#000000;stroke-width:1.88976383;stroke-linecap:round;stroke-linejoin:round;stroke-miterlimit:4;stroke-dasharray:none;color-rendering:auto;image-rendering:auto;shape-rendering:auto"
       id="path821-9"
       inkscape:connector-curvature="0" />
    <path
       d="M 65.201297,85.725421 53.55706,68.6816 72.250337,67.32434 68.725516,76.524701 Z"
       style="color:#000000;isolation:auto;mix-blend-mode:normal;solid-color:#000000;fill:#e9ddaf;stroke:#000000;stroke-width:1.88976383;stroke-linecap:round;stroke-linejoin:round;stroke-miterlimit:4;stroke-dasharray:none;color-rendering:auto;image-rendering:auto;shape-rendering:auto"
       id="path823-8"
       inkscape:connector-curvature="0" />
    <path
       d="m 64.702657,67.891869 c 2.212542,1.523462 3.913355,3.672247 4.718515,6.906553 l 2.857001,-7.455774 z"
       style="color:#000000;isolation:auto;mix-blend-mode:normal;solid-color:#000000;fill:#ff0000;stroke:#000000;stroke-width:1.88976383;stroke-linecap:round;stroke-linejoin:round;stroke-miterlimit:4;stroke-dasharray:none;color-rendering:auto;image-rendering:auto;shape-rendering:auto"
       id="path825-7"
       inkscape:connector-curvature="0" />
    <path
       d="m 56.335778,73.875873 c 4.848592,0.515838 5.70401,3.553429 5.12317,7.498851 l -28.899057,22.180656 -5.12317,-7.498847 z"
       style="color:#000000;isolation:auto;mix-blend-mode:normal;solid-color:#000000;fill:#ffcc00;stroke:#000000;stroke-width:1.88976383;stroke-miterlimit:4;stroke-dasharray:none;color-rendering:auto;image-rendering:auto;shape-rendering:auto"
       id="path827-2"
       inkscape:connector-curvature="0" />
    <path
       d="m 52.860655,68.78929 c 4.250305,-0.360404 4.583797,1.911148 3.507004,5.133249 L 27.468603,96.103199 23.961598,90.96995 Z"
       style="color:#000000;isolation:auto;mix-blend-mode:normal;solid-color:#000000;fill:#ff6600;stroke:#000000;stroke-width:1.88976383;stroke-miterlimit:4;stroke-dasharray:none;color-rendering:auto;image-rendering:auto;shape-rendering:auto"
       id="path829-5"
       inkscape:connector-curvature="0" />
    <path
       d="m 61.43063,81.328058 c 4.250306,-0.360404 4.583797,1.911148 3.507005,5.133249 l -28.899056,22.180663 -3.507005,-5.13325 z"
       style="color:#000000;isolation:auto;mix-blend-mode:normal;solid-color:#000000;fill:#ff6600;stroke:#000000;stroke-width:1.88976383;stroke-miterlimit:4;stroke-dasharray:none;color-rendering:auto;image-rendering:auto;shape-rendering:auto"
       id="path831-8"
       inkscape:connector-curvature="0" />
    <ellipse
       transform="matrix(0.56411209,0.82569822,-0.79327864,0.60885877,0,0)"
       cx="91.123367"
       cy="7.2684107"
       rx="6.2834888"
       ry="8.6296873"
       style="color:#000000;isolation:auto;mix-blend-mode:normal;solid-color:#000000;fill:#ffffff;stroke:#000000;stroke-width:1.89120793;stroke-miterlimit:4;stroke-dasharray:none;color-rendering:auto;image-rendering:auto;shape-rendering:auto"
       id="ellipse833-9" />
    <ellipse
       transform="matrix(0.56411209,0.82569822,-0.79327864,0.60885877,0,0)"
       cx="91.123367"
       cy="7.2684107"
       rx="2.9287083"
       ry="4.0213509"
       style="color:#000000;isolation:auto;mix-blend-mode:normal;solid-color:#000000;stroke-width:1.89120793;stroke-miterlimit:4;stroke-dasharray:none;color-rendering:auto;image-rendering:auto;shape-rendering:auto"
       id="ellipse835-7" />
    <ellipse
       transform="matrix(0.56411209,0.82569822,-0.79327864,0.60885877,0,0)"
       cx="103.5889"
       cy="7.2684107"
       rx="6.2834888"
       ry="8.6296873"
       style="color:#000000;isolation:auto;mix-blend-mode:normal;solid-color:#000000;fill:#ffffff;stroke:#000000;stroke-width:1.89120793;stroke-miterlimit:4;stroke-dasharray:none;color-rendering:auto;image-rendering:auto;shape-rendering:auto"
       id="ellipse837-0" />
    <ellipse
       transform="matrix(0.56411209,0.82569822,-0.79327864,0.60885877,0,0)"
       cx="103.5889"
       cy="7.2684107"
       rx="2.9287083"
       ry="4.0213509"
       style="color:#000000;isolation:auto;mix-blend-mode:normal;solid-color:#000000;stroke-width:1.89120793;stroke-miterlimit:4;stroke-dasharray:none;color-rendering:auto;image-rendering:auto;shape-rendering:auto"
       id="ellipse839-8" />
    <path
       d="m 21.975286,99.186738 1.286534,-7.707053 7.570445,1.855508 5.488457,7.297827 -0.982422,8.45012 -7.206521,-1.17778 z"
       style="color:#000000;isolation:auto;mix-blend-mode:normal;solid-color:#000000;fill:#e9ddaf;stroke:#000000;stroke-width:1.88976383;stroke-linecap:round;stroke-linejoin:round;stroke-miterlimit:4;stroke-dasharray:none;color-rendering:auto;image-rendering:auto;shape-rendering:auto"
       id="path841-8"
       inkscape:connector-curvature="0" />
    <ellipse
       transform="matrix(0.56411209,0.82569822,-0.79327864,0.60885877,0,0)"
       cx="97.594376"
       cy="32.485439"
       rx="3.1478922"
       ry="1.040982"
       style="color:#000000;isolation:auto;mix-blend-mode:normal;solid-color:#000000;fill:#ff0000;stroke:#000000;stroke-width:1.89120793;stroke-linecap:round;stroke-linejoin:round;stroke-miterlimit:4;stroke-dasharray:none;color-rendering:auto;image-rendering:auto;shape-rendering:auto"
       id="ellipse843-5" />
    <ellipse
       transform="matrix(0.5123526,0.85877518,-0.77244921,0.63507654,0,0)"
       cx="93.019814"
       cy="-0.3328509"
       rx="1.8882242"
       ry="2.5850589"
       style="color:#000000;isolation:auto;mix-blend-mode:normal;solid-color:#000000;fill:#ffffff;stroke-width:1.90049076;stroke-miterlimit:4;stroke-dasharray:none;color-rendering:auto;image-rendering:auto;shape-rendering:auto"
       id="ellipse845-9" />
    <ellipse
       transform="matrix(0.5123526,0.85877518,-0.77244921,0.63507654,0,0)"
       cx="105.71809"
       cy="-1.1302447"
       rx="1.8882242"
       ry="2.5850589"
       style="color:#000000;isolation:auto;mix-blend-mode:normal;solid-color:#000000;fill:#ffffff;stroke-width:1.90049076;stroke-miterlimit:4;stroke-dasharray:none;color-rendering:auto;image-rendering:auto;shape-rendering:auto"
       id="ellipse847-6" />
    <path
       inkscape:connector-curvature="0"
       id="path1657"
       d="M 25.724009,46.190588 H 94.358326"
       style="color:#000000;clip-rule:nonzero;display:inline;overflow:visible;visibility:visible;opacity:1;isolation:auto;mix-blend-mode:normal;color-interpolation:sRGB;color-interpolation-filters:linearRGB;solid-color:#000000;solid-opacity:1;fill:#fff6d5;fill-opacity:1;fill-rule:nonzero;stroke:#000000;stroke-width:3.02362204;stroke-linecap:butt;stroke-linejoin:miter;stroke-miterlimit:4;stroke-dasharray:none;stroke-dashoffset:0;stroke-opacity:1;color-rendering:auto;image-rendering:auto;shape-rendering:auto;text-rendering:auto;enable-background:accumulate" />
    <path
       inkscape:connector-curvature="0"
       id="path1657-0"
       d="M 8.8941406,120.53126 H 77.528457"
       style="color:#000000;clip-rule:nonzero;display:inline;overflow:visible;visibility:visible;opacity:1;isolation:auto;mix-blend-mode:normal;color-interpolation:sRGB;color-interpolation-filters:linearRGB;solid-color:#000000;solid-opacity:1;fill:#fff6d5;fill-opacity:1;fill-rule:nonzero;stroke:#000000;stroke-width:3.02362204;stroke-linecap:butt;stroke-linejoin:miter;stroke-miterlimit:4;stroke-dasharray:none;stroke-dashoffset:0;stroke-opacity:1;color-rendering:auto;image-rendering:auto;shape-rendering:auto;text-rendering:auto;enable-background:accumulate" />
    <path
       sodipodi:type="star"
       style="color:#000000;clip-rule:nonzero;display:inline;overflow:visible;visibility:visible;opacity:1;isolation:auto;mix-blend-mode:normal;color-interpolation:sRGB;color-interpolation-filters:linearRGB;solid-color:#000000;solid-opacity:1;fill:#800080;fill-opacity:1;fill-rule:nonzero;stroke:none;stroke-width:5.52316523;stroke-linecap:butt;stroke-linejoin:miter;stroke-miterlimit:4;stroke-dasharray:none;stroke-dashoffset:0;stroke-opacity:1;color-rendering:auto;image-rendering:auto;shape-rendering:auto;text-rendering:auto;enable-background:accumulate"
       id="path2022-7"
       sodipodi:sides="7"
       sodipodi:cx="-58.818035"
       sodipodi:cy="-17.069559"
       sodipodi:r1="6.229311"
       sodipodi:r2="10.211985"
       sodipodi:arg1="0.78539816"
       sodipodi:arg2="1.2341971"
       inkscape:flatsided="false"
       inkscape:rounded="0.49"
       inkscape:randomized="-0.203"
       d="m -55.13136,-12.654447 c -1.803267,1.813121 0.516841,5.6133368 -1.745993,6.776178 -2.262834,1.1628411 0.17503,-5.160256 -2.202834,-5.889123 -2.377865,-0.728867 -4.896731,6.6792348 -7.10406,5.3620424 -2.207329,-1.3171924 1.427072,-6.0179334 0.0556,-8.2176584 -1.371466,-2.199726 -1.781208,3.514328 -1.909348,0.64594 -0.12814,-2.868387 0.82629,-2.942425 1.359228,-5.417818 0.532938,-2.475393 -2.776444,-3.882711 -0.489189,-5.423864 2.287255,-1.541153 3.794927,4.005917 6.443623,3.789404 2.648696,-0.216514 -0.678882,-6.441567 1.744434,-5.600413 2.423317,0.841153 -0.108221,3.024106 2.037729,4.604987 2.145949,1.58088 3.441921,-0.971217 5.06183,0.835203 1.619908,1.806421 -2.000869,-0.659877 -2.095389,1.700243 -0.09452,2.360119 3.717012,1.669114 3.263777,4.296781 -0.453234,2.627667 -2.616147,0.724978 -4.419413,2.538098 z"
       inkscape:transform-center-x="0.62593554"
       inkscape:transform-center-y="-1.5632295"
       transform="matrix(0.62732954,-0.06887678,-0.11090948,0.4899079,115.19237,75.05732)" />
    <path
       sodipodi:type="star"
       style="color:#000000;clip-rule:nonzero;display:inline;overflow:visible;visibility:visible;opacity:1;isolation:auto;mix-blend-mode:normal;color-interpolation:sRGB;color-interpolation-filters:linearRGB;solid-color:#000000;solid-opacity:1;fill:#ff0000;fill-opacity:1;fill-rule:nonzero;stroke:none;stroke-width:5.60159683;stroke-linecap:butt;stroke-linejoin:miter;stroke-miterlimit:4;stroke-dasharray:none;stroke-dashoffset:0;stroke-opacity:1;color-rendering:auto;image-rendering:auto;shape-rendering:auto;text-rendering:auto;enable-background:accumulate"
       id="path2022-0"
       sodipodi:sides="5"
       sodipodi:cx="-58.818035"
       sodipodi:cy="-17.069559"
       sodipodi:r1="6.229311"
       sodipodi:r2="10.211985"
       sodipodi:arg1="0.78539816"
       sodipodi:arg2="1.4137167"
       inkscape:flatsided="false"
       inkscape:rounded="0.49"
       inkscape:randomized="-0.203"
       d="m -55.13136,-12.654447 c -2.142053,2.153759 1.515395,3.2931371 -1.254741,4.3236214 -2.770136,1.0304844 -3.685247,-1.4632875 -6.027319,-3.2300794 -2.342073,-1.766792 -3.102575,2.2958433 -3.998122,-0.95551 -0.895547,-3.251353 -0.171637,-2.802962 0.329945,-6.067034 0.501583,-3.264072 -3.803324,-4.404606 -1.086354,-6.235301 2.71697,-1.830695 2.55928,-0.176123 5.640544,-0.308161 3.081263,-0.132037 4.700468,-4.326061 7.511047,-2.800888 2.810579,1.525174 -1.726851,3.971003 -0.287723,6.440648 1.439129,2.469646 3.447976,3.250608 3.623989,6.594468 0.176014,3.343859 -2.309214,0.08448 -4.451266,2.238236 z"
       inkscape:transform-center-x="0.63496469"
       inkscape:transform-center-y="-1.4981491"
       transform="matrix(0.63637843,-0.06987029,-0.10629217,0.46951239,117.2932,63.290317)" />
    <path
       sodipodi:type="star"
       style="color:#000000;clip-rule:nonzero;display:inline;overflow:visible;visibility:visible;opacity:1;isolation:auto;mix-blend-mode:normal;color-interpolation:sRGB;color-interpolation-filters:linearRGB;solid-color:#000000;solid-opacity:1;fill:#2ca02c;fill-opacity:1;fill-rule:nonzero;stroke:none;stroke-width:5.61430883;stroke-linecap:butt;stroke-linejoin:miter;stroke-miterlimit:4;stroke-dasharray:none;stroke-dashoffset:0;stroke-opacity:1;color-rendering:auto;image-rendering:auto;shape-rendering:auto;text-rendering:auto;enable-background:accumulate"
       id="path2022-7-3-6-7"
       sodipodi:sides="8"
       sodipodi:cx="-58.818035"
       sodipodi:cy="-17.069559"
       sodipodi:r1="6.229311"
       sodipodi:r2="10.211985"
       sodipodi:arg1="0.78539816"
       sodipodi:arg2="1.1780972"
       inkscape:flatsided="false"
       inkscape:rounded="0.49"
       inkscape:randomized="-0.203"
       d="m -55.13136,-12.654447 c -1.708432,1.717768 3.986631,3.898356 1.591956,4.8168797 -2.394675,0.9185238 -1.948518,-2.1382467 -4.473346,-2.2288577 -2.524827,-0.09061 -4.67304,1.6979934 -6.782608,0.6857239 -2.109569,-1.0122699 3.632036,-1.5733359 1.862406,-3.5353419 -1.769631,-1.962006 -2.706996,3.8742392 -3.689763,1.578568 -0.982767,-2.295672 1.088556,-3.118384 0.781922,-5.61318 -0.306634,-2.494797 -1.889704,-2.912842 -0.81666,-5.053691 1.073044,-2.14085 1.778054,0.979988 3.693631,-0.822426 1.915576,-1.802415 -4.179474,-1.846257 -1.819669,-2.483584 2.359804,-0.637326 4.254628,0.381428 6.75714,0.347992 2.50251,-0.03344 2.147851,-4.215053 4.498815,-2.950924 2.350963,1.264129 -3.379454,3.684504 -1.634695,5.348112 1.744759,1.663607 3.99094,-2.627376 4.903608,-0.09522 0.912669,2.532158 -2.962065,3.964019 -3.133923,6.368443 -0.171859,2.404424 3.966703,2.150562 3.168661,4.298428 -0.798042,2.1478658 -3.199044,-2.378691 -4.907475,-0.660924 z"
       inkscape:transform-center-x="0.62593554"
       inkscape:transform-center-y="-1.5128867"
       transform="matrix(0.62732954,-0.06887678,-0.10733768,0.47413058,103.3426,63.341978)" />
  </g>
  <g
     id="thumb"
     transform="translate(2.4711763,8.1341163)">
    <path
       sodipodi:nodetypes="sssssss"
       inkscape:connector-curvature="0"
       id="rect2143"
       d="m 39.504219,131.99454 c 5.648076,3.11178 7.330938,10.85678 3.77323,17.36547 l -9.129866,16.70273 c -6.503261,11.89747 -10.968863,9.24339 -16.61694,6.13161 -5.648079,-3.11177 -11.0572435,-4.03964 -3.773233,-17.36546 l 9.129866,-16.70274 c 3.557708,-6.50869 10.968864,-9.24338 16.616943,-6.13161 z"
       style="color:#000000;clip-rule:nonzero;display:inline;overflow:visible;visibility:visible;opacity:1;isolation:auto;mix-blend-mode:normal;color-interpolation:sRGB;color-interpolation-filters:linearRGB;solid-color:#000000;solid-opacity:1;fill:#deaa87;fill-opacity:1;fill-rule:nonzero;stroke:#000000;stroke-width:2.83464575;stroke-linecap:butt;stroke-linejoin:miter;stroke-miterlimit:4;stroke-dasharray:none;stroke-dashoffset:0;stroke-opacity:1;color-rendering:auto;image-rendering:auto;shape-rendering:auto;text-rendering:auto;enable-background:accumulate" />
    <path
       sodipodi:nodetypes="sssssssss"
       inkscape:connector-curvature="0"
       id="rect2143-7"
       d="m 35.96181,136.36849 0.854063,0.47031 c 3.194135,1.75893 4.349217,5.76486 2.589845,8.98192 l -2.295797,4.19795 c -1.759396,3.21705 -4.592875,2.2802 -7.787025,0.52127 l -0.854063,-0.47031 c -3.194136,-1.75893 -5.503555,-3.65409 -3.744189,-6.87116 l 2.296094,-4.19779 c 1.759277,-3.21712 5.747218,-4.39095 8.941362,-2.63203 z"
       style="color:#000000;clip-rule:nonzero;display:inline;overflow:visible;visibility:visible;opacity:1;isolation:auto;mix-blend-mode:normal;color-interpolation:sRGB;color-interpolation-filters:linearRGB;solid-color:#000000;solid-opacity:1;fill:#ffe6d5;fill-opacity:1;fill-rule:nonzero;stroke:#000000;stroke-width:2.83464575;stroke-linecap:butt;stroke-linejoin:miter;stroke-miterlimit:4;stroke-dasharray:none;stroke-dashoffset:0;stroke-opacity:1;color-rendering:auto;image-rendering:auto;shape-rendering:auto;text-rendering:auto;enable-background:accumulate" />
    <path
       inkscape:connector-curvature="0"
       id="path2169"
       d="m 20.505827,153.14778 c 0,0 6.494554,6.7038 11.61466,6.39903"
       style="color:#000000;clip-rule:nonzero;display:inline;overflow:visible;visibility:visible;opacity:1;isolation:auto;mix-blend-mode:normal;color-interpolation:sRGB;color-interpolation-filters:linearRGB;solid-color:#000000;solid-opacity:1;fill:#deaa87;fill-opacity:1;fill-rule:nonzero;stroke:#000000;stroke-width:2.83464575;stroke-linecap:round;stroke-linejoin:round;stroke-miterlimit:4;stroke-dasharray:none;stroke-dashoffset:0;stroke-opacity:1;color-rendering:auto;image-rendering:auto;shape-rendering:auto;text-rendering:auto;enable-background:accumulate" />
    <path
       inkscape:connector-curvature="0"
       id="path2169-1"
       d="m 18.58034,157.13282 c 0,0 6.494554,6.7038 11.614661,6.39903"
       style="color:#000000;clip-rule:nonzero;display:inline;overflow:visible;visibility:visible;opacity:1;isolation:auto;mix-blend-mode:normal;color-interpolation:sRGB;color-interpolation-filters:linearRGB;solid-color:#000000;solid-opacity:1;fill:#deaa87;fill-opacity:1;fill-rule:nonzero;stroke:#000000;stroke-width:2.83464575;stroke-linecap:round;stroke-linejoin:round;stroke-miterlimit:4;stroke-dasharray:none;stroke-dashoffset:0;stroke-opacity:1;color-rendering:auto;image-rendering:auto;shape-rendering:auto;text-rendering:auto;enable-background:accumulate" />
  </g>
</svg>
