<?xml version="1.0" encoding="UTF-8" standalone="no"?>
<!-- Created with Inkscape (http://www.inkscape.org/) -->

<svg
   xmlns:dc="http://purl.org/dc/elements/1.1/"
   xmlns:cc="http://creativecommons.org/ns#"
   xmlns:rdf="http://www.w3.org/1999/02/22-rdf-syntax-ns#"
   xmlns:svg="http://www.w3.org/2000/svg"
   xmlns="http://www.w3.org/2000/svg"
   xmlns:sodipodi="http://sodipodi.sourceforge.net/DTD/sodipodi-0.dtd"
   xmlns:inkscape="http://www.inkscape.org/namespaces/inkscape"
   width="30.039274"
   height="30.042654"
   viewBox="0 0 30.039274 30.042653"
   id="svg4673"
   version="1.1"
   inkscape:version="0.91 r13725"
   sodipodi:docname="zoom-icon.svg">
  <defs
     id="defs4675" />
  <sodipodi:namedview
     id="base"
     pagecolor="#ffffff"
     bordercolor="#666666"
     borderopacity="1.0"
     inkscape:pageopacity="0.0"
     inkscape:pageshadow="2"
     inkscape:zoom="10.96641"
     inkscape:cx="10.722982"
     inkscape:cy="15.853595"
     inkscape:document-units="px"
     inkscape:current-layer="layer1"
     showgrid="false"
     fit-margin-top="0"
     fit-margin-left="0"
     fit-margin-right="0"
     fit-margin-bottom="0"
     units="px" />
  <metadata
     id="metadata4678">
    <rdf:RDF>
      <cc:Work
         rdf:about="">
        <dc:format>image/svg+xml</dc:format>
        <dc:type
           rdf:resource="http://purl.org/dc/dcmitype/StillImage" />
        <dc:title></dc:title>
      </cc:Work>
    </rdf:RDF>
  </metadata>
  <g
     inkscape:label="Layer 1"
     inkscape:groupmode="layer"
     id="layer1">
    <path
       id="path4355"
       d="m 29.14602,27.54072 -1.60531,1.60536 c -0.53321,0.53318 -1.39543,0.53318 -1.92297,0 l -5.66113,-5.6555 c -0.25526,-0.25522 -0.39706,-0.60125 -0.39706,-0.96433 l 0,-0.9246 c -2.0024,1.56564 -4.52098,2.49593 -7.26078,2.49593 C 5.78108,24.09758 0.5,18.81645 0.5,12.29879 0.5,5.7810705 5.78108,0.50000047 12.29877,0.50000047 c 6.51767,0 11.79875,5.28107003 11.79875,11.79878953 0,2.7398 -0.93028,5.25839 -2.49589,7.26081 l 0.92462,0 c 0.36303,0 0.70905,0.14173 0.96431,0.39703 l 5.65546,5.65551 c 0.52755,0.53318 0.52755,1.39541 0,1.92858 z M 20.01333,12.29879 c 0,-4.2657195 -3.44886,-7.7146195 -7.71456,-7.7146195 -4.26572,0 -7.71459,3.4489 -7.71459,7.7146195 0,4.26572 3.44887,7.71454 7.71459,7.71454 4.2657,0 7.71456,-3.44882 7.71456,-7.71454 z"
       inkscape:connector-curvature="0"
       style="display:inline;opacity:1;fill:#ffffff;stroke:#000000;stroke-width:1;stroke-miterlimit:4;stroke-dasharray:none"
       sodipodi:nodetypes="ccccscsssscscccsssss" />
    <path
       inkscape:connector-curvature="0"
       style="display:inline;opacity:1;fill:#ffffff;stroke:#000000;stroke-width:1"
       d="m 17.740196,11.429805 0,1.701589 c 0,0.350949 -0.307739,0.638152 -0.683863,0.638152 l -9.5740911,0 c -0.3761235,0 -0.6838634,-0.287203 -0.6838634,-0.638152 l 0,-1.701589 c 0,-0.350949 0.3077399,-0.638089 0.6838634,-0.638089 l 9.5740911,0 c 0.376124,0 0.683863,0.28714 0.683863,0.638089 z"
       id="minus" />
    <path
       style="display:inline;opacity:1;fill:#ffffff;stroke:#000000;stroke-width:1;stroke-miterlimit:4;stroke-dasharray:none"
       d="m 17.770646,11.366543 0,1.81518 c 0,0.37438 -0.3063,0.68075 -0.68069,0.68075 l -3.17659,0 0,3.17656 c 0,0.37438 -0.30631,0.68069 -0.68069,0.68069 l -1.8152,0 c -0.37439,0 -0.6807,-0.30631 -0.6807,-0.68069 l 0,-3.17656 -3.1766,0 c -0.37438,0 -0.68069,-0.30637 -0.68069,-0.68075 l 0,-1.81518 c 0,-0.37437 0.30631,-0.68069 0.68069,-0.68069 l 3.1766,0 0,-3.1766104 c 0,-0.37438 0.30631,-0.68069 0.6807,-0.68069 l 1.8152,0 c 0.37438,0 0.68069,0.30631 0.68069,0.68069 l 0,3.1766104 3.17659,0 c 0.37439,0 0.68069,0.30632 0.68069,0.68069 z"
       id="plus"
       inkscape:connector-curvature="0" />
  </g>
</svg>
