<svg height="3000" width="2350" viewBox="0 0 2350 2999.9999">
    <g transform="translate(0 1505)">
        <rect id="sky" ry="0" height="2989" width="2350" y="-1499" fill="#f3f7fa" color="#000"/>
        <path fill="#8aa3b2" color="#000" d="M3.676 1364h2345v129.6h-2345z"/>
        <path fillOpacity=".759" fill="#6e93a9" color="#000" d="M3.676 1183h2345v71.34h-2345z"/>
        <path fill="#b5c5ce" color="#000" d="M3.676 1369h2345v-24.12h-2345z"/>
        <path fill="#ccd7dd" color="#000" d="M3.676 1254h2345v94.72h-2345z"/>
        <path fill="#fc0" color="#000" d="M3.676 1379h2345v6.348h-2345zM3.676 1392h2345v6.348h-2345z"/>
        <path d="M6.679 1478h2338" stroke="#fff" stroke-dasharray="64, 32" strokeWidth="8" fill="none"/>
    </g>
    <g transform="translate(0 1505)">
        <path fill="#cddce4" color="#000" d="M-13.3 828.2h2367v300.5h-2367z"/>
        <g id="ground" transform="matrix(1.023 0 0 1 -.385 -1165)" fill="#ebf1f4" color="#000">
            <ellipse rx="487.9" ry="153.8" cy="1220" cx="679.8"/>
            <path d="M0 1332a449.8 153.8 0 0 0 124.7 6 449.8 153.8 0 0 0 449.8-154 449.8 153.8 0 0 0-449.8-154A449.8 153.8 0 0 0 0 1036v295.3z"/>
            <ellipse rx="449.8" ry="153.8" cy="1254" cx="608.5"/>
            <ellipse rx="365" ry="153.8" cy="1222" cx="1848"/>
            <ellipse rx="365" ry="153.8" cy="1243" cx="1403"/>
            <ellipse rx="383.4" ry="153.8" cy="1311" cx="951.4"/>
            <ellipse rx="383.4" ry="153.8" cy="1325" cx="1561"/>
            <ellipse rx="342.9" ry="168.2" cy="1310" cx="532.3"/>
            <ellipse rx="383.4" ry="153.8" cy="1286" cx="1966"/>
            <path d="M2048 1182a591.2 219.4 0 0 0-591.2 219.4 591.2 219.4 0 0 0 57.96 94.12h835.5v-282.4a591.2 219.4 0 0 0-302.3-31.14zM457.2 1272A591.2 219.4 0 0 0 0 1352v143.2h1048a591.2 219.4 0 0 0 .402-4.219 591.2 219.4 0 0 0-591.2-219.4z"/>
            <path d="M1322 1334a591.2 219.4 0 0 0-569.3 161h1139a591.2 219.4 0 0 0-569.9-161zM226.5 1114a219.4 398.7 88.33 0 0-28.19.022 219.4 398.7 88.33 0 0-198.3 34v347.8h456.6a219.4 398.7 88.33 0 0 140.3-170 219.4 398.7 88.33 0 0-370.4-212z"/>
        </g>
        <g fill="#e0e9ee">
            <path d="M1109.217-102.066s12.482 24.526-1.556 31.535c-14.04 7.007-21.84 35.034-21.84 35.034h-29.638c-7.799 75.318-57.71 95.87-57.71 95.87h-16.95v33.275h16.95v579.747l134.978 1.405v.056l2.68-.03 2.684.03v-.056l134.979-1.405V93.648h16.95V60.374h-16.95s-48.353-22.303-57.71-95.87h-29.639s-7.799-28.026-21.84-35.035c-14.04-7.007-1.556-31.535-1.556-31.535h-29.639zM1928.73-109.22v.29c-27.22 3.06-52.167 17.923-60.595 44.701l-26.444 13.1v34.212s-28.15-2.184-34.976 29.843h-20.47v661.918h287.477V12.926h-20.47c-6.825-32.028-34.976-29.843-34.976-29.843V-51.13l-26.445-13.099c-8.422-26.788-33.366-41.647-60.594-44.702v-.288c-.426.036-.846.1-1.27.141-.425-.042-.846-.107-1.271-.141z" fillRule="evenodd"/>
            <path d="M676.219-61.56V4.99h-80.281v43.783h18.404v626.15H956.18V48.773h18.439V4.99h-82.141v-36.842h5.646v-13.08H828.31v13.08h5.646V4.99h-51.96V-6.891h-71.88v11.88h-9.236v-22.572h-9.245V4.99h-7.186v-66.55zM426.578-143.635l-74.462 41.086-69.263 38.224h-23.957v34.745h12.956v14.307h8.382v690.147h292.683V-15.273h8.385V-29.58h12.955v-34.745H570.3l-69.262-38.224zM77.94-266.796v102.376H64.444v15.584h-30.68v62.335h-55.24v20.04H-9.2V9.234h-67.507v40.07h25.773v625.57H221.52V49.304h25.773V9.235h-67.506v-75.695h12.275v-20.04h-55.23v-62.335H106.15v-15.584H92.652v-102.376H77.923zM1656.706 29.893v75.23h93.573v49.497h-21.443v520.196h-398.221V154.62h-21.487v-49.497h95.725V-52.55h-6.579V-67.33h81.34v14.781h-6.578v157.673h60.542V91.686h83.742v13.437h10.76V79.602h10.77v25.521h8.37v-75.23zM2250.164-177.857v40.535h-13.498v15.583h-30.68v62.335h-55.24v20.04h12.276V9.263h-55.455v40.07h25.774v625.57h272.453V49.333h25.773V9.264h-55.455v-48.627h12.276v-20.04h-55.231v-62.335h-30.68v-15.583h-13.498v-40.535z" color="#000"/>
        </g>
        <g fill="#cddce4">
            <path d="M1262.62 193.473s12.48 24.53-1.556 31.537c-14.041 7.007-21.833 35.036-21.833 35.036h-29.635c-7.799 75.323-57.718 95.869-57.718 95.869h-16.945v33.28h16.945v579.811l135.072 1.405v.056l2.68-.03 2.683.03v-.056l135.072-1.405v-579.81h16.945v-33.281h-16.945s-48.353-22.3-57.718-95.87h-29.635s-7.799-28.028-21.833-35.035c-14.042-7.007-1.556-31.537-1.556-31.537h-29.637zM279.82 186.341v.29c-20.683 3.059-39.634 17.919-46.035 44.702l-20.089 13.108v34.21s-21.39-2.185-26.57 29.839h-15.554v661.993h218.45V308.49h-15.554c-5.185-32.024-26.57-29.84-26.57-29.84v-34.209l-20.09-13.108c-6.4-26.783-25.352-41.647-46.036-44.703v-.289c-.323.037-.642.102-.965.142-.323-.043-.642-.107-.966-.142zM526.78 17.334l-22.488 176.478h-28.486c-7.496 72.403-55.47 185.875-55.47 185.875h-7.943v31.99h7.943v557.284l129.83 1.35v.054l2.576-.028 2.58.028v-.054l129.83-1.35V411.677h7.945v-31.99h-7.944s-46.48-115.125-55.47-185.875h-28.487c-8.121-55.411-13.083-117.728-22.488-176.478h-28.491z" fillRule="evenodd"/>
            <path d="M1546.877 137.892v75.232h-93.543v49.503h21.44v707.84h398.261v-707.84h21.48v-49.503h-95.699v-41.646h6.579v-14.784h-81.346v14.784h6.578v41.646h-60.54v-13.437h-83.745v13.437h-10.765v-25.526h-10.766v25.526h-8.371v-75.232zM917.885 188.832l-99.298 39.235-92.373 36.495H694.27v33.18h17.277v13.663h11.179v659.05h390.298v-659.05h11.178V297.74h17.277v-33.179h-31.943l-92.373-36.495z" color="#000"/>
            <path d="M2044.829 28.767v102.412h-13.507v15.587h-30.684v62.34H1945.4v20.036h12.277v75.697h-67.506v40.073h25.775v625.543h272.462V344.912h25.775v-40.073h-67.506v-75.697h12.267v-20.036h-55.238v-62.34h-30.683V131.18h-13.508V28.767h-14.727zM2371.42 78.462V223.81l-82.595 73.739v-63.2h-16.52v77.95l-55.068 49.151v609.13h280.829V110.824l-52.315 46.707V78.597h-74.34z" color="#000"/>
            <path d="M-58.867 157.588v59.962a58.64 58.64 0 0 0-6.584 14.105l-26.45 13.109v34.209s-28.154-2.185-34.978 29.84h-20.472v661.993H140.253V308.812h-20.472c-6.826-32.024-34.978-29.84-34.978-29.84v-34.208l-26.45-13.109c-2.112-6.717-5.264-12.678-9.23-17.897v-56.17H22.806v35.975c-7.8-3.42-16.3-5.626-25.049-6.608v-.29c-.426.038-.846.102-1.27.142-.426-.042-.846-.107-1.272-.141v.289c-7.294.82-14.414 2.494-21.108 5.009v-34.379h-32.9z" fillRule="evenodd"/>
            <path color="#000" d="M1832.14 494.245h165.212v362.693h-165.211zM2132.525 483.152h155.131V829.09h-155.131zM340.3 483.152h100.105V801.13H340.301zM55.037 460.851h170.15v184.063H55.037zM665.885 510.999h148.579v353.297h-148.58z"/>
            <path color="#000" d="M635.645 432.89h1255.968v401.748H635.645z"/>
        </g>
        <g fill="#c2d4de">
            <path d="M284.76 518.244v66.493h-16.45v30.327l-3.79-1.377-38.98-14.15v-59.124h-9.868v55.547l-59.22-21.497-108.058 39.235-7.077 2.57v-38.907H-8.025v56.827l-44.1 16.017H-86.89v33.18h18.81v13.663h12.166V806.42h-17.902v73.886h17.902v125.765h424.771V697.036h12.167v-13.663h18.81v-33.179h-34.767l-47.386-17.206v-48.246h-23.033v-66.494h-9.868zM536.76 544.166v76.478l-74.945 29.613h-31.943v33.18h17.277V697.1h11.179v309.036h390.297V697.1h11.179v-13.664h17.277v-33.179h-31.944l-41.922-16.56v-37.798H773.61v26.104l-20.836-8.234-99.298-39.236-93.693 37.028v-67.376H536.75zM1308.888 555.26v76.478l-54.543 28.368-23.254-.528v33.179l12.58.286v13.663l8.136.184v309.036l284.054 6.448V713.338l8.139.185V699.86l12.58.285v-33.179l-23.255-.527-30.512-17.263v-37.798l-21.551-.489v26.104l-15.17-8.578-72.274-40.877-68.191 35.477v-67.377l-16.763-.38z" color="#000"/>
            <path d="M1040.76 562.165v.29c-27.226 3.059-52.174 17.919-60.59 44.702l-26.45 13.108v34.21s-28.154-2.185-34.978 29.839h-20.473v333.26h287.605v-333.26H1165.4c-6.825-32.024-34.977-29.84-34.977-29.84v-34.209l-26.45-13.108c-8.423-26.783-33.365-41.646-60.591-44.703v-.289c-.426.037-.846.102-1.271.142-.425-.043-.845-.107-1.271-.142z" fillRule="evenodd"/>
            <path d="M1630.44 861.806v40.638h-72.374v118.181h319.132v-118.18h-26.318v-33.247h-75.661v33.246h-121.666v-40.638h-23.032z" color="#000"/>
            <path d="M2241.288 817.092v.207c-13.517 2.215-25.906 12.962-30.089 32.342l-13.134 9.48v3.886c-15.03-25.04-54.372-38.986-97.171-41.94v-.29c-.694.037-1.377.102-2.07.142-.692-.042-1.378-.107-2.071-.141v.289c-44.352 3.06-84.995 17.92-98.724 44.702l-43.092 13.098v34.209s-45.874-2.183-56.992 29.85h-33.355v78.29h468.426v-78.29h-19.737v-37.469h-10.17c-3.39-23.172-17.368-21.598-17.368-21.598v-24.757l-13.134-9.48c-4.183-19.38-16.572-30.135-30.09-32.342v-.208c-.21.027-.42.073-.631.102-.211-.03-.42-.077-.631-.102z" fillRule="evenodd"/>
            <path d="M2476.152 555.26v76.478l54.543 28.368 23.254-.528v33.179l-12.58.286v13.663l-8.136.184v309.036l-284.054 6.448V713.338l-8.139.185V699.86l-12.58.285v-33.179l23.255-.527 30.512-17.263v-37.798l21.551-.489v26.104l15.17-8.578 72.274-40.877 68.191 35.477v-67.377l16.763-.38zM1848.168 672.422v57.29l41.126 21.26 17.53-.396v24.859l-9.483.214v10.235l-6.134.139v231.494l-214.2 4.83V790.855l-6.136.138v-10.235l-9.482.214v-24.86l17.529-.395 23.002-12.927v-28.323l16.25-.366v19.55l11.43-6.428 54.492-30.62 51.419 26.579v-50.476l12.64-.285zM325.08 749.511h110.074v172.97H325.08z" color="#000"/>
            <path color="#000" d="M385.56 833.28h105.134v122.708H385.56z"/>
        </g>
        <path d="M-47.88 843.467c-32.135.049-59.401 28.447-64.129 66.777-.262-.017-.525-.03-.787-.043-24.857.021-46.156 19.493-50.632 46.287a63.582 63.582 0 0 0-1.914-.088c-32.931.03-59.855 24.406-60.712 54.993-6.108 5.843-12.902 18.927-18.134 32.284h451.383c2.555-9.92 3.596-20.693 3.606-29.522-.012-24.135-16.128-44.42-37.467-47.148-3.007-42.461-27.307-74.723-56.307-74.769-16.067.035-31.379 10.111-42.104 27.723-7.858-21.44-26.188-35.398-46.51-35.42-6.032.011-12.014 1.26-17.66 3.685C.02 860.923-22.781 843.501-47.83 843.467z" fill="#a7c1d0" color="#000"/>
        <path d="M256.536 844.373c-32.135.048-59.401 28.447-64.129 66.776-.262-.017-.525-.03-.787-.043-24.857.022-46.156 19.494-50.632 46.288a63.582 63.582 0 0 0-1.914-.088c-32.931.03-59.855 24.406-60.712 54.992-6.108 5.844-12.902 18.927-18.134 32.285h451.383c2.555-9.92 3.596-20.693 3.606-29.523-.012-24.134-16.128-44.42-37.467-47.148-3.007-42.46-27.307-74.723-56.307-74.768-16.067.035-31.379 10.11-42.104 27.723-7.858-21.44-26.188-35.398-46.51-35.42-6.032.01-12.014 1.26-17.66 3.685-10.734-27.304-33.535-44.725-58.584-44.76zM901.656 844.373c-32.135.048-59.401 28.447-64.129 66.776-.262-.017-.525-.03-.787-.043-24.857.022-46.156 19.494-50.632 46.288a63.582 63.582 0 0 0-1.914-.088c-32.931.03-59.855 24.406-60.712 54.992-6.108 5.844-12.902 18.927-18.134 32.285h451.383c2.555-9.92 3.596-20.693 3.606-29.523-.012-24.134-16.128-44.42-37.467-47.148-3.007-42.46-27.307-74.723-56.307-74.768-16.067.035-31.379 10.11-42.104 27.723-7.858-21.44-26.188-35.398-46.51-35.42-6.032.01-12.014 1.26-17.66 3.685-10.734-27.304-33.535-44.725-58.584-44.76z" fill="#a7c1d0" color="#000"/>
        <path d="M1407.672 920.896c32.135.03 59.401 17.569 64.129 41.25.262-.011.525-.02.787-.027 24.857.013 46.156 12.044 50.632 28.594a98.073 98.073 0 0 1 1.914-.054c32.931.018 59.855 15.078 60.712 33.96 6.108 3.609 12.902 11.682 18.134 19.934h-451.383c-2.555-6.127-3.596-12.78-3.606-18.236.012-14.909 16.128-27.44 37.467-29.126 3.007-26.229 27.307-46.152 56.307-46.186 16.067.021 31.379 6.245 42.104 17.127 7.858-13.244 26.188-21.859 46.51-21.881 6.032.01 12.014.777 17.66 2.276 10.734-16.867 33.535-27.62 58.584-27.643zM686.952 937.876c-32.135.026-59.401 15.09-64.129 35.42-.262-.011-.525-.016-.787-.022-24.857.011-46.156 10.338-50.632 24.553a119.82 119.82 0 0 0-1.914-.047c-32.931.016-59.855 12.95-60.712 29.16-6.108 3.1-12.902 10.037-18.134 17.116h451.383c2.555-5.261 3.596-10.974 3.606-15.655-.012-12.803-16.128-23.557-37.467-25.006-3.007-22.515-27.307-39.631-56.307-39.654-16.067.018-31.379 5.363-42.104 14.705-7.858-11.366-26.188-18.769-46.51-18.791-6.032.01-12.014.668-17.66 1.955-10.734-14.479-33.535-23.716-58.584-23.739z" fill="#a7c1d0" color="#000"/>
        <path d="M1497.384 843.467c-32.135.049-59.401 28.447-64.129 66.777-.262-.017-.525-.03-.787-.043-24.857.021-46.156 19.493-50.632 46.287a63.582 63.582 0 0 0-1.914-.088c-32.931.03-59.855 24.406-60.712 54.993-6.108 5.843-12.902 18.927-18.134 32.284h451.383c2.555-9.92 3.596-20.693 3.606-29.522-.012-24.135-16.128-44.42-37.467-47.148-3.007-42.461-27.307-74.723-56.307-74.769-16.067.035-31.379 10.111-42.104 27.723-7.858-21.44-26.188-35.398-46.51-35.42-6.032.011-12.014 1.26-17.66 3.685-10.734-27.303-33.535-44.725-58.584-44.759z" fill="#a7c1d0" color="#000"/>
        <path d="M1801.8 844.373c-32.135.048-59.401 28.447-64.129 66.776-.262-.017-.525-.03-.787-.043-24.857.022-46.156 19.494-50.632 46.288a63.582 63.582 0 0 0-1.914-.088c-32.931.03-59.855 24.406-60.712 54.992-6.108 5.844-12.902 18.927-18.134 32.285h451.383c2.555-9.92 3.596-20.693 3.606-29.523-.012-24.134-16.128-44.42-37.467-47.148-3.007-42.46-27.307-74.723-56.307-74.768-16.067.035-31.379 10.11-42.104 27.723-7.858-21.44-26.188-35.398-46.51-35.42-6.032.01-12.014 1.26-17.66 3.685-10.734-27.304-33.535-44.725-58.584-44.76z" fill="#a7c1d0" color="#000"/>
        <path d="M2232.216 937.876c-32.135.026-59.401 15.09-64.129 35.42-.262-.011-.525-.016-.787-.022-24.857.011-46.156 10.338-50.632 24.553a119.82 119.82 0 0 0-1.914-.047c-32.931.016-59.855 12.95-60.712 29.16-6.108 3.1-12.902 10.037-18.134 17.116h451.383c2.555-5.261 3.595-10.974 3.606-15.655-.012-12.803-16.128-23.557-37.467-25.006-3.007-22.515-27.307-39.631-56.307-39.654-16.067.018-31.379 5.363-42.104 14.705-7.858-11.366-26.188-18.769-46.51-18.791-6.032.01-12.015.668-17.66 1.955-10.735-14.479-33.536-23.716-58.584-23.739z" fill="#a7c1d0" color="#000"/>
        <path fill="#a7c1d0" color="#000" d="M-27.08 1032h2396v154.2h-2396z"/>
    </g>
    <g transform="translate(1446 -4607) scale(1.673)">
        <path fill="gray" color="#000" d="M-519.7 4373h41.85v3.566h-41.85z"/>
        <rect ry="2.253" height="4.506" width="41.85" y="4374" x="-519.7" fill="gray" color="#000"/>
        <rect ry="2.253" height="4.506" width="41.85" y="4370" x="-519.7" fill="#fff" color="#000"/>
        <rect ry=".999" height="1.997" width="36.37" y="4371" x="-517.4" fill="#4d4d4d" color="#000"/>
        <path d="M-488.2 4373l-4.988-93.36 26.18-17.78-8.728-3.176-18.08 11.43-4.988-6.351 7.481-19.69-5.611.635-6.858 12.7-8.728-18.42-6.234 5.081 14.34 28.58-19.95-12.07-6.858-.635 24.94 22.23-4.364 90.82z" fillRule="evenodd" fill="#947b68"/>
        <path d="M-529.2 4199a29.88 26.12 0 0 1 23.83 10.42 30.6 22.92 0 0 1 19.37-5.195 30.6 22.92 0 0 1 30.6 22.92 30.6 22.92 0 0 1-1.182 6.285 29.88 25.54 0 0 1 17.02 23.02 29.88 25.54 0 0 1-5.948 15.25 29.16 19.73 0 0 1 .189 2.164 29.16 19.73 0 0 1-29.16 19.73 29.16 19.73 0 0 1-23.52-8.103 27 19.15 0 0 1-26.16 14.49 27 19.15 0 0 1-27-19.15 27 19.15 0 0 1 .443-3.418 22.32 19.73 0 0 1-9.8-16.32 22.32 19.73 0 0 1 10.91-16.93 29.88 26.12 0 0 1-9.474-19.05 29.88 26.12 0 0 1 29.88-26.12z" fill="#86ab6b" color="#000"/>
        <g transform="matrix(.9409 0 0 .9585 -1137 164.8)" color="#000">
            <path fill="gray" d="M460.8 4398h44.48v3.721H460.8z"/>
            <rect ry="2.351" height="4.701" width="44.48" y="4398" x="460.8" fill="gray"/>
            <rect ry="2.351" height="4.701" width="44.48" y="4395" x="460.8" fill="#fff"/>
            <rect ry="1.042" height="2.084" width="38.66" y="4396" x="463.4" fill="#4d4d4d"/>
        </g>
        <path d="M-650.58 4197.708a31.76 27.25 0 0 0-25.33 10.87 32.52 23.92 0 0 0-20.58-5.42 32.52 23.92 0 0 0-32.52 23.92 32.52 23.92 0 0 0 1.256 6.557 31.76 26.64 0 0 0-18.09 24.02 31.76 26.64 0 0 0 6.322 15.91 30.99 20.59 0 0 0-.2 2.258 30.99 20.59 0 0 0 30.99 20.59 30.99 20.59 0 0 0 24.99-8.454 28.69 19.98 0 0 0 27.8 15.12 28.69 19.98 0 0 0 28.7-19.98 28.69 19.98 0 0 0-.472-3.566 23.72 20.59 0 0 0 10.42-17.02 23.72 20.59 0 0 0-11.6-17.67 31.76 27.25 0 0 0 10.07-19.87 31.76 27.25 0 0 0-31.76-27.25z" fill="#c39734" color="#000"/>
        <path d="M-694.18 4378.708l5.301-97.41-27.83-18.55 9.277-3.313 19.22 11.93 5.301-6.626-7.952-20.54 5.964.663 7.289 13.25 9.277-19.22 6.626 5.3-15.24 29.82 21.2-12.59 7.289-.662-26.51 23.19 4.638 94.76z" fillRule="evenodd" fill="#947b68"/>
    </g>
    <g transform="translate(2887 -4623) scale(1.673)">
        <path fill="gray" color="#000" d="M-519.7 4373h41.85v3.566h-41.85z"/>
        <rect ry="2.253" height="4.506" width="41.85" y="4374" x="-519.7" fill="gray" color="#000"/>
        <rect ry="2.253" height="4.506" width="41.85" y="4370" x="-519.7" fill="#fff" color="#000"/>
        <rect ry=".999" height="1.997" width="36.37" y="4371" x="-517.4" fill="#4d4d4d" color="#000"/>
        <path d="M-488.2 4373l-4.988-93.36 26.18-17.78-8.728-3.176-18.08 11.43-4.988-6.351 7.481-19.69-5.611.635-6.858 12.7-8.728-18.42-6.234 5.081 14.34 28.58-19.95-12.07-6.858-.635 24.94 22.23-4.364 90.82z" fillRule="evenodd" fill="#947b68"/>
        <path d="M-529.2 4199a29.88 26.12 0 0 1 23.83 10.42 30.6 22.92 0 0 1 19.37-5.195 30.6 22.92 0 0 1 30.6 22.92 30.6 22.92 0 0 1-1.182 6.285 29.88 25.54 0 0 1 17.02 23.02 29.88 25.54 0 0 1-5.948 15.25 29.16 19.73 0 0 1 .189 2.164 29.16 19.73 0 0 1-29.16 19.73 29.16 19.73 0 0 1-23.52-8.103 27 19.15 0 0 1-26.16 14.49 27 19.15 0 0 1-27-19.15 27 19.15 0 0 1 .443-3.418 22.32 19.73 0 0 1-9.8-16.32 22.32 19.73 0 0 1 10.91-16.93 29.88 26.12 0 0 1-9.474-19.05 29.88 26.12 0 0 1 29.88-26.12z" fill="#86ab6b" color="#000"/>
        <g transform="matrix(.9409 0 0 .9585 -1137 164.8)" color="#000">
            <path fill="gray" d="M460.8 4398h44.48v3.721H460.8z"/>
            <rect ry="2.351" height="4.701" width="44.48" y="4398" x="460.8" fill="gray"/>
            <rect ry="2.351" height="4.701" width="44.48" y="4395" x="460.8" fill="#fff"/>
            <rect ry="1.042" height="2.084" width="38.66" y="4396" x="463.4" fill="#4d4d4d"/>
        </g>
        <path d="M-650.58 4197.708a31.76 27.25 0 0 0-25.33 10.87 32.52 23.92 0 0 0-20.58-5.42 32.52 23.92 0 0 0-32.52 23.92 32.52 23.92 0 0 0 1.256 6.557 31.76 26.64 0 0 0-18.09 24.02 31.76 26.64 0 0 0 6.322 15.91 30.99 20.59 0 0 0-.2 2.258 30.99 20.59 0 0 0 30.99 20.59 30.99 20.59 0 0 0 24.99-8.454 28.69 19.98 0 0 0 27.8 15.12 28.69 19.98 0 0 0 28.7-19.98 28.69 19.98 0 0 0-.472-3.566 23.72 20.59 0 0 0 10.42-17.02 23.72 20.59 0 0 0-11.6-17.67 31.76 27.25 0 0 0 10.07-19.87 31.76 27.25 0 0 0-31.76-27.25z" fill="#c39734" color="#000"/>
        <path d="M-694.18 4378.708l5.301-97.41-27.83-18.55 9.277-3.313 19.22 11.93 5.301-6.626-7.952-20.54 5.964.663 7.289 13.25 9.277-19.22 6.626 5.3-15.24 29.82 21.2-12.59 7.289-.662-26.51 23.19 4.638 94.76z" fillRule="evenodd" fill="#947b68"/>
    </g>
    <g transform="translate(3507 -4623) scale(1.673)">
        <path fill="gray" color="#000" d="M-519.7 4373h41.85v3.566h-41.85z"/>
        <rect ry="2.253" height="4.506" width="41.85" y="4374" x="-519.7" fill="gray" color="#000"/>
        <rect ry="2.253" height="4.506" width="41.85" y="4370" x="-519.7" fill="#fff" color="#000"/>
        <rect ry=".999" height="1.997" width="36.37" y="4371" x="-517.4" fill="#4d4d4d" color="#000"/>
        <path d="M-488.2 4373l-4.988-93.36 26.18-17.78-8.728-3.176-18.08 11.43-4.988-6.351 7.481-19.69-5.611.635-6.858 12.7-8.728-18.42-6.234 5.081 14.34 28.58-19.95-12.07-6.858-.635 24.94 22.23-4.364 90.82z" fillRule="evenodd" fill="#947b68"/>
        <path d="M-529.2 4199a29.88 26.12 0 0 1 23.83 10.42 30.6 22.92 0 0 1 19.37-5.195 30.6 22.92 0 0 1 30.6 22.92 30.6 22.92 0 0 1-1.182 6.285 29.88 25.54 0 0 1 17.02 23.02 29.88 25.54 0 0 1-5.948 15.25 29.16 19.73 0 0 1 .189 2.164 29.16 19.73 0 0 1-29.16 19.73 29.16 19.73 0 0 1-23.52-8.103 27 19.15 0 0 1-26.16 14.49 27 19.15 0 0 1-27-19.15 27 19.15 0 0 1 .443-3.418 22.32 19.73 0 0 1-9.8-16.32 22.32 19.73 0 0 1 10.91-16.93 29.88 26.12 0 0 1-9.474-19.05 29.88 26.12 0 0 1 29.88-26.12z" fill="#86ab6b" color="#000"/>
        <g transform="matrix(.9409 0 0 .9585 -1137 164.8)" color="#000">
            <path fill="gray" d="M460.8 4398h44.48v3.721H460.8z"/>
            <rect ry="2.351" height="4.701" width="44.48" y="4398" x="460.8" fill="gray"/>
            <rect ry="2.351" height="4.701" width="44.48" y="4395" x="460.8" fill="#fff"/>
            <rect ry="1.042" height="2.084" width="38.66" y="4396" x="463.4" fill="#4d4d4d"/>
        </g>
        <path d="M-650.58 4197.708a31.76 27.25 0 0 0-25.33 10.87 32.52 23.92 0 0 0-20.58-5.42 32.52 23.92 0 0 0-32.52 23.92 32.52 23.92 0 0 0 1.256 6.557 31.76 26.64 0 0 0-18.09 24.02 31.76 26.64 0 0 0 6.322 15.91 30.99 20.59 0 0 0-.2 2.258 30.99 20.59 0 0 0 30.99 20.59 30.99 20.59 0 0 0 24.99-8.454 28.69 19.98 0 0 0 27.8 15.12 28.69 19.98 0 0 0 28.7-19.98 28.69 19.98 0 0 0-.472-3.566 23.72 20.59 0 0 0 10.42-17.02 23.72 20.59 0 0 0-11.6-17.67 31.76 27.25 0 0 0 10.07-19.87 31.76 27.25 0 0 0-31.76-27.25z" fill="#c39734" color="#000"/>
        <path d="M-694.18 4378.708l5.301-97.41-27.83-18.55 9.277-3.313 19.22 11.93 5.301-6.626-7.952-20.54 5.964.663 7.289 13.25 9.277-19.22 6.626 5.3-15.24 29.82 21.2-12.59 7.289-.662-26.51 23.19 4.638 94.76z" fillRule="evenodd" fill="#947b68"/>
    </g>
    <g transform="translate(831.8 -4607) scale(1.673)">
        <path fill="gray" color="#000" d="M-519.7 4373h41.85v3.566h-41.85z"/>
        <rect ry="2.253" height="4.506" width="41.85" y="4374" x="-519.7" fill="gray" color="#000"/>
        <rect ry="2.253" height="4.506" width="41.85" y="4370" x="-519.7" fill="#fff" color="#000"/>
        <rect ry=".999" height="1.997" width="36.37" y="4371" x="-517.4" fill="#4d4d4d" color="#000"/>
        <path d="M-488.2 4373l-4.988-93.36 26.18-17.78-8.728-3.176-18.08 11.43-4.988-6.351 7.481-19.69-5.611.635-6.858 12.7-8.728-18.42-6.234 5.081 14.34 28.58-19.95-12.07-6.858-.635 24.94 22.23-4.364 90.82z" fillRule="evenodd" fill="#947b68"/>
        <path d="M-529.2 4199a29.88 26.12 0 0 1 23.83 10.42 30.6 22.92 0 0 1 19.37-5.195 30.6 22.92 0 0 1 30.6 22.92 30.6 22.92 0 0 1-1.182 6.285 29.88 25.54 0 0 1 17.02 23.02 29.88 25.54 0 0 1-5.948 15.25 29.16 19.73 0 0 1 .189 2.164 29.16 19.73 0 0 1-29.16 19.73 29.16 19.73 0 0 1-23.52-8.103 27 19.15 0 0 1-26.16 14.49 27 19.15 0 0 1-27-19.15 27 19.15 0 0 1 .443-3.418 22.32 19.73 0 0 1-9.8-16.32 22.32 19.73 0 0 1 10.91-16.93 29.88 26.12 0 0 1-9.474-19.05 29.88 26.12 0 0 1 29.88-26.12z" fill="#86ab6b" color="#000"/>
        <g transform="matrix(.9409 0 0 .9585 -1137 164.8)" color="#000">
            <path fill="gray" d="M460.8 4398h44.48v3.721H460.8z"/>
            <rect ry="2.351" height="4.701" width="44.48" y="4398" x="460.8" fill="gray"/>
            <rect ry="2.351" height="4.701" width="44.48" y="4395" x="460.8" fill="#fff"/>
            <rect ry="1.042" height="2.084" width="38.66" y="4396" x="463.4" fill="#4d4d4d"/>
        </g>
        <path d="M-650.58 4197.708a31.76 27.25 0 0 0-25.33 10.87 32.52 23.92 0 0 0-20.58-5.42 32.52 23.92 0 0 0-32.52 23.92 32.52 23.92 0 0 0 1.256 6.557 31.76 26.64 0 0 0-18.09 24.02 31.76 26.64 0 0 0 6.322 15.91 30.99 20.59 0 0 0-.2 2.258 30.99 20.59 0 0 0 30.99 20.59 30.99 20.59 0 0 0 24.99-8.454 28.69 19.98 0 0 0 27.8 15.12 28.69 19.98 0 0 0 28.7-19.98 28.69 19.98 0 0 0-.472-3.566 23.72 20.59 0 0 0 10.42-17.02 23.72 20.59 0 0 0-11.6-17.67 31.76 27.25 0 0 0 10.07-19.87 31.76 27.25 0 0 0-31.76-27.25z" fill="#c39734" color="#000"/>
        <path d="M-694.18 4378.708l5.301-97.41-27.83-18.55 9.277-3.313 19.22 11.93 5.301-6.626-7.952-20.54 5.964.663 7.289 13.25 9.277-19.22 6.626 5.3-15.24 29.82 21.2-12.59 7.289-.662-26.51 23.19 4.638 94.76z" fillRule="evenodd" fill="#947b68"/>
    </g>
    <g>
        <path fill="#6e94aa" color="#000" d="M-1.958 2749h755.8v-2.916h-755.8z"/>
        <g transform="translate(-124)" color="#000">
            <path fill="#6a707d" d="M478.1 2662h19.21v87.69H478.1z"/>
            <path fill="#6a707d" d="M481.9 2650h11.69v20.88H481.9z"/>
            <path fill="#ff8080" d="M473.5 2662h28.39v9.186H473.5zM473.5 2742h28.39v9.186H473.5z"/>
            <path fill="#40434b" d="M477.9 2672h19.35v-1.332H477.9zM481.9 2658a17.95 17.95 0 0 0 .54.197 17.95 17.95 0 0 0 1.74.444 17.95 17.95 0 0 0 1.772.27 17.95 17.95 0 0 0 1.793.09 17.95 17.95 0 0 0 1.27-.048 17.95 17.95 0 0 0 1.783-.215 17.95 17.95 0 0 0 1.75-.392 17.95 17.95 0 0 0 1.043-.348v-8.846h-11.69V2658z"/>
            <circle cy="2643" cx="487.6" r="14.3" fill="#6a707d"/>
            <path d="M487.6 2629c-7.897 0-14.3 6.402-14.3 14.3l.012.3c6.934-2.961 20.19-3.836 28.59-.3 0-7.897-6.402-14.3-14.3-14.3z" fill="#7c818f"/>
        </g>
        <path d="M210 2667s53 60 139 0" stroke="#6a707d" strokeWidth="2" fill="none"/>
        <g transform="translate(-286)" color="#000">
            <path fill="#6a707d" d="M478.1 2662h19.21v87.69H478.1z"/>
            <path fill="#6a707d" d="M481.9 2650h11.69v20.88H481.9z"/>
            <path fill="#ff8080" d="M473.5 2662h28.39v9.186H473.5zM473.5 2742h28.39v9.186H473.5z"/>
            <path fill="#40434b" d="M477.9 2672h19.35v-1.332H477.9zM481.9 2658a17.95 17.95 0 0 0 .54.197 17.95 17.95 0 0 0 1.74.444 17.95 17.95 0 0 0 1.772.27 17.95 17.95 0 0 0 1.793.09 17.95 17.95 0 0 0 1.27-.048 17.95 17.95 0 0 0 1.783-.215 17.95 17.95 0 0 0 1.75-.392 17.95 17.95 0 0 0 1.043-.348v-8.846h-11.69V2658z"/>
            <circle cy="2643" cx="487.6" r="14.3" fill="#6a707d"/>
            <path d="M487.6 2629c-7.897 0-14.3 6.402-14.3 14.3l.012.3c6.934-2.961 20.19-3.836 28.59-.3 0-7.897-6.402-14.3-14.3-14.3z" fill="#7c818f"/>
        </g>
        <path d="M536 2667s53 60 139 0" stroke="#6a707d" strokeWidth="2" fill="none"/>
        <g transform="translate(-448)" color="#000">
            <path fill="#6a707d" d="M478.1 2662h19.21v87.69H478.1z"/>
            <path fill="#6a707d" d="M481.9 2650h11.69v20.88H481.9z"/>
            <path fill="#ff8080" d="M473.5 2662h28.39v9.186H473.5zM473.5 2742h28.39v9.186H473.5z"/>
            <path fill="#40434b" d="M477.9 2672h19.35v-1.332H477.9zM481.9 2658a17.95 17.95 0 0 0 .54.197 17.95 17.95 0 0 0 1.74.444 17.95 17.95 0 0 0 1.772.27 17.95 17.95 0 0 0 1.793.09 17.95 17.95 0 0 0 1.27-.048 17.95 17.95 0 0 0 1.783-.215 17.95 17.95 0 0 0 1.75-.392 17.95 17.95 0 0 0 1.043-.348v-8.846h-11.69V2658z"/>
            <circle cy="2643" cx="487.6" r="14.3" fill="#6a707d"/>
            <path d="M487.6 2629c-7.897 0-14.3 6.402-14.3 14.3l.012.3c6.934-2.961 20.19-3.836 28.59-.3 0-7.897-6.402-14.3-14.3-14.3z" fill="#7c818f"/>
        </g>
        <path d="M52 2667s53 60 139 0M378 2667s53 60 139 0" stroke="#6a707d" strokeWidth="2" fill="none"/>
        <g transform="translate(38)" color="#000">
            <path fill="#6a707d" d="M478.1 2662h19.21v87.69H478.1z"/>
            <path fill="#6a707d" d="M481.9 2650h11.69v20.88H481.9z"/>
            <path fill="#ff8080" d="M473.5 2662h28.39v9.186H473.5zM473.5 2742h28.39v9.186H473.5z"/>
            <path fill="#40434b" d="M477.9 2672h19.35v-1.332H477.9zM481.9 2658a17.95 17.95 0 0 0 .54.197 17.95 17.95 0 0 0 1.74.444 17.95 17.95 0 0 0 1.772.27 17.95 17.95 0 0 0 1.793.09 17.95 17.95 0 0 0 1.27-.048 17.95 17.95 0 0 0 1.783-.215 17.95 17.95 0 0 0 1.75-.392 17.95 17.95 0 0 0 1.043-.348v-8.846h-11.69V2658z"/>
            <circle cy="2643" cx="487.6" r="14.3" fill="#6a707d"/>
            <path d="M487.6 2629c-7.897 0-14.3 6.402-14.3 14.3l.012.3c6.934-2.961 20.19-3.836 28.59-.3 0-7.897-6.402-14.3-14.3-14.3z" fill="#7c818f"/>
        </g>
        <g transform="translate(200)" color="#000">
            <path fill="#6a707d" d="M478.1 2662h19.21v87.69H478.1z"/>
            <path fill="#6a707d" d="M481.9 2650h11.69v20.88H481.9z"/>
            <path fill="#ff8080" d="M473.5 2662h28.39v9.186H473.5zM473.5 2742h28.39v9.186H473.5z"/>
            <path fill="#40434b" d="M477.9 2672h19.35v-1.332H477.9zM481.9 2658a17.95 17.95 0 0 0 .54.197 17.95 17.95 0 0 0 1.74.444 17.95 17.95 0 0 0 1.772.27 17.95 17.95 0 0 0 1.793.09 17.95 17.95 0 0 0 1.27-.048 17.95 17.95 0 0 0 1.783-.215 17.95 17.95 0 0 0 1.75-.392 17.95 17.95 0 0 0 1.043-.348v-8.846h-11.69V2658z"/>
            <circle cy="2643" cx="487.6" r="14.3" fill="#6a707d"/>
            <path d="M487.6 2629c-7.897 0-14.3 6.402-14.3 14.3l.012.3c6.934-2.961 20.19-3.836 28.59-.3 0-7.897-6.402-14.3-14.3-14.3z" fill="#7c818f"/>
        </g>
        <path d="M700 2667s53 60 139 0" stroke="#6a707d" strokeWidth="2" fill="none"/>
        <g transform="matrix(-1 0 0 1 2465 0)" color="#000">
            <path fill="#6a707d" d="M478.1 2662h19.21v87.69H478.1z"/>
            <path fill="#6a707d" d="M481.9 2650h11.69v20.88H481.9z"/>
            <path fill="#ff8080" d="M473.5 2662h28.39v9.186H473.5zM473.5 2742h28.39v9.186H473.5z"/>
            <path fill="#40434b" d="M477.9 2672h19.35v-1.332H477.9zM481.9 2658a17.95 17.95 0 0 0 .54.197 17.95 17.95 0 0 0 1.74.444 17.95 17.95 0 0 0 1.772.27 17.95 17.95 0 0 0 1.793.09 17.95 17.95 0 0 0 1.27-.048 17.95 17.95 0 0 0 1.783-.215 17.95 17.95 0 0 0 1.75-.392 17.95 17.95 0 0 0 1.043-.348v-8.846h-11.69V2658z"/>
            <circle cy="2643" cx="487.6" r="14.3" fill="#6a707d"/>
            <path d="M487.6 2629c-7.897 0-14.3 6.402-14.3 14.3l.012.3c6.934-2.961 20.19-3.836 28.59-.3 0-7.897-6.402-14.3-14.3-14.3z" fill="#7c818f"/>
        </g>
        <path d="M2131 2667s-53 60-139 0" stroke="#6a707d" strokeWidth="2" fill="none"/>
        <g transform="matrix(-1 0 0 1 2627 0)" color="#000">
            <path fill="#6a707d" d="M478.1 2662h19.21v87.69H478.1z"/>
            <path fill="#6a707d" d="M481.9 2650h11.69v20.88H481.9z"/>
            <path fill="#ff8080" d="M473.5 2662h28.39v9.186H473.5zM473.5 2742h28.39v9.186H473.5z"/>
            <path fill="#40434b" d="M477.9 2672h19.35v-1.332H477.9zM481.9 2658a17.95 17.95 0 0 0 .54.197 17.95 17.95 0 0 0 1.74.444 17.95 17.95 0 0 0 1.772.27 17.95 17.95 0 0 0 1.793.09 17.95 17.95 0 0 0 1.27-.048 17.95 17.95 0 0 0 1.783-.215 17.95 17.95 0 0 0 1.75-.392 17.95 17.95 0 0 0 1.043-.348v-8.846h-11.69V2658z"/>
            <circle cy="2643" cx="487.6" r="14.3" fill="#6a707d"/>
            <path d="M487.6 2629c-7.897 0-14.3 6.402-14.3 14.3l.012.3c6.934-2.961 20.19-3.836 28.59-.3 0-7.897-6.402-14.3-14.3-14.3z" fill="#7c818f"/>
        </g>
        <path d="M1805 2667s-53 60-139 0" stroke="#6a707d" strokeWidth="2" fill="none"/>
        <g transform="matrix(-1 0 0 1 2789 0)" color="#000">
            <path fill="#6a707d" d="M478.1 2662h19.21v87.69H478.1z"/>
            <path fill="#6a707d" d="M481.9 2650h11.69v20.88H481.9z"/>
            <path fill="#ff8080" d="M473.5 2662h28.39v9.186H473.5zM473.5 2742h28.39v9.186H473.5z"/>
            <path fill="#40434b" d="M477.9 2672h19.35v-1.332H477.9zM481.9 2658a17.95 17.95 0 0 0 .54.197 17.95 17.95 0 0 0 1.74.444 17.95 17.95 0 0 0 1.772.27 17.95 17.95 0 0 0 1.793.09 17.95 17.95 0 0 0 1.27-.048 17.95 17.95 0 0 0 1.783-.215 17.95 17.95 0 0 0 1.75-.392 17.95 17.95 0 0 0 1.043-.348v-8.846h-11.69V2658z"/>
            <circle cy="2643" cx="487.6" r="14.3" fill="#6a707d"/>
            <path d="M487.6 2629c-7.897 0-14.3 6.402-14.3 14.3l.012.3c6.934-2.961 20.19-3.836 28.59-.3 0-7.897-6.402-14.3-14.3-14.3z" fill="#7c818f"/>
        </g>
        <path d="M2289 2667s-53 60-139 0M1963 2667s-53 60-139 0" stroke="#6a707d" strokeWidth="2" fill="none"/>
        <g transform="matrix(-1 0 0 1 2303 0)" color="#000">
            <path fill="#6a707d" d="M478.1 2662h19.21v87.69H478.1z"/>
            <path fill="#6a707d" d="M481.9 2650h11.69v20.88H481.9z"/>
            <path fill="#ff8080" d="M473.5 2662h28.39v9.186H473.5zM473.5 2742h28.39v9.186H473.5z"/>
            <path fill="#40434b" d="M477.9 2672h19.35v-1.332H477.9zM481.9 2658a17.95 17.95 0 0 0 .54.197 17.95 17.95 0 0 0 1.74.444 17.95 17.95 0 0 0 1.772.27 17.95 17.95 0 0 0 1.793.09 17.95 17.95 0 0 0 1.27-.048 17.95 17.95 0 0 0 1.783-.215 17.95 17.95 0 0 0 1.75-.392 17.95 17.95 0 0 0 1.043-.348v-8.846h-11.69V2658z"/>
            <circle cy="2643" cx="487.6" r="14.3" fill="#6a707d"/>
            <path d="M487.6 2629c-7.897 0-14.3 6.402-14.3 14.3l.012.3c6.934-2.961 20.19-3.836 28.59-.3 0-7.897-6.402-14.3-14.3-14.3z" fill="#7c818f"/>
        </g>
        <g transform="matrix(-1 0 0 1 2141 0)" color="#000">
            <path fill="#6a707d" d="M478.1 2662h19.21v87.69H478.1z"/>
            <path fill="#6a707d" d="M481.9 2650h11.69v20.88H481.9z"/>
            <path fill="#ff8080" d="M473.5 2662h28.39v9.186H473.5zM473.5 2742h28.39v9.186H473.5z"/>
            <path fill="#40434b" d="M477.9 2672h19.35v-1.332H477.9zM481.9 2658a17.95 17.95 0 0 0 .54.197 17.95 17.95 0 0 0 1.74.444 17.95 17.95 0 0 0 1.772.27 17.95 17.95 0 0 0 1.793.09 17.95 17.95 0 0 0 1.27-.048 17.95 17.95 0 0 0 1.783-.215 17.95 17.95 0 0 0 1.75-.392 17.95 17.95 0 0 0 1.043-.348v-8.846h-11.69V2658z"/>
            <circle cy="2643" cx="487.6" r="14.3" fill="#6a707d"/>
            <path d="M487.6 2629c-7.897 0-14.3 6.402-14.3 14.3l.012.3c6.934-2.961 20.19-3.836 28.59-.3 0-7.897-6.402-14.3-14.3-14.3z" fill="#7c818f"/>
        </g>
        <path d="M1641 2667s-53 60-139 0" stroke="#6a707d" strokeWidth="2" fill="none"/>
        <path fill="#ccc" color="#000" d="M1598 2751h755.8v-5.028H1598z"/>
    </g>
</svg>
