<svg height="743.9" width="300" viewBox="0 0 300.00001 743.86804">
    <path d="M129 87.31c-1.008 0-1.82.939-1.82 2.105v121.3h-18.62V1.915c0-1.056-.735-1.906-1.648-1.906h-85.3c-.96-.014-1.57.844-1.7 1.892v159.7l-20 16.53v563.8c0 1.056.775 2.173 1.648 1.906H298.535c.764 0 1.378-.712 1.378-1.595v-658.3c0-.883-.615-1.594-1.378-1.594h-56.32c-.764 0-1.379.71-1.379 1.594v200.7h-18.62v-195.2c0-1.166-.812-2.105-1.82-2.105z" fill="#e0e9ee" color="#000"/>
    <path d="M89.04 187.4c-1.008 0-1.82.939-1.82 2.105v261.3H68.6v-208.8c0-1.056-.735-1.906-1.648-1.906h-65.3c-.913 0-1.648.85-1.648 1.906v500c0 1.056.735 1.906 1.648 1.906H298.627c.764 0 1.378-.712 1.378-1.595v-331.7l-20-19.54v-67.07c0-.883-.615-1.594-1.378-1.594h-74.32c-.764 0-1.379.71-1.379 1.594v68.73l-18.62 12v-215.2c0-1.166-.812-2.105-1.82-2.105z" fill="#cddce4" color="#000"/>
    <path d="M300 671.5c.274-24.34-34.07-25.69-37.2-24.18-5.937-16.97-15.54-18.77-29.4-18.79-17.78.03-35.87 8.655-38.48 32.48-.145-.011-.29-.019-.435-.027-6.428.01-12.42 2.655-17.24 7.174-5.77-11.25-14.37-18.32-23.89-18.33-8.892.022-17.35 6.283-23.29 17.22-4.347-13.32-14.48-22-25.73-22.01-3.337.01-6.647.783-9.774 2.29-5.937-16.96-18.55-27.78-32.4-27.8-17.78.03-32.86 17.67-35.47 41.5-.145-.01-.29-.021-.436-.029-5.932.01-11.49 2.265-16.1 6.162-3.52.183-6.93 3.354-10.16 4.347v72.41h300z" fill="#a7c1d0" color="#000"/>
</svg>
