<svg height="781.8" width="1000" viewBox="0 0 1000.0018 781.78777">
    <path d="M808.6 0v63.64h-7.615v9.683h-17.3v38.73h-31.15v12.46h6.922v47.04h-38.07v24.9h14.54v259.9h-24.59v-216.3h3.48v-8.889h5.376v-21.59h-9.939l-28.74-23.75-44.89-25.53-30.9 25.53-28.74 23.75h-9.939v21.59h5.376v8.889h3.478v216.3h-21.62 15.46-19.61v-282.5h-11.55c-3.848-19.9-19.72-18.54-19.72-18.54v-21.26l-14.91-8.144c-4.749-16.65-18.82-25.88-34.16-27.78v-.179c-.24.023-.477.063-.717.088-.24-.026-.477-.066-.717-.088h-.012v.179c-15.35 1.901-29.42 11.13-34.16 27.78l-14.91 8.144v21.26s-15.88-1.356-19.73 18.54h-11.55v282.5h-40.39v-194.4h12.09v-30.76h-52.75v-46.75h-5.414v46.75h-4.72v-15.86h-6.074v15.86h-6.069v-8.347h-47.22v8.347h-34.14v-97.96h3.708v-9.185h-45.87v9.185h3.709v97.96h-53.96v30.76h12.12v194.4h-36.84v-300h4.728v-8.889h7.308v-21.59h-13.51l-39.07-23.77-41.99-25.53-3.62 2.181v506.5l-.007.028h2.104v192.9l2.931 3.629h992c1.624 0 2.932-1.619 2.932-3.629v-318.2c0-1.118-.413-2.102-1.052-2.766v-378.4l-38.37 23.33-39.06 23.75h-13.51v21.59h7.308v8.889h4.726v300h-30.49v-259.9h14.54v-24.9h-38.07v-47.04h6.922v-12.46h-31.15v-38.73h-17.3v-9.683h-7.615V.023h-8.308z" fill="#e0e9ee"/>
    <path d="M991.6 281.5l-12.7 97.06h-16.09l-32.53 116.2 1.747 1.486c10.69 9.089-1.915-30.91-1.915-54.4h-11.57c-3.854-17.62-19.76-16.42-19.76-16.42v-18.82l-14.94-7.21a31.826 31.826 0 0 0-5.211-9.85v-30.9h-14.86v19.79c-4.405-1.882-39.21-3.096-44.14-3.637v-.158c-.24.02-.478.056-.718.078-.24-.023-.478-.058-.718-.078v.158c-4.12.451-8.144 1.373-11.92 2.757v-18.92h-18.58v32.99a31.868 31.868 0 0 0-3.72 7.764l-14.94 7.21v18.82s-15.9-1.202-19.76 16.42h-11.57v38.51l-13.98 7.083c-.164.083-.362.072-.503.187v-147.7l-29.54 25.69v-43.43h-41.98v79.94l-46.65 40.56v-34.77h-9.329v42.88l-31.1 27.04v66.99l-28.32-.981v-33.76h-10.85v-93.64h12.14v-27.23h-54.05v-22.91h3.716v-8.13h-45.94v8.13h3.715v22.91h-34.19v-7.391h-47.29v7.39h-6.08v-14.04h-6.084v14.04h-4.727v-41.39h-5.406v41.39h-52.83v27.23h12.11v93.64h-26.83v-24.06h9.574v-18.31h-9.574s-27.31-12.27-32.6-52.74h-16.74s-4.404-15.42-12.33-19.28c-7.928-3.854-.878-17.35-.878-17.35H180.709s7.053 13.49-.878 17.35c-7.93 3.855-12.33 19.28-12.33 19.28h-16.74c-4.405 41.44-32.6 52.74-32.6 52.74h-9.572v18.31h9.572v24.06H87.6v-11.66h4.487v-17.6H87.6s-26.25-63.38-31.33-102.3H40.18c-5.566-30.38-8.366-64.63-13.68-97H-.003v493.4l.902-.028h.13v6.504l-.13.343 999.1.073V281.488h-8.406z" fill="#cddce4"/>
    <path d="M865.9 657.4c-17.76.032-32.82 17.68-35.43 41.5h-.031c-5.35-7.01-12.09-11.18-19.38-11.19-8.882.022-17.33 6.283-23.26 17.22-4.342-13.32-14.47-22-25.7-22.01-3.333.01-6.636.784-9.76 2.291-5.93-16.96-18.53-27.79-32.37-27.81-17.76.031-32.82 17.67-35.43 41.5-.145-.01-.29-.017-.436-.025-13.73.013-43.18 12.11-45.65 28.76a31.119 31.119 0 0 0-1.057-.054c-17.94.018-32.64 14.75-33.5 33.37-3.605-2.387-8.373-4.002-13.75-4.412-1.662-13.99-15.09-24.63-31.11-24.64-8.88.011-17.33 3.332-23.26 9.135-4.342-7.068-14.47-11.67-25.7-11.67-3.333.01-6.636.414-9.76 1.214-5.93-9.001-18.53-14.74-32.37-14.75-17.76.017-32.82 9.374-35.43 22.01-.145-.01-.29-.012-.435-.016-13.73.01-25.5 6.424-27.98 15.26a74.46 74.46 0 0 0-1.06-.027c-13.14.01-24.53 4.196-30.04 10.32-.047-14.95-8.937-27.5-20.7-29.2-1.661-26.39-15.08-46.43-31.11-46.46-8.88.022-17.33 6.283-23.26 17.22-4.341-13.32-14.47-22-25.7-22.01-3.332.01-6.637.784-9.761 2.291-5.93-16.97-18.52-27.78-32.37-27.81-17.76.03-32.82 17.67-35.43 41.5a20.95 20.95 0 0 0-.434-.027c-6.42.01-12.41 2.655-17.22 7.174-5.763-11.25-14.36-18.32-23.86-18.33-8.881.022-17.33 6.283-23.26 17.22-4.342-13.32-14.47-22-25.7-22.01-3.333.01-6.64.783-9.763 2.29-5.93-16.96-18.52-27.78-32.37-27.8-17.76.03-32.82 17.67-35.43 41.5-.145-.01-.291-.021-.436-.029-5.925.01-11.48 2.265-16.08 6.162a41.733 41.733 0 0 0-10.14 1.801v74.96H1000.077v-41.4c-3.322-3.348-7.383-5.6-11.88-6.248-1.662-26.39-15.08-46.43-31.11-46.46-8.881.022-17.33 6.283-23.26 17.22-4.342-13.32-14.47-22-25.7-22.01-3.333.01-6.638.784-9.762 2.291-5.93-16.97-18.52-27.78-32.36-27.81z" fill="#a7c1d0" color="#000"/>
</svg>
