<svg height="21" width="21" viewBox="0 0 20.996631 21.000057">
    <path d="M10.46.5l.002.002c-.59.004-1.174.052-1.743.145-.528.09-.907.536-.907 1.05V3.2a8.035 8.035 0 0 0-2.543 1.415l-1.347-.75a1.133 1.133 0 0 0-1.401.237C1.77 4.969.979 5.96.567 7.04c-.19.486.019 1.035.486 1.294l1.54.754a7.47 7.47 0 0 0 0 2.83l-1.54.751a1.059 1.059 0 0 0-.486 1.298C.979 15.042 1.77 16.033 2.52 16.9c.343.397.938.494 1.4.235l1.348-.744a8.111 8.111 0 0 0 2.543 1.415v1.498c0 .522.394.964.927 1.053 1.18.197 2.374.188 3.513 0a1.08 1.08 0 0 0 .912-1.053v-1.498a8.036 8.036 0 0 0 2.541-1.415l1.35.75a1.133 1.133 0 0 0 1.401-.236c.75-.866 1.562-1.857 1.973-2.937a1.054 1.054 0 0 0-.486-1.298l-1.56-.751c.18-.938.18-1.897 0-2.835l1.56-.75c.467-.263.647-.812.462-1.298-.412-1.08-1.2-2.07-1.95-2.937a1.134 1.134 0 0 0-1.4-.237l-1.35.751a8.138 8.138 0 0 0-2.548-1.422V1.692c0-.522-.395-.964-.927-1.053a11.202 11.202 0 0 0-1.77-.138zm.036 6.701a3.387 3.299 0 0 1 .337.017 3.387 3.299 0 0 1 .335.05 3.387 3.299 0 0 1 .328.08 3.387 3.299 0 0 1 .318.115 3.387 3.299 0 0 1 .305.142 3.387 3.299 0 0 1 .289.174 3.387 3.299 0 0 1 .269.2 3.387 3.299 0 0 1 .249.223 3.387 3.299 0 0 1 .223.248 3.387 3.299 0 0 1 .197.268 3.387 3.299 0 0 1 .17.286 3.387 3.299 0 0 1 .137.302 3.387 3.299 0 0 1 .107.314 3.387 3.299 0 0 1 .073.32 3.387 3.299 0 0 1 .041.329 3.387 3.299 0 0 1 0 .233 3.387 3.299 0 0 1-.019.328 3.387 3.299 0 0 1-.049.326 3.387 3.299 0 0 1-.086.32 3.387 3.299 0 0 1-.115.31 3.387 3.299 0 0 1-.146.297 3.387 3.299 0 0 1-.178.28 3.387 3.299 0 0 1-.206.262 3.387 3.299 0 0 1-.23.243 3.387 3.299 0 0 1-.254.216 3.387 3.299 0 0 1-.276.193 3.387 3.299 0 0 1-.294.164 3.387 3.299 0 0 1-.308.135 3.387 3.299 0 0 1-.32.105 3.387 3.299 0 0 1-.333.071 3.387 3.299 0 0 1-.335.04 3.387 3.299 0 0 1-.24.008 3.387 3.299 0 0 1-.337-.017 3.387 3.299 0 0 1-.335-.05 3.387 3.299 0 0 1-.327-.08 3.387 3.299 0 0 1-.32-.112 3.387 3.299 0 0 1-.304-.145 3.387 3.299 0 0 1-.288-.171 3.387 3.299 0 0 1-.272-.2 3.387 3.299 0 0 1-.247-.226 3.387 3.299 0 0 1-.222-.247 3.387 3.299 0 0 1-.198-.269 3.387 3.299 0 0 1-.17-.285 3.387 3.299 0 0 1-.136-.302 3.387 3.299 0 0 1-.107-.312 3.387 3.299 0 0 1-.074-.32 3.387 3.299 0 0 1-.04-.33 3.387 3.299 0 0 1 0-.232 3.387 3.299 0 0 1 .018-.33 3.387 3.299 0 0 1 .049-.327 3.387 3.299 0 0 1 .082-.318 3.387 3.299 0 0 1 .117-.312 3.387 3.299 0 0 1 .146-.295 3.387 3.299 0 0 1 .179-.283 3.387 3.299 0 0 1 .203-.261 3.387 3.299 0 0 1 .232-.243 3.387 3.299 0 0 1 .254-.216 3.387 3.299 0 0 1 .274-.193 3.387 3.299 0 0 1 .296-.164 3.387 3.299 0 0 1 .308-.133 3.387 3.299 0 0 1 .32-.104 3.387 3.299 0 0 1 .33-.072 3.387 3.299 0 0 1 .338-.04 3.387 3.299 0 0 1 .24-.01z" stroke="#000" fill="#ff0"/>
</svg>
