<svg height="21" width="21" viewBox="0 0 20.996631 21.000057">
    <path d="M16.89 20.51H2.19c-.936 0-1.696-.744-1.696-1.663V6.457c0-.918.76-1.663 1.696-1.663h14.696c.934 0 1.696.744 1.696 1.663v12.39c0 .918-.76 1.663-1.696 1.663z" stroke="#000" fill="#0ff"/>
    <path d="M4.789 7.679c-1.093 0-1.978.868-1.978 1.94 0 1.071.886 1.94 1.978 1.94 1.093 0 1.978-.868 1.978-1.94 0-1.071-.886-1.94-1.978-1.94z" stroke="#000" fill="red"/>
    <path d="M2.759 18.3h13.57v-3.879l-3.092-3.548a.43.43 0 0 0-.6 0l-4.793 5.21-1.962-1.92a.43.43 0 0 0-.6 0L2.758 16.64z" stroke="#000" fill="#ff0"/>
    <rect height="8.28" stroke="#000" strokeWidth=".8" fill="#aad400" ry="1.39" width="8.584" strokeOpacity=".99" y=".412" x="12.01" color="#000"/>
    <path d="M15.7 1.682v2.265h-2.264v1.208H15.7v2.266h1.208V5.155h2.265V3.947h-2.265V1.682z" color="#000"/>
</svg>
