<svg width="172.5" height="27.92" version="1.1" viewBox="0 0 45.64 7.386" xmlns="http://www.w3.org/2000/svg">
 <g shape-rendering="auto">
  <path d="m6.23 4.3h-.5299l-.3557-4.3h-2.907l-.2235.9766h.3104l-1.783 3.323h-.5148l-.227.9917h2.407l.227-.9917h-.5905l.2768-.5148h1.552l.04114.5148h-.7192l-.227.9917h3.036zm-2.555-3.058.1253 1.635h-.9917z" color="#000000" color-rendering="auto" fill="#5f4427" image-rendering="auto" solid-color="#000000" style="isolation:auto;mix-blend-mode:normal"/>
  <path d="m9.115 5.292c1.461 0 2.167-.4694 2.411-1.537.1681-.7343-.1943-1.136-.7047-1.287.6198-.2271.8649-.5375 1.01-1.173.1889-.8252-.3017-1.295-1.558-1.295h-2.824l-.2235.9766h.4391l-.7625 3.331h-.4391l-.2253.9841zm-.03969-.9841h-.6056l.3015-1.317h.5829c.4164 0 .5718.2801.4834.6662-.09357.4088-.4443.651-.7622.651zm.6286-3.308c.2877 0 .4529.2044.3731.5526-.08318.3634-.247.5829-.6482.5829h-.4618l.2599-1.136z" color="#000000" color-rendering="auto" fill="#5f4427" image-rendering="auto" solid-color="#000000" style="isolation:auto;mix-blend-mode:normal"/>
  <path d="m14.2 5.292c1.764 0 2.974-.9922 3.346-2.617.3703-1.618-.2774-2.675-2.189-2.675-1.615 0-2.984 1.071-3.34 2.624-.4114 1.797.5521 2.667 2.183 2.667zm.2584-1.129c-.4994 0-.7296-.5967-.514-1.539.2041-.8915.6766-1.524 1.151-1.517.6009 0 .6987.6974.4996 1.567-.2041.8915-.645 1.488-1.137 1.488z" color="#000000" color-rendering="auto" fill="#5f4427" image-rendering="auto" solid-color="#000000" style="isolation:auto;mix-blend-mode:normal"/>
  <path d="m18.18.9608h.4139l-.4179 1.825c-.384 1.678.2348 2.461 1.718 2.505 1.389 0 2.302-.7908 2.703-2.542l.4111-1.796h.3991l.2182-.9534h-2.188l-.2233.9756h.3991l-.3586 1.567c-.291 1.271-.6272 1.449-1.078 1.449-.473 0-.6815-.2513-.4092-1.441l.3654-1.596h.3991l.2182-.9534h-2.35z" color="#000000" color-rendering="auto" fill="#5f4427" image-rendering="auto" solid-color="#000000" style="isolation:auto;mix-blend-mode:normal"/>
  <path d="m23.86 8.04e-7-.4505 1.968h1.113l.2218-.969h.651l-.7521 3.286h-.6208l-.2305 1.007h2.816l.2305-1.007h-.6283l.7521-3.286h.6359l-.2218.969h1.113l.4505-1.968z" color="#000000" color-rendering="auto" fill="#5f4427" image-rendering="auto" solid-color="#000000" style="isolation:auto;mix-blend-mode:normal"/>
  <path d="m31.57.9608h.4139l-.4179 1.825c-.384 1.678.2348 2.461 1.718 2.505 1.389 0 2.302-.7908 2.703-2.542l.4111-1.796h.3991l.2182-.9534h-2.188l-.2233.9756h.3991l-.3586 1.567c-.291 1.271-.6272 1.449-1.078 1.449-.473 0-.6815-.2513-.4092-1.441l.3654-1.596h.3991l.2182-.9534h-2.35z" color="#000000" color-rendering="auto" fill="#5f4427" image-rendering="auto" solid-color="#000000" style="isolation:auto;mix-blend-mode:normal"/>
  <path d="m37.27 5.183.2069-.5566c.2002.3253.6285.6651 1.359.6651.8603 0 2.008-.4048 2.267-1.533.3889-1.699-2.514-1.525-2.343-2.27.05791-.253.3769-.3831.5865-.3831.506 0 .8558.3036.7334.8386h1.308l.4153-1.814h-1.243l-.2113.6072c-.1651-.5422-.7348-.7374-1.342-.7374-.7084 0-1.831.4843-2.076 1.554-.422 1.843 2.409 1.605 2.28 2.169-.0695.3036-.4442.3615-.6972.3615-.3003-.01446-.8844-.1157-.7454-.7229h-1.345l-.417 1.822z" color="#000000" color-rendering="auto" fill="#5f4427" image-rendering="auto" solid-color="#000000" style="isolation:auto;mix-blend-mode:normal"/>
  <path d="m6.969 5.684h-.5299l2.847 1.702h-2.907l-.951-.3865h.3104l-4.258-1.315h-.5148l-.9657-.3925h2.407l.9657.3925h-.5905l.6603.2037h1.552l-.3423-.2037h-.7192l-.9657-.3925h3.036zm-.277 1.21-1.093-.6471h-.9917z" color="#000000" color-rendering="auto" image-rendering="auto" opacity=".2" solid-color="#000000" style="isolation:auto;mix-blend-mode:normal"/>
  <path d="m9.115 5.292c1.461 0 2.516.1858 3.556.6082.7151.2906.6516.4494.2539.5093.7889.08988 1.265.2127 1.885.4644.8035.3266.6625.5123-.5941.5123h-2.824l-.951-.3865h.4391l-3.244-1.318h-.4391l-.9584-.3895zm.6934.3895h-.6056l1.283.5213h.5829c.4164 0 .3631-.1108-.01282-.2636-.3981-.1618-.9292-.2577-1.247-.2577zm3.093 1.309c.2877 0 .3006-.08089-.03851-.2187-.3539-.1438-.6812-.2307-1.082-.2307h-.4618l1.106.4494z" color="#000000" color-rendering="auto" image-rendering="auto" opacity=".2" solid-color="#000000" style="isolation:auto;mix-blend-mode:normal"/>
  <path d="m14.2 5.292c1.764 0 3.713.3927 5.295 1.036 1.575.6402 1.715 1.058-.1969 1.058-1.615 0-3.782-.424-5.294-1.039-1.75-.7113-1.435-1.056.1961-1.056zm1.099.4467c-.4994 0-.2851.2362.6321.6089.8682.3528 1.812.6032 2.281.6004.6009 0 .1792-.276-.6679-.6203-.8682-.3528-1.754-.589-2.245-.589z" color="#000000" color-rendering="auto" image-rendering="auto" opacity=".2" solid-color="#000000" style="isolation:auto;mix-blend-mode:normal"/>
  <path d="m21.4 7.006h.4139l-1.778-.7224c-1.634-.6639-1.598-.974-.1487-.9915 1.389 0 2.891.313 4.597 1.006l1.749.7107h.3991l.9284.3773h-2.188l-.95-.3861h.3991l-1.526-.6201c-1.238-.5031-1.706-.5733-2.157-.5733-.473 0-.4944.09944.6643.5703l1.555.6318h.3991l.9284.3773h-2.35z" color="#000000" color-rendering="auto" image-rendering="auto" opacity=".2" solid-color="#000000" style="isolation:auto;mix-blend-mode:normal"/>
  <path d="m27.8 7.386-1.917-.779h1.113l.9436.3835h.651l-3.199-1.3h-.6208l-.9805-.3985h2.816l.9805.3985h-.6283l3.199 1.3h.6359l-.9436-.3835h1.113l1.917.779z" color="#000000" color-rendering="auto" image-rendering="auto" opacity=".2" solid-color="#000000" style="isolation:auto;mix-blend-mode:normal"/>
  <path d="m34.8 7.006h.4139l-1.778-.7224c-1.634-.6639-1.598-.974-.1487-.9915 1.389 0 2.891.313 4.597 1.006l1.749.7107h.3991l.9284.3773h-2.188l-.95-.3861h.3991l-1.526-.6201c-1.238-.5031-1.706-.5733-2.157-.5733-.473 0-.4944.09944.6643.5703l1.555.6318h.3991l.9284.3773h-2.35z" color="#000000" color-rendering="auto" image-rendering="auto" opacity=".2" solid-color="#000000" style="isolation:auto;mix-blend-mode:normal"/>
  <path d="m37.35 5.335.6216.2203c-.04208-.1287.1331-.2632.8632-.2632.8603 0 2.31.1602 3.408.6065 1.654.6723-1.377.6036-.6523.8983.2464.1001.6623.1516.8719.1516.506 0 .6297-.1202.1087-.3319h1.308l1.767.7181h-1.243l-.6636-.2403c.2388.2146-.1856.2918-.7928.2918-.7084 0-2.192-.1917-3.234-.6151-1.795-.7295 1.213-.6351.6641-.8583-.2957-.1202-.7134-.143-.9664-.143-.2895.0057-.7982.04577-.2069.2861h-1.345l-1.774-.7209z" color="#000000" color-rendering="auto" image-rendering="auto" opacity=".2" solid-color="#000000" style="isolation:auto;mix-blend-mode:normal"/>
 </g>
</svg>
