<svg width="148.6" height="176.3" version="1.1" viewBox="0 0 148.6 176.3" xmlns="http://www.w3.org/2000/svg">
 <g shape-rendering="auto">
  <path d="m95.84 147c7.464-.4271 15.57-9.89 9.66-20.65-5.727-10.44-14.36-19.27-14.36-19.27-14.85 10.37-7.205 40.93 4.702 39.92z" color="#000000" color-rendering="auto" fill="#fff" image-rendering="auto" solid-color="#000000" stroke="#000" stroke-linecap="round" stroke-linejoin="round" stroke-width="3" style="isolation:auto;mix-blend-mode:normal"/>
  <path d="m145.9 112.8c-5.492 12.88-22.3 21.91-35.24 13.49-12.55-8.164-21.31-20.44-21.31-20.44 22.67-20.91 65.34-19.59 56.55 6.944z" color="#000000" color-rendering="auto" fill="#fff" image-rendering="auto" solid-color="#000000" stroke="#000" stroke-linecap="round" stroke-linejoin="round" stroke-width="3" style="isolation:auto;mix-blend-mode:normal"/>
  <path d="m1.523 52.73c.4412-7.478 9.914-15.58 20.67-9.68 10.43 5.72 19.27 14.36 19.27 14.36-10.37 14.85-40.92 7.205-39.94-4.681z" color="#000000" color-rendering="auto" fill="#fff" image-rendering="auto" solid-color="#000000" stroke="#000" stroke-linecap="round" stroke-linejoin="round" stroke-width="3" style="isolation:auto;mix-blend-mode:normal"/>
  <path d="m35.8 2.652c-12.88 5.492-21.91 22.3-13.49 35.24 8.164 12.55 20.44 21.31 20.44 21.31 20.91-22.66 19.59-65.34-6.944-56.55z" color="#000000" color-rendering="auto" fill="#fff" image-rendering="auto" solid-color="#000000" stroke="#000" stroke-linecap="round" stroke-linejoin="round" stroke-width="3" style="isolation:auto;mix-blend-mode:normal"/>
  <path d="m123.1 73.5-47.48-47.48 51.26-3.781-1.891 25.63z" color="#000000" color-rendering="auto" fill="#e9ddaf" image-rendering="auto" solid-color="#000000" stroke="#000" stroke-linecap="round" stroke-linejoin="round" stroke-width="3" style="isolation:auto;mix-blend-mode:normal"/>
  <path d="m106.2 23.82c7.531 4.244 14.17 10.23 19.24 19.24l1.534-20.77z" color="#000000" color-rendering="auto" fill="#f00" image-rendering="auto" solid-color="#000000" stroke="#000" stroke-linecap="round" stroke-linejoin="round" stroke-width="3" style="isolation:auto;mix-blend-mode:normal"/>
  <path d="m87.93 40.49c14.05 1.437 19.09 9.899 20.89 20.89l-61.79 61.79-20.89-20.89z" color="#000000" color-rendering="auto" fill="#fc0" image-rendering="auto" solid-color="#000000" stroke="#000" stroke-width="3" style="isolation:auto;mix-blend-mode:normal"/>
  <path d="m73.76 26.32c11.61-1.004 14.52 5.324 14.3 14.3l-61.79 61.79-14.3-14.3z" color="#000000" color-rendering="auto" fill="#f60" image-rendering="auto" solid-color="#000000" stroke="#000" stroke-width="3" style="isolation:auto;mix-blend-mode:normal"/>
  <path d="m108.7 61.25c11.61-1.004 14.52 5.324 14.3 14.3l-61.79 61.79-14.3-14.3z" color="#000000" color-rendering="auto" fill="#f60" image-rendering="auto" solid-color="#000000" stroke="#000" stroke-width="3" style="isolation:auto;mix-blend-mode:normal"/>
  <ellipse transform="rotate(45)" cx="84.55" cy="-4.478" rx="20.44" ry="20.7" color="#000000" color-rendering="auto" fill="#fff" image-rendering="auto" solid-color="#000000" stroke="#000" stroke-width="3" style="isolation:auto;mix-blend-mode:normal"/>
  <ellipse transform="rotate(45)" cx="84.55" cy="-4.478" rx="9.527" ry="9.646" color="#000000" color-rendering="auto" image-rendering="auto" solid-color="#000000" style="isolation:auto;mix-blend-mode:normal"/>
  <ellipse transform="rotate(45)" cx="125.1" cy="-4.478" rx="20.44" ry="20.7" color="#000000" color-rendering="auto" fill="#fff" image-rendering="auto" solid-color="#000000" stroke="#000" stroke-width="3" style="isolation:auto;mix-blend-mode:normal"/>
  <ellipse transform="rotate(45)" cx="125.1" cy="-4.478" rx="9.527" ry="9.646" color="#000000" color-rendering="auto" image-rendering="auto" solid-color="#000000" style="isolation:auto;mix-blend-mode:normal"/>
  <path d="m13.54 111-3.09-21.47 22.85 5.169 21.74 20.33 4.589 23.54-21.24-3.281z" color="#000000" color-rendering="auto" fill="#e9ddaf" image-rendering="auto" solid-color="#000000" stroke="#000" stroke-linecap="round" stroke-linejoin="round" stroke-width="3" style="isolation:auto;mix-blend-mode:normal"/>
  <ellipse transform="rotate(45)" cx="105.6" cy="56.01" rx="10.24" ry="2.497" color="#000000" color-rendering="auto" fill="#f00" image-rendering="auto" solid-color="#000000" stroke="#000" stroke-linecap="round" stroke-linejoin="round" stroke-width="3" style="isolation:auto;mix-blend-mode:normal"/>
  <ellipse transform="matrix(.6742 .7386 -.6742 .7386 0 0)" cx="89.77" cy="-13.09" rx="6.116" ry="6.192" color="#000000" color-rendering="auto" fill="#fff" image-rendering="auto" solid-color="#000000" style="isolation:auto;mix-blend-mode:normal"/>
  <ellipse transform="matrix(.6742 .7386 -.6742 .7386 0 0)" cx="130.9" cy="-15" rx="6.116" ry="6.192" color="#000000" color-rendering="auto" fill="#fff" image-rendering="auto" solid-color="#000000" style="isolation:auto;mix-blend-mode:normal"/>
 </g>
 <rect x="14.49" y="160.4" width="114.9" height="15.94" ry="7.971" color="#000000" color-rendering="auto" image-rendering="auto" shape-rendering="auto" solid-color="#000000" style="isolation:auto;mix-blend-mode:normal"/>
</svg>
