<svg xmlns:rdf="http://www.w3.org/1999/02/22-rdf-syntax-ns#" xmlns="http://www.w3.org/2000/svg" height="148.5" width="148.6" version="1.1" xmlns:cc="http://creativecommons.org/ns#" xmlns:dc="http://purl.org/dc/elements/1.1/" viewBox="0 0 148.56855 148.5735">
 <g transform="translate(-5.239 -.4492)">
  <g transform="matrix(.7071 .7071 -.7071 .7071 75.4 -36.14)">
   <path stroke-linejoin="round" style="color-rendering:auto;color:#000000;isolation:auto;mix-blend-mode:normal;shape-rendering:auto;solid-color:#000000;image-rendering:auto" d="m148 111.7c4.976-5.58 4.014-18-7.768-21.43-11.43-3.331-23.78-3.472-23.78-3.472-3.168 17.84 23.85 34.04 31.55 24.9z" stroke="#000" stroke-linecap="round" stroke-width="3" fill="#fff"/>
   <path stroke-linejoin="round" style="color-rendering:auto;color:#000000;isolation:auto;mix-blend-mode:normal;shape-rendering:auto;solid-color:#000000;image-rendering:auto" d="m159.2 52.05c5.223 12.99-.2719 31.26-15.38 34.46-14.65 3.104-29.52.6188-29.52.6188 1.245-30.82 32.35-60.06 44.9-35.08z" stroke="#000" stroke-linecap="round" stroke-width="3" fill="#fff"/>
   <path stroke-linejoin="round" style="color-rendering:auto;color:#000000;isolation:auto;mix-blend-mode:normal;shape-rendering:auto;solid-color:#000000;image-rendering:auto" d="m14.62 111.7c-4.976-5.6-4.01-18.03 7.77-21.46 11.42-3.33 23.78-3.47 23.78-3.47 3.17 17.83-23.84 34.03-31.55 24.93z" stroke="#000" stroke-linecap="round" stroke-width="3" fill="#fff"/>
   <path stroke-linejoin="round" style="color-rendering:auto;color:#000000;isolation:auto;mix-blend-mode:normal;shape-rendering:auto;solid-color:#000000;image-rendering:auto" d="m3.442 52.05c-5.223 12.99.2719 31.26 15.38 34.46 14.65 3.104 29.52.6188 29.52.6188-1.24-30.81-32.35-60.06-44.9-35.08z" stroke="#000" stroke-linecap="round" stroke-width="3" fill="#fff"/>
   <path stroke-linejoin="round" style="color-rendering:auto;color:#000000;isolation:auto;mix-blend-mode:normal;shape-rendering:auto;solid-color:#000000;image-rendering:auto" d="m148.7 437.5h-28.82-28.82l14.41-24.96 14.41-24.96 14.41 24.96z" transform="matrix(1.165 0 0 .7797 -57.96 -300.7)" stroke="#000" stroke-linecap="round" stroke-width="3.148" fill="#e9ddaf"/>
   <path stroke-linejoin="round" style="color-rendering:auto;color:#000000;isolation:auto;mix-blend-mode:normal;shape-rendering:auto;solid-color:#000000;image-rendering:auto" d="m68.17 17.26c8.326-2.324 17.25-2.784 27.21 0l-13.6-15.77z" stroke="#000" stroke-linecap="round" stroke-width="3" fill="#f00"/>
   <path style="color-rendering:auto;color:#000000;isolation:auto;mix-blend-mode:normal;shape-rendering:auto;solid-color:#000000;image-rendering:auto" d="m67.06 41.94c10.95-8.918 20.5-6.5 29.54 0v87.38h-29.54z" stroke="#000" stroke-width="3" fill="#fc0"/>
   <path style="color-rendering:auto;color:#000000;isolation:auto;mix-blend-mode:normal;shape-rendering:auto;solid-color:#000000;image-rendering:auto" d="m47.02 41.94c7.498-8.918 14.03-6.5 20.22 0v87.38h-20.22z" stroke="#000" stroke-width="3" fill="#f60"/>
   <path style="color-rendering:auto;color:#000000;isolation:auto;mix-blend-mode:normal;shape-rendering:auto;solid-color:#000000;image-rendering:auto" d="m96.42 41.94c7.498-8.918 14.03-6.5 20.22 0v87.38h-20.22z" stroke="#000" stroke-width="3" fill="#f60"/>
   <ellipse style="color-rendering:auto;color:#000000;isolation:auto;mix-blend-mode:normal;shape-rendering:auto;solid-color:#000000;image-rendering:auto" rx="20.44" ry="20.7" stroke="#000" cy="71.01" cx="60.8" stroke-width="3" fill="#fff"/>
   <ellipse style="color-rendering:auto;color:#000000;isolation:auto;mix-blend-mode:normal;shape-rendering:auto;solid-color:#000000;image-rendering:auto" rx="9.527" ry="9.646" cy="71.01" cx="60.8"/>
   <ellipse style="color-rendering:auto;color:#000000;isolation:auto;mix-blend-mode:normal;shape-rendering:auto;solid-color:#000000;image-rendering:auto" rx="20.44" ry="20.7" stroke="#000" cy="71.01" cx="101.4" stroke-width="3" fill="#fff"/>
   <ellipse style="color-rendering:auto;color:#000000;isolation:auto;mix-blend-mode:normal;shape-rendering:auto;solid-color:#000000;image-rendering:auto" rx="9.527" ry="9.646" cy="71.01" cx="101.4"/>
   <path stroke-linejoin="round" style="color-rendering:auto;color:#000000;isolation:auto;mix-blend-mode:normal;shape-rendering:auto;solid-color:#000000;image-rendering:auto" d="m64.32 144.4-17.37-13 19.81-12.5 29.75-1 19.89 13.4-17.34 12.7z" stroke="#000" stroke-linecap="round" stroke-width="3" fill="#e9ddaf"/>
   <ellipse stroke-linejoin="round" style="color-rendering:auto;color:#000000;isolation:auto;mix-blend-mode:normal;shape-rendering:auto;solid-color:#000000;image-rendering:auto" stroke-linecap="round" rx="10.24" ry="2.497" stroke="#000" cy="131.5" cx="81.86" stroke-width="3" fill="#f00"/>
   <ellipse style="color-rendering:auto;color:#000000;isolation:auto;mix-blend-mode:normal;shape-rendering:auto;solid-color:#000000;image-rendering:auto" rx="6.116" ry="6.192" transform="matrix(.9990 .04553 .04553 .9990 0 0)" cy="63.72" cx="62.5" fill="#fff"/>
   <ellipse style="color-rendering:auto;color:#000000;isolation:auto;mix-blend-mode:normal;shape-rendering:auto;solid-color:#000000;image-rendering:auto" rx="6.116" ry="6.192" transform="matrix(.9990 .04553 .04553 .9990 0 0)" cy="61.81" cx="103.6" fill="#fff"/>
  </g>
 </g>
</svg>
