<svg xmlns:rdf="http://www.w3.org/1999/02/22-rdf-syntax-ns#" xmlns="http://www.w3.org/2000/svg" height="94.12" width="100" version="1.1" xmlns:cc="http://creativecommons.org/ns#" xmlns:dc="http://purl.org/dc/elements/1.1/" viewBox="0 0 100 94.117711">
 <g>
  <path d="m97.06 50h-11.76v-22.31l6.491-6.491c1.149-1.149 1.149-3.011 0-4.159-1.149-1.149-3.011-1.149-4.159 0l-6.491 6.491h-7.422c-.01-13-10.53-23.53-23.54-23.53-13-.000001073-23.53 10.52-23.53 23.53h-7.789l-7.962-7.962c-1.149-1.149-3.011-1.149-4.16 0s-1.149 3.011 0 4.159l7.962 7.962v22.31h-11.76c-1.625 0-2.942 1.32-2.942 2.94 0 1.624 1.317 2.941 2.941 2.941h11.76v4.412c0 6.734 2.069 12.99 5.604 18.18l-10.62 10.63c-1.149 1.149-1.149 3.011 0 4.159 1.149 1.149 3.011 1.149 4.159 0l10.22-10.22c5.868 5.933 14.01 9.615 22.99 9.615h5.882c8.984 0 17.12-3.682 22.99-9.614l10.22 10.22c1.149 1.149 3.011 1.149 4.159 0 1.149-1.149 1.149-3.011 0-4.159l-10.61-10.64c3.534-5.185 5.603-11.44 5.603-18.18v-4.412h11.76c1.624 0 2.941-1.317 2.941-2.941s-1.317-2.941-2.941-2.941zm-46.88-44.12c9.746 0 17.65 7.901 17.65 17.65h-35.29c0-9.746 7.901-17.65 17.65-17.65zm2.757 80.88v-43.38c0-1.218-.9877-2.206-2.206-2.206h-1.471c-1.218 0-2.206.9877-2.206 2.206v43.38c-14.6 0-26.47-11.87-26.47-26.47v-30.88h58.82v30.88c0 14.6-11.87 26.47-26.47 26.47z"/>
 </g>
</svg>
