<svg width="140.9" height="140.2" version="1.1" viewBox="0 0 37.28 37.11" xmlns="http://www.w3.org/2000/svg">
 <g transform="translate(-152.2 -18.86)" shape-rendering="auto">
  <g transform="translate(92.75 -77.89)">
   <path transform="translate(1.287 -39.33)" d="m64.41 173.1c-.8934-.1065-2.043-.1056-2.277-.7938-.2782-.8174-2.997-1.971-2.833-3.1-.1343.2993 1.567-3.875 1.78-8.593.3465-3.328.09069-5.92-1e-6-9.156-.3392-5.032-.1819-9.313-4e-6-9.156.1362-2.012 1.807-3.509 3.33-3.332.08816-.3852 4.188-.1205 9.157 0 2.854.1449 6.231.3173 9.157 0 5.212.2066 8.705-2.031 8.309-1.695 1.429.7837 4.008 3.221 4.178 5.027-.2881-.3602-.3959 4.318-2e-6 9.156-.1678 3.2.221 5.97 1e-6 9.156-.08121 5.192.06862 8.828-3e-6 9.156-.208 1.632-1.337 3.551-3.33 3.33-.2746.244-4.45.053-9.157 0-2.556.1684-6.29.123-9.157 0-5.273-.0535-9.304-.0293-9.157 0m2e-6-1c1.429-.1836 3.894.3154 9.157 0 2.738.302 6.178.2176 9.157 0 4.976-.2449 9.032.0547 9.157 0 1.645-.0495 2.173-.9628 2.33-2.33.1527-.0767.29-4.37-4e-6-9.156-.3832-2.627-.347-6.214-1e-6-9.156.3787-4.936.02029-8.89 3e-6-9.156.2408-1.442-2.126-3.476-3.178-4.027-.4679-1.496-3.176 1.707-8.309 1.695-2.654.1574-6.062-.0593-9.157 0-5.008-.2425-8.935.3296-9.157 0-.9733.3878-2.119 1.214-2.33 2.332.3425.0177-.07307 3.94-3e-6 9.156.3426 3.308.3342 6.111 1e-6 9.156-.2669 5.38-2.601 7.955-2.204 7.745.2328.9475 3.214 3.99 3.927 3.741-.01872-.0117.04165.0333.23-.004" color="#000000" color-rendering="auto" dominant-baseline="auto" image-rendering="auto" solid-color="#000000" style="font-feature-settings:normal;font-variant-alternates:normal;font-variant-caps:normal;font-variant-ligatures:normal;font-variant-numeric:normal;font-variant-position:normal;isolation:auto;mix-blend-mode:normal;shape-padding:0;text-decoration-color:#000000;text-decoration-line:none;text-decoration-style:solid;text-indent:0;text-orientation:mixed;text-transform:none;white-space:normal"/>
   <path transform="translate(1.287 -39.33)" d="m61.47 166.7c-.1934-.0852-.3469.1167-.465.3116.05452.0889-.1898.4236.1154.5478.1926-.1632 3.992 3.919 3.874 3.919.1327.137.139.35 1.505 1.109.2947.092.26-.1692.3577-.3577-.06047-.2711-.0031-.5404-.1376-.4869.01563-.006-4.838-4.82-4.891-4.891-.0074-.2353-.1194-.0899-.3594-.1524.139.1004.1891.0298 0 0" color="#000000" color-rendering="auto" dominant-baseline="auto" image-rendering="auto" solid-color="#000000" style="font-feature-settings:normal;font-variant-alternates:normal;font-variant-caps:normal;font-variant-ligatures:normal;font-variant-numeric:normal;font-variant-position:normal;isolation:auto;mix-blend-mode:normal;shape-padding:0;text-decoration-color:#000000;text-decoration-line:none;text-decoration-style:solid;text-indent:0;text-orientation:mixed;text-transform:none;white-space:normal"/>
   <path transform="translate(1.287 -39.33)" d="m61.81 157.8c-.188-.0887-.5323.2242-.4635.3125.0344.004.04956.2361.1158.5469-.04992-.1938 2.329 2.378 4.91 4.91 1.684 1.564 3.334 3.31 4.91 4.91 2.617 2.793 4.477 4.427 4.381 4.381.307.2357.01644-.2026.4868.1376.09772.0696.2675-.3268.3577-.3577.07913-.1928-.1658-.3109-.1376-.4868-.1223.1049-1.859-1.737-4.381-4.381-1.589-1.65-3.149-3.525-4.91-4.91-2.752-2.565-5.097-4.74-4.91-4.91-.03525-.015-.2446-.2078-.3594-.1523-.1212.1447-.1776.0816 0 0" color="#000000" color-rendering="auto" dominant-baseline="auto" image-rendering="auto" solid-color="#000000" style="font-feature-settings:normal;font-variant-alternates:normal;font-variant-caps:normal;font-variant-ligatures:normal;font-variant-numeric:normal;font-variant-position:normal;isolation:auto;mix-blend-mode:normal;shape-padding:0;text-decoration-color:#000000;text-decoration-line:none;text-decoration-style:solid;text-indent:0;text-orientation:mixed;text-transform:none;white-space:normal"/>
   <path transform="translate(1.287 -39.33)" d="m62.13 149.1c-.04364.0288-.2174-.0562-.4628.3106-.09579.1324-.1061.5409.1203.5519-.08813-.1044 3.358 3.276 7.177 7.177 2.237 2.224 4.724 4.858 7.177 7.177 3.964 3.812 7.517 7.523 7.696 7.696.3078.1302.3133.572 1.097.7473.314.0689.1441-.1443.3577-.3578.1596-.2883.07223-.3516-.1439-.4932.07698-.1344-4.315-4.498-8.3-8.3-2.169-2.281-4.904-4.851-7.177-7.177-4.022-4.147-7.144-7.244-7.177-7.177.02923-.2254-.2502-.2744-.3645-.1555.1957-.114.07425-.0693 0 0" color="#000000" color-rendering="auto" dominant-baseline="auto" image-rendering="auto" solid-color="#000000" style="font-feature-settings:normal;font-variant-alternates:normal;font-variant-caps:normal;font-variant-ligatures:normal;font-variant-numeric:normal;font-variant-position:normal;isolation:auto;mix-blend-mode:normal;shape-padding:0;text-decoration-color:#000000;text-decoration-line:none;text-decoration-style:solid;text-indent:0;text-orientation:mixed;text-transform:none;white-space:normal"/>
   <path transform="translate(1.287 -39.33)" d="m61.79 140.8c-.2803.162-.3245-.0408-.4613.3122-.1488.1124.1157.2543.1136.5453.08781-.1799 2.187 2.223 5.786 5.786 1.82 1.901 4 3.888 6.161 6.16 2.112 2.125 4.102 4.262 6.16 6.16 2.318 2.182 4.35 4.357 6.161 6.16 3.569 3.635 6.185 6.093 6.159 6.159.151.0721.2706.2693.4869.1376.2118-.0229.2042-.3754.3577-.3578-.0517-.1657.1334-.4355-.1376-.4868-.08462-.1879-2.709-2.682-6.16-6.16-1.75-1.688-4.066-3.814-6.161-6.16-1.829-2.131-4.321-4.114-6.16-6.16-2.247-2.157-4.513-4.498-6.161-6.16-3.436-3.44-5.638-5.796-5.785-5.785-.206-.1319-.4198-.2758-.3594-.1504.1828-.0915-.09097.1515 0 0" color="#000000" color-rendering="auto" dominant-baseline="auto" image-rendering="auto" solid-color="#000000" style="font-feature-settings:normal;font-variant-alternates:normal;font-variant-caps:normal;font-variant-ligatures:normal;font-variant-numeric:normal;font-variant-position:normal;isolation:auto;mix-blend-mode:normal;shape-padding:0;text-decoration-color:#000000;text-decoration-line:none;text-decoration-style:solid;text-indent:0;text-orientation:mixed;text-transform:none;white-space:normal"/>
   <path transform="translate(1.287 -39.33)" d="m70.63 140c-.09107.14-.5212.2873-.4629.3112.0899.3653.168.3952.1133.5462-.1966-.0126 2.523 2.245 5.662 5.662 1.498 1.673 3.731 3.77 5.662 5.662 1.941 1.7 1.283 1.247 3.043 3.043 1.849 2.083 3.78 3.872 5.662 5.662 3.246 3.269 3.817 3.848 3.894 3.903.1653.0986.4396.3691.4869.1376.3121-.143.4518-.1182.3577-.3577.1016-.1115.03175-.2083-.1376-.4869.07927.054-.7655-.4962-3.895-3.904-1.889-1.785-3.718-3.716-5.662-5.662-1.986-2.028-1.285-1.084-3.043-3.043-2.008-1.952-4.118-3.833-5.662-5.662-3.472-3.384-5.844-5.738-5.661-5.661.0885.0899-.04274-.2341-.3574-.1504.05395.004.1781-.0294 0 0" color="#000000" color-rendering="auto" dominant-baseline="auto" image-rendering="auto" solid-color="#000000" style="font-feature-settings:normal;font-variant-alternates:normal;font-variant-caps:normal;font-variant-ligatures:normal;font-variant-numeric:normal;font-variant-position:normal;isolation:auto;mix-blend-mode:normal;shape-padding:0;text-decoration-color:#000000;text-decoration-line:none;text-decoration-style:solid;text-indent:0;text-orientation:mixed;text-transform:none;white-space:normal"/>
   <path transform="translate(1.287 -39.33)" d="m80.47 139.4c-.3977.1022-.3162.2452-.4613.3122-.01216.3194-.07519.5032.1136.5453.01998-.119 2.661 2.648 6.133 6.133 2.082 1.777.349.1253 2.125 2.125 3.446 3.284 2.87 2.87 6.134 6.134.1993.2226.4173.1687.4869.1376.2515.1296.2631-.1602.3577-.3577.1854-.231.04342-.3697-.1376-.4869-.03018-.1248-2.631-2.602-6.133-6.133-2.003-2.155-.1922-.1629-2.125-2.125-3.23-3.459-6.046-6.184-6.134-6.134-.2719-.1333-.06991.009-.3594-.1504.1516-.0841-.1663-.0793 0 0" color="#000000" color-rendering="auto" dominant-baseline="auto" image-rendering="auto" solid-color="#000000" style="font-feature-settings:normal;font-variant-alternates:normal;font-variant-caps:normal;font-variant-ligatures:normal;font-variant-numeric:normal;font-variant-position:normal;isolation:auto;mix-blend-mode:normal;shape-padding:0;text-decoration-color:#000000;text-decoration-line:none;text-decoration-style:solid;text-indent:0;text-orientation:mixed;text-transform:none;white-space:normal"/>
   <path transform="translate(1.287 -39.33)" d="m88.16 137.8c-.03028.1809-.5674.2368-.4634.3125-.1232.3045-.03759.5603.1158.5468-.1838.0708 2.133 2.098 4.01 4.011 1.98 1.829 2.17 1.957 2.139 2.14.07153.2814.3545.0659.4868.1374.1411-.1297.1247-.2758.3577-.3577-.02039-.3418.0977-.3137-.1374-.4868-.1656-.0641-.09116.0193-2.139-2.14-2.147-2.086-4.126-4.201-4.01-4.011-.1606-.0982-.172-.0471-.3594-.1523.04101-.1255.1282-.009 0 0" color="#000000" color-rendering="auto" dominant-baseline="auto" image-rendering="auto" solid-color="#000000" style="font-feature-settings:normal;font-variant-alternates:normal;font-variant-caps:normal;font-variant-ligatures:normal;font-variant-numeric:normal;font-variant-position:normal;isolation:auto;mix-blend-mode:normal;shape-padding:0;text-decoration-color:#000000;text-decoration-line:none;text-decoration-style:solid;text-indent:0;text-orientation:mixed;text-transform:none;white-space:normal"/>
   <path transform="translate(1.287 -39.33)" d="m65.5 139.4c-.3977.1022-.3162.2452-.4613.3121-.01216.3194-.07519.5032.1136.5453.01998-.119 2.661 2.648 6.133 6.133 2.082 1.777 11.84 11.62 13.62 13.62 3.446 3.284 9.672 9.858 9.535 9.884.1993.2226.4173.1688.4869.1376.2515.1296.2631-.1601.3578-.3577.1853-.231.04341-.3697-.1376-.4868-.03018-.1248-6.033-6.352-9.535-9.884-2.003-2.155-11.68-11.66-13.62-13.62-3.23-3.459-6.046-6.184-6.134-6.133-.2719-.1333-.06991.009-.3594-.1504.1516-.0841-.1663-.0793 0 0" color="#000000" color-rendering="auto" dominant-baseline="auto" image-rendering="auto" solid-color="#000000" style="font-feature-settings:normal;font-variant-alternates:normal;font-variant-caps:normal;font-variant-ligatures:normal;font-variant-numeric:normal;font-variant-position:normal;isolation:auto;mix-blend-mode:normal;shape-padding:0;text-decoration-color:#000000;text-decoration-line:none;text-decoration-style:solid;text-indent:0;text-orientation:mixed;text-transform:none;white-space:normal"/>
   <path transform="translate(1.287 -39.33)" d="m62.38 145.6c-.188-.0887-.5323.2242-.4635.3125.0344.004.04956.2361.1158.5468-.04992-.1937 2.329 2.378 4.91 4.91 1.684 1.564 3.334 3.31 4.91 4.91 2.617 2.793 15.81 16.02 15.71 15.97.307.2357.2862.1346.4869.1376.09772.0696.2675-.3269.3577-.3577.07913-.1928-.1659-.3109-.1376-.4869-.1223.1049-13.19-13.33-15.71-15.97-1.589-1.65-3.149-3.525-4.91-4.91-2.752-2.565-5.097-4.74-4.91-4.91-.03525-.015-.2446-.2078-.3594-.1523-.1212.1447-.1776.0816 0 0" color="#000000" color-rendering="auto" dominant-baseline="auto" image-rendering="auto" solid-color="#000000" style="font-feature-settings:normal;font-variant-alternates:normal;font-variant-caps:normal;font-variant-ligatures:normal;font-variant-numeric:normal;font-variant-position:normal;isolation:auto;mix-blend-mode:normal;shape-padding:0;text-decoration-color:#000000;text-decoration-line:none;text-decoration-style:solid;text-indent:0;text-orientation:mixed;text-transform:none;white-space:normal"/>
   <path transform="translate(1.287 -39.33)" d="m61.95 153.3c-.09107.14-.5212.2873-.4629.3112.0899.3653.168.3952.1133.5462-.1966-.0126.04903.049.04903.049 1.498 1.673 3.731 3.77 5.662 5.662 1.941 1.7 3.903 3.867 5.662 5.662 1.849 2.083 3.78 3.872 5.662 5.662 3.246 3.269 1.469 1.49 1.545 1.545.1653.0986.4396.3691.4869.1376.3121-.143.4518-.1182.3577-.3577.1013-.1117.0318-.2083-.1376-.4869.07919.054 1.583 1.862-1.546-1.546-1.889-1.785-3.718-3.716-5.662-5.662-1.986-2.028-3.904-3.703-5.662-5.662-2.008-1.952-4.118-3.833-5.662-5.662-.3257-.4094-.2314-.125-.04795-.0479.0885.0899-.04274-.2341-.3574-.1504.05395.004.1781-.0294 0 0" color="#000000" color-rendering="auto" dominant-baseline="auto" image-rendering="auto" solid-color="#000000" style="font-feature-settings:normal;font-variant-alternates:normal;font-variant-caps:normal;font-variant-ligatures:normal;font-variant-numeric:normal;font-variant-position:normal;isolation:auto;mix-blend-mode:normal;shape-padding:0;text-decoration-color:#000000;text-decoration-line:none;text-decoration-style:solid;text-indent:0;text-orientation:mixed;text-transform:none;white-space:normal"/>
   <path transform="translate(1.287 -39.33)" d="m61.2 161.8c-.188-.0887-.5323.2242-.4635.3125.0344.004.04956.2361.1158.5469-.04992-.1938 2.329 2.378 4.91 4.91 1.684 1.564 3.334 3.31 4.91 4.91-.3906-.3764.1415.0918.04588.0459.307.2357.2862.1346.4869.1376.09772.0696.2675-.3268.3577-.3577.07912-.1928-.1659-.3109-.1376-.4868-.1223.1049.1376.4868-1.642-1.619-1.589-1.65-1.553-1.952-3.314-3.337-2.752-2.565-5.097-4.74-4.91-4.91-.03525-.015-.2446-.2078-.3594-.1524-.1212.1447-.1776.0816 0 0" color="#000000" color-rendering="auto" dominant-baseline="auto" image-rendering="auto" solid-color="#000000" style="font-feature-settings:normal;font-variant-alternates:normal;font-variant-caps:normal;font-variant-ligatures:normal;font-variant-numeric:normal;font-variant-position:normal;isolation:auto;mix-blend-mode:normal;shape-padding:0;text-decoration-color:#000000;text-decoration-line:none;text-decoration-style:solid;text-indent:0;text-orientation:mixed;text-transform:none;white-space:normal"/>
   <path transform="translate(1.287 -39.33)" d="m84.44 137.9c-.188-.0887-.5323.2242-.4635.3125.0344.004.04956.2361.1158.5469-.04992-.1938 1.606 1.644 4.187 4.177.09481.1121.7694.7793.7694.7793 2.617 2.793 4.414 4.629 4.91 4.91.307.2357.5357.3663.4869.1376.09772.0696.2675-.3269.3577-.3577.07912-.1928-.1659-.3109-.1376-.4868-.1223.1049-2.388-2.266-4.91-4.91-.3627-.3712-.6159-.6159-.8111-.8012-2.752-2.565-4.331-3.985-4.145-4.155-.03525-.015-.2446-.2078-.3594-.1523-.1212.1447-.1776.0816 0 0" color="#000000" color-rendering="auto" dominant-baseline="auto" image-rendering="auto" solid-color="#000000" style="font-feature-settings:normal;font-variant-alternates:normal;font-variant-caps:normal;font-variant-ligatures:normal;font-variant-numeric:normal;font-variant-position:normal;isolation:auto;mix-blend-mode:normal;shape-padding:0;text-decoration-color:#000000;text-decoration-line:none;text-decoration-style:solid;text-indent:0;text-orientation:mixed;text-transform:none;white-space:normal"/>
   <path transform="translate(1.287 -39.33)" d="m84.44 148.7c-.188-.0887-.5323.2242-.4635.3125.0344.004.04956.2361.1158.5469-.04992-.1938 1.606 1.644 4.187 4.177.09481.1121.7694.7793.7694.7793 2.617 2.793 4.414 4.629 4.91 4.91.307.2357.5357.3663.4869.1376.09772.0696.2675-.3269.3577-.3577.0791-.1928-.1659-.3109-.1376-.4868-.1223.1049-2.388-2.266-4.91-4.91-.3627-.3712-.6159-.6159-.8111-.8012-2.752-2.565-4.331-3.985-4.145-4.155-.03525-.015-.2446-.2078-.3594-.1523-.1212.1447-.1776.0816 0 0" color="#000000" color-rendering="auto" dominant-baseline="auto" image-rendering="auto" solid-color="#000000" style="font-feature-settings:normal;font-variant-alternates:normal;font-variant-caps:normal;font-variant-ligatures:normal;font-variant-numeric:normal;font-variant-position:normal;isolation:auto;mix-blend-mode:normal;shape-padding:0;text-decoration-color:#000000;text-decoration-line:none;text-decoration-style:solid;text-indent:0;text-orientation:mixed;text-transform:none;white-space:normal"/>
   <g transform="translate(.7055 61.96)">
    <path d="m66.34 68.4c-.0142-.01411-1.104-.04892-2.423-.07739-2.618-.05653-2.487-.02644-3.437-.7881-.8978-.7195-.8672-.5092-.9051-6.239-.02077-3.141.01617-5.881.09717-7.206.1301-2.128.09972-3.348-.181-7.269-.05891-.8231-.1394-3.012-.1788-4.864-.07816-3.673-.111-3.383.5307-4.7.1789-.3674.8549-1.025 1.275-1.241.4046-.2079.5645-.2156 6.383-.3077 2.248-.03559 5.301-.09415 6.784-.1301 1.767-.04287 3.472-.01673 4.948.07588 1.245.0781 4.372.1448 6.992.1492l4.74.0078.3985.2672c.5149.3453.8802 1.102 1.046 2.167.1651 1.058.06718 8.748-.1255 9.859-.1923 1.108-.1843 6.203.01223 7.857.2118 1.782.2232 10.32.01459 10.92-.07516.2166-.3201.5585-.5444.7599-.83.7452-.055.7021-13.38.7442-6.613.02093-12.03.02651-12.05.01241z" color="#000000" color-rendering="auto" fill="#fc0" image-rendering="auto" solid-color="#000000" style="isolation:auto;mix-blend-mode:normal"/>
    <path d="m62.28 34.91c-2.082.2483-3.617 1.353-3.33 3.33-.1343-.2993-.2133 4.438 0 9.156.3465 3.328.09069 5.92 0 9.156-.3392 5.032-.1819 9.313 0 9.156.1362 2.012 1.807 3.509 3.33 3.332.08816.3852 4.188.1205 9.157 0 2.854-.1449 6.231-.3173 9.157 0 5.212-.2066 9.553.3359 9.157 0 1.598-.2751 3.161-1.525 3.33-3.332-.2881.3603-.3959-4.318 0-9.156-.1678-3.2.221-5.97 0-9.156-.08121-5.192.06862-8.828 0-9.156-.208-1.632-1.337-3.551-3.33-3.33-.2746-.244-4.45-.05301-9.157 0-2.556-.1684-6.29-.123-9.157 0-5.273.05351-9.304.02932-9.157 0m0 1c-.1036.3669 3.894-.3154 9.157 0 2.738-.302 6.178-.2176 9.157 0 4.976.2449 9.032-.05468 9.157 0 1.645.04954 2.173.9628 2.33 2.33.1527.07665.2901 4.37 0 9.156-.3832 2.627-.347 6.214 0 9.156.3787 4.936.0203 8.89 0 9.156.2408 1.442-1.279 2.289-2.33 2.332-.2984.05518-4.024-.01171-9.157 0-2.654-.1574-6.062.05926-9.157 0-5.008.2425-8.935-.3296-9.157 0-.9733-.3878-2.119-1.214-2.33-2.332.3425-.01765-.07307-3.94 0-9.156.3426-3.308.3342-6.111 0-9.156-.2669-5.38-.3971-9.366 0-9.156.2328-.9475.9565-1.948 2.33-2.33-.01858.01181.163-.1271 0 0" color="#000000" color-rendering="auto" dominant-baseline="auto" image-rendering="auto" solid-color="#000000" style="font-feature-settings:normal;font-variant-alternates:normal;font-variant-caps:normal;font-variant-ligatures:normal;font-variant-numeric:normal;font-variant-position:normal;isolation:auto;mix-blend-mode:normal;shape-padding:0;text-decoration-color:#000000;text-decoration-line:none;text-decoration-style:solid;text-indent:0;text-orientation:mixed;text-transform:none;white-space:normal"/>
   </g>
  </g>
  <text x="169.27798" y="43.859852" color="#000000" color-rendering="auto" fill="#ffffff" font-family="ChunkFive" font-size="29.63px" image-rendering="auto" solid-color="#000000" stroke="#000000" stroke-linecap="round" stroke-linejoin="round" text-rendering="auto" style="isolation:auto;line-height:125%;mix-blend-mode:normal" xml:space="preserve"><tspan x="169.27798" y="43.859852" font-family="'Sigmar One'" text-align="center" text-anchor="middle">7</tspan></text>
 </g>
</svg>
