<svg xmlns:rdf="http://www.w3.org/1999/02/22-rdf-syntax-ns#" xmlns="http://www.w3.org/2000/svg" height="65" width="67.49" version="1.1" xmlns:cc="http://creativecommons.org/ns#" xmlns:dc="http://purl.org/dc/elements/1.1/" viewBox="0 0 67.489159 65.000001">
 <g>
  <rect style="color-rendering:auto;color:#000000;isolation:auto;mix-blend-mode:normal;shape-rendering:auto;solid-color:#000000;image-rendering:auto" ry="0" height="65" width="67.49" y="-.000004688" x=".00001568" fill="#fff"/>
  <text style="word-spacing:0px;letter-spacing:0px" line-height="125%" xml:space="preserve" font-size="9.67px" y="56.82584" x="10.009028" font-family="sans-serif" fill="#000000"><tspan font-weight="900" font-size="11.25px" y="56.82584" x="10.009028" font-family="&apos;Source Code Pro&apos;">gallery</tspan></text>
  <path d="m17.71 41.21c-.2175-.1462-.2307-.2155-.2170-1.137.0122-.8160.0133-.8256.1197-1.04.1656-.3338.4408-.6063.7793-.7718l.2896-.1416h15.04 15.04l.2522.1182c.4348.2038.7171.5127.8758.9582.0776.2181.0863.3132.0882.9760.004.8225-.0174.9036-.2584 1.051l-.1292.0789h-15.87-15.87l-.1365-.0919zm1.908-4.858c0-.8485.0319-.9972.2626-1.225.2374-.2349.3719-.2640 1.22-.2640h.6875v-6.421-6.421h2.17 2.17v6.421 6.421h1.085 1.085v-6.421-6.421h2.17 2.17v6.421 6.421h1.085 1.085v-6.421-6.421h2.17 2.17v6.421 6.421h1.085 1.085v-6.421-6.421h2.17 2.17v6.421 6.421h.6875c.7694 0 .9544.0312 1.156.1953.2750.2242.3035.3302.3202 1.189l.0148.7626h-14.11-14.11v-.6572zm.4687-15.52c-.3560-.1755-.4687-.4524-.4687-1.152v-.3714h-.8984c-.8487 0-.9045-.004-1.01-.0783-.2066-.1456-.2242-.2255-.2242-1.018v-.7234l.1428-.1306c.1245-.1139 1.154-.5098 8.062-3.102 6.737-2.528 7.942-2.969 8.071-2.956.1425.0148 15.7 5.826 15.96 5.961.2088.1092.2534.2350.2729.7686.0103.2629.005.5943-.011.7365-.0256.2361-.0408.2706-.1778.3997l-.1499.1412h-.9122-.9121v.4060c0 .6726-.1104.9328-.4739 1.118l-.1883.0957h-13.44-13.44l-.1935-.0955z"/>
 </g>
</svg>
