<svg xmlns:rdf="http://www.w3.org/1999/02/22-rdf-syntax-ns#" xmlns="http://www.w3.org/2000/svg" height="21" width="21" version="1.1" xmlns:cc="http://creativecommons.org/ns#" xmlns:dc="http://purl.org/dc/elements/1.1/" viewBox="0 0 20.996631 21.000057">
 <g>
  <path d="m16.89 20.51h-14.7c-.9365 0-1.696-.7443-1.696-1.663v-12.39c0-.9182.7592-1.663 1.696-1.663h6.218 8.478c.9343 0 1.696.7443 1.696 1.663v12.39c0 .9182-.7592 1.663-1.696 1.663z" stroke="#000" fill="#0ff"/>
  <path d="m4.789 7.679c-1.093 0-1.978.8684-1.978 1.94 0 1.071.8856 1.94 1.978 1.94 1.093 0 1.978-.8684 1.978-1.94 0-1.071-.8856-1.94-1.978-1.94z" stroke="#000" fill="#f00"/>
  <path d="m2.759 18.3h13.57v-3.879l-3.092-3.548c-.1655-.1623-.4339-.1623-.5995 0l-4.793 5.21-1.962-1.92c-.1655-.1623-.4339-.1623-.5996 0l-2.526 2.477z" stroke="#000" fill="#ff0"/>
  <rect height="8.28" stroke="#000" stroke-width="0.8" fill="#aad400" style="color-rendering:auto;color:#000000;isolation:auto;mix-blend-mode:normal;shape-rendering:auto;solid-color:#000000;image-rendering:auto" ry="1.39" width="8.584" stroke-opacity=".9903" y=".4121" x="12.01"/>
  <path style="color-rendering:auto;color:#000000;isolation:auto;mix-blend-mode:normal;shape-rendering:auto;solid-color:#000000;image-rendering:auto" d="m15.7 1.682v2.265h-2.264v1.208h2.264v2.266h1.208v-2.266h2.265v-1.208h-2.265v-2.265z"/>
 </g>
</svg>
