<svg xmlns:rdf="http://www.w3.org/1999/02/22-rdf-syntax-ns#" xmlns="http://www.w3.org/2000/svg" height="21" width="21" version="1.1" xmlns:cc="http://creativecommons.org/ns#" xmlns:dc="http://purl.org/dc/elements/1.1/" viewBox="0 0 20.996631 21.000057">
 <g>
  <path d="m18.62 17.92h-16.25c-1.036 0-1.875-.8303-1.875-1.855v-11.13c0-1.024.8394-1.855 1.875-1.855h16.25c1.036 0 1.875.8303 1.875 1.855v11.13c0 1.024-.8394 1.855-1.875 1.855zm-13.75-12.68c-1.208 0-2.187.9687-2.187 2.164s.9793 2.164 2.187 2.164 2.187-.9687 2.187-2.164-.9793-2.164-2.187-2.164zm-1.875 10.2h15v-4.327l-3.419-3.381c-.1830-.1810-.4798-.1810-.6628 0l-5.297 5.241-2.168-2.14c-.1830-.1811-.4798-.1811-.6630 0l-2.794 2.763v1.855z"/>
 </g>
</svg>
