<svg xmlns:rdf="http://www.w3.org/1999/02/22-rdf-syntax-ns#" xmlns="http://www.w3.org/2000/svg" height="21" width="21" version="1.1" xmlns:cc="http://creativecommons.org/ns#" xmlns:dc="http://purl.org/dc/elements/1.1/" viewBox="0 0 20.996631 21.000057">
 <g>
  <path stroke-linejoin="round" style="color-rendering:auto;color:#000000;isolation:auto;mix-blend-mode:normal;shape-rendering:auto;solid-color:#000000;image-rendering:auto" d="m13.31 19.96c.9744-.05555 2.032-1.286 1.261-2.685-.7476-1.358-1.875-2.506-1.875-2.506-1.939 1.349-.9406 5.324.6138 5.192z" stroke="#000" stroke-linecap="round" fill="#fff"/>
  <path stroke-linejoin="round" style="color-rendering:auto;color:#000000;isolation:auto;mix-blend-mode:normal;shape-rendering:auto;solid-color:#000000;image-rendering:auto" d="m19.85 15.51c-.7169 1.675-2.911 2.85-4.6 1.755-1.639-1.062-2.782-2.658-2.782-2.658 2.96-2.72 8.53-2.548 7.383.9031z" stroke="#000" stroke-linecap="round" fill="#fff"/>
  <path stroke-linejoin="round" style="color-rendering:auto;color:#000000;isolation:auto;mix-blend-mode:normal;shape-rendering:auto;solid-color:#000000;image-rendering:auto" d="m1.001 7.695c.058-.973 1.294-2.027 2.698-1.259 1.362.744 2.516 1.868 2.516 1.868-1.354 1.926-5.342.937-5.214-.609z" stroke="#000" stroke-linecap="round" fill="#fff"/>
  <path stroke-linejoin="round" style="color-rendering:auto;color:#000000;isolation:auto;mix-blend-mode:normal;shape-rendering:auto;solid-color:#000000;image-rendering:auto" d="m5.475 1.181c-1.681.7143-2.86 2.9-1.761 4.584 1.066 1.633 2.668 2.772 2.668 2.772 2.729-2.948 2.558-8.499-.9064-7.356z" stroke="#000" stroke-linecap="round" fill="#fff"/>
  <path stroke-linejoin="round" style="color-rendering:auto;color:#000000;isolation:auto;mix-blend-mode:normal;shape-rendering:auto;solid-color:#000000;image-rendering:auto" d="m16.87 10.4-3.1-3.092-3.1-3.088 3.35-.245 3.35-.246-.25 3.333z" stroke="#000" stroke-linecap="round" fill="#fff"/>
  <path style="color-rendering:auto;color:#000000;isolation:auto;mix-blend-mode:normal;shape-rendering:auto;solid-color:#000000;image-rendering:auto" d="m14.66 3.934c.9830.5520 1.849 1.33 2.512 2.502l.20-2.701z" stroke-width="0"/>
  <path style="color-rendering:auto;color:#000000;isolation:auto;mix-blend-mode:normal;shape-rendering:auto;solid-color:#000000;image-rendering:auto" d="m12.28 6.102c1.834.1869 2.492 1.288 2.727 2.717l-8.068 8.031-2.727-2.71z" stroke="#000" fill="#fff"/>
  <path style="color-rendering:auto;color:#000000;isolation:auto;mix-blend-mode:normal;shape-rendering:auto;solid-color:#000000;image-rendering:auto" d="m10.43 4.259c1.515-.1306 1.895.6925 1.866 1.86l-8.068 8.031-1.866-1.86z" stroke="#000" fill="#fff"/>
  <path style="color-rendering:auto;color:#000000;isolation:auto;mix-blend-mode:normal;shape-rendering:auto;solid-color:#000000;image-rendering:auto" d="m14.99 8.802c1.515-.1306 1.895.6925 1.866 1.86l-8.068 8.04-1.867-1.86z" stroke="#000" fill="#fff"/>
  <ellipse style="color-rendering:auto;color:#000000;isolation:auto;mix-blend-mode:normal;shape-rendering:auto;solid-color:#000000;image-rendering:auto" rx="2.663" ry="2.697" stroke="#000" transform="matrix(.7084 .7058 -.7084 .7058 0 0)" cy="-.5578" cx="12.17" fill="#fff"/>
  <ellipse style="color-rendering:auto;color:#000000;isolation:auto;mix-blend-mode:normal;shape-rendering:auto;solid-color:#000000;image-rendering:auto" rx="1.241" ry="1.257" transform="matrix(.7084 .7058 -.7084 .7058 0 0)" cy="-.5578" cx="12.17"/>
  <ellipse style="color-rendering:auto;color:#000000;isolation:auto;mix-blend-mode:normal;shape-rendering:auto;solid-color:#000000;image-rendering:auto" rx="2.663" ry="2.697" stroke="#000" transform="matrix(.7084 .7058 -.7084 .7058 0 0)" cy="-.5578" cx="17.47" fill="#fff"/>
  <ellipse style="color-rendering:auto;color:#000000;isolation:auto;mix-blend-mode:normal;shape-rendering:auto;solid-color:#000000;image-rendering:auto" rx="1.241" ry="1.257" transform="matrix(.7084 .7058 -.7084 .7058 0 0)" cy="-.5578" cx="17.47"/>
  <path stroke-linejoin="round" style="color-rendering:auto;color:#000000;isolation:auto;mix-blend-mode:normal;shape-rendering:auto;solid-color:#000000;image-rendering:auto" d="m2.57 15.27-.4061-2.79 2.986.6686 2.84 2.642.5943 3.057-2.771-.4194z" stroke="#000" stroke-linecap="round" fill="#fff"/>
  <ellipse style="color-rendering:auto;color:#000000;isolation:auto;mix-blend-mode:normal;shape-rendering:auto;solid-color:#000000;image-rendering:auto" rx="1.627" ry=".3967" transform="matrix(.7084 .7058 -.7084 .7058 0 0)" cy="7.224" cx="14.92" stroke-width="0"/>
  <ellipse style="color-rendering:auto;color:#000000;isolation:auto;mix-blend-mode:normal;shape-rendering:auto;solid-color:#000000;image-rendering:auto" rx=".7968" ry=".8067" transform="matrix(.6755 .7373 -.6755 .7373 0 0)" cy="-1.732" cx="12.86" fill="#fff"/>
  <ellipse style="color-rendering:auto;color:#000000;isolation:auto;mix-blend-mode:normal;shape-rendering:auto;solid-color:#000000;image-rendering:auto" rx=".7968" ry=".8067" transform="matrix(.6755 .7373 -.6755 .7373 0 0)" cy="-1.981" cx="18.21" fill="#fff"/>
 </g>
</svg>
