<svg xmlns:rdf="http://www.w3.org/1999/02/22-rdf-syntax-ns#" xmlns="http://www.w3.org/2000/svg" height="21" width="21" version="1.1" xmlns:cc="http://creativecommons.org/ns#" xmlns:dc="http://purl.org/dc/elements/1.1/" viewBox="0 0 21.001142 21.003846">
 <path stroke-linejoin="round" style="color-rendering:auto;color:#000000;isolation:auto;mix-blend-mode:normal;shape-rendering:auto;solid-color:#000000;image-rendering:auto" d="m13.59 20.5c1.036-.05929 2.16-1.373 1.341-2.866-.7949-1.449-1.993-2.675-1.993-2.675-2.062 1.44-1 5.682.6526 5.541z" stroke="#000" stroke-linecap="round" stroke-width=".8001" fill="#fff"/>
 <path stroke-linejoin="round" style="color-rendering:auto;color:#000000;isolation:auto;mix-blend-mode:normal;shape-rendering:auto;solid-color:#000000;image-rendering:auto" d="m20.55 15.74c-.7623 1.788-3.095 3.042-4.891 1.873-1.742-1.133-2.958-2.837-2.958-2.837 3.147-2.903 9.069-2.72 7.849.9639z" stroke="#000" stroke-linecap="round" stroke-width=".8001" fill="#fff"/>
 <path stroke-linejoin="round" style="color-rendering:auto;color:#000000;isolation:auto;mix-blend-mode:normal;shape-rendering:auto;solid-color:#000000;image-rendering:auto" d="m.5019 7.409c.0612-1.038 1.376-2.163 2.869-1.344 1.447.794 2.674 1.994 2.674 1.994-1.439 2.061-5.68 1-5.543-.650z" stroke="#000" stroke-linecap="round" stroke-width=".8001" fill="#fff"/>
 <path stroke-linejoin="round" style="color-rendering:auto;color:#000000;isolation:auto;mix-blend-mode:normal;shape-rendering:auto;solid-color:#000000;image-rendering:auto" d="m5.259.4570c-1.787.7620-3.041 3.095-1.873 4.892 1.134 1.742 2.837 2.958 2.837 2.958 2.902-3.146 2.719-9.07-.964-7.85z" stroke="#000" stroke-linecap="round" stroke-width=".8001" fill="#fff"/>
 <path stroke-linejoin="round" style="color-rendering:auto;color:#000000;isolation:auto;mix-blend-mode:normal;shape-rendering:auto;solid-color:#000000;image-rendering:auto" d="m17.38 10.29-3.3-3.293-3.29-3.296 3.55-.262 3.56-.263-.26 3.558z" stroke="#000" stroke-linecap="round" stroke-width=".8001" fill="#e9ddaf"/>
 <path stroke-linejoin="round" style="color-rendering:auto;color:#000000;isolation:auto;mix-blend-mode:normal;shape-rendering:auto;solid-color:#000000;image-rendering:auto" d="m15.03 3.395c1.045.5891 1.966 1.42 2.67 2.671l.2130-2.883z" stroke="#000" stroke-linecap="round" stroke-width=".8001" fill="#f00"/>
 <path style="color-rendering:auto;color:#000000;isolation:auto;mix-blend-mode:normal;shape-rendering:auto;solid-color:#000000;image-rendering:auto" d="m12.49 5.709c1.95.1995 2.65 1.374 2.899 2.899l-8.572 8.572-2.899-2.89z" stroke="#000" stroke-width=".8001" fill="#fc0"/>
 <path style="color-rendering:auto;color:#000000;isolation:auto;mix-blend-mode:normal;shape-rendering:auto;solid-color:#000000;image-rendering:auto" d="m10.53 3.742c1.611-.1394 2.015.7391 1.984 1.985l-8.573 8.573-1.985-1.98z" stroke="#000" stroke-width=".8001" fill="#f60"/>
 <path style="color-rendering:auto;color:#000000;isolation:auto;mix-blend-mode:normal;shape-rendering:auto;solid-color:#000000;image-rendering:auto" d="m15.38 8.591c1.611-.1394 2.015.7391 1.984 1.985l-8.576 8.576-1.984-1.985z" stroke="#000" stroke-width=".8001" fill="#f60"/>
 <ellipse style="color-rendering:auto;color:#000000;isolation:auto;mix-blend-mode:normal;shape-rendering:auto;solid-color:#000000;image-rendering:auto" rx="2.837" ry="2.873" stroke="#000" transform="rotate(45)" cy="-.7641" cx="12" stroke-width=".8001" fill="#fff"/>
 <ellipse style="color-rendering:auto;color:#000000;isolation:auto;mix-blend-mode:normal;shape-rendering:auto;solid-color:#000000;image-rendering:auto" rx="1.322" ry="1.339" transform="rotate(45)" cy="-.7641" cx="12" stroke-width=".8001"/>
 <ellipse style="color-rendering:auto;color:#000000;isolation:auto;mix-blend-mode:normal;shape-rendering:auto;solid-color:#000000;image-rendering:auto" rx="2.837" ry="2.873" stroke="#000" transform="rotate(45)" cy="-.7641" cx="17.64" stroke-width=".8001" fill="#fff"/>
 <ellipse style="color-rendering:auto;color:#000000;isolation:auto;mix-blend-mode:normal;shape-rendering:auto;solid-color:#000000;image-rendering:auto" rx="1.322" ry="1.339" transform="rotate(45)" cy="-.7641" cx="17.64" stroke-width=".8001"/>
 <path stroke-linejoin="round" style="color-rendering:auto;color:#000000;isolation:auto;mix-blend-mode:normal;shape-rendering:auto;solid-color:#000000;image-rendering:auto" d="m2.17 15.5-.432-2.98 3.176.71 3.019 2.82.632 3.26-2.946-.44z" stroke="#000" stroke-linecap="round" stroke-width=".8001" fill="#e9ddaf"/>
 <ellipse stroke-linejoin="round" style="color-rendering:auto;color:#000000;isolation:auto;mix-blend-mode:normal;shape-rendering:auto;solid-color:#000000;image-rendering:auto" stroke-linecap="round" rx="1.421" ry=".3466" stroke="#000" transform="rotate(45)" cy="7.632" cx="14.93" stroke-width=".8001" fill="#f00"/>
 <ellipse style="color-rendering:auto;color:#000000;isolation:auto;mix-blend-mode:normal;shape-rendering:auto;solid-color:#000000;image-rendering:auto" rx=".8489" ry=".8595" transform="matrix(.6741 .7386 -.6741 .7386 0 0)" cy="-1.971" cx="12.74" stroke-width=".8018" fill="#fff"/>
 <ellipse style="color-rendering:auto;color:#000000;isolation:auto;mix-blend-mode:normal;shape-rendering:auto;solid-color:#000000;image-rendering:auto" rx=".8489" ry=".8595" transform="matrix(.6741 .7386 -.6741 .7386 0 0)" cy="-2.237" cx="18.44" stroke-width=".8018" fill="#fff"/>
</svg>
