<svg xmlns:rdf="http://www.w3.org/1999/02/22-rdf-syntax-ns#" xmlns="http://www.w3.org/2000/svg" height="21" width="21" version="1.1" xmlns:cc="http://creativecommons.org/ns#" xmlns:dc="http://purl.org/dc/elements/1.1/" viewBox="0 0 20.996631 21.000057">
 <g>
  <path d="m10.46.5005.002.002c-.5897.004-1.174.0513-1.743.1450-.5279.0893-.9072.5353-.9072 1.049v1.505c-.9401.3169-1.802.8035-2.543 1.415l-1.347-.7514c-.4676-.2588-1.058-.1594-1.401.2378-.7498.8657-1.542 1.857-1.954 2.937-.1899.4865.0188 1.035.4866 1.294l1.54.7538c-.1803.9374-.1803 1.897 0 2.83l-1.54.7514c-.4676.2633-.6717.8124-.4866 1.298.4120 1.075 1.204 2.066 1.954 2.932.3427.3972.9386.4943 1.401.2354l1.347-.7443c.7403.6114 1.603 1.094 2.543 1.415v1.498c0 .5222.3946.9638.9267 1.053 1.18.1964 2.375.1875 3.514 0 .5277-.0893.9119-.5354.9119-1.053v-1.498c.9401-.3169 1.799-.8035 2.541-1.415l1.35.7491c.4676.2588 1.059.1618 1.401-.2354 0.75-.8657 1.562-1.857 1.973-2.937.1859-.4909-.0188-1.039-.4866-1.298l-1.56-.7514c.1803-.9374.1803-1.897 0-2.835l1.56-.7491c.4676-.2634.6473-.8124.4620-1.298-.4120-1.08-1.199-2.07-1.949-2.937-.3425-.3972-.9378-.4966-1.401-.2378l-1.35.7514c-.7425-.6174-1.608-1.097-2.548-1.422v-1.498c0-.5222-.3945-.9638-.9267-1.053-.5857-.0922-1.184-.1399-1.77-.1379zm.0357 6.701a3.387 3.299 0 0 1 .3373 .0164 3.387 3.299 0 0 1 .3350 .0499 3.387 3.299 0 0 1 .3277 .0809 3.387 3.299 0 0 1 .3179 .1141 3.387 3.299 0 0 1 .3055 .1426 3.387 3.299 0 0 1 .2886 .1737 3.387 3.299 0 0 1 .2689 .1997 3.387 3.299 0 0 1 .2494 .2235 3.387 3.299 0 0 1 .2225 .2473 3.387 3.299 0 0 1 .1979 .2687 3.387 3.299 0 0 1 .1690 .2854 3.387 3.299 0 0 1 .1371 .302 3.387 3.299 0 0 1 .1070 .3139 3.387 3.299 0 0 1 .0732 .3210 3.387 3.299 0 0 1 .0413 .3282 3.387 3.299 0 0 1 0 .2330 3.387 3.299 0 0 1 -.0188 .3282 3.387 3.299 0 0 1 -.0488 .3258 3.387 3.299 0 0 1 -.0864 .3210 3.387 3.299 0 0 1 -.1146 .3091 3.387 3.299 0 0 1 -.1465 .2972 3.387 3.299 0 0 1 -.1784 .2806 3.387 3.299 0 0 1 -.2053 .2616 3.387 3.299 0 0 1 -.2298 .2426 3.387 3.299 0 0 1 -.2543 .2164 3.387 3.299 0 0 1 -.2764 .1926 3.387 3.299 0 0 1 -.2933 .1640 3.387 3.299 0 0 1 -.3082 .1355 3.387 3.299 0 0 1 -.3202 .1046 3.387 3.299 0 0 1 -.3326 .0714 3.387 3.299 0 0 1 -.3350 .0404 3.387 3.299 0 0 1 -.2396 .007 3.387 3.299 0 0 1 -.3375 -.0164 3.387 3.299 0 0 1 -.3350 -.0499 3.387 3.299 0 0 1 -.3277 -.0809 3.387 3.299 0 0 1 -.3202 -.1118 3.387 3.299 0 0 1 -.3033 -.1450 3.387 3.299 0 0 1 -.2885 -.1711 3.387 3.299 0 0 1 -.2715 -.1998 3.387 3.299 0 0 1 -.2469 -.2259 3.387 3.299 0 0 1 -.2224 -.2473 3.387 3.299 0 0 1 -.1981 -.2687 3.387 3.299 0 0 1 -.1690 -.2854 3.387 3.299 0 0 1 -.1371 -.302 3.387 3.299 0 0 1 -.1070 -.3115 3.387 3.299 0 0 1 -.0732 -.3210 3.387 3.299 0 0 1 -.0413 -.3282 3.387 3.299 0 0 1 0 -.2330 3.387 3.299 0 0 1 .0188 -.3306 3.387 3.299 0 0 1 .0488 -.3258 3.387 3.299 0 0 1 .0826 -.3187 3.387 3.299 0 0 1 .1164 -.3115 3.387 3.299 0 0 1 .1465 -.2949 3.387 3.299 0 0 1 .1784 -.2830 3.387 3.299 0 0 1 .2030 -.2616 3.387 3.299 0 0 1 .2321 -.2426 3.387 3.299 0 0 1 .2545 -.2164 3.387 3.299 0 0 1 .2738 -.1926 3.387 3.299 0 0 1 .2958 -.1640 3.387 3.299 0 0 1 .3082 -.1331 3.387 3.299 0 0 1 .3204 -.1046 3.387 3.299 0 0 1 .3301 -.0714 3.387 3.299 0 0 1 .3373 -.0404 3.387 3.299 0 0 1 .2396 -.009z" stroke="#000" fill="#ff0"/>
 </g>
</svg>
