<svg xmlns:rdf="http://www.w3.org/1999/02/22-rdf-syntax-ns#" xmlns="http://www.w3.org/2000/svg" height="21" width="21" version="1.1" xmlns:cc="http://creativecommons.org/ns#" xmlns:dc="http://purl.org/dc/elements/1.1/" viewBox="0 0 20.996631 21.000057">
 <g>
  <path d="m20.24 11.13-6.258 6.185c-.56.54-1.53.16-1.53-.64v-3.534h-5.066c-.4954 0-.8941-.3939-.8941-.8835v-3.534c0-.4896.3986-.8835.8941-.8835h5.066v-3.534c0-.7878.9648-1.178 1.527-.6258l6.258 6.185c.3464.3460.3464.9056 0 1.252z"/>
  <path d="m9.126 18.49v-1.776c0-.2931-.2426-.5328-.5392-.5328h-3.775c-.7954 0-1.438-.6350-1.438-1.421v-8.525c0-.7859.6426-1.421 1.438-1.421h3.775c.2966 0 .5392-.2398.5392-.5328v-1.776c0-.2930-.2426-.5328-.5392-.5328h-3.775c-2.382 0-4.314 1.909-4.314 4.263v8.525c0 2.353 1.932 4.263 4.314 4.263h3.775c.2966 0 .5392-.2398.5392-.5328z"/>
 </g>
</svg>
