<svg xmlns:rdf="http://www.w3.org/1999/02/22-rdf-syntax-ns#" xmlns="http://www.w3.org/2000/svg" height="21" width="21" version="1.1" xmlns:cc="http://creativecommons.org/ns#" xmlns:dc="http://purl.org/dc/elements/1.1/" viewBox="0 0 20.996631 21.000057">
 <g>
  <path d="m12.26 4.464 4.336 4.289c.1836.1816.1836.4753 0 .6569l-10.6 10.49-4.46.48c-.5983.07-1.102-.43-1.036-1.02l.496-4.41 10.6-10.49c.1836-.1816.4805-.1816.6642 0z"/>
  <path d="m19.95 3.475-2.348-2.322c-.7305-.7226-1.918-.7226-2.653 0l-1.801 1.781c-.1835.1816-.1835.4753 0 .6569l4.336 4.289c.1836.1816.4807.1816.6642 0l1.801-1.781c.7346-.7264.7346-1.901 0-2.624z"/>
 </g>
</svg>
