<svg width="155.4" height="184.4" version="1.1" viewBox="0 0 155.4 184.4" xmlns="http://www.w3.org/2000/svg">
 <path id="frameBottomRight" d="m152.5.3587-149.5 183.8h149.5z" color="#000000" color-rendering="auto" fill="#1a1a1a" image-rendering="auto" shape-rendering="auto" solid-color="#000000" style="isolation:auto;mix-blend-mode:normal"/>
 <path id="frameTopLeft" d="m152.5.3587-149.5 183.8v-183.8z" color="#000000" color-rendering="auto" fill="#393939" image-rendering="auto" shape-rendering="auto" solid-color="#000000" style="isolation:auto;mix-blend-mode:normal"/>
 <rect id="mount" x="11.52" y="10.38" width="132.4" height="163.8" ry="0" color="#000000" color-rendering="auto" fill="#fc0" image-rendering="auto" shape-rendering="auto" solid-color="#000000" style="isolation:auto;mix-blend-mode:normal"/>
 <path id="mountEdgeBottomRight" d="m125.9 32.61-96.45 119.3h96.45z" color="#000000" color-rendering="auto" fill="#ffe374" image-rendering="auto" shape-rendering="auto" solid-color="#000000" style="isolation:auto;mix-blend-mode:normal"/>
 <path id="mountEdgeTopLeft" d="m125.9 32.61-96.45 119.3v-119.3z" color="#000000" color-rendering="auto" fill="#bd9700" image-rendering="auto" shape-rendering="auto" solid-color="#000000" style="isolation:auto;mix-blend-mode:normal"/>
 <rect x="31.36" y="34.65" width="92.71" height="115.2" ry="0" color="#000000" color-rendering="auto" fill="#fff6d5" image-rendering="auto" shape-rendering="auto" solid-color="#000000" style="isolation:auto;mix-blend-mode:normal"/>
 <g shape-rendering="auto">
  <path d="m84.44 133.8c3.788-.2193 7.862-5.078 4.814-10.6-2.954-5.36-7.376-9.894-7.376-9.894-7.494 5.324-3.479 21.02 2.562 20.5z" color="#000000" color-rendering="auto" fill="#fff" image-rendering="auto" solid-color="#000000" stroke="#000" stroke-linecap="round" stroke-linejoin="round" stroke-width="1.89" style="isolation:auto;mix-blend-mode:normal"/>
  <path d="m109.7 116.2c-2.732 6.613-11.23 11.25-17.83 6.926-6.408-4.192-10.91-10.49-10.91-10.49 11.42-10.74 33.09-10.06 28.74 3.565z" color="#000000" color-rendering="auto" fill="#fff" image-rendering="auto" solid-color="#000000" stroke="#000" stroke-linecap="round" stroke-linejoin="round" stroke-width="1.89" style="isolation:auto;mix-blend-mode:normal"/>
  <path d="m36.14 85.4c.1912-3.839 4.965-7.999 10.45-4.97 5.321 2.937 9.847 7.373 9.847 7.373-5.2 7.625-20.74 3.699-20.3-2.403z" color="#000000" color-rendering="auto" fill="#fff" image-rendering="auto" solid-color="#000000" stroke="#000" stroke-linecap="round" stroke-linejoin="round" stroke-width="1.89" style="isolation:auto;mix-blend-mode:normal"/>
  <path d="m53.32 59.69c-6.516 2.82-11.03 11.45-6.695 18.09 4.2 6.444 10.47 10.94 10.47 10.94 10.52-11.63 9.66-33.55-3.774-29.04z" color="#000000" color-rendering="auto" fill="#fff" image-rendering="auto" solid-color="#000000" stroke="#000" stroke-linecap="round" stroke-linejoin="round" stroke-width="1.89" style="isolation:auto;mix-blend-mode:normal"/>
  <path d="m97.96 96.06-24.32-24.38 26.01-1.941-.8477 13.16z" color="#000000" color-rendering="auto" fill="#e9ddaf" image-rendering="auto" solid-color="#000000" stroke="#000" stroke-linecap="round" stroke-linejoin="round" stroke-width="1.89" style="isolation:auto;mix-blend-mode:normal"/>
  <path d="m89.16 70.56c3.842 2.179 7.239 5.253 9.853 9.879l.6877-10.66z" color="#000000" color-rendering="auto" fill="#f00" image-rendering="auto" solid-color="#000000" stroke="#000" stroke-linecap="round" stroke-linejoin="round" stroke-width="1.89" style="isolation:auto;mix-blend-mode:normal"/>
  <path d="m79.95 79.12c7.14.7378 9.736 5.083 10.7 10.73l-31.1 31.73-10.7-10.73z" color="#000000" color-rendering="auto" fill="#fc0" image-rendering="auto" solid-color="#000000" stroke="#000" stroke-width="1.89" style="isolation:auto;mix-blend-mode:normal"/>
  <path d="m72.7 71.84c5.89-.5155 7.396 2.734 7.323 7.342l-31.1 31.73-7.323-7.342z" color="#000000" color-rendering="auto" fill="#f60" image-rendering="auto" solid-color="#000000" stroke="#000" stroke-width="1.89" style="isolation:auto;mix-blend-mode:normal"/>
  <path d="m90.59 89.77c5.89-.5155 7.396 2.734 7.323 7.342l-31.1 31.73-7.323-7.342z" color="#000000" color-rendering="auto" fill="#f60" image-rendering="auto" solid-color="#000000" stroke="#000" stroke-width="1.89" style="isolation:auto;mix-blend-mode:normal"/>
  <ellipse transform="matrix(.7062 .708 -.7001 .7141 0 0)" cx="109.3" cy="14.04" rx="10.48" ry="10.52" color="#000000" color-rendering="auto" fill="#fff" image-rendering="auto" solid-color="#000000" stroke="#000" stroke-width="1.89" style="isolation:auto;mix-blend-mode:normal"/>
  <ellipse transform="matrix(.7062 .708 -.7001 .7141 0 0)" cx="109.3" cy="14.04" rx="4.885" ry="4.904" color="#000000" color-rendering="auto" image-rendering="auto" solid-color="#000000" stroke-width="1.89" style="isolation:auto;mix-blend-mode:normal"/>
  <ellipse transform="matrix(.7062 .708 -.7001 .7141 0 0)" cx="130.1" cy="14.04" rx="10.48" ry="10.52" color="#000000" color-rendering="auto" fill="#fff" image-rendering="auto" solid-color="#000000" stroke="#000" stroke-width="1.89" style="isolation:auto;mix-blend-mode:normal"/>
  <ellipse transform="matrix(.7062 .708 -.7001 .7141 0 0)" cx="130.1" cy="14.04" rx="4.885" ry="4.904" color="#000000" color-rendering="auto" image-rendering="auto" solid-color="#000000" stroke-width="1.89" style="isolation:auto;mix-blend-mode:normal"/>
  <path d="m42.49 115.3-1.663-11.02 11.62 2.654 11.13 10.44 2.433 12.09-10.8-1.685z" color="#000000" color-rendering="auto" fill="#e9ddaf" image-rendering="auto" solid-color="#000000" stroke="#000" stroke-linecap="round" stroke-linejoin="round" stroke-width="1.89" style="isolation:auto;mix-blend-mode:normal"/>
  <ellipse transform="matrix(.7062 .708 -.7001 .7141 0 0)" cx="120.1" cy="44.79" rx="5.251" ry="1.27" color="#000000" color-rendering="auto" fill="#f00" image-rendering="auto" solid-color="#000000" stroke="#000" stroke-linecap="round" stroke-linejoin="round" stroke-width="1.89" style="isolation:auto;mix-blend-mode:normal"/>
  <ellipse transform="matrix(.6735 .7392 -.6665 .7455 0 0)" cx="111.5" cy="6.727" rx="3.138" ry="3.15" color="#000000" color-rendering="auto" fill="#fff" image-rendering="auto" solid-color="#000000" stroke-width="1.895" style="isolation:auto;mix-blend-mode:normal"/>
  <ellipse transform="matrix(.6735 .7392 -.6665 .7455 0 0)" cx="132.6" cy="5.755" rx="3.138" ry="3.15" color="#000000" color-rendering="auto" fill="#fff" image-rendering="auto" solid-color="#000000" stroke-width="1.895" style="isolation:auto;mix-blend-mode:normal"/>
  <path transform="matrix(.8219 0 .2491 .7114 156.8 69.87)" d="m-55.13-12.65c-2.142 2.154 1.515 3.293-1.255 4.324-2.77 1.03-3.685-1.463-6.027-3.23-2.342-1.767-3.103 2.296-3.998-.9555-.8955-3.251-.1716-2.803.3299-6.067.5016-3.264-3.803-4.405-1.086-6.235s2.559-.1761 5.641-.3082c3.081-.132 4.7-4.326 7.511-2.801 2.811 1.525-1.727 3.971-.2877 6.441 1.439 2.47 3.448 3.251 3.624 6.594.176 3.344-2.309.08448-4.451 2.238z" color="#000000" color-rendering="auto" fill="#f00" image-rendering="auto" solid-color="#000000" style="isolation:auto;mix-blend-mode:normal"/>
  <path transform="matrix(.8299 0 .238 .4907 165.9 79.45)" d="m-55.13-12.65c-1.803 1.813.5168 5.613-1.746 6.776-2.263 1.163.175-5.16-2.203-5.889-2.378-.7289-4.897 6.679-7.104 5.362s1.427-6.018.0556-8.218c-1.371-2.2-1.781 3.514-1.909.6459-.1281-2.868.8263-2.942 1.359-5.418s-2.776-3.883-.4892-5.424 3.795 4.006 6.444 3.789c2.649-.2165-.6789-6.442 1.744-5.6 2.423.8412-.1082 3.024 2.038 4.605 2.146 1.581 3.442-.9712 5.062.8352 1.62 1.806-2.001-.6599-2.095 1.7-.09452 2.36 3.717 1.669 3.264 4.297-.4532 2.628-2.616.725-4.419 2.538z" color="#000000" color-rendering="auto" fill="#800080" image-rendering="auto" solid-color="#000000" style="isolation:auto;mix-blend-mode:normal"/>
  <path transform="matrix(.8299 0 .238 .4975 140.3 68.9)" d="m-55.13-12.65c-1.708 1.718 3.987 3.898 1.592 4.817-2.395.9185-1.949-2.138-4.473-2.229-2.525-.09061-4.673 1.698-6.783.6857-2.11-1.012 3.632-1.573 1.862-3.535-1.77-1.962-2.707 3.874-3.69 1.579-.9828-2.296 1.089-3.118.7819-5.613-.3066-2.495-1.89-2.913-.8167-5.054 1.073-2.141 1.778.98 3.694-.8224 1.916-1.802-4.179-1.846-1.82-2.484 2.36-.6373 4.255.3814 6.757.348 2.503-.03344 2.148-4.215 4.499-2.951 2.351 1.264-3.379 3.685-1.635 5.348 1.745 1.664 3.991-2.627 4.904-.09522.9127 2.532-2.962 3.964-3.134 6.368-.1719 2.404 3.967 2.151 3.169 4.298-.798 2.148-3.199-2.379-4.907-.6609z" color="#000000" color-rendering="auto" fill="#2ca02c" image-rendering="auto" solid-color="#000000" style="isolation:auto;mix-blend-mode:normal"/>
 </g>
</svg>
