<svg xmlns:rdf="http://www.w3.org/1999/02/22-rdf-syntax-ns#" xmlns="http://www.w3.org/2000/svg" height="364.4" width="800" version="1.1" xmlns:cc="http://creativecommons.org/ns#" xmlns:dc="http://purl.org/dc/elements/1.1/" viewBox="0 0 800.00654 364.3748">
 <path d="m.000237 363.9h800" stroke-opacity="0.48" stroke="#000" stroke-width="1px" fill="none"/>
 <rect style="color-rendering:auto;color:#000000;isolation:auto;mix-blend-mode:normal;shape-rendering:auto;solid-color:#000000;image-rendering:auto" ry="0" height="34.33" width="781.9" y="307.3" x="7.144" fill="#e17469"/>
 <path style="color-rendering:auto;color:#000000;isolation:auto;mix-blend-mode:normal;shape-rendering:auto;solid-color:#000000;image-rendering:auto" d="m800 349.3h-800v14.29h800v-14.29z" fill="#df695d"/>
 <path style="color-rendering:auto;color:#000000;isolation:auto;mix-blend-mode:normal;shape-rendering:auto;solid-color:#000000;image-rendering:auto" d="m7.508 341.6c-4.16 0-7.508 3.349-7.508 7.508v.1821h800v-.1821c0-4.16-3.348-7.508-7.508-7.508h-785z" fill="#e8938b"/>
 <rect style="color-rendering:auto;color:#000000;isolation:auto;mix-blend-mode:normal;shape-rendering:auto;solid-color:#000000;image-rendering:auto" ry="0" height="8.414" width="781.9" y="313.7" x="7.144" fill="#9c2a1f"/>
 <path style="color-rendering:auto;color:#000000;isolation:auto;mix-blend-mode:normal;shape-rendering:auto;solid-color:#000000;image-rendering:auto" d="m25.13 206.8h751.7l23.2 112.2h-800z" fill="#f58c6f"/>
 <path d="m40.68 213.1-24.81 99.4" fill-rule="evenodd" stroke="#f8ae99" stroke-width="2" fill="#f58c6f"/>
 <path d="m746.8 213.1 24.81 99.47" fill-rule="evenodd" stroke="#f8ae99" stroke-width="2" fill="#f58c6f"/>
 <path d="m679.6 213.1 24.81 99.47" fill-rule="evenodd" stroke="#f8ae99" stroke-width="2" fill="#f58c6f"/>
 <path d="m612.4 213.1 24.81 99.47" fill-rule="evenodd" stroke="#f8ae99" stroke-width="2" fill="#f58c6f"/>
 <path d="m485.3 213 10.44 99.47" fill-rule="evenodd" stroke="#f8ae99" stroke-width="2" fill="#f58c6f"/>
 <path d="m422.6 213 1.455 99.47" fill-rule="evenodd" stroke="#f8ae99" stroke-width="2" fill="#f58c6f"/>
 <path d="m548.9 213.1 17.63 99.47" fill-rule="evenodd" stroke="#f8ae99" stroke-width="2" fill="#f58c6f"/>
 <path d="m99.85 213.1-24.81 99.47" fill-rule="evenodd" stroke="#f8ae99" stroke-width="2" fill="#f58c6f"/>
 <path d="m167 213.1-24.81 99.47" fill-rule="evenodd" stroke="#f8ae99" stroke-width="2" fill="#f58c6f"/>
 <path d="m234.2 213.1-24.8 99.4" fill-rule="evenodd" stroke="#f8ae99" stroke-width="2" fill="#f58c6f"/>
 <path d="m361.4 213-10.44 99.47" fill-rule="evenodd" stroke="#f8ae99" stroke-width="2" fill="#f58c6f"/>
 <path d="m297.8 213.1-17.63 99.47" fill-rule="evenodd" stroke="#f8ae99" stroke-width="2" fill="#f58c6f"/>
 <path style="color-rendering:auto;color:#000000;isolation:auto;mix-blend-mode:normal;shape-rendering:auto;solid-color:#000000;image-rendering:auto" d="m329.8 175h113.9v33.1c-44.36 20.7-70.98 22.18-113.9 0z" fill="#db6c59"/>
 <rect style="color-rendering:auto;color:#000000;isolation:auto;mix-blend-mode:normal;shape-rendering:auto;solid-color:#000000;image-rendering:auto" height="11.01" width="113.9" y="129.2" x="329.8" fill="#db6c59"/>
 <rect style="color-rendering:auto;color:#000000;isolation:auto;mix-blend-mode:normal;shape-rendering:auto;solid-color:#000000;image-rendering:auto" height="36.11" width="8.559" y="140.2" x="329.8" fill="#db6c59"/>
 <rect style="color-rendering:auto;color:#000000;isolation:auto;mix-blend-mode:normal;shape-rendering:auto;solid-color:#000000;image-rendering:auto" height="36.11" width="8.559" y="140.2" x="364.9" fill="#db6c59"/>
 <rect style="color-rendering:auto;color:#000000;isolation:auto;mix-blend-mode:normal;shape-rendering:auto;solid-color:#000000;image-rendering:auto" height="36.11" width="8.559" y="140.2" x="400" fill="#db6c59"/>
 <rect style="color-rendering:auto;color:#000000;isolation:auto;mix-blend-mode:normal;shape-rendering:auto;solid-color:#000000;image-rendering:auto" height="36.11" width="8.559" y="140.2" x="435.1" fill="#db6c59"/>
 <rect style="color-rendering:auto;color:#000000;isolation:auto;mix-blend-mode:normal;shape-rendering:auto;solid-color:#000000;image-rendering:auto" height="36.74" width="140.3" y="99.33" x="314.7" fill="#b34141"/>
 <path style="color-rendering:auto;color:#000000;isolation:auto;mix-blend-mode:normal;shape-rendering:auto;solid-color:#000000;image-rendering:auto" d="m301.4 84.82c1.968-80.16 167.3-80.16 165.3 0v36.74h-165.3z" fill="#db6c59"/>
 <path style="color-rendering:auto;color:#000000;isolation:auto;mix-blend-mode:normal;shape-rendering:auto;solid-color:#000000;image-rendering:auto" transform="matrix(.1015 0 0 .3258 338.1 198.9)" fill="#b34141" d="m511.1-562.1h-27.9-27.9l13.95-24.16 13.95-24.16 13.95 24.16z"/>
 <rect style="color-rendering:auto;color:#000000;isolation:auto;mix-blend-mode:normal;shape-rendering:auto;solid-color:#000000;image-rendering:auto" ry="5.168" height="10.34" width="18.95" y="11.55" x="377.4" fill="#db6c59"/>
 <rect style="color-rendering:auto;color:#000000;isolation:auto;mix-blend-mode:normal;shape-rendering:auto;solid-color:#000000;image-rendering:auto" ry="5.168" height="10.34" width="29.63" y="17.35" x="371.5" fill="#b34141"/>
 <g transform="matrix(.9774 0 0 .9774 -10.26 -.0004937)" stroke="#666" stroke-width="1.023px" fill="none">
  <path d="m137.5 139.2-47.46 74.84 36.51 26.47 35.59-29.21-14.6-69.36z"/>
  <path d="m135.7 137.4-11 104"/>
  <path d="m89.13 213.1 49.28-72.1h-1.825l23.73 67.54"/>
  <path d="m126.5 158.4 5.476 21.9-26.47 5.476 20.08 38.33-34.68-12.78"/>
  <path d="m124.7 240.5-28.29-41.07 33.77-2.738-10.95-30.12 12.78-6.389"/>
  <path d="m129.3 235 26.47-48.37-25.56-13.69 18.25-14.6-14.6-17.34"/>
  <path d="m147.5 142.9v3.651l-13.69 16.43 21.9 7.301-28.29 31.94 36.51 9.127"/>
 </g>
 <g transform="matrix(.9774 0 0 .9774 -10.26 -.0004937)">
  <ellipse cy="190.7" transform="rotate(-34.48)" stroke="#b3b3b3" stroke-width="2.046" fill="#e6e6e6" style="color-rendering:auto;color:#000000;isolation:auto;mix-blend-mode:normal;shape-rendering:auto;solid-color:#000000;image-rendering:auto" rx="21.45" ry="48.83" cx="47.73"/>
  <ellipse cy="192.1" ry="10.95" stroke="#b3b3b3" stroke-width="2.046" fill="#e6e6e6" style="color-rendering:auto;color:#000000;isolation:auto;mix-blend-mode:normal;shape-rendering:auto;solid-color:#000000;image-rendering:auto" rx="5.02" transform="rotate(-34.48)" cx="47.73"/>
  <path d="m144.8 125.8 55.29-29.11 5.166 7.524-54.26 30.62z" stroke="#4d4d4d" stroke-width="1.023px" fill="none"/>
  <path d="m145.6 125.3 15.51 4.85" stroke="#4d4d4d" stroke-width="1.023px" fill="none"/>
  <path d="m162.9 131.1 3.3-17.77c8.053-1.811 1.61-1.024 8.602-.3713 1.092.1019 2.194-.0301 3.29-.0452" stroke="#4d4d4d" stroke-width="1.023px" fill="none"/>
  <path d="m181.9 116.9 1.886-10.15" stroke="#4d4d4d" stroke-width="1.023px" fill="none"/>
  <path d="m202.2 103-14.43-.0549" stroke="#4d4d4d" stroke-width="1.023px" fill="none"/>
  <ellipse cy="196.6" ry="9.127" stroke="#4d4d4d" stroke-width="2.046" fill="#e6e6e6" style="color-rendering:auto;color:#000000;isolation:auto;mix-blend-mode:normal;shape-rendering:auto;solid-color:#000000;image-rendering:auto" rx="6.845" transform="rotate(-34.48)" cx="109.8"/>
 </g>
</svg>
