<svg xmlns:rdf="http://www.w3.org/1999/02/22-rdf-syntax-ns#" xmlns="http://www.w3.org/2000/svg" height="313.9" width="607.7" version="1.1" xmlns:cc="http://creativecommons.org/ns#" xmlns:dc="http://purl.org/dc/elements/1.1/" viewBox="0 0 607.74367 313.91832">
 <g>
  <rect style="color-rendering:auto;color:#000000;isolation:auto;mix-blend-mode:normal;shape-rendering:auto;solid-color:#000000;image-rendering:auto" height="5.965" width="70" y="294.1" x="378.2" fill="#808080"/>
  <rect style="color-rendering:auto;color:#000000;isolation:auto;mix-blend-mode:normal;shape-rendering:auto;solid-color:#000000;image-rendering:auto" ry="3.769" height="7.537" width="70" y="295.3" x="378.2" fill="#808080"/>
  <rect style="color-rendering:auto;color:#000000;isolation:auto;mix-blend-mode:normal;shape-rendering:auto;solid-color:#000000;image-rendering:auto" ry="3.769" height="7.537" width="70" y="289.3" x="378.2" fill="#fff"/>
  <rect style="color-rendering:auto;color:#000000;isolation:auto;mix-blend-mode:normal;shape-rendering:auto;solid-color:#000000;image-rendering:auto" ry="1.67" height="3.34" width="60.83" y="291.3" x="382.2" fill="#4d4d4d"/>
  <path d="m431 293-8.342-156.2 43.8-29.75-14.6-5.312-30.24 19.12-8.342-10.62 12.51-32.93-9.385 1.062-11.47 21.25-14.6-30.81-10.43 8.499 23.98 47.8-33.37-20.18-11.47-1.062 41.71 37.18-7.3 151.9z" fill-rule="evenodd" fill="#947b68"/>
  <path style="color-rendering:auto;color:#000000;isolation:auto;mix-blend-mode:normal;shape-rendering:auto;solid-color:#000000;image-rendering:auto" d="m362.4 1.876a49.97 43.68 0 0 1 39.86 17.43 51.18 38.34 0 0 1 32.39 -8.69 51.18 38.34 0 0 1 51.18 38.34 51.18 38.34 0 0 1 -1.977 10.51 49.97 42.71 0 0 1 28.47 38.51 49.97 42.71 0 0 1 -9.949 25.5 48.77 33.01 0 0 1 .3159 3.62 48.77 33.01 0 0 1 -48.77 33.01 48.77 33.01 0 0 1 -39.33 -13.55 45.16 32.03 0 0 1 -43.75 24.23 45.16 32.03 0 0 1 -45.16 -32.03 45.16 32.03 0 0 1 .7418 -5.717 37.33 33.01 0 0 1 -16.39 -27.29 37.33 33.01 0 0 1 18.25 -28.32 49.97 43.68 0 0 1 -15.84 -31.86 49.97 43.68 0 0 1 49.97 -43.68z" fill="#86ab6b"/>
  <rect style="color-rendering:auto;color:#000000;isolation:auto;mix-blend-mode:normal;shape-rendering:auto;solid-color:#000000;image-rendering:auto" height="5.965" width="70" y="305.1" x="71.55" fill="#808080"/>
  <rect style="color-rendering:auto;color:#000000;isolation:auto;mix-blend-mode:normal;shape-rendering:auto;solid-color:#000000;image-rendering:auto" ry="3.769" height="7.537" width="70" y="306.4" x="71.55" fill="#808080"/>
  <rect style="color-rendering:auto;color:#000000;isolation:auto;mix-blend-mode:normal;shape-rendering:auto;solid-color:#000000;image-rendering:auto" ry="3.769" height="7.537" width="70" y="300.4" x="71.55" fill="#fff"/>
  <rect style="color-rendering:auto;color:#000000;isolation:auto;mix-blend-mode:normal;shape-rendering:auto;solid-color:#000000;image-rendering:auto" ry="1.67" height="3.34" width="60.83" y="302.4" x="75.53" fill="#4d4d4d"/>
  <path style="color-rendering:auto;color:#000000;isolation:auto;mix-blend-mode:normal;shape-rendering:auto;solid-color:#000000;image-rendering:auto" d="m159.3.00004295a53.12 45.58 0 0 0 -42.3 18.18 54.4 40.01 0 0 0 -34.45 -9.066 54.4 40.01 0 0 0 -54.39 40.01 54.4 40.01 0 0 0 2.1 10.97 53.12 44.56 0 0 0 -30.26 40.21 53.12 44.56 0 0 0 10.57 26.6 51.84 34.44 0 0 0 -.3358 3.776 51.84 34.44 0 0 0 51.84 34.44 51.84 34.44 0 0 0 41.81 -14.14 48 33.42 0 0 0 46.5 25.28 48 33.42 0 0 0 48 -33.42 48 33.42 0 0 0 -.7884 -5.964 39.68 34.44 0 0 0 17.43 -28.47 39.68 34.44 0 0 0 -19.4 -29.58 53.12 45.58 0 0 0 16.9 -33.24 53.12 45.58 0 0 0 -53.2 -45.58z" fill="#c39734"/>
  <path d="m86.45 303.7 8.867-162.9-46.55-31.03 15.52-5.542 32.14 19.95 8.867-11.08-13.3-34.36 9.975 1.108 12.19 22.17 15.52-32.14 11.08 8.867-25.49 49.88 35.47-21.06 12.19-1.108-44.33 38.79 7.758 158.5z" fill-rule="evenodd" fill="#947b68"/>
 </g>
</svg>
