<svg height="1495.4" width="2350" viewBox="0 0 2350 1495.4045">
    <g color="#000">
        <rect id="sky" ry="0" height="1489.4" width="2350" fill="#afdde9"/>
        <g id="sun">
            <path d="M406.46-386.01h-93.648l23.412-40.55 23.412-40.55 23.412 40.55z" transform="scale(1 -1) rotate(-43.035 1273.433 -2156.485)" fill="#d89800"/>
            <path d="M406.46 261.61h-93.648l23.412-40.55 23.412-40.55 23.412 40.55z" transform="rotate(43.035 1273.435 2156.482)" fill="#d89800"/>
            <path d="M406.46-386.01h-93.648l23.412-40.55 23.412-40.55 23.412 40.55z" transform="scale(-1 1) rotate(46.049 -1356.336 -2670.656)" fill="#d89800"/>
            <path d="M406.46 261.61h-93.648l23.412-40.55 23.412-40.55 23.412 40.55z" transform="scale(-1) rotate(-46.049 -1356.336 2670.656)" fill="#d89800"/>
            <path d="M1903.9-251.56h-93.648l23.412-40.55 23.412-40.55 23.412 40.55z" transform="scale(1 -1)" fill="#ffb300"/>
            <path d="M1903.9 127.16h-93.648l23.412-40.55 23.412-40.55 23.412 40.55z" fill="#ffb300"/>
            <path d="M406.46-386.01h-93.648l23.412-40.55 23.412-40.55 23.412 40.55z" transform="scale(-1 1) rotate(89.084 -1009.635 -1192.664)" fill="#ffb300"/>
            <path d="M406.46 261.61h-93.648l23.412-40.55 23.412-40.55 23.412 40.55z" transform="rotate(90.916 1173.746 993.617)" fill="#ffb300"/>
            <circle fill-opacity=".997" cy="189.34" cx="1857.5" r="80" fill="#fc0"/>
        </g>
        <g fill="#fff">
            <ellipse rx="80.168" ry="65.711" cy="724.7" cx="400.97"/>
            <ellipse rx="69.654" ry="60.454" cy="777.27" cx="482.45"/>
            <ellipse rx="61.769" ry="52.569" cy="722.07" cx="495.6"/>
            <ellipse rx="88.053" ry="52.569" cy="806.18" cx="374.69"/>
            <ellipse rx="61.769" ry="57.826" cy="748.36" cx="311.6"/>
        </g>
        <g fill="#fff">
            <ellipse rx="80.168" ry="65.711" cy="235.11" cx="330.96"/>
            <ellipse rx="69.654" ry="60.454" cy="287.68" cx="412.44"/>
            <ellipse rx="61.769" ry="52.569" cy="232.48" cx="425.58"/>
            <ellipse rx="88.053" ry="52.569" cy="316.59" cx="304.67"/>
            <ellipse rx="61.769" ry="57.826" cy="258.76" cx="241.59"/>
        </g>
        <g fill="#fff">
            <ellipse rx="80.168" ry="65.711" cy="685.4" cx="1047.4"/>
            <ellipse rx="69.654" ry="60.454" cy="737.97" cx="1128.9"/>
            <ellipse rx="61.769" ry="52.569" cy="682.78" cx="1142"/>
            <ellipse rx="88.053" ry="52.569" cy="766.89" cx="1021.1"/>
            <ellipse rx="61.769" ry="57.826" cy="709.06" cx="958.04"/>
        </g>
        <g fill="#fff">
            <ellipse rx="80.168" ry="65.711" cy="450.6" cx="1602"/>
            <ellipse rx="69.654" ry="60.454" cy="503.16" cx="1683.5"/>
            <ellipse rx="61.769" ry="52.569" cy="447.97" cx="1696.7"/>
            <ellipse rx="88.053" ry="52.569" cy="532.08" cx="1575.8"/>
            <ellipse rx="61.769" ry="57.826" cy="474.25" cx="1512.7"/>
        </g>
        <g fill="#fff">
            <ellipse rx="132.83" ry="105.58" cy="656.68" cx="1935"/>
            <ellipse rx="115.41" ry="97.136" cy="741.15" cx="2070"/>
            <ellipse rx="102.34" ry="84.466" cy="652.46" cx="2091.8"/>
            <ellipse rx="145.89" ry="84.466" cy="787.61" cx="1891.4"/>
            <ellipse rx="102.34" ry="92.913" cy="694.69" cx="1786.9"/>
        </g>
        <g id="ground">
            <ellipse rx="487.89" ry="153.76" cy="1220.2" cx="679.76" fill="#8cae00"/>
            <path d="M0 1331.7a449.8 153.76 0 0 0 124.68 6.2 449.8 153.76 0 0 0 449.79-153.8 449.8 153.76 0 0 0-449.79-153.7A449.8 153.76 0 0 0 0 1036.5v295.28z" fill="#99be00"/>
            <ellipse rx="449.8" ry="153.76" cy="1254.3" cx="608.48" fill="#99be00"/>
            <ellipse rx="365" ry="153.76" cy="1222.4" cx="1848.3" fill="#8cae00"/>
            <ellipse rx="365" ry="153.76" cy="1243.4" cx="1403.4" fill="#99be00"/>
            <ellipse rx="383.43" ry="153.76" cy="1310.8" cx="951.35" fill="#aad400"/>
            <ellipse rx="383.43" ry="153.76" cy="1325.3" cx="1560.9" fill="#aad400"/>
            <ellipse rx="342.88" ry="168.22" cy="1309.5" cx="532.28" fill="#aad400"/>
            <ellipse rx="383.43" ry="153.76" cy="1285.9" cx="1966.5" fill="#aad400"/>
            <path d="M2047.7 1181.9a591.23 219.42 0 0 0-591.23 219.42 591.23 219.42 0 0 0 57.957 94.115h835.53v-282.4a591.23 219.42 0 0 0-302.25-31.139zM457.15 1271.8A591.23 219.42 0 0 0 0 1352.2v143.15h1048a591.23 219.42 0 0 0 .402-4.219 591.23 219.42 0 0 0-591.23-219.42z" fill="#aad400"/>
            <path d="M1322.3 1334.4a591.23 219.42 0 0 0-569.25 161.01h1139.1a591.23 219.42 0 0 0-569.86-161.01zM226.54 1114.2a219.35 398.66 88.334 0 0-28.19.022A219.35 398.66 88.334 0 0 0 1147.622v347.77h456.65a219.35 398.66 88.334 0 0 140.25-169.9 219.35 398.66 88.334 0 0-370.36-211.3z" fill="#aad400"/>
        </g>
    </g>
</svg>
