<svg height="368.93" width="582.17" viewBox="0 0 582.17456 368.92725">
    <title>
        gallery-title
    </title>
    <g stroke="#000">
        <path d="M285.35.5c-13.65 0-24.714 11.104-24.714 24.801.01 8.436 8.916 15.458 10.397 23.761l.97 5.432c.568 3.185.657 5.84 3.882 5.84h18.929c3.224 0 3.31-2.656 3.881-5.84l.97-5.403c1.49-8.312 10.397-15.345 10.396-23.79 0-13.698-11.064-24.802-24.713-24.802z" fill="#fff" color="#000"/>
        <g fill="none">
            <path d="M284.34 34.348l-9.458 5.654M280.72 41.618l-.202.202 5.232-6.058-.201 6.866M286.12 34.348l9.457 5.654"/>
            <path d="M289.74 41.618l.2.202-5.231-6.058.201 6.866M284.5 23.778l-9.458-5.654M279.91 16.508l-.202-.202 5.232 6.058-.201-6.866M286.28 23.778l9.457-5.654M290.87 16.508l.2-.202-5.231 6.058.201-6.866"/>
        </g>
        <g color="#000" transform="translate(9.49)">
            <g fill="#fff">
                <rect rx="2.427" ry="2.427" height="25.848" width="3.22" y="21.19" x="274.25"/>
                <rect rx="2.427" ry="2.427" height="15.347" width="10.263" y="45.423" x="270.72"/>
                <rect rx="2.427" ry="2.427" height="3.776" width="9.298" y="72.193" x="271.21"/>
            </g>
            <rect rx="2.363" ry="2.363" height="3.677" width="13.823" y="70.297" x="268.94"/>
            <rect rx="2.313" ry="2.313" height="3.599" width="22.676" y="60.42" x="264.52" fill="#6c5d53"/>
            <rect rx="2.313" ry="2.313" height="3.599" width="22.676" y="64.106" x="264.52" fill="#ac9d93"/>
            <rect rx="2.313" ry="2.313" height="3.599" width="22.676" y="67.745" x="264.52" fill="#c8beb7"/>
            <g fill="#fff">
                <ellipse rx=".925" ry=".928" cy="18.492" cx="265.47"/>
                <ellipse rx=".925" ry=".928" cy="15.915" cx="269.78"/>
                <ellipse rx=".925" ry=".928" cy="15.296" cx="275.02"/>
                <ellipse rx=".925" ry=".928" cy="15.296" cx="276.96"/>
                <ellipse rx=".925" ry=".928" cy="15.811" cx="282.21"/>
                <ellipse rx=".925" ry=".928" cy="17.873" cx="286.73"/>
                <ellipse rx=".925" ry=".928" cy="40.14" cx="286.42"/>
                <ellipse rx=".925" ry=".928" cy="42.202" cx="280.77"/>
                <ellipse rx=".925" ry=".928" cy="42.511" cx="270.6"/>
                <ellipse rx=".925" ry=".928" cy="39.728" cx="264.95"/>
            </g>
        </g>
        <path fill="#c8beb7" d="M37.79 331.94l506.03.044 36.447 36.447H1.237c12.377-11.96 24.05-24.66 36.551-36.49z" fill-rule="evenodd"/>
        <g color="#000" transform="translate(9.49)">
            <path d="M256.15 283.21h36.397c-17.693 27.339 0 55.397 0 55.397H256.15s18.704-28.058 0-55.397z" fill="#c8beb7"/>
            <ellipse rx="20.12" ry="13.12" cy="312.41" cx="275.34" fill="purple"/>
            <rect ry="12.042" transform="scale(1 -1)" height="24.084" width="86.084" y="-287.45" x="232.3" fill="#fc0"/>
            <rect ry="12" transform="scale(1 -1)" height="24" width="103" y="-273.41" x="223.34" fill="#d4aa00"/>
            <rect ry="12.042" height="24.084" width="43.562" y="74.364" x="254.71" fill="#d38d5f"/>
            <rect ry="12.848" height="25.696" width="52.122" y="86.71" x="250.17" fill="#c83737"/>
        </g>
        <g color="#000" transform="translate(9.49)">
            <rect ry="12" height="167" width="522.87" y="94.406" x="26.205" fill="#fff"/>
            <rect fill-opacity=".997" ry="12" height="145" width="502.44" y="105.4" x="36.42" fill="#fc0"/>
        </g>
    </g>
    <text font-size="45" stroke="#000" y="163.406" x="283.968" font-family="'Futura Md BT'" fill="#806600" word-spacing="0" letter-spacing="0" transform="translate(9.49)">
        <tspan y="163.406" x="290.78" style="text-align:center" text-anchor="middle">The Curious Gallery </tspan><tspan y="219.656" x="283.968" style="text-align:center" text-anchor="middle">of Christopher Dennett</tspan>
    </text>
    <g stroke="#000" transform="translate(9.49)" color="#000">
        <path d="M22.185 69.032a20 20 0 0 0-20 20 20 20 0 0 0 20 20 20 20 0 0 0 20-20 20 20 0 0 0-20-20zm0 11.023a8.976 8.976 0 0 1 8.975 8.977 8.976 8.976 0 0 1-8.975 8.976 8.976 8.976 0 0 1-8.977-8.976 8.976 8.976 0 0 1 8.977-8.977z" fill="#f60"/>
        <circle cy="75.229" cx="6.085" r="5.585" fill="#fff"/>
        <path d="M22.185 285.61a20 20 0 0 1-20-20 20 20 0 0 1 20-20 20 20 0 0 1 20 20 20 20 0 0 1-20 20zm0-11.023a8.976 8.976 0 0 0 8.975-8.977 8.976 8.976 0 0 0-8.975-8.976 8.976 8.976 0 0 0-8.977 8.976 8.976 8.976 0 0 0 8.977 8.977z" fill="olive"/>
        <circle cx="6.085" transform="scale(1 -1)" cy="-279.41" r="5.585" fill="#fff"/>
        <path d="M550.5 69.032a20 20 0 0 1 20 20 20 20 0 0 1-20 20 20 20 0 0 1-20-20 20 20 0 0 1 20-20zm0 11.023a8.976 8.976 0 0 0-8.975 8.977 8.976 8.976 0 0 0 8.975 8.976 8.976 8.976 0 0 0 8.977-8.976 8.976 8.976 0 0 0-8.98-8.976z" fill="#784421"/>
        <circle cx="-566.6" transform="scale(-1 1)" cy="75.229" r="5.585" fill="#fff"/>
        <path d="M550.5 285.61a20 20 0 0 0 20-20 20 20 0 0 0-20-20 20 20 0 0 0-20 20 20 20 0 0 0 20 20zm0-11.023a8.976 8.976 0 0 1-8.975-8.977 8.976 8.976 0 0 1 8.975-8.976 8.976 8.976 0 0 1 8.977 8.976 8.976 8.976 0 0 1-8.977 8.977z" fill="#d35f5f"/>
        <circle cx="-566.6" transform="scale(-1)" cy="-279.41" r="5.585" fill="#fff"/>
    </g>
</svg>
